<?xml version="1.0" encoding="UTF-8"?>
<svg xmlns="http://www.w3.org/2000/svg" width="39" height="39" viewBox="0 0 39 39" fill="none">
  <g clip-path="url(#clip0_354_212)">
    <path d="M38.9988 19.5025C38.9982 19.8963 38.8371 20.2843 38.5718 20.5588C38.1966 20.947 29.3604 29.9736 19.7987 30.1597C19.587 30.1655 19.4133 30.1655 19.2011 30.1597C9.63954 29.9737 0.80322 20.947 0.427998 20.5588C0.174041 20.2961 0.000368786 19.9149 0.000978161 19.4974C0.00181605 19.1002 0.164748 18.7135 0.427998 18.4412C0.80322 18.053 9.63946 9.02639 19.2011 8.8403C19.4126 8.83443 19.587 8.83443 19.7987 8.8403C29.3603 9.02639 38.1966 18.0531 38.5718 18.4412C38.8368 18.7152 38.9995 19.0971 38.9988 19.5025ZM19.4999 11.8828C15.3006 11.8828 11.8827 15.2996 11.8827 19.5C11.8827 23.6998 15.2999 27.1172 19.4999 27.1172C23.6992 27.1172 27.1171 23.7004 27.1171 19.5C27.1171 15.3003 23.7 11.8828 19.4999 11.8828ZM9.84048 14.9846C7.16883 16.5638 4.98239 18.3808 3.73911 19.5C4.98239 20.6192 7.16883 22.4362 9.84048 24.0154C9.1966 22.6434 8.83585 21.1132 8.83585 19.5C8.83585 17.8869 9.1966 16.3566 9.84048 14.9846ZM29.1593 24.0154C31.8312 22.4361 34.0177 20.619 35.2608 19.5C34.0175 18.3808 31.8311 16.5638 29.1593 14.9846C29.8032 16.3566 30.164 17.8869 30.164 19.5C30.164 21.1132 29.8032 22.6434 29.1593 24.0154Z" fill="white"></path>
    <path d="M19.5 24.0703C16.9799 24.0703 14.9297 22.0201 14.9297 19.5C14.9297 16.9799 16.9799 14.9297 19.5 14.9297C22.0201 14.9297 24.0703 16.9799 24.0703 19.5C24.0703 22.0201 22.0201 24.0703 19.5 24.0703ZM19.5 17.9766C18.66 17.9766 17.9766 18.66 17.9766 19.5C17.9766 20.34 18.66 21.0234 19.5 21.0234C20.34 21.0234 21.0234 20.34 21.0234 19.5C21.0234 18.66 20.34 17.9766 19.5 17.9766Z" fill="white"></path>
    <path d="M19.5 32.9062C20.3414 32.9062 21.0234 33.5883 21.0234 34.4297V37.4766C21.0234 38.318 20.3414 39 19.5 39C18.6586 39 17.9766 38.318 17.9766 37.4766V34.4297C17.9766 33.5883 18.6586 32.9062 19.5 32.9062Z" fill="white"></path>
    <path d="M19.5 6.09375C18.6586 6.09375 17.9766 5.41171 17.9766 4.57031V1.52344C17.9766 0.682043 18.6586 0 19.5 0C20.3414 0 21.0234 0.682043 21.0234 1.52344V4.57031C21.0234 5.41171 20.3414 6.09375 19.5 6.09375Z" fill="white"></path>
    <path d="M31.3497 29.1951L33.5041 31.3495C34.0991 31.9444 34.0991 32.9091 33.5041 33.504C32.9092 34.0989 31.9446 34.099 31.3497 33.504L29.1953 31.3495C28.6003 30.7546 28.6003 29.79 29.1953 29.1951C29.7902 28.6002 30.7547 28.6002 31.3497 29.1951Z" fill="white"></path>
    <path d="M7.65048 9.80492L5.49604 7.65048C4.90106 7.05557 4.90106 6.09093 5.49604 5.49603C6.09094 4.90113 7.05551 4.90105 7.65048 5.49603L9.80493 7.65048C10.3999 8.24538 10.3999 9.21002 9.80493 9.80492C9.20995 10.3998 8.24539 10.3998 7.65048 9.80492Z" fill="white"></path>
    <path d="M7.65046 29.1951C8.24536 28.6002 9.20992 28.6001 9.8049 29.1951C10.3999 29.7901 10.3999 30.7546 9.8049 31.3495L7.65046 33.504C7.05548 34.0989 6.09091 34.0989 5.49601 33.504C4.90111 32.909 4.90103 31.9444 5.49601 31.3495L7.65046 29.1951Z" fill="white"></path>
    <path d="M31.3497 9.80486C30.7547 10.3998 29.7901 10.3998 29.1952 9.80486C28.6003 9.20989 28.6003 8.24532 29.1952 7.65042L31.3497 5.49597C31.9446 4.90107 32.9091 4.901 33.5041 5.49597C34.0991 6.09095 34.0991 7.05552 33.5041 7.65042L31.3497 9.80486Z" fill="white"></path>
  </g>
  <defs>
    <clipPath id="clip0_354_212">
      <rect width="39" height="39" fill="white" transform="matrix(1 0 0 -1 0 39)"></rect>
    </clipPath>
  </defs>
</svg>
