<?xml version="1.0" encoding="UTF-8"?>
<svg xmlns="http://www.w3.org/2000/svg" width="48" height="48" viewBox="0 0 48 48" fill="none">
  <path d="M35.6303 25.2C35.3548 27.8711 34.1712 30.3668 32.2772 32.2704C30.3832 34.174 27.8936 35.3701 25.2239 35.6592C25.1701 35.6586 25.1168 35.6687 25.067 35.689C25.0172 35.7092 24.972 35.7393 24.934 35.7773C24.896 35.8153 24.8659 35.8605 24.8456 35.9103C24.8254 35.9601 24.8153 36.0135 24.8159 36.0672V44.7984C24.8159 45.0148 24.7299 45.2224 24.5769 45.3754C24.4239 45.5284 24.2163 45.6144 23.9999 45.6144C23.7835 45.6144 23.5759 45.5284 23.4229 45.3754C23.2699 45.2224 23.1839 45.0148 23.1839 44.7984V41.6304C23.1761 41.5248 23.1306 41.4255 23.0558 41.3506C22.9809 41.2757 22.8815 41.2302 22.7759 41.2224C19.1467 40.9287 15.7042 39.4911 12.944 37.1165C10.1839 34.7418 8.24827 31.5527 7.4159 28.008C7.38492 27.903 7.37539 27.7928 7.38788 27.684C7.40037 27.5752 7.43463 27.4701 7.48861 27.3748C7.54259 27.2796 7.6152 27.1961 7.7021 27.1295C7.789 27.0629 7.88842 27.0145 7.99443 26.9871C8.10045 26.9597 8.21089 26.9539 8.31919 26.9701C8.42748 26.9863 8.53141 27.0241 8.62478 27.0813C8.71816 27.1385 8.79906 27.2139 8.86268 27.303C8.9263 27.3921 8.97134 27.4931 8.9951 27.6C9.7351 30.7818 11.4606 33.6487 13.9256 35.7923C16.3907 37.9358 19.4694 39.2465 22.7231 39.5376C22.8287 39.5904 22.9295 39.5376 23.0303 39.4368C23.0836 39.4067 23.1267 39.3614 23.154 39.3067C23.1814 39.252 23.1918 39.1903 23.1839 39.1296V36.0672C23.1845 36.0135 23.1744 35.9601 23.1542 35.9103C23.1339 35.8605 23.1039 35.8153 23.0658 35.7773C23.0278 35.7393 22.9826 35.7092 22.9328 35.689C22.883 35.6687 22.8297 35.6586 22.7759 35.6592C20.119 35.3632 17.6396 34.1794 15.7391 32.2992C13.839 30.3895 12.6527 27.8849 12.3791 25.2048C12.3635 25.1067 12.3143 25.0172 12.2398 24.9515C12.1654 24.8858 12.0704 24.8481 11.9711 24.8448H3.2399C3.01712 24.8448 2.80346 24.7563 2.64593 24.5988C2.4884 24.4413 2.3999 24.2276 2.3999 24.0048C2.3999 23.782 2.4884 23.5684 2.64593 23.4109C2.80346 23.2533 3.01712 23.1648 3.2399 23.1648H6.5567C6.65568 23.1607 6.75022 23.1227 6.8245 23.0571C6.89878 22.9916 6.94828 22.9025 6.9647 22.8048C7.18251 19.181 8.52895 15.7162 10.8152 12.8962C13.1015 10.0762 16.213 8.04244 19.7135 7.08002C19.9255 7.03978 20.1448 7.08218 20.3265 7.19852C20.5083 7.31485 20.6386 7.49631 20.6908 7.70567C20.7429 7.91503 20.7131 8.13643 20.6072 8.32444C20.5014 8.51246 20.3276 8.65285 20.1215 8.71682C16.9898 9.5613 14.2 11.3627 12.1416 13.8694C10.0832 16.3761 8.859 19.4631 8.6399 22.6992C8.62637 22.7588 8.62691 22.8208 8.64147 22.8802C8.65604 22.9395 8.68424 22.9947 8.72384 23.0413C8.76343 23.0879 8.81333 23.1246 8.86958 23.1485C8.92583 23.1725 8.98688 23.183 9.0479 23.1792H11.9519C12.0512 23.176 12.1462 23.1383 12.2206 23.0726C12.2951 23.0069 12.3443 22.9173 12.3599 22.8192C12.6317 20.1432 13.8148 17.6419 15.7111 15.7343C17.6074 13.8267 20.1016 12.6286 22.7759 12.3408C22.8297 12.3415 22.883 12.3314 22.9328 12.3111C22.9826 12.2908 23.0278 12.2608 23.0658 12.2228C23.1039 12.1847 23.1339 12.1395 23.1542 12.0897C23.1744 12.0399 23.1845 11.9866 23.1839 11.9328V3.20162C23.1839 2.9852 23.2699 2.77765 23.4229 2.62462C23.5759 2.47159 23.7835 2.38562 23.9999 2.38562C24.2163 2.38562 24.4239 2.47159 24.5769 2.62462C24.7299 2.77765 24.8159 2.9852 24.8159 3.20162V13.104C24.8214 13.2196 24.8027 13.335 24.7609 13.4429C24.7192 13.5508 24.6554 13.6487 24.5736 13.7305C24.4918 13.8123 24.3938 13.8761 24.286 13.9179C24.1781 13.9596 24.0626 13.9783 23.9471 13.9728C15.0719 13.9728 10.6367 24.84 16.9103 31.1184C23.1839 37.3968 33.8927 32.904 34.0463 24C34.045 23.8925 34.0652 23.7858 34.1058 23.6862C34.1463 23.5866 34.2064 23.4962 34.2824 23.4201C34.3585 23.3441 34.4489 23.2841 34.5485 23.2435C34.6481 23.203 34.7548 23.1827 34.8623 23.184H44.7599C44.9827 23.184 45.1963 23.2725 45.3539 23.43C45.5114 23.5876 45.5999 23.8012 45.5999 24.024C45.5999 24.2468 45.5114 24.4605 45.3539 24.618C45.1963 24.7755 44.9827 24.864 44.7599 24.864H41.4959C41.3946 24.8599 41.2957 24.8951 41.2197 24.9622C41.1437 25.0292 41.0965 25.123 41.0879 25.224C40.823 28.8704 39.4128 32.34 37.0587 35.1372C34.7045 37.9344 31.5267 39.9164 27.9791 40.8C26.9087 41.0544 26.5391 39.4224 27.6191 39.168C30.7873 38.3803 33.6286 36.6185 35.7426 34.1307C37.8566 31.6429 39.1369 28.5546 39.4031 25.3008C39.4166 25.2412 39.4161 25.1793 39.4015 25.1199C39.387 25.0605 39.3588 25.0053 39.3192 24.9588C39.2796 24.9122 39.2297 24.8755 39.1734 24.8515C39.1172 24.8276 39.0561 24.8171 38.9951 24.8208H36.0383C35.9391 24.8241 35.844 24.8618 35.7696 24.9275C35.6951 24.9932 35.6459 25.0827 35.6303 25.1808V25.2ZM42.2399 11.6256L36.3407 17.4912C36.1966 17.6477 35.9964 17.7408 35.7839 17.7504H31.8527C31.7454 17.7598 31.6418 17.7944 31.5503 17.8512L24.5615 24.8928C24.4044 25.0396 24.1964 25.1198 23.9813 25.1163C23.7663 25.1129 23.561 25.0262 23.4086 24.8744C23.2562 24.7227 23.1687 24.5177 23.1644 24.3027C23.16 24.0877 23.2393 23.8794 23.3855 23.7216L30.3743 16.6752C30.4213 16.6517 30.4607 16.6153 30.4879 16.5702C30.5151 16.5252 30.5289 16.4734 30.5279 16.4208V12.48C30.5269 12.3665 30.5489 12.2539 30.5927 12.1492C30.6364 12.0444 30.7009 11.9496 30.7823 11.8704L36.6479 6.00962C36.7612 5.88717 36.9087 5.80167 37.0712 5.76425C37.2338 5.72683 37.4038 5.73924 37.5592 5.79984C37.7146 5.86045 37.8482 5.96645 37.9425 6.10404C38.0368 6.24162 38.0874 6.40442 38.0879 6.57122V9.78722C38.0947 9.8932 38.1399 9.99308 38.2149 10.0682C38.29 10.1433 38.3899 10.1884 38.4959 10.1952H41.6591C41.8278 10.1908 41.994 10.2373 42.1359 10.3287C42.2778 10.42 42.3889 10.552 42.4547 10.7075C42.5205 10.8629 42.5379 11.0345 42.5047 11.2C42.4716 11.3655 42.3893 11.5172 42.2687 11.6352L42.2399 11.6256ZM35.5199 15.9456L38.9375 12.528C38.9969 12.4732 39.0388 12.4021 39.0582 12.3236C39.0775 12.2451 39.0734 12.1626 39.0463 12.0865C39.0192 12.0103 38.9703 11.9438 38.9058 11.8951C38.8412 11.8465 38.7638 11.8179 38.6831 11.8128H37.2431C37.0202 11.818 36.8041 11.7354 36.6416 11.5827C36.4791 11.4301 36.3831 11.2196 36.3743 10.9968V9.60002C36.3739 9.51735 36.3493 9.43662 36.3034 9.36783C36.2576 9.29904 36.1925 9.24521 36.1164 9.21301C36.0403 9.18082 35.9564 9.17168 35.8751 9.18671C35.7938 9.20175 35.7187 9.24032 35.6591 9.29762L32.2991 12.7152C32.2094 12.7934 32.1542 12.9038 32.1455 13.0224V15.6768C32.1449 15.7306 32.155 15.7839 32.1752 15.8337C32.1955 15.8835 32.2256 15.9287 32.2636 15.9668C32.3016 16.0048 32.3468 16.0348 32.3966 16.0551C32.4464 16.0753 32.4997 16.0855 32.5535 16.0848H35.2559C35.3615 16.0848 35.4623 16.0848 35.5103 15.9792L35.5199 15.9456ZM30.9311 24.0096C30.933 25.382 30.5277 26.7242 29.7665 27.8662C29.0053 29.0082 27.9224 29.8986 26.6549 30.4249C25.3874 30.9512 23.9923 31.0897 22.6461 30.8228C21.2999 30.5558 20.0631 29.8955 19.0923 28.9254C18.1215 27.9553 17.4604 26.719 17.1925 25.373C16.9246 24.0269 17.0621 22.6317 17.5875 21.3638C18.113 20.096 19.0027 19.0125 20.1442 18.2505C21.2856 17.4885 22.6275 17.0823 23.9999 17.0832C24.2061 17.099 24.3988 17.1921 24.5393 17.3438C24.6799 17.4956 24.758 17.6948 24.758 17.9016C24.758 18.1084 24.6799 18.3077 24.5393 18.4594C24.3988 18.6111 24.2061 18.7042 23.9999 18.72C22.5996 18.72 21.2566 19.2763 20.2664 20.2665C19.2762 21.2567 18.7199 22.5997 18.7199 24C18.7199 25.4004 19.2762 26.7434 20.2664 27.7335C21.2566 28.7237 22.5996 29.28 23.9999 29.28C27.0623 29.28 29.1023 26.9856 29.2511 24C29.2463 23.8842 29.2654 23.7687 29.3072 23.6605C29.349 23.5524 29.4126 23.4541 29.494 23.3716C29.5754 23.2891 29.673 23.2243 29.7805 23.1811C29.8881 23.1379 30.0034 23.1173 30.1192 23.1207C30.2351 23.124 30.349 23.1511 30.454 23.2003C30.5589 23.2495 30.6526 23.3198 30.7292 23.4068C30.8058 23.4938 30.8637 23.5956 30.8992 23.7059C30.9348 23.8162 30.9473 23.9327 30.9359 24.048L30.9311 24.0096Z" fill="white"></path>
</svg>
