<?xml version="1.0" encoding="UTF-8"?>
<svg xmlns="http://www.w3.org/2000/svg" width="43" height="43" viewBox="0 0 43 43" fill="none">
  <path d="M41.3044 0H35.7038C35.5181 0 35.34 0.0739641 35.2088 0.205621C35.0775 0.337278 35.0037 0.515843 35.0037 0.702034V1.67084L34.1006 1.22154C33.4198 0.881687 32.6699 0.70391 31.9094 0.702034H21.4293C20.5686 0.700162 19.7229 0.927921 18.979 1.36195L7.21777 8.17168C6.57441 8.54406 6.10493 9.15748 5.91259 9.87698C5.72025 10.5965 5.82081 11.3631 6.19216 12.0083C6.5635 12.6534 7.1752 13.1243 7.8927 13.3171C8.6102 13.51 9.37471 13.4092 10.0181 13.0368L16.8438 9.08432C16.9972 9.31188 17.181 9.51737 17.3898 9.6951C15.0753 10.4353 13.042 11.8678 11.5629 13.8004C10.0837 15.7329 9.22954 18.073 9.11497 20.5064C9.10797 20.689 9.10096 20.8785 9.10096 21.061C9.10646 23.9571 10.1585 26.753 12.0623 28.9308C11.5959 28.911 11.1291 28.9583 10.6761 29.0712L7.00074 29.9909V28.7834C7.00074 28.5972 6.92698 28.4187 6.79569 28.287C6.66441 28.1553 6.48634 28.0814 6.30067 28.0814H0.700074C0.514403 28.0814 0.336336 28.1553 0.205047 28.287C0.0737576 28.4187 0 28.5972 0 28.7834V41.42C0 41.6062 0.0737576 41.7848 0.205047 41.9164C0.336336 42.0481 0.514403 42.1221 0.700074 42.1221H6.30067C6.48634 42.1221 6.66441 42.0481 6.79569 41.9164C6.92698 41.7848 7.00074 41.6062 7.00074 41.42V40.4512L7.90384 40.9005C8.58469 41.2404 9.33454 41.4182 10.0951 41.42H20.5752C21.4358 41.4219 22.2815 41.1941 23.0254 40.7601L34.7867 33.9504C35.43 33.578 35.8995 32.9646 36.0919 32.2451C36.2842 31.5256 36.1836 30.7589 35.8123 30.1138C35.441 29.4686 34.8293 28.9978 34.1118 28.8049C33.3943 28.6121 32.6297 28.7129 31.9864 29.0853L25.1607 33.0377C25.0091 32.8108 24.8251 32.6073 24.6146 32.434C27.0245 31.6716 29.1285 30.157 30.6196 28.1111C32.1107 26.0652 32.9109 23.5951 32.9035 21.061C32.9062 20.6954 32.8899 20.3298 32.8545 19.9659C32.623 17.4534 31.6034 15.0792 29.9422 13.1842C30.0072 13.1924 30.0727 13.1971 30.1382 13.1982C30.5394 13.1981 30.9391 13.1486 31.3283 13.0508L35.0037 12.1312V13.3387C35.0037 13.5248 35.0775 13.7034 35.2088 13.8351C35.34 13.9667 35.5181 14.0407 35.7038 14.0407H41.3044C41.49 14.0407 41.6681 13.9667 41.7994 13.8351C41.9307 13.7034 42.0045 13.5248 42.0045 13.3387V0.702034C42.0045 0.515843 41.9307 0.337278 41.7994 0.205621C41.6681 0.0739641 41.49 0 41.3044 0ZM5.60059 40.718H1.40015V29.4854H5.60059V40.718ZM17.5089 11.1413L18.902 12.8823V13.444L15.2896 14.0477C15.1252 14.0744 14.9756 14.1591 14.8678 14.2865C14.76 14.4139 14.7011 14.5757 14.7016 14.7427V15.88L13.5114 15.4869C13.335 15.4293 13.1431 15.4443 12.9777 15.5285C12.8123 15.6128 12.687 15.7594 12.6293 15.9362L11.9363 18.0353C11.9007 18.1423 11.8917 18.2564 11.91 18.3677C11.9283 18.479 11.9733 18.5842 12.0413 18.6741L14.1415 21.4823C14.244 21.62 14.3935 21.715 14.5615 21.749L17.9709 22.43L19.9381 23.4199L18.3629 25.54C18.3081 25.6136 18.2677 25.697 18.2439 25.7857L17.5229 28.6079C17.4948 28.7208 17.4948 28.839 17.5229 28.9519L17.8729 30.363L16.9838 30.1243L16.7948 28.6921C16.7733 28.5393 16.7048 28.3969 16.5988 28.285L14.1555 25.8349L14.6245 24.8871C14.6782 24.7822 14.7045 24.6653 14.7008 24.5474C14.6971 24.4295 14.6637 24.3145 14.6035 24.2132L12.5033 20.703C12.4561 20.6229 12.3934 20.553 12.3188 20.4975C12.2443 20.4421 12.1594 20.4021 12.0693 20.3801L10.5641 20.001C10.7642 18.0156 11.5235 16.1284 12.7532 14.5596C13.9829 12.9908 15.6323 11.8052 17.5089 11.1413ZM10.5221 21.4401L11.4462 21.6718L13.2034 24.5993L12.6783 25.6594C12.6111 25.7911 12.587 25.9408 12.6097 26.087C12.6323 26.2333 12.7004 26.3686 12.8044 26.4737L15.4366 29.1134L15.5206 29.7312L14.7576 29.5276C13.4942 28.5822 12.458 27.3651 11.725 25.9656C10.9921 24.5661 10.5811 23.0198 10.5221 21.4401ZM25.5597 35.3334C25.6374 35.0239 25.6634 34.7037 25.6367 34.3856L32.6865 30.3068C33.0081 30.1278 33.3866 30.0811 33.742 30.1768C34.0973 30.2724 34.4016 30.5028 34.5907 30.8193C34.7766 31.1406 34.8279 31.5228 34.7335 31.882C34.639 32.2412 34.4064 32.5483 34.0866 32.7359L22.3254 39.5456C21.7935 39.8543 21.1897 40.0165 20.5752 40.016H10.0951C9.55047 40.0171 9.01326 39.8896 8.5269 39.6439L7.00074 38.8787V31.4371L11.0122 30.4332C11.5894 30.2868 12.1945 30.2917 12.7694 30.4472L23.2145 33.2554C23.4832 33.3253 23.725 33.4742 23.9088 33.6828C24.0926 33.8915 24.2101 34.1505 24.2462 34.4265C24.2823 34.7026 24.2353 34.9831 24.1114 35.2323C23.9875 35.4814 23.7921 35.6877 23.5505 35.8248C23.3927 35.9181 23.2178 35.9787 23.0362 36.0028C22.8546 36.0269 22.67 36.0141 22.4934 35.9652L14.1415 33.7187C13.9614 33.6703 13.7695 33.6956 13.608 33.7891C13.4465 33.8826 13.3287 34.0365 13.2804 34.2172C13.2321 34.3978 13.2574 34.5902 13.3506 34.7521C13.4438 34.9141 13.5974 35.0322 13.7775 35.0807L22.1293 37.3201C22.3668 37.3843 22.6115 37.4173 22.8574 37.4184C23.3472 37.4191 23.8283 37.2882 24.2506 37.0393C24.5705 36.8561 24.851 36.6109 25.0758 36.318C25.3005 36.0252 25.465 35.6905 25.5597 35.3334ZM22.1924 31.5213L19.4271 30.7772L18.923 28.7834L19.5671 26.2701L21.5623 23.5884C21.6233 23.5063 21.6657 23.4118 21.6865 23.3116C21.7073 23.2114 21.7059 23.1078 21.6826 23.0081C21.6593 22.9085 21.6145 22.8151 21.5513 22.7347C21.4882 22.6542 21.4083 22.5886 21.3173 22.5423L18.517 21.1383C18.461 21.111 18.4024 21.0899 18.3419 21.0751L15.1006 20.4222L13.3784 18.1265L13.7425 17.0384L15.1846 17.5158C15.2897 17.5501 15.4013 17.559 15.5105 17.5418C15.6196 17.5246 15.7232 17.4817 15.8126 17.4166C15.9021 17.3516 15.9749 17.2662 16.0251 17.1675C16.0754 17.0688 16.1016 16.9596 16.1017 16.8488V15.3395L19.7141 14.7357C19.8785 14.709 20.0281 14.6243 20.1359 14.4969C20.2437 14.3695 20.3026 14.2078 20.3022 14.0407V12.6366C20.3025 12.478 20.2481 12.3242 20.1481 12.2014L18.972 10.7271C19.252 10.6709 19.5321 10.6288 19.8051 10.5937L24.7826 11.9346L24.5796 12.3137C24.5107 12.4462 24.4857 12.5973 24.5084 12.7451C24.5311 12.8928 24.6002 13.0294 24.7056 13.1351L25.9027 14.3285V14.9393L24.2786 15.4799C24.1674 15.5184 24.0675 15.5842 23.988 15.6712C23.9086 15.7583 23.852 15.8638 23.8235 15.9783L23.1234 18.7864C23.0954 18.897 23.0954 19.0128 23.1234 19.1234L23.8235 21.9316C23.8469 22.0298 23.8917 22.1217 23.9547 22.2005C24.0176 22.2794 24.0971 22.3434 24.1876 22.3879L26.5398 23.5673L25.9097 27.9831C25.8897 28.1281 25.9154 28.2758 25.9832 28.4054C26.051 28.5351 26.1575 28.6402 26.2878 28.7062C26.3844 28.7588 26.4929 28.7854 26.6028 28.7834C26.7888 28.7839 26.9675 28.7108 27.0999 28.5798L29.2001 26.4737C29.286 26.3891 29.3466 26.2821 29.3751 26.1648L30.6913 21.5525L31.4963 21.1453C31.4875 23.7189 30.5341 26.1992 28.818 28.113C27.102 30.0268 24.7435 31.24 22.1924 31.5213ZM31.3913 19.6289L29.7882 20.4362C29.7017 20.4798 29.6252 20.541 29.5637 20.616C29.5022 20.6909 29.4571 20.778 29.4311 20.8715L28.08 25.6102L27.5899 26.0946L27.996 23.2654C28.016 23.1204 27.9903 22.9727 27.9225 22.8431C27.8548 22.7134 27.7483 22.6083 27.6179 22.5423L25.1047 21.2787L24.5236 18.9549L25.0907 16.6874L26.8268 16.1117C26.9651 16.0633 27.0851 15.9733 27.1703 15.8539C27.2555 15.7345 27.3018 15.5916 27.3029 15.4448V14.0407C27.3015 13.8546 27.2288 13.6761 27.0999 13.5422L26.0638 12.5032L26.1688 12.3067L27.2469 12.5945C28.3702 13.431 29.3154 14.4842 30.0272 15.6922C30.7389 16.9002 31.2027 18.2386 31.3913 19.6289ZM35.0037 10.685L30.9923 11.6889C30.415 11.8353 29.8099 11.8304 29.2351 11.6748L18.79 8.86669C18.5213 8.79672 18.2795 8.64787 18.0957 8.43921C17.9119 8.23056 17.7944 7.97161 17.7583 7.69556C17.7222 7.41951 17.7691 7.13894 17.893 6.88981C18.017 6.64068 18.2123 6.43434 18.454 6.29725C18.6117 6.20391 18.7867 6.14338 18.9683 6.11926C19.1499 6.09514 19.3345 6.10792 19.5111 6.15684L27.863 8.40335C28.0431 8.45176 28.235 8.42644 28.3964 8.33297C28.5579 8.23949 28.6758 8.08551 28.724 7.90491C28.7723 7.7243 28.7471 7.53186 28.6539 7.36992C28.5606 7.20799 28.4071 7.08981 28.227 7.0414L19.8751 4.80192C19.5208 4.70385 19.1505 4.67817 18.7861 4.72641C18.4217 4.77465 18.0707 4.89582 17.7539 5.08273C17.4339 5.266 17.1534 5.51117 16.9287 5.80402C16.7039 6.09687 16.5395 6.43156 16.4447 6.78867C16.3671 7.09816 16.3411 7.41841 16.3677 7.73642L9.31799 11.8152C8.99632 11.9943 8.61783 12.0409 8.2625 11.9453C7.90717 11.8497 7.60283 11.6193 7.41379 11.3028C7.22786 10.9814 7.17652 10.5993 7.27099 10.2401C7.36547 9.88083 7.59807 9.57379 7.91784 9.3862L19.6791 2.57647C20.211 2.2678 20.8147 2.10553 21.4293 2.1061H31.9094C32.454 2.10499 32.9912 2.23246 33.4775 2.47818L35.0037 3.2434V10.685ZM40.6043 12.6366H36.4039V1.40407H40.6043V12.6366Z" fill="white"></path>
</svg>
