<?xml version="1.0" encoding="utf-8"?>
<!-- Generator: Adobe Illustrator 24.3.0, SVG Export Plug-In . SVG Version: 6.00 Build 0)  -->
<svg version="1.1" id="Шар_1" xmlns="http://www.w3.org/2000/svg" xmlns:xlink="http://www.w3.org/1999/xlink" x="0px" y="0px"
	 viewBox="0 0 400 400" style="enable-background:new 0 0 400 400;" xml:space="preserve">
<style type="text/css">
	.st0{fill:#FFFFFF;}
</style>
<g>
	<path class="st0" d="M252.5,303.8c0-0.8-0.1-1.5-0.3-2c-0.2-0.5-0.6-1-1-1.3c-0.4-0.3-0.9-0.6-1.5-0.7c-0.6-0.1-1.2-0.2-1.9-0.2
		h-3.3v8.8h3.3c0.5,0,0.9,0,1.4-0.1c0.5-0.1,0.8-0.1,1.1-0.2c0.7-0.3,1.3-0.8,1.7-1.5C252.3,305.7,252.5,304.8,252.5,303.8z"/>
	<path class="st0" d="M104.3,303.8c0-0.8-0.1-1.5-0.3-2c-0.2-0.5-0.6-1-1-1.3c-0.4-0.3-0.9-0.6-1.5-0.7c-0.6-0.1-1.2-0.2-1.9-0.2
		h-3.3v8.8h3.3c0.5,0,0.9,0,1.4-0.1c0.5-0.1,0.8-0.1,1.1-0.2c0.7-0.3,1.3-0.8,1.7-1.5C104.1,305.7,104.3,304.8,104.3,303.8z"/>
	<path class="st0" d="M295.3,300.4c-0.1-0.4-0.1-0.8-0.2-1.3h0c0,0.4-0.1,0.8-0.2,1.2c-0.1,0.4-0.2,0.9-0.4,1.4l-2.9,10.7h6.6
		l-2.7-10.7C295.4,301.2,295.3,300.7,295.3,300.4z"/>
	<path class="st0" d="M124.7,300.4c-0.1-0.4-0.1-0.8-0.2-1.3h0c0,0.4-0.1,0.8-0.2,1.2c-0.1,0.4-0.2,0.9-0.4,1.4l-2.9,10.7h6.6
		l-2.7-10.7C124.8,301.2,124.7,300.7,124.7,300.4z"/>
	<path class="st0" d="M0,0v400h400V0H0z M247.9,91.1c0.1-0.7,0.1-1.2,0.1-1.6c0-0.4,0-0.6,0-0.6c0.3-1.8,0.3-1.8,0.6-1.9
		c0.2-0.1,0.9-0.2,1.7,1.5c0.6,1.2,2.3,5.6,3.6,10.9c1.3,5.3,2,11.6,1.8,16.5c-0.3,7.5-2.7,12.4-5.1,15.5c-2.5,3-5.2,4.2-7,4.3
		c4.1-2.6,6.7-7.5,7.6-13.9c1-6.3,0.3-14-1.8-21.5c-0.8,2.6-1.7,4.8-2.4,6.6c-0.8,1.8-1.5,3.3-2.2,4.6c-1.3,2.6-2.3,4.2-2.9,5.7
		c-1.4,2.9-1.5,5.1-2.2,10.8c0-1.2-0.2-2.4-0.3-3.5c-0.1-1.2-0.2-2.3-0.2-3.6c0-2.5,0.5-5.3,2-9.1c3.1-5.3,4.8-11,5.8-15.5
		C247.5,94.3,247.7,92.4,247.9,91.1z M229,61.6c0.2-0.2,0.7-0.4,2,0.8c0.5,0.4,1.4,1.5,2.6,3c0.6,0.8,1.3,1.6,2,2.6
		c0.7,1,1.4,2,2.1,3.1c2.8,4.5,5.5,10,6.7,14.6c0.9,3.5,1.2,6.5,1,9.1c-0.1,2.6-0.7,4.7-1.4,6.4c-1.4,3.4-3.6,5.1-5.2,5.6
		c0.8-0.8,1.4-1.8,1.9-2.8c0.5-1,0.9-2.2,1.2-3.4c0.6-2.5,0.6-5.3,0.2-8.3c-0.8-6-3.7-12.9-7.9-19.1c0.2,5.2-0.3,8.8-0.7,11.5
		c-0.4,2.6-0.8,4.4-1,5.9c-0.2,1.5-0.2,2.7,0,4.3c0.1,0.8,0.2,1.6,0.4,2.6c0.2,1,0.3,2.1,0.6,3.4c-0.4-1.1-0.8-2.1-1.2-3.1
		c-0.4-1-0.8-2-1.1-3.1c-0.3-1.1-0.6-2.3-0.7-3.7c-0.1-0.7-0.1-1.5-0.1-2.3c0-0.8,0-1.7,0-2.6c0.6-2.8,0.8-5.6,0.9-8.3
		c0-2.6-0.2-5.2-0.5-7.3c-0.3-2.1-0.7-3.9-1-5.1c-0.4-1.2-0.6-1.9-0.6-1.9C228.8,61.8,228.8,61.8,229,61.6z M231.1,163.8
		c-2.6-0.9-5.2-2.9-7.1-5.7c-1-1.4-1.9-3.1-2.7-5c-0.8-1.9-1.4-4-1.9-6.3c-0.8-3.6-1.4-7.9-1.9-11.5c-0.5-3.6-1-6.6-1.1-7.4
		c-0.1-1.2,0.5-1.4,0.7-1.4c0.3,0,0.3,0,1.4,0.8c0,0,0.4,0.4,1.2,1.1c0.8,0.7,1.8,1.8,3.1,3.1c2.6,2.6,6.2,6.4,10.3,10.5
		c2.2,3.1,3,5.8,3.2,8.2c0.1,2.4-0.2,4.6-0.5,6.9c-0.5-5.6-0.9-7.6-2.6-10.2c-0.8-1.3-2-2.7-3.8-4.6c-0.9-1-1.9-2.1-3.2-3.3
		c-1.2-1.3-2.6-2.7-4.3-4.2C223.1,146.1,223.9,157.7,231.1,163.8z M228.4,174.2c-0.5-1.4-1.4-3-2.7-5.3c-1.3-2.3-3.1-5.2-5.7-9.1
		c-0.5,4.2-1,8.4-1.2,12.4c0.1-0.2,0.1-0.3,0.1-0.3c0.6-1.1,0.6-1.1,0.7-1.1c0.2,0,0.6,0,0.8,1.2c0.1,0.4,0.2,1.4,0.3,2.7
		c0.1,1.3,0.2,2.9,0.2,4.7c0,2.2-0.2,4.5-0.4,6.8c0.6,1.5,1.3,2.9,2.3,4.1c-1-0.6-1.8-1.3-2.6-2.1c-0.1,0.7-0.3,1.5-0.5,2.2
		c-0.6,2.4-1.5,4.4-2.4,6c-0.9,1.6-2,2.8-3,3.7c-2,1.8-4,2.3-5.3,2.1c1.5-0.6,2.9-1.7,4-3.2c0.6-0.7,1.1-1.5,1.6-2.4
		c0.4-0.9,0.9-1.8,1.2-2.9c0.9-2.7,1.5-5.8,1.7-9.1c-0.2-0.4-0.5-0.8-0.7-1.3c-0.2-0.5-0.4-1.2-0.6-1.7c-1.3,2-2.5,3.4-3.4,4.5
		c-1.2,1.5-2.1,2.5-2.8,3.4c-0.7,0.9-1.1,1.7-1.5,2.8c-0.4,1.1-0.8,2.4-1.4,4.3c0.2-1.7,0.2-3.2,0.5-4.9c0.3-1.7,1-3.5,2.6-5.8
		c1.4-1.6,2.6-3.2,3.7-4.8c0.5-0.8,1-1.6,1.4-2.3c-0.1-0.5-0.2-1-0.3-1.5c-0.2,0.4-0.5,0.8-0.7,1.1c-1.6,2.1-3.4,3-4.7,3.1
		c1.4-0.9,2.4-2.3,3.3-3.9c0.8-1.6,1.4-3.6,1.6-5.8c0-0.1,0-0.3,0-0.5c0,0,0,0,0-0.1c0-1.3,0.1-2.7,0.1-4.2
		c-0.1-3.1-0.6-6.5-1.4-9.8c-0.6,1.8-1.2,3.2-1.8,4.5c-0.5,1.2-1,2.3-1.5,3.1c-0.9,1.8-1.5,2.9-2,3.9c-0.9,2-1,3.5-1.4,7.5
		c-0.1-1.7-0.5-3.2-0.5-4.9c0-1.7,0.3-3.6,1.3-6.3c2.1-3.7,3.5-7.5,4.2-10.5c0.4-1.5,0.6-2.7,0.8-3.6c0.1-0.9,0.2-1.4,0.2-1.4
		c0.3-1.2,0.3-1.2,0.5-1.3c0.2-0.1,0.6-0.1,1.1,1c0.3,0.6,0.9,2.2,1.5,4.4c0.1-1,0.2-1.8,0.2-2.2c0.2-1.2,0.8-1.3,1-1.3
		c0.3,0,0.3,0,1.2,1.2c0,0.1,5,8.3,10.9,17.9c1.6,3.5,1.7,6.3,1.4,8.7c-0.4,2.4-1.2,4.4-1.9,6.7c0.4-2.8,0.5-4.7,0.5-6.3
		C229.2,176.9,228.9,175.7,228.4,174.2z M208.8,150.2c-0.5-4.4-2.3-9.4-5.1-14.1c-0.1,1.9-0.3,3.5-0.4,4.9c-0.2,1.4-0.4,2.5-0.6,3.5
		c-0.4,1.9-0.8,3.2-0.9,4.3c-0.4,2.2-0.1,3.7,0.5,7.6c-0.2-0.8-0.6-1.5-0.9-2.3c-0.3-0.8-0.6-1.5-0.8-2.4c-0.4-1.7-0.6-3.6-0.3-6.4
		c1.1-4.1,1.2-8.3,1.1-11.4c-0.1-1.6-0.3-2.9-0.4-3.8c-0.1-0.5-0.2-0.8-0.2-1.1c-0.1-0.2-0.1-0.4-0.1-0.4c-0.1-1.2-0.1-1.2,0-1.4
		c0.1-0.1,0.5-0.3,1.4,0.7c0.6,0.7,2.5,3.3,4.4,6.6c1.8,3.3,3.5,7.4,4.2,10.7c1.2,5.1,0.5,8.8-0.6,11.3c-1.1,2.5-2.7,3.8-3.9,4.1
		C208.5,158.4,209.3,154.6,208.8,150.2z M202.2,201.1c-1.9-0.5-3.6-1.8-5.2-3.7c-1.5-1.9-2.7-4.5-3.6-7.6c-0.6-2.5-1.2-5.5-1.7-8.1
		c-0.2-1.3-0.5-2.5-0.7-3.4c-0.2-0.9-0.3-1.6-0.3-1.9c-0.1-0.9,0.3-1,0.5-1c0.2,0,0.2,0,1,0.6c0,0,4.9,4.6,10.5,10
		c1.7,2.1,2.3,3.9,2.5,5.5c0.2,1.7,0,3.2-0.1,4.8c-0.3-1.9-0.5-3.2-0.8-4.3c-0.3-1-0.7-1.8-1.4-2.7c-0.6-0.8-1.5-1.8-2.8-3.1
		c-1.3-1.3-3-2.9-5.4-5C196,189.2,197,197.2,202.2,201.1z M184,122.7c-0.7-1.6-1.9-3.3-3.4-4.8c-3.1-3.1-7.6-5.7-12.6-7.3
		c1.2,1.4,2.1,2.6,2.8,3.7c0.7,1.1,1.3,2,1.8,2.9c0.9,1.6,1.5,2.8,2,3.7c0.5,0.9,1,1.6,1.8,2.4c0.4,0.4,0.8,0.8,1.3,1.3
		c0.5,0.5,1.1,1,1.7,1.7c-0.3-0.2-0.6-0.4-0.9-0.7l-1-0.6c-0.7-0.4-1.3-0.8-1.9-1.3c-0.7-0.5-1.3-1-2-1.8c-0.7-0.7-1.4-1.6-2.1-2.7
		c-1.8-3.6-4.3-6.7-6.4-8.7c-1.1-1-2-1.9-2.7-2.4c-0.7-0.5-1.1-0.8-1.1-0.8c-0.9-0.8-0.9-0.8-0.8-1c0-0.2,0.2-0.5,1.4-0.4
		c0.9,0.1,3.9,0.7,7.4,1.9c0.9,0.3,1.8,0.6,2.7,1c0.9,0.4,1.8,0.8,2.7,1.3c0.9,0.4,1.7,1,2.5,1.5c0.8,0.5,1.5,1,2.2,1.5
		c4.1,3.2,5.8,6.5,6.4,9c0.6,2.6,0,4.3-0.7,5.3C185,125.9,184.7,124.3,184,122.7z M172,133c1.5,0.2,3,0.4,4.5,0.2
		c1.5,0,2.9-0.3,4.3-0.9c-1.3,1.2-3.2,2.1-5.3,2.5c-1.1,0.2-2.2,0.3-3.4,0.3c-1.2,0-2.5-0.1-3.8-0.2c-2-0.3-4.4-0.7-6.5-1
		c-2.1-0.3-3.8-0.5-4.3-0.5c-0.7-0.1-0.7-0.5-0.7-0.7c0-0.2,0-0.2,0.7-0.8c0,0,0.3-0.2,0.8-0.5c0.5-0.4,1.3-0.8,2.3-1.4
		c2-1.2,4.8-2.7,8.2-4.3c1.2-0.3,2.2-0.5,3.1-0.5c0.9,0,1.7,0.2,2.5,0.4c0.7,0.2,1.4,0.6,2,0.9l1,0.5c0.3,0.2,0.6,0.4,0.9,0.6
		c-0.8-0.3-1.6-0.6-2.2-0.7c-0.6-0.2-1.2-0.3-1.7-0.4c-1-0.1-1.8-0.1-2.7,0.1c-0.9,0.2-2,0.6-3.5,1.3c-0.7,0.3-1.6,0.8-2.6,1.3
		c-1,0.5-2.1,1.1-3.2,1.9C165.7,131.8,168.9,132.6,172,133z M187.6,71.9c4.6,0.7,8.9,0.8,13.2-0.7c-1,0.8-2.3,1.6-3.6,2.1
		c-1.3,0.6-2.8,0.9-4.4,1.3c-0.8,0.2-1.6,0.3-2.4,0.3c-0.8,0.1-1.7,0.2-2.6,0.2c-1.8,0-3.7-0.1-5.7-0.4c-3.1-0.4-6.9-1.2-10.3-1.8
		c-1.7-0.3-3.2-0.5-4.4-0.8c-1.2-0.2-2.1-0.3-2.5-0.4c-1.1-0.3-1.1-0.8-1-1.1c0.1-0.3,0.1-0.3,1.3-1c0,0,0.5-0.3,1.5-0.7
		c0.9-0.5,2.2-1,3.9-1.8c1.7-0.8,3.6-1.6,5.9-2.6c1.1-0.5,2.3-0.9,3.5-1.4c0.6-0.3,1.3-0.5,1.9-0.8c0.6-0.2,1.3-0.5,2-0.7
		c3.7-0.9,6.3-0.5,8.5,0.2c2.1,0.8,3.8,1.9,5.6,3c-2.4-1-4.2-1.4-5.7-1.7c-1.4-0.3-2.7-0.2-4.1,0c-1.4,0.2-3.2,0.8-5.5,1.6
		c-1.2,0.4-2.5,1-4.1,1.6c-0.8,0.3-1.6,0.7-2.5,1.1c-0.9,0.4-1.8,0.9-2.8,1.4C178.1,70,183,71.3,187.6,71.9z M206.5,84
		c2.1,0.9,4.1,1.6,6.2,2.1c2,0.5,4.2,0.6,6.4,0.4c-2.3,1.2-5.2,1.8-8.3,1.5c-1.6-0.1-3.2-0.4-4.9-0.8c-1.7-0.4-3.4-1-5.2-1.7
		c-2.8-1.1-5.9-2.7-8.7-3.8c-2.7-1.2-5.1-2.1-5.7-2.4c-0.9-0.4-0.8-1-0.7-1.2c0.1-0.2,0.1-0.3,1.2-0.8c0,0,0.5-0.2,1.4-0.4
		c0.9-0.3,2.1-0.7,3.7-1.1c3.2-1,7.7-2,13-3c1.7,0,3.2,0.2,4.5,0.5c1.3,0.4,2.3,0.9,3.3,1.5c1,0.6,1.7,1.3,2.5,2.1l1.1,1.1
		c0.4,0.4,0.7,0.8,1.1,1.2c-1-0.8-2-1.4-2.8-1.9c-0.8-0.5-1.5-0.9-2.2-1.2c-1.3-0.6-2.5-0.8-3.9-0.9c-1.4-0.1-3.1,0.1-5.4,0.5
		c-1.1,0.2-2.5,0.5-4.1,0.8c-1.5,0.3-3.3,0.8-5.2,1.4C198.2,79.9,202.4,82.2,206.5,84z M219,102.6c1.6,1.7,3.4,3.1,5.1,4.3
		c0.9,0.6,1.9,1.1,2.9,1.6c1,0.4,2,0.8,3.1,1c-2.6,0.4-5.4-0.1-8.3-1.5c-0.7-0.3-1.4-0.7-2.2-1.2c-0.7-0.4-1.5-0.9-2.2-1.5
		c-0.7-0.5-1.4-1.1-2.2-1.7c-0.7-0.6-1.4-1.3-2.2-2c-2.2-2.2-4.7-4.9-6.8-7.1c-0.5-0.5-1-1-1.5-1.5c-0.5-0.5-0.9-0.9-1.3-1.3
		c-0.8-0.8-1.3-1.3-1.6-1.6c-0.7-0.7-0.3-1.2-0.2-1.4c0.2-0.2,0.2-0.2,1.4-0.3c0,0,0.5,0,1.4,0.1c0.9,0.1,2.2,0.2,3.8,0.4
		c1.6,0.2,3.6,0.5,5.8,0.9c2.2,0.4,4.7,0.9,7.3,1.5c0.8,0.3,1.6,0.7,2.2,1c0.6,0.4,1.2,0.8,1.8,1.2c1.1,0.8,1.9,1.7,2.5,2.6
		c0.6,0.9,1.2,1.9,1.6,2.8c0.4,1,0.8,2,1.3,3c-0.7-1.1-1.4-2-1.9-2.7c-0.6-0.8-1.1-1.4-1.6-1.9c-1-1-1.9-1.7-3.3-2.3
		c-1.3-0.6-2.8-1.1-5.2-1.7c-2.3-0.6-5.4-1.2-9.4-1.6C212.7,95.4,215.8,99.3,219,102.6z M185.7,119.6c-0.6-1.4-1.2-2.5-1.6-3.3
		c-0.5-0.8-0.7-1.2-0.7-1.2c-0.5-1.1-0.5-1.1-0.4-1.2c0.1-0.1,0.4-0.4,1.5,0.2c0.4,0.2,1.2,0.8,2.3,1.6c0.5,0.4,1.2,0.8,1.8,1.4
		c0.6,0.5,1.3,1.1,2,1.7c2.7,2.5,5.5,5.7,7.1,8.6c1.2,2.2,2,4.2,2.3,5.9c0.4,1.7,0.4,3.3,0.2,4.5c-0.3,2.5-1.5,4.1-2.5,4.7
		c0.4-0.7,0.6-1.4,0.8-2.2c0.2-0.8,0.2-1.6,0.2-2.5c-0.1-1.8-0.6-3.6-1.4-5.6c-1.7-3.9-4.8-7.9-8.8-11.3c1.1,3.5,1.4,5.9,1.6,7.8
		c0.2,1.8,0.3,3.1,0.4,4.2c0.2,1,0.4,1.9,0.7,2.9c0.2,0.5,0.4,1,0.7,1.7c0.3,0.6,0.6,1.3,1,2.2c-0.4-0.6-0.9-1.2-1.4-1.8
		c-0.5-0.6-0.9-1.2-1.3-1.9c-0.4-0.7-0.8-1.5-1.2-2.4c-0.2-0.5-0.3-1-0.5-1.5c-0.2-0.5-0.3-1.1-0.4-1.8c-0.1-2-0.5-3.9-0.9-5.7
		C186.9,122.6,186.3,121,185.7,119.6z M193.5,149.1c2.4,1.1,3.8,2.4,4.7,3.8c0.5,0.7,0.8,1.4,1.1,2.1c0.3,0.7,0.6,1.5,0.9,2.2
		c-2.2-3.3-3.1-4.3-5-5.3c-1-0.5-2.1-0.9-3.8-1.4c-0.9-0.3-1.9-0.5-3-0.8c-1.2-0.3-2.5-0.6-4-0.9c2.3,3,4.5,6.1,6.9,8.7
		c2.4,2.6,5,4.6,8.2,5.3c-3.9,0.7-8.5-1.6-12.7-6.3c-1.6-1.8-3.4-4.1-5-5.9c-1.6-1.8-2.8-3.2-3.1-3.6c-0.5-0.6-0.2-0.9-0.1-1
		c0.2-0.1,0.1-0.1,1.1-0.1c0,0,0.4,0.1,1.1,0.2c0.7,0.1,1.7,0.3,2.9,0.6C186.2,147.2,189.7,148,193.5,149.1z M186.8,159.5
		c0.2-0.1,0.2-0.1,1.1,0.3c0,0,0.4,0.2,1,0.6c0.6,0.3,1.5,0.9,2.6,1.5c2.2,1.3,5.3,3.1,8.8,5.2c2.1,1.7,3.1,3.3,3.6,4.9
		c0.5,1.6,0.7,3.1,0.9,4.7c-1.3-3.7-2-4.9-3.6-6.3c-0.8-0.7-1.8-1.4-3.4-2.4c-0.8-0.5-1.7-1-2.7-1.6c-1-0.6-2.2-1.3-3.7-2
		c2.9,7.3,5.5,14.9,11.4,17.7c-1.9-0.1-4-1-5.8-2.5c-0.9-0.8-1.9-1.7-2.7-2.8c-0.9-1.1-1.7-2.4-2.4-3.8c-1.1-2.2-2.3-5-3.4-7.4
		c-1-2.3-1.9-4.2-2.1-4.8C186.3,159.8,186.6,159.5,186.8,159.5z M231.7,119.2c-1.2-1-2.6-2.1-4.8-3.4c-1.1-0.7-2.4-1.4-3.9-2.3
		c-1.5-0.8-3.3-1.8-5.3-2.7c2.1,5,3.9,10.2,6.3,14.7c2.4,4.5,5.2,8.4,9.5,10.5c-5.6-0.5-11.2-5.4-15.3-13.5
		c-1.6-3.1-3.2-6.9-4.7-10.1c-1.5-3.1-2.7-5.5-3-6.3c-0.4-1,0.1-1.4,0.3-1.5c0.3-0.1,0.3-0.1,1.6,0.3c0,0,0.5,0.2,1.4,0.7
		c0.9,0.4,2.2,1.1,3.8,1.9c3.1,1.7,7.7,4.1,12.6,7.1c2.9,2.4,4.4,4.8,5.1,7.1c0.4,1.1,0.6,2.3,0.8,3.4c0.1,1.1,0.3,2.2,0.4,3.4
		C234.9,123.1,233.9,121.3,231.7,119.2z M200.3,42.5c0.1-0.2,0.5-0.7,2.1,0c1.2,0.5,5.2,2.4,9.5,5.4c1.1,0.8,2.2,1.5,3.3,2.5
		c1.1,0.9,2.2,1.8,3.2,2.8c1,1,2,2,2.9,3c0.9,1,1.8,2,2.5,3c4.5,6,5.7,11.3,5.5,15c-0.2,3.8-1.6,6.1-3,7.1c0.9-2.1,1.1-4.4,0.8-7
		c-0.4-2.5-1.4-5.3-2.9-8c-3.1-5.4-8.5-10.8-14.8-14.9c1.1,2.4,1.9,4.4,2.5,6.3c0.6,1.8,1.1,3.3,1.4,4.6c0.6,2.6,1,4.4,1.4,5.9
		c0.4,1.5,0.8,2.6,1.6,4c0.3,0.7,0.8,1.4,1.3,2.3c0.5,0.8,1.1,1.8,1.8,3c-0.4-0.4-0.7-0.9-1.1-1.3L217,75c-0.8-0.8-1.5-1.6-2.2-2.5
		c-0.7-0.9-1.4-1.9-2-3.2c-0.7-1.2-1.3-2.7-1.9-4.6c-1.1-5.6-3.4-10.9-5.7-14.6c-1.1-1.9-2.1-3.4-2.9-4.3c-0.8-1-1.2-1.6-1.2-1.6
		C200.2,42.8,200.1,42.8,200.3,42.5z M167.5,36.7c0.6,0,1.9,0,3.6,0.1c1.8,0.2,4,0.3,6.5,0.7c4.9,0.7,10.8,2.3,15.2,4.3
		c2.9,1.4,5.4,2.8,7.4,4.6c1,0.8,1.9,1.7,2.7,2.5c0.8,0.9,1.5,1.8,2.1,2.6c1.2,1.7,1.9,3.4,2.3,5c0.4,1.6,0.4,3.1,0.2,4.4
		c-0.9-4.8-4.7-9.4-10.2-12.8c-5.5-3.4-12.6-5.6-19.6-6.4c1.1,0.9,2.1,1.7,3,2.4c0.9,0.8,1.7,1.5,2.4,2.2c1.5,1.4,2.7,2.5,3.6,3.6
		c2,2.1,3.2,3.6,4.3,4.8c1.1,1.2,2.1,2,3.4,2.9c1.3,1,3,1.9,5.3,3.4c-2.1-1-4.1-1.4-6.2-2.5c-2.2-1-4.4-2.6-7.4-5.3
		c-0.5-0.6-1-1.2-1.5-1.8c-0.5-0.5-1.1-1.1-1.6-1.6c-1.1-1-2.1-2.1-3.2-3c-2.1-1.8-4.2-3.4-6.1-4.5c-1.8-1.2-3.4-2.2-4.6-2.7
		c-1.1-0.6-1.8-0.9-1.8-0.9c-1.5-0.9-1.5-0.9-1.5-1.2C165.8,37.3,165.9,36.8,167.5,36.7z M141,54c0.4-0.2,1.4-0.7,2.8-1.4
		c0.7-0.3,1.5-0.7,2.4-1.1c0.9-0.3,1.9-0.7,2.9-1.1c4.2-1.6,9.4-2.9,13.6-3.3c5.5-0.5,10.3,0.4,13.9,2.1c1.8,0.8,3.4,1.8,4.8,3
		c1.3,1.2,2.5,2.4,3.4,3.7c-4.3-3.7-9.9-5.6-15.6-5.8c-5.8-0.1-11.8,1.3-17.4,3.7l0.1,0l-0.1,0c5.8,1.9,11.3,3.6,16.6,4.5
		c5.3,1,10.3,1.2,15.7,0.1c-1.4,0.6-2.9,1.3-4.5,1.7c-1.6,0.4-3.2,0.8-5,1c-3.6,0.4-7.5,0.3-12.4-0.7c-1.9-0.3-4-0.9-6.1-1.3
		c-1.1-0.2-2.2-0.5-3.3-0.8c-1.1-0.2-2.2-0.5-3.2-0.7c-1-0.3-2-0.5-2.9-0.7c-0.9-0.2-1.8-0.4-2.5-0.5c-1.5-0.3-2.6-0.6-3-0.8
		c-0.8-0.3-0.9-0.6-0.9-0.9C140.2,54.8,140.3,54.4,141,54z M137.3,108.4c0.4-0.1,1.2-0.4,2.4-0.6c1.2-0.2,2.7-0.5,4.5-0.7
		c3.4-0.4,7.6-0.4,11,0.1c2.2,0.4,4.1,0.9,5.8,1.7c0.8,0.4,1.6,0.8,2.3,1.2c0.7,0.5,1.3,0.9,1.8,1.4c1.1,0.9,1.9,1.9,2.5,3
		c0.6,1,0.9,2,0.9,2.9c-1.5-3-4.8-5.5-9.1-6.7c-4.3-1.3-9.4-1.4-14.3-0.7c0.9,0.4,1.7,0.7,2.4,1.1c0.7,0.3,1.4,0.7,2,1
		c1.2,0.7,2.2,1.2,3.1,1.8c1.7,1.1,2.8,1.8,3.8,2.4c1,0.6,1.8,0.9,2.8,1.3c1,0.4,2.3,0.7,4.2,1.3c-1.6-0.3-3-0.2-4.6-0.5
		c-1.6-0.3-3.4-0.9-5.9-2.2c-0.4-0.3-0.9-0.6-1.3-0.9c-0.5-0.3-0.9-0.5-1.3-0.8c-0.9-0.5-1.8-1-2.7-1.4c-1.7-0.8-3.5-1.5-4.9-1.9
		c-1.4-0.5-2.7-0.8-3.6-1c-0.9-0.2-1.4-0.3-1.4-0.3c-1.2-0.4-1.2-0.4-1.2-0.5C136.3,109.1,136.3,108.7,137.3,108.4z M83.2,321.6
		h-2.3v-3.3c-1,2.5-2.8,3.8-5.5,3.8c-1.1,0-2.1-0.2-2.9-0.6c-0.8-0.4-1.5-0.9-2-1.6c-0.5-0.7-1-1.4-1.3-2.3
		c-0.3-0.9-0.6-1.8-0.7-2.7c-0.2-0.9-0.3-1.9-0.3-2.8c0-0.9-0.1-1.8-0.1-2.7c0-0.9,0-1.9,0.1-2.9c0.1-1,0.2-2,0.4-2.9
		c0.2-0.9,0.4-1.8,0.8-2.7c0.3-0.8,0.8-1.6,1.4-2.2c0.6-0.6,1.3-1.1,2.1-1.5c0.9-0.4,1.9-0.6,3.1-0.6c2.2,0,3.9,0.6,5.2,1.9
		c1.2,1.2,1.9,3,1.9,5.4h-3c-0.1-1.6-0.5-2.7-1.2-3.6c-0.7-0.8-1.7-1.2-2.9-1.2c-0.8,0-1.6,0.2-2.1,0.6c-0.6,0.4-1,0.9-1.4,1.5
		c-0.4,0.6-0.6,1.3-0.8,2.1c-0.2,0.8-0.3,1.6-0.4,2.4c-0.1,0.8-0.1,1.6-0.1,2.3c0,0.8,0,1.4,0,2c0,3.4,0.4,5.8,1.2,7.4
		c0.8,1.5,2,2.3,3.6,2.3c1.1,0,1.9-0.3,2.5-0.8c0.6-0.5,1.1-1.2,1.4-2s0.5-1.7,0.6-2.6c0.1-0.9,0.1-1.8,0.1-2.6v-0.3h-4.8v-2.4h7.6
		V321.6z M108.6,321.6h-3.6c-0.2-0.3-0.4-0.7-0.5-1.3c-0.1-0.5-0.2-1.3-0.2-2.3l-0.1-2.1c0-0.7-0.1-1.3-0.1-1.8
		c-0.1-0.5-0.1-0.9-0.2-1.3c-0.1-0.3-0.2-0.6-0.4-0.8c-0.1-0.2-0.3-0.4-0.6-0.6c-0.5-0.4-1.1-0.6-1.8-0.7c-0.7-0.1-1.3-0.1-1.9-0.1
		h-3v11h-3v-24.5h7.2c2.1,0,3.8,0.5,5.1,1.5c1.2,1,1.9,2.6,1.9,4.9c0,1.6-0.3,2.9-1,3.9c-0.7,1-1.6,1.7-2.9,2
		c0.8,0.2,1.5,0.4,1.9,0.7c0.5,0.3,0.8,0.8,1.1,1.3c0.1,0.3,0.2,0.6,0.3,0.8c0.1,0.3,0.1,0.6,0.2,1.1c0.1,0.4,0.1,1,0.1,1.7
		c0,0.7,0.1,1.6,0.1,2.7c0,0.3,0,0.7,0,1c0,0.4,0.1,0.7,0.2,1.1c0.1,0.3,0.2,0.7,0.4,1C108,321.1,108.3,321.4,108.6,321.6
		L108.6,321.6z M130,321.6l-1.8-6.7h-7.8l-1.9,6.7h-3.1l7.1-24.5h4l6.8,24.5H130z M133.8,125.7c-0.8,0-1.5,0-2.3,0.1
		c-0.8,0-1.5,0.1-2.3,0.1c-0.7,0-1.4,0-2.1,0.1c-0.7,0-1.2,0.1-1.8,0.1c-1.1,0-1.8,0.1-2.1,0c-0.6,0-0.7-0.2-0.8-0.4
		c-0.1-0.1-0.2-0.4,0.2-0.8c0.2-0.2,0.8-0.7,1.6-1.4c0.4-0.3,0.9-0.7,1.4-1.2c0.5-0.4,1.1-0.8,1.8-1.3c2.5-1.8,5.7-3.6,8.5-4.7
		c3.6-1.3,6.9-1.6,9.7-1.1c1.4,0.2,2.6,0.6,3.8,1.2c1.1,0.5,2.1,1.1,2.9,1.9c-3.5-1.7-7.6-2-11.5-1c-3.9,1-7.7,3-11,5.7l0.1,0
		l-0.1,0.1c4.2,0.2,8.2,0.4,11.9,0c3.7-0.3,7.1-1.1,10.5-2.8c-0.8,0.7-1.7,1.4-2.7,2c-1,0.6-2,1.1-3.2,1.6c-2.3,0.9-5,1.6-8.4,1.8
		C136.9,125.6,135.4,125.6,133.8,125.7z M144.4,321.6h-3v-24.5h3V321.6z M146.8,131.8c-1.2,0.1-2.2,0.2-3.1,0.3
		c-0.9,0.1-1.5,0.2-1.8,0.2c-0.8,0-0.9-0.4-0.9-0.5c0-0.2,0-0.2,0.7-0.9c0,0,0.3-0.3,0.9-0.7c0.5-0.5,1.3-1.1,2.3-1.9
		c1-0.8,2.1-1.7,3.5-2.8c0.7-0.5,1.4-1,2.1-1.6c0.4-0.3,0.8-0.6,1.1-0.9c0.4-0.3,0.8-0.6,1.2-0.8c2.3-1.2,4.1-1.5,5.7-1.4
		c1.6,0.1,2.9,0.6,4.3,1c-1.8-0.2-3.1-0.2-4.1-0.1c-1,0.1-1.8,0.4-2.8,0.8c-0.9,0.4-2,1.1-3.4,2.1c-0.7,0.5-1.5,1.1-2.5,1.8
		c-0.5,0.4-0.9,0.7-1.5,1.2c-0.5,0.4-1.1,0.9-1.6,1.4c3.6-0.2,7.1-0.2,10.3-0.6c3.2-0.4,6.1-1.1,8.7-2.9c-0.5,0.8-1.2,1.5-2,2.1
		c-0.8,0.6-1.7,1.1-2.7,1.7c-0.5,0.2-1,0.5-1.6,0.7c-0.5,0.2-1.1,0.4-1.7,0.6c-1.2,0.3-2.5,0.6-3.9,0.8
		C151.8,131.5,149.1,131.6,146.8,131.8z M170,321.6H166l-5.6-13.7c-0.3-0.8-0.6-1.6-0.9-2.4c-0.3-0.8-0.6-1.6-0.8-2.3
		c-0.2-0.7-0.5-1.4-0.6-2.1c-0.2-0.6-0.3-1.2-0.4-1.6h-0.2c0.2,1,0.3,2.2,0.3,3.4c0,1.2,0.1,2.4,0.1,3.5l0,15.4H155v-24.5h3.9
		l5.4,13.3c0.6,1.5,1.1,2.9,1.6,4.4s0.9,3,1.3,4.5h0.1c-0.1-1.1-0.2-2.2-0.2-3.3c0-1.1-0.1-2.2-0.1-3.3v-15.6h2.9V321.6z
		 M170.1,137.9c-0.6-0.4-0.4-0.7-0.4-0.9c0.1-0.2,0.1-0.2,0.9-0.4c0,0,0.4-0.1,1-0.2c0.6-0.1,1.5-0.2,2.6-0.4
		c1.1-0.2,2.5-0.3,4.1-0.5c1.5-0.1,3.3-0.3,5.2-0.3c0.6,0.1,1.2,0.2,1.7,0.3c0.5,0.1,1,0.3,1.4,0.5c0.9,0.4,1.6,0.8,2.1,1.3
		c0.6,0.5,1.1,1,1.6,1.6c0.5,0.6,0.9,1.2,1.4,1.7c-0.7-0.6-1.3-1.1-1.8-1.5c-0.5-0.4-1-0.7-1.4-1c-0.9-0.5-1.6-0.8-2.6-0.9
		c-1-0.1-2.1-0.2-3.8-0.2c-1.6,0-3.8,0.2-6.6,0.6c2.8,1.9,5.5,3.9,8.3,5.5c1.4,0.8,2.8,1.5,4.2,2c0.7,0.2,1.5,0.4,2.2,0.5
		c0.7,0.1,1.5,0.2,2.2,0.1c-1.6,0.8-3.6,0.9-5.8,0.5c-0.5-0.1-1.1-0.2-1.7-0.4c-0.6-0.2-1.2-0.3-1.7-0.6c-0.6-0.2-1.2-0.5-1.8-0.8
		c-0.6-0.3-1.2-0.6-1.8-1c-1.9-1.1-4-2.5-5.8-3.5c-0.5-0.3-0.9-0.5-1.3-0.8c-0.4-0.2-0.8-0.4-1.1-0.6
		C170.8,138.3,170.3,138,170.1,137.9z M184.6,362.8h-13v-24.5h3v21.9h10V362.8z M188.7,243.5c-0.2,0.1-0.3,0.2-0.5,0.3
		c-0.2,0.3-0.5,0.5-0.6,0.7c-0.8,0.9-1.3,1.4-1.3,1.4l-0.5-0.5c-1.3,0.8-2.1,1.3-2.1,1.3l-1.4-2.4c0,0,0.8-0.5,2.3-1.4
		c0.7-0.5,1.6-1,2.6-1.6c0.5-0.4,1.1-0.8,1.7-1.2c0.2-0.2,0.3-0.4,0.5-0.6c2.6-3.2,5.7-7.7,8.1-12.6c2.5-4.9,4.3-10.1,5.4-14
		c1.1-4,1.6-6.7,1.6-6.7l0.7,0.1c0,0-0.4,2.7-1.5,6.8c-1,4-2.8,9.3-5.2,14.3c-1.6,3.4-3.4,6.6-5.3,9.3c4.2-3.3,8.9-7.5,13.1-12.3
		c5.3-5.9,9.8-12.4,12.9-17.5c3.1-5.1,4.8-8.6,4.8-8.6l1,0.5c0,0-1.6,3.6-4.6,8.9c-2.9,5.2-7.4,11.9-12.6,18
		c-5.2,6.1-11.2,11.6-16,15.2C190.8,242,189.7,242.8,188.7,243.5z M206.4,362.8h-13v-24.5h3v21.9h10V362.8z M207.4,320.2
		c-1.3,1.2-3.2,1.8-5.7,1.8c-2.6,0-4.4-0.6-5.6-1.9c-1.1-1.3-1.7-3.2-1.7-5.7v-0.4h3v0.4c0,0.7,0.1,1.4,0.2,2.1
		c0.1,0.6,0.4,1.2,0.7,1.7c0.3,0.5,0.8,0.9,1.3,1.1c0.6,0.3,1.2,0.4,2.1,0.4c1.4,0,2.5-0.4,3.3-1.1c0.8-0.8,1.2-1.8,1.2-3.2
		c0-1.1-0.3-2.1-0.8-2.7c-0.6-0.7-1.5-1.2-2.7-1.7l-2.4-0.8c-1.9-0.6-3.3-1.5-4.1-2.5c-0.9-1.1-1.3-2.4-1.3-4.1
		c0-2.1,0.6-3.8,1.8-4.9c1.2-1.2,3-1.7,5.2-1.7c2.2,0,3.9,0.6,5,1.7c1.1,1.1,1.7,2.7,1.7,4.8v0.2h-3c0-0.6-0.1-1.2-0.2-1.8
		c-0.1-0.5-0.3-1-0.6-1.4c-0.3-0.4-0.7-0.7-1.2-0.9c-0.5-0.2-1.1-0.3-1.9-0.3c-1.3,0-2.3,0.3-3,1c-0.7,0.7-1,1.6-1,2.9
		c0,1.2,0.3,2.1,0.9,2.8s1.7,1.3,3.2,1.8l2.3,0.8c0.8,0.3,1.6,0.6,2.2,1c0.6,0.4,1.2,0.8,1.6,1.3c0.4,0.5,0.7,1.1,1,1.8
		c0.2,0.7,0.3,1.5,0.3,2.4C209.3,317.2,208.7,319,207.4,320.2z M229.3,358c-0.3,1.1-0.7,2-1.3,2.8c-0.6,0.8-1.3,1.4-2.3,1.9
		c-0.9,0.4-2.1,0.7-3.4,0.7c-1.8,0-3.2-0.4-4.2-1.2c-1-0.8-1.8-1.8-2.3-3c-0.5-1.2-0.8-2.5-1-4c-0.1-1.5-0.2-2.9-0.2-4.3
		c0-1.4,0.1-2.9,0.2-4.4c0.1-1.5,0.5-2.9,1-4.2c0.5-1.3,1.3-2.3,2.4-3.1c1-0.8,2.5-1.2,4.3-1.2c2.3,0,4.1,0.6,5.3,1.9
		c1.2,1.3,1.8,3.2,1.9,5.7h-3c0-0.7-0.1-1.3-0.2-1.9c-0.1-0.6-0.4-1.2-0.7-1.6c-0.3-0.5-0.7-0.9-1.3-1.2c-0.5-0.3-1.2-0.4-2-0.4
		c-0.8,0-1.5,0.2-2.1,0.5c-0.5,0.4-1,0.8-1.4,1.4c-0.4,0.6-0.6,1.3-0.8,2c-0.2,0.8-0.3,1.5-0.4,2.3c-0.1,0.8-0.1,1.5-0.1,2.3
		c0,0.8,0,1.4,0,2c0,0.5,0,1.2,0,1.9c0,0.7,0.1,1.4,0.1,2.2c0.1,0.7,0.2,1.5,0.4,2.2c0.2,0.7,0.4,1.3,0.8,1.9c0.3,0.5,0.8,1,1.3,1.3
		c0.6,0.3,1.2,0.5,2,0.5c2.8,0,4.2-2.2,4.4-6.5h3C229.8,355.7,229.6,356.9,229.3,358z M232.7,299.7h-6.1v21.9h-3v-21.9h-6.2v-2.6
		h15.3V299.7z M256.7,321.6h-3.6c-0.2-0.3-0.4-0.7-0.5-1.3c-0.1-0.5-0.2-1.3-0.2-2.3l-0.1-2.1c0-0.7-0.1-1.3-0.1-1.8
		c-0.1-0.5-0.1-0.9-0.2-1.3c-0.1-0.3-0.2-0.6-0.4-0.8c-0.1-0.2-0.3-0.4-0.6-0.6c-0.5-0.4-1.1-0.6-1.8-0.7c-0.7-0.1-1.3-0.1-1.9-0.1
		h-3v11h-3v-24.5h7.2c2.1,0,3.8,0.5,5.1,1.5c1.2,1,1.9,2.6,1.9,4.9c0,1.6-0.3,2.9-1,3.9c-0.7,1-1.6,1.7-2.9,2
		c0.8,0.2,1.5,0.4,1.9,0.7c0.5,0.3,0.8,0.8,1.1,1.3c0.1,0.3,0.2,0.6,0.3,0.8c0.1,0.3,0.1,0.6,0.2,1.1c0.1,0.4,0.1,1,0.1,1.7
		c0,0.7,0.1,1.6,0.1,2.7c0,0.3,0,0.7,0,1c0,0.4,0.1,0.7,0.2,1.1c0.1,0.3,0.2,0.7,0.4,1C256.2,321.1,256.4,321.4,256.7,321.6
		L256.7,321.6z M259.3,156.8c0,0.6-0.3,2-0.6,3.8c-0.3,1.8-0.9,4.1-1.5,6.6c-1.4,4.9-3.4,10.6-5.8,14.7c-1.7,3.2-3.7,5.6-5.5,7.5
		c-1.9,1.9-3.8,3.1-5.5,4c-3.5,1.7-6.5,1.6-8.1,0.9c2.4-0.3,4.7-1.3,6.8-2.9c1.1-0.8,2.1-1.7,3.1-2.8c1-1.1,1.9-2.2,2.8-3.5
		c3.6-5.1,6.3-12,8-19.2c-4,3.6-6.9,5.8-9.3,7.5c-2.3,1.6-3.9,2.7-5.1,3.7c-1.3,1-2.1,1.9-3.1,3.3c-1,1.3-2,3-3.5,5.5
		c0.9-2.2,1.5-4.4,2.6-6.6c1-2.2,2.8-4.5,5.8-7.1c2.6-1.6,4.9-3.5,7-5.3c2.1-1.8,3.9-3.6,5.4-5.2c1.5-1.6,2.6-3,3.4-4
		c0.4-0.5,0.7-0.9,0.9-1.2c0.2-0.3,0.3-0.4,0.3-0.4c1.2-1.3,1.2-1.3,1.5-1.2C258.9,154.8,259.4,155,259.3,156.8z M259.7,133.8
		c-0.2,5.2-1,11.3-2.5,15.8c-2.1,7-5.4,11.2-8.5,13.6c-3.1,2.4-5.9,2.9-7.8,2.6c2.3-0.8,4.3-2.3,6.1-4.2c1.7-2,3.3-4.5,4.4-7.4
		c2.4-5.8,3.6-13.1,3.7-20.7c-1.5,2.2-2.9,4-4.2,5.6c-1.2,1.5-2.3,2.8-3.3,3.8c-1.9,2.1-3.2,3.5-4.2,4.7c-2,2.5-2.7,4.5-4.7,9.9
		c0.5-2.4,0.5-4.6,1.2-7c0.6-2.4,1.8-5,4.2-8.2c4.3-4.3,7.7-9.2,9.8-13c1.1-1.9,1.9-3.6,2.4-4.8c0.5-1.2,0.8-1.9,0.8-1.9
		c0.9-1.5,0.8-1.5,1.1-1.6c0.3,0,0.9,0.1,1.1,1.8C259.6,124.2,260,128.6,259.7,133.8z M279,321.6h-13v-24.5h12.6v2.6h-9.7v7.8h9.1
		v2.6h-9.1v8.9h10V321.6z M300.6,321.6l-1.8-6.7H291l-1.9,6.7H286l7.1-24.5h4l6.8,24.5H300.6z M331.9,321.6h-2.9v-17.1
		c0-1.4,0-2.5,0.1-3.4c0.1-0.9,0.1-1.6,0.2-2.1h-0.2c-0.1,0.3-0.1,0.6-0.2,0.8c0,0.2-0.1,0.5-0.1,0.8c0,0.3-0.1,0.6-0.2,0.9
		c-0.1,0.3-0.2,0.8-0.3,1.3l-4.8,18.8h-2.8l-4.6-17.9c-0.1-0.5-0.2-0.9-0.3-1.4c-0.1-0.5-0.2-1-0.3-1.4c-0.1-0.4-0.2-0.8-0.2-1.2
		c-0.1-0.3-0.1-0.6-0.1-0.7h-0.2c0.1,1.1,0.1,2.3,0.2,3.4s0.1,2.3,0.1,3.4v15.7h-2.8v-24.5h4.8l3,11.4c0.4,1.7,0.8,3.3,1.2,5
		c0.4,1.7,0.7,3.4,0.8,5.1h0.1c0.1-1.4,0.3-2.8,0.6-4.2c0.3-1.4,0.6-2.8,0.9-4.1l3.3-13.2h4.9V321.6z"/>
</g>
</svg>
