<svg width="28" height="28" viewBox="0 0 28 28" fill="none" xmlns="http://www.w3.org/2000/svg">
<g clip-path="url(#clip0_113_25008)">
<path d="M24.9922 0H9.625C8.82755 0.00086853 8.063 0.318041 7.49911 0.881927C6.93523 1.44581 6.61806 2.21036 6.61719 3.00781V6.61719H3.00781C2.21036 6.61806 1.44581 6.93523 0.881927 7.49911C0.318041 8.063 0.00086853 8.82755 0 9.625V23.8711C0.00130256 24.9657 0.436729 26.0152 1.21077 26.7892C1.98481 27.5633 3.03425 27.9987 4.12891 28H22.8047C24.1821 27.9984 25.5026 27.4505 26.4766 26.4766C27.4505 25.5026 27.9984 24.1821 28 22.8047V3.00781C27.9991 2.21036 27.682 1.44581 27.1181 0.881927C26.5542 0.318041 25.7896 0.00086853 24.9922 0ZM1.64062 23.8711V9.625C1.64062 9.2624 1.78467 8.91465 2.04106 8.65825C2.29746 8.40185 2.64521 8.25781 3.00781 8.25781H6.61719V23.8711C6.61719 24.531 6.35503 25.1639 5.88839 25.6306C5.42174 26.0972 4.78884 26.3594 4.12891 26.3594C3.46897 26.3594 2.83607 26.0972 2.36943 25.6306C1.90278 25.1639 1.64062 24.531 1.64062 23.8711ZM26.3594 22.8047C26.3582 23.7471 25.9833 24.6506 25.317 25.317C24.6506 25.9833 23.7471 26.3582 22.8047 26.3594H7.42109C7.96482 25.6439 8.25876 24.7697 8.25781 23.8711V3.00781C8.25781 2.64521 8.40185 2.29746 8.65825 2.04106C8.91465 1.78467 9.2624 1.64062 9.625 1.64062H24.9922C25.3548 1.64062 25.7025 1.78467 25.9589 2.04106C26.2153 2.29746 26.3594 2.64521 26.3594 3.00781V22.8047Z" fill="white"/>
<path d="M11.293 9.35156H18.9492C19.1668 9.35156 19.3754 9.26514 19.5293 9.1113C19.6831 8.95746 19.7695 8.74881 19.7695 8.53125C19.7695 8.31369 19.6831 8.10504 19.5293 7.9512C19.3754 7.79736 19.1668 7.71094 18.9492 7.71094H11.293C11.0754 7.71094 10.8668 7.79736 10.7129 7.9512C10.5591 8.10504 10.4727 8.31369 10.4727 8.53125C10.4727 8.74881 10.5591 8.95746 10.7129 9.1113C10.8668 9.26514 11.0754 9.35156 11.293 9.35156Z" fill="white"/>
<path d="M23.3242 12.8579H11.293C11.0754 12.8579 10.8668 12.9443 10.7129 13.0982C10.5591 13.252 10.4727 13.4607 10.4727 13.6782C10.4727 13.8958 10.5591 14.1044 10.7129 14.2583C10.8668 14.4121 11.0754 14.4985 11.293 14.4985H23.3242C23.5418 14.4985 23.7504 14.4121 23.9043 14.2583C24.0581 14.1044 24.1445 13.8958 24.1445 13.6782C24.1445 13.4607 24.0581 13.252 23.9043 13.0982C23.7504 12.9443 23.5418 12.8579 23.3242 12.8579Z" fill="white"/>
<path d="M23.3242 18.6484H11.293C11.0754 18.6484 10.8668 18.7349 10.7129 18.8887C10.5591 19.0425 10.4727 19.2512 10.4727 19.4688C10.4727 19.6863 10.5591 19.895 10.7129 20.0488C10.8668 20.2026 11.0754 20.2891 11.293 20.2891H23.3242C23.5418 20.2891 23.7504 20.2026 23.9043 20.0488C24.0581 19.895 24.1445 19.6863 24.1445 19.4688C24.1445 19.2512 24.0581 19.0425 23.9043 18.8887C23.7504 18.7349 23.5418 18.6484 23.3242 18.6484Z" fill="white"/>
</g>
<defs>
<clipPath id="clip0_113_25008">
<rect width="28" height="28" fill="white"/>
</clipPath>
</defs>
</svg>
