<?xml version="1.0" encoding="UTF-8"?>
<svg xmlns="http://www.w3.org/2000/svg" width="46" height="46" viewBox="0 0 46 46" fill="none">
  <g clip-path="url(#clip0_113_13745)">
    <path d="M17.3792 18.1515H26.4791C26.9752 18.1515 27.3775 17.7492 27.3775 17.253V12.6559C27.3775 12.1598 26.9752 11.7575 26.4791 11.7575H17.3792C16.883 11.7575 16.4807 12.1598 16.4807 12.6559V17.253C16.4807 17.7492 16.8829 18.1515 17.3792 18.1515ZM18.2776 13.5544H25.5806V16.3546H18.2776V13.5544Z" fill="#CDAF71"></path>
    <path d="M41.9938 25.2201V18.3016C43.2245 16.9954 43.8581 15.5071 43.8581 13.8733V8.7593C43.8581 7.39323 42.7468 6.28177 41.3806 6.28177H34.0807V4.04502C34.0807 1.8195 32.2702 0.00888062 30.0446 0.00888062H13.8135C11.588 0.00888062 9.77734 1.81941 9.77734 4.04502V6.28177H2.47744C1.11137 6.28177 0 7.39323 0 8.7593V13.8734C0 15.5059 0.63277 16.9934 1.86174 18.2989V37.3044C1.86174 38.6719 2.97311 39.7844 4.33927 39.7844H34.1736V45.0926C34.1736 45.4106 34.3417 45.7048 34.6156 45.8664C34.8895 46.028 35.2285 46.0328 35.5068 45.8788L39.1622 43.8578L42.8151 45.8787C42.9506 45.9536 43.1004 45.991 43.2501 45.991C43.4079 45.991 43.5658 45.9494 43.7064 45.8665C43.9803 45.7049 44.1485 45.4106 44.1485 45.0926V36.1132C45.2954 34.8898 46 33.2468 46 31.4415C46 28.6809 44.3546 26.2989 41.9938 25.2201ZM11.5742 4.04502C11.5742 2.8103 12.5788 1.80576 13.8135 1.80576H30.0446C31.2793 1.80576 32.2838 2.8103 32.2838 4.04502V6.28177H11.5742V4.04502ZM3.34048 17.2402C2.4159 16.3203 1.79688 15.2068 1.79688 13.8734V8.7593C1.79688 8.38394 2.10216 8.07865 2.47744 8.07865H41.3806C41.756 8.07865 42.0612 8.38394 42.0612 8.7593V13.8734C42.0612 16.9346 38.7997 18.8382 36.0636 19.8961C32.3502 21.3318 27.3305 22.1226 21.9291 22.1226C16.5277 22.1226 11.5079 21.3318 7.79448 19.8961C6.28304 19.3116 4.61213 18.4685 3.41838 17.3153C3.39376 17.2888 3.36806 17.2636 3.34048 17.2402ZM32.4542 32.7639H3.65862V19.8011C4.63396 20.4578 5.79798 21.0506 7.14653 21.572C11.0616 23.0858 16.3115 23.9194 21.9291 23.9194C27.5466 23.9194 32.7966 23.0858 36.7116 21.572C38.0589 21.0511 39.222 20.4588 40.1969 19.8029V24.682C39.8594 24.6306 39.5139 24.6038 39.1623 24.6038C35.392 24.6038 32.3246 27.6712 32.3246 31.4414C32.3246 31.8939 32.3699 32.3358 32.4542 32.7639ZM34.1736 37.9874H4.33927C3.97038 37.9874 3.65862 37.6746 3.65862 37.3043V34.5607H33.0807C33.3728 35.1279 33.7415 35.6491 34.1737 36.1105V37.9874H34.1736ZM42.3516 43.5687L39.5973 42.0449C39.3268 41.8953 38.9983 41.895 38.7276 42.0448L35.9705 43.5692V37.4859C36.924 37.9914 38.0099 38.2792 39.1623 38.2792C40.3136 38.2792 41.3987 37.9919 42.3515 37.4872V43.5687H42.3516ZM39.1624 36.4823C36.3828 36.4823 34.1216 34.221 34.1216 31.4415C34.1216 28.662 36.3829 26.4008 39.1624 26.4008C41.9418 26.4008 44.2031 28.6619 44.2031 31.4415C44.2031 34.2211 41.9418 36.4823 39.1624 36.4823Z" fill="#CDAF71"></path>
  </g>
  <defs>
    <clipPath id="clip0_113_13745">
      <rect width="46" height="46" fill="white"></rect>
    </clipPath>
  </defs>
</svg>
