<?xml version="1.0" encoding="UTF-8"?>
<svg xmlns="http://www.w3.org/2000/svg" width="397" height="398" viewBox="0 0 397 398" fill="none">
  <path d="M57.1817 306.342C57.1039 306.342 57.0262 306.323 56.9484 306.265C56.754 306.128 56.6956 305.875 56.8317 305.68L58.6593 302.893C58.7954 302.699 59.0481 302.64 59.262 302.776C59.4564 302.913 59.5147 303.166 59.3786 303.361L57.5511 306.148C57.4539 306.284 57.3178 306.342 57.1817 306.342Z" fill="black"></path>
  <path d="M52.9239 312.812C52.8461 312.812 52.7683 312.792 52.6906 312.734C52.4962 312.597 52.4378 312.344 52.5739 312.149L54.4015 309.363C54.5376 309.168 54.7903 309.109 55.0042 309.246C55.1986 309.382 55.2569 309.635 55.1208 309.83L53.2933 312.617C53.1961 312.753 53.06 312.812 52.9239 312.812Z" fill="black"></path>
  <path d="M54.1294 306.966C54.0516 306.966 53.9738 306.946 53.8961 306.888L51.1159 305.056C50.9215 304.92 50.8631 304.666 50.9992 304.472C51.1353 304.277 51.3881 304.218 51.6019 304.355L54.3821 306.186C54.5765 306.323 54.6349 306.576 54.4988 306.771C54.4016 306.907 54.2655 306.966 54.1294 306.966Z" fill="black"></path>
  <path d="M60.5842 311.233C60.5064 311.233 60.4287 311.214 60.3509 311.155L57.5707 309.324C57.3763 309.187 57.318 308.934 57.4541 308.739C57.5901 308.544 57.8429 308.486 58.0568 308.622L60.8369 310.454C61.0314 310.59 61.0897 310.844 60.9536 311.038C60.8564 311.175 60.7203 311.233 60.5842 311.233Z" fill="black"></path>
  <path d="M372.744 193.109C372.16 193.109 371.577 192.992 371.013 192.778C369.788 192.291 368.816 191.355 368.291 190.128C367.203 187.614 368.33 184.672 370.78 183.58C371.966 183.054 373.269 183.015 374.493 183.483C375.718 183.97 376.69 184.905 377.215 186.133C378.304 188.647 377.176 191.589 374.727 192.68C374.066 192.973 373.405 193.109 372.744 193.109ZM371.111 184.36C369.069 185.276 368.155 187.711 369.05 189.796C369.497 190.81 370.294 191.589 371.305 191.979C372.296 192.369 373.385 192.33 374.357 191.901C376.399 190.985 377.313 188.549 376.418 186.464C375.971 185.451 375.174 184.672 374.163 184.282C373.171 183.892 372.083 183.931 371.111 184.36Z" fill="black"></path>
  <path d="M333.762 230.542C330.477 227.522 308.78 207.276 306.058 190.42C305.688 188.082 305.086 184.438 306.699 180.502C309.907 172.649 317.684 173.837 320.386 167.914C323.964 160.1 312.357 153.825 311.968 136.619C311.871 132.488 311.715 126.077 315.798 120.777C320.348 114.853 325.461 116.431 330.263 111.248C336.251 104.759 332.013 98.2507 335.532 87.8841C339.226 76.9719 350.696 64.2085 364.072 64.6957C375.738 65.1244 384.448 75.491 388.005 83.7726C393.274 96.0098 389.93 109.806 383.631 118.555C374.552 131.143 359.776 132.624 360.456 138.119C361.078 143.244 373.91 142.172 377.41 150.61C379.84 156.495 376.865 164.932 371.713 169.297C364.558 175.338 356.451 170.856 352.893 175.883C349.16 181.145 356.335 188.51 356.646 198.292C356.859 206.36 352.466 217.213 333.762 230.542Z" fill="white"></path>
  <path d="M333.762 230.971C333.665 230.971 333.549 230.932 333.471 230.854C327.599 225.456 308.216 206.594 305.63 190.498C305.241 188.062 304.638 184.399 306.291 180.346C308.08 175.962 311.307 174.266 314.146 172.766C316.537 171.519 318.792 170.33 319.978 167.738C321.631 164.153 319.9 160.918 317.509 156.437C314.943 151.623 311.735 145.622 311.521 136.639C311.424 132.371 311.268 125.941 315.429 120.524C317.898 117.308 320.561 116.237 323.147 115.184C325.5 114.23 327.716 113.333 329.913 110.956C333.218 107.37 333.296 103.843 333.413 99.3617C333.49 96.0296 333.568 92.2298 335.104 87.7285C339.148 75.803 351.066 63.7605 364.072 64.2477C375.31 64.6764 384.37 74.2636 388.394 83.5779C394.188 97.0233 389.619 110.936 383.962 118.789C379.082 125.551 372.491 129.195 367.689 131.845C363.567 134.125 360.592 135.762 360.864 138.061C361.117 140.127 363.82 141.14 366.95 142.329C370.897 143.81 375.796 145.661 377.779 150.454C380.19 156.281 377.585 164.874 371.966 169.629C368.155 172.844 364.131 173.156 360.592 173.428C357.482 173.662 354.818 173.877 353.204 176.137C351.221 178.923 352.524 182.373 354.176 186.737C355.46 190.128 356.898 193.967 357.034 198.293C357.365 208.815 349.608 219.786 333.996 230.912C333.937 230.951 333.84 230.971 333.762 230.971ZM363.295 65.1051C350.988 65.1051 339.77 76.6214 335.901 88.0208C334.423 92.4051 334.326 96.1075 334.268 99.4006C334.171 103.863 334.074 107.721 330.555 111.541C328.222 114.074 325.811 115.048 323.478 115.983C320.892 117.036 318.442 118.029 316.109 121.05C312.143 126.233 312.279 132.488 312.376 136.619C312.59 145.388 315.74 151.292 318.267 156.027C320.678 160.548 322.583 164.114 320.775 168.089C319.473 170.954 317.081 172.201 314.554 173.526C311.696 175.026 308.76 176.566 307.088 180.658C305.533 184.477 306.097 188.004 306.485 190.342C309.052 206.262 329.135 225.651 333.801 229.977C348.985 219.104 356.51 208.425 356.198 198.273C356.062 194.103 354.643 190.323 353.379 187.01C351.707 182.587 350.269 178.768 352.504 175.611C354.332 173.019 357.209 172.805 360.515 172.552C363.936 172.279 367.805 171.986 371.402 168.947C376.671 164.484 379.218 156.164 376.982 150.747C375.135 146.304 370.624 144.608 366.639 143.108C363.256 141.822 360.32 140.731 360.009 138.159C359.659 135.294 362.848 133.54 367.261 131.085C371.985 128.474 378.479 124.888 383.242 118.283C388.764 110.625 393.216 97.0233 387.578 83.9092C383.67 74.8287 374.863 65.4948 364.014 65.1051C363.781 65.1051 363.528 65.1051 363.295 65.1051Z" fill="#1A171B"></path>
  <path d="M331.877 227.95C331.682 227.95 331.507 227.814 331.468 227.619C327.288 211.348 326.316 194.22 328.591 176.741C330.418 162.75 334.287 148.505 340.139 134.378C350.094 110.332 362.439 94.8018 362.575 94.6459C362.731 94.4705 362.984 94.4315 363.178 94.5874C363.353 94.7433 363.392 94.9966 363.236 95.1915C363.12 95.3474 350.813 110.8 340.917 134.748C331.779 156.807 322.875 190.81 332.304 227.424C332.363 227.658 332.227 227.892 331.993 227.95C331.954 227.95 331.916 227.95 331.877 227.95Z" fill="#1A171B"></path>
  <path d="M324.878 231.107C289.688 195.525 284.983 175.883 288.288 164.211C289.279 160.723 292.098 153.864 291.651 144.043C291.068 131.299 285.527 125.96 282.3 116.431C276.001 97.8024 282.591 75.1011 294.14 60.9541C302.208 51.0747 319.57 36.8888 335.493 41.8578C342.22 43.9623 350.502 50.0419 350.463 56.7646C350.405 66.3713 332.382 68.0666 328.902 82.272C327.016 90.0274 331.799 91.7422 329.719 99.9653C326.452 112.924 313.037 114.677 313.368 122.862C313.698 130.773 326.491 131.124 328.358 140.711C330.496 151.643 315.993 158.833 319.123 168.966C320.989 174.987 326.53 173.681 329.446 180.404C332.985 188.569 326.744 194.98 324.45 210.042C323.167 218.46 324.042 225.651 324.878 231.107Z" fill="white"></path>
  <path d="M324.878 231.536C324.761 231.536 324.664 231.497 324.567 231.399C308.527 215.167 297.484 200.865 291.749 188.861C287.199 179.352 285.897 171.012 287.86 164.075C288.016 163.529 288.21 162.906 288.443 162.204C289.629 158.482 291.593 152.266 291.204 144.043C290.815 135.684 288.327 130.617 285.683 125.259C284.361 122.569 282.98 119.783 281.892 116.548C275.106 96.497 283.311 73.5229 293.79 60.6621C301.586 51.0944 319.162 36.2849 335.61 41.4098C341.987 43.3974 350.93 49.4576 350.891 56.7259C350.852 61.5 346.75 64.306 341.987 67.5602C336.893 71.0482 331.099 75.0039 329.31 82.3306C328.416 86.033 329.058 88.2739 329.738 90.6512C330.457 93.1454 331.216 95.7371 330.127 100.024C328.377 106.942 323.886 110.663 319.92 113.937C316.401 116.841 313.64 119.12 313.776 122.803C313.932 126.467 316.868 128.396 320.289 130.617C323.808 132.917 327.774 135.528 328.766 140.594C329.855 146.167 326.783 150.766 323.808 155.189C320.814 159.652 317.995 163.88 319.512 168.791C320.406 171.655 322.117 172.746 324.1 174.013C326.064 175.279 328.299 176.702 329.816 180.19C332.013 185.276 330.574 189.621 328.572 195.642C327.25 199.618 325.753 204.119 324.839 210.082C323.594 218.188 324.372 225.222 325.286 231.049C325.305 231.224 325.228 231.419 325.053 231.497C325.014 231.516 324.955 231.536 324.878 231.536ZM328.591 41.2344C314.71 41.2344 301.042 53.1404 294.47 61.2077C284.127 73.8932 276.04 96.536 282.708 116.275C283.777 119.471 285.138 122.219 286.46 124.888C289.143 130.325 291.69 135.469 292.079 144.004C292.468 152.383 290.465 158.697 289.279 162.458C289.066 163.159 288.871 163.763 288.716 164.309C286.81 171.031 288.113 179.177 292.565 188.491C298.145 200.163 308.799 214.076 324.294 229.841C323.478 224.229 322.895 217.545 324.061 209.926C324.975 203.905 326.491 199.364 327.833 195.35C329.777 189.504 331.177 185.295 329.097 180.521C327.697 177.286 325.655 175.981 323.711 174.734C321.67 173.428 319.745 172.201 318.773 169.044C317.12 163.724 320.192 159.145 323.167 154.702C326.044 150.415 329.019 145.972 327.988 140.75C327.055 136.034 323.419 133.638 319.881 131.338C316.42 129.078 313.154 126.934 312.979 122.842C312.804 118.75 315.876 116.217 319.434 113.294C323.303 110.098 327.677 106.493 329.369 99.8292C330.399 95.7566 329.719 93.3988 328.999 90.9045C328.319 88.5272 327.6 86.072 328.552 82.1553C330.419 74.4972 336.348 70.4441 341.578 66.8781C346.128 63.7604 350.074 61.0713 350.094 56.7454C350.133 50.6462 342.511 44.4691 335.415 42.2672C333.121 41.5462 330.846 41.2344 328.591 41.2344Z" fill="#1A171B"></path>
  <path d="M322.719 227.346C322.564 227.346 322.408 227.248 322.331 227.093C313.426 208.094 306.796 188.003 302.636 167.348C299.02 149.421 297.464 132 298.184 116.957C299.272 93.866 305.358 77.4782 310.277 67.7936C315.623 57.2711 320.795 52.1462 320.834 52.1072C321.008 51.9319 321.281 51.9514 321.436 52.1072C321.592 52.2826 321.592 52.5554 321.436 52.7113C321.378 52.7698 316.304 57.8167 311.015 68.2223C306.135 77.8289 300.108 94.0803 299.039 116.996C297.484 150.2 306.485 191.238 323.128 226.722C323.225 226.937 323.128 227.19 322.914 227.287C322.855 227.326 322.778 227.346 322.719 227.346Z" fill="#1A171B"></path>
  <path d="M276.255 319.773C342.415 276.762 361.024 187.773 317.818 121.011C274.612 54.249 185.954 34.995 119.794 78.006C53.6335 121.017 35.0251 210.006 78.2307 276.768C121.436 343.53 210.095 362.784 276.255 319.773Z" fill="white"></path>
  <path d="M199.185 343.152C188.998 343.152 178.752 342.061 168.545 339.84C131.041 331.694 98.8262 309.383 77.8678 276.997C56.9289 244.611 49.7159 206.048 57.5899 168.401C65.4639 130.754 87.4721 98.5236 119.571 77.654C151.65 56.7843 189.989 49.7888 227.493 57.934C264.996 66.0792 297.212 88.3908 318.17 120.777C339.128 153.163 346.341 191.726 338.467 229.373C330.593 267.02 308.585 299.25 276.487 320.12C253.117 335.299 226.443 343.152 199.185 343.152ZM196.852 55.4788C169.75 55.4788 143.251 63.2732 120.018 78.375C88.1332 99.1082 66.261 131.143 58.4259 168.576C50.5908 206.009 57.7649 244.338 78.6066 276.529C99.4484 308.72 131.45 330.915 168.739 339.002C206.029 347.089 244.135 340.132 276.02 319.399C341.87 276.588 360.456 187.692 317.451 121.244C296.609 89.0533 264.608 66.8587 227.318 58.7719C217.189 56.57 206.982 55.4788 196.852 55.4788Z" fill="#1A171B"></path>
  <path d="M135.96 123.31C134.152 123.31 131.897 122.492 129.564 120.952C127.192 119.374 124.626 115.243 122.137 111.229C120.115 107.975 118.21 104.915 116.771 103.863C114.147 101.953 113.155 102.635 110.958 104.116C110.647 104.331 110.297 104.564 109.928 104.798C107.808 106.182 105.631 105.89 104.426 105.208C103.726 104.818 103.317 104.292 103.337 103.766C103.512 95.3086 117.413 88.391 124.879 84.6692C133.569 80.3432 140.024 81.1617 143.018 86.988C146.031 92.8338 138.896 106.435 138.08 107.975C137.224 109.553 137.982 112.008 138.721 114.385C139.382 116.49 140.043 118.653 139.674 120.407C139.421 121.654 138.721 122.55 137.652 122.979C137.185 123.193 136.602 123.31 135.96 123.31ZM114.049 101.836C114.963 101.836 115.974 102.207 117.296 103.181C118.871 104.331 120.815 107.468 122.876 110.781C125.209 114.522 127.834 118.77 130.05 120.231C132.908 122.121 135.708 122.881 137.38 122.199C138.177 121.868 138.682 121.206 138.877 120.251C139.207 118.711 138.566 116.646 137.943 114.658C137.146 112.125 136.33 109.494 137.36 107.585C140.257 102.168 144.573 91.8206 142.298 87.3972C139.499 81.9801 133.627 81.2981 125.306 85.4486C117.996 89.0925 104.406 95.8542 104.231 103.785C104.231 103.902 104.406 104.194 104.892 104.448C105.981 105.052 107.828 105.169 109.519 104.077C109.889 103.844 110.219 103.61 110.53 103.395C111.775 102.538 112.805 101.836 114.049 101.836Z" fill="#1A171B"></path>
  <path d="M227.668 332.63C227.221 332.63 226.774 332.591 226.365 332.532C222.36 331.889 211.376 325.167 205.562 320.821C200.974 317.392 190.981 303.888 184.371 294.944C182.388 292.255 180.677 289.936 179.646 288.63C176.069 284.09 173.619 284.616 167.067 286.038C166.018 286.272 164.832 286.526 163.529 286.779C154.061 288.65 151.514 286.233 147.606 279.861C147.256 279.277 146.712 278.575 146.109 277.757C143.445 274.23 139.44 268.871 141.035 262.908C142.454 257.589 137.788 246.404 134.872 242.331C133.861 240.909 133.822 239.038 134.755 237.421C136.602 234.264 140.451 230.094 148.364 228.087C151.669 227.249 153.866 227.95 156.005 228.632C157.794 229.197 159.621 229.782 162.187 229.509C163.996 229.314 165.94 228.652 167.826 228.009C171.772 226.664 175.875 225.261 177.313 229.275C179.121 234.303 187.637 235.238 198.038 231.536C204.163 229.353 210.365 230.308 213.125 233.855C214.914 236.135 214.836 239.096 212.95 241.941C208.187 249.112 209.645 251.139 212.639 254.081C213.767 255.192 215.167 256.205 216.528 257.18C219.055 259.011 221.252 260.57 220.941 262.343C220.513 264.877 216.683 269.456 214.914 271.288C213.223 273.022 212.348 276.88 214.428 281.245C216.625 285.844 216.8 301.238 215.75 308.467C214.817 314.936 218.608 317.489 226.19 322.575C226.812 322.984 227.454 323.432 228.134 323.881C231.828 326.375 233.345 328.557 232.645 330.35C232.023 331.85 229.806 332.63 227.668 332.63ZM173.386 284.187C176.011 284.187 177.994 285.162 180.327 288.104C181.377 289.429 183.01 291.631 185.071 294.437C191.642 303.342 201.577 316.788 206.087 320.139C211.842 324.426 222.652 331.071 226.521 331.675C228.601 332.006 231.284 331.402 231.848 329.999C232.373 328.674 230.876 326.745 227.668 324.563C227.007 324.114 226.346 323.686 225.743 323.257C218.122 318.152 213.922 315.326 214.933 308.311C215.964 301.179 215.828 286.058 213.689 281.576C211.414 276.802 212.367 272.652 214.331 270.644C216.45 268.462 219.774 264.253 220.124 262.149C220.338 260.921 218.258 259.42 216.061 257.823C214.681 256.829 213.242 255.796 212.056 254.627C208.537 251.158 207.409 248.723 212.27 241.396C213.961 238.843 214.039 236.329 212.484 234.322C210.403 231.653 205.115 229.88 198.369 232.296C187.326 236.232 178.558 235.121 176.555 229.529C175.447 226.45 172.647 227.229 168.137 228.769C166.212 229.431 164.209 230.113 162.304 230.308C159.563 230.601 157.638 229.996 155.772 229.392C153.652 228.73 151.669 228.087 148.598 228.866C140.976 230.795 137.282 234.79 135.513 237.81C134.735 239.135 134.774 240.655 135.571 241.786C138.643 246.092 143.387 257.452 141.871 263.084C140.374 268.657 144.243 273.801 146.789 277.192C147.412 278.03 147.956 278.751 148.345 279.374C152.117 285.512 154.391 287.675 163.373 285.902C164.657 285.649 165.843 285.395 166.892 285.162C169.537 284.616 171.597 284.187 173.386 284.187Z" fill="#1A171B"></path>
  <path d="M296.687 240.091C296.317 240.091 295.928 240.032 295.501 239.915C289.765 238.259 279.694 224.463 279.869 213.843C280.064 201.8 272.093 197.689 268.651 196.481C266.007 195.545 260.466 187.498 256.286 180.931L256.053 180.561C255.995 180.483 255.936 180.346 255.839 180.171C255.275 179.08 253.973 176.546 250.901 176.001C247.11 175.319 242.016 177.891 235.775 183.639C230.351 188.628 225.276 190.635 220.688 189.622C215.594 188.491 211.259 183.776 207.837 175.572C206.185 171.636 203.793 169.181 201.655 167.018C200.41 165.732 199.224 164.523 198.33 163.159C195.608 158.95 199.03 151.799 202.374 146.518C204.396 143.342 205.407 140.458 206.379 137.691C207.293 135.119 208.148 132.664 209.723 130.384C211.998 127.071 214.7 128.435 217.305 129.741C218.725 130.462 220.202 131.202 221.796 131.397C223.585 131.611 224.11 130.773 224.907 129.507C225.996 127.773 227.357 125.59 232.451 125.532C238.497 125.454 242.619 121.128 243.494 118.244C243.727 117.484 243.96 116.081 242.891 115.36C241.569 114.444 240.188 114.756 238.594 115.107C236.514 115.574 234.142 116.081 231.226 114.171C228.018 112.067 229.145 108.696 230.234 105.442C230.954 103.279 231.712 101.038 231.031 99.3424C230.351 97.6471 228.407 96.1856 225.665 95.3088C222.905 94.4319 219.891 94.3734 218.666 95.1724C217.908 95.6595 218.647 97.2769 219.522 99.128C220.863 102.012 222.691 105.948 220.26 109.124C218.102 111.93 214.428 112.203 210.87 112.457C207.682 112.69 204.376 112.924 202.238 115.009C199.827 117.328 199.458 122.18 199.088 127.324C198.758 131.806 198.427 136.424 196.677 139.796C195.414 142.231 193.489 143.167 191.389 142.329C188.006 141.004 184.954 135.392 186.237 130.735C187.812 125.006 184.74 120.602 183.088 118.244C182.874 117.932 182.679 117.659 182.524 117.425C182.096 116.763 181.163 114.951 181.785 112.593C182.485 109.943 184.837 107.566 188.803 105.5C191.992 103.844 193.994 101.915 194.597 99.927C195.083 98.3096 194.5 97.2184 194.48 97.1599C190.748 89.0927 188.181 87.3194 186.684 87.2415C185.596 87.183 184.818 88.0794 184.39 88.8394C184.235 89.1511 184.312 90.9439 184.39 92.5417C184.604 97.1794 184.915 103.551 182.115 104.643C180.191 105.403 177.294 103.415 173.269 98.6019C167.476 91.6648 165.24 86.3257 166.64 82.7012C167.864 79.5445 171.383 78.9599 171.753 78.9014C177.994 77.401 181.882 74.7509 183.34 71.0485C185.44 65.6899 181.94 59.4933 180.346 57.0965C180.268 56.9796 180.249 56.8237 180.307 56.6873C180.366 56.5509 180.502 56.4534 180.638 56.434C201.246 53.9008 222.652 55.9663 242.541 62.4357C262.624 68.9635 281.366 80.0706 296.726 94.5098C296.764 94.5488 296.803 94.6073 296.823 94.6657C298.417 98.5824 300.186 104.311 299.486 109.456C298.884 113.762 300.983 116.198 302.83 118.341C304.191 119.92 305.474 121.42 305.183 123.33C305.086 123.914 305.086 124.616 305.086 125.298C305.066 126.974 305.047 128.708 303.841 129.195C302.461 129.741 299.525 128.747 288.346 117.192C274.076 102.421 265.93 106.279 263.072 108.637C262.877 108.793 262.936 108.988 262.955 109.046C262.974 109.124 263.052 109.28 263.285 109.3C266.241 109.514 271.607 110.372 274.426 113.645C275.787 115.224 276.37 117.172 276.195 119.452C275.534 128.084 277.634 133.911 282.125 135.879C286.538 137.808 288.482 140.107 290.135 145.369C290.737 147.298 290.504 149.889 290.232 152.637C289.746 157.898 289.182 163.88 294.451 166.706C303.219 171.402 308.255 200.222 305.008 209.556C303.491 213.901 302.928 219.085 302.383 224.112C301.742 229.899 301.158 235.375 299.117 238.707C298.553 239.623 297.717 240.091 296.687 240.091ZM249.696 175.007C250.162 175.007 250.609 175.046 251.056 175.124C254.537 175.747 256.034 178.651 256.597 179.742C256.675 179.878 256.734 179.995 256.772 180.054L257.006 180.424C262.722 189.427 267.057 194.98 268.924 195.623C272.54 196.89 280.919 201.216 280.725 213.823C280.569 223.917 290.368 237.499 295.734 239.058C296.959 239.409 297.834 239.136 298.398 238.2C300.322 235.024 300.925 229.646 301.547 223.956C302.111 218.89 302.675 213.648 304.23 209.205C305.786 204.762 305.455 195.604 303.414 186.387C301.217 176.429 297.717 169.317 294.101 167.388C288.307 164.29 288.91 158.015 289.435 152.481C289.688 149.811 289.921 147.317 289.377 145.544C287.607 139.951 285.546 138.198 281.833 136.58C279.033 135.353 274.445 131.475 275.398 119.296C275.553 117.25 275.028 115.516 273.823 114.113C271.218 111.073 266.085 110.274 263.266 110.06C262.761 110.021 262.333 109.69 262.197 109.202C262.041 108.715 262.197 108.189 262.586 107.858C265.618 105.364 274.251 101.194 289.007 116.49C297.153 124.928 302.053 128.903 303.569 128.299C304.23 128.026 304.25 126.526 304.269 125.2C304.269 124.479 304.288 123.739 304.386 123.096C304.619 121.576 303.569 120.348 302.228 118.809C300.361 116.646 298.028 113.937 298.67 109.241C299.35 104.331 297.659 98.7968 296.103 94.9775C265.132 66.0016 223.391 52.225 181.416 57.1939C183.204 60.0389 186.218 66.0211 184.118 71.3603C182.543 75.355 178.441 78.1805 171.908 79.7394C171.889 79.7394 171.889 79.7394 171.87 79.7394C171.831 79.7394 168.506 80.2265 167.417 82.9935C166.542 85.2539 166.951 89.7162 173.891 98.0173C178.499 103.532 180.716 104.214 181.765 103.805C183.982 102.947 183.671 96.439 183.496 92.5417C183.379 90.067 183.34 88.8589 183.612 88.3717C184.41 87.0077 185.498 86.3062 186.684 86.3451C189.192 86.4621 192.07 89.9501 195.2 96.7312C195.219 96.7507 195.978 98.1342 195.394 100.102C194.733 102.363 192.634 104.409 189.173 106.221C185.44 108.17 183.224 110.372 182.582 112.768C182.038 114.795 182.854 116.334 183.224 116.919C183.379 117.153 183.554 117.406 183.768 117.718C185.498 120.193 188.726 124.811 187.034 130.929C185.887 135.099 188.667 140.322 191.681 141.491C193.372 142.153 194.83 141.413 195.9 139.367C197.572 136.152 197.902 131.611 198.213 127.227C198.602 121.927 198.972 116.899 201.616 114.347C203.988 112.067 207.448 111.813 210.773 111.56C214.292 111.307 217.636 111.054 219.561 108.559C221.68 105.792 220.047 102.265 218.725 99.4398C217.694 97.2184 216.8 95.3088 218.18 94.4124C219.658 93.4576 222.827 93.4771 225.899 94.4514C228.873 95.4062 231.031 97.0625 231.79 98.9721C232.567 100.94 231.77 103.337 231.012 105.656C229.981 108.735 229.009 111.658 231.673 113.392C234.298 115.107 236.378 114.658 238.38 114.21C240.091 113.84 241.705 113.47 243.338 114.6C244.446 115.36 244.777 116.763 244.271 118.439C243.144 122.18 238.283 126.272 232.431 126.35C227.785 126.409 226.618 128.279 225.607 129.936C224.771 131.261 223.993 132.508 221.66 132.215C219.93 132.001 218.316 131.183 216.897 130.462C214.195 129.098 212.25 128.123 210.403 130.812C208.906 133.014 208.051 135.392 207.157 137.925C206.204 140.614 205.135 143.673 203.054 146.927C198.524 154.079 197.086 159.671 199.01 162.633C199.846 163.919 200.994 165.108 202.218 166.355C204.396 168.577 206.865 171.11 208.576 175.182C211.881 183.113 216.003 187.653 220.824 188.725C225.121 189.68 229.943 187.731 235.153 182.938C240.947 177.677 245.827 175.007 249.696 175.007Z" fill="#1A171B"></path>
  <path d="M123.09 250.184C119.61 250.184 110.278 247.612 100.323 243.149C93.1493 239.934 80.4537 233.348 75.9043 225.3C75.3016 224.228 74.7183 223.196 74.1351 222.202C67.5248 210.588 63.5392 203.593 63.3059 186.328C63.2865 185.373 63.1115 184.749 62.8004 184.555C62.2949 184.223 61.1867 184.711 60.098 185.198C58.0955 186.075 55.6264 187.166 54.0321 184.827C53.9543 184.73 53.9349 184.594 53.9738 184.477C55.9374 176.254 61.7894 153.143 65.2112 145.076C65.2501 144.978 65.3473 144.881 65.4445 144.842L65.7945 144.706C70.6938 142.796 79.7927 139.23 86.3835 130.461C90.7968 124.596 93.1881 120.874 94.7629 118.419C96.8821 115.126 97.6015 114.034 99.7206 113.06C103.59 111.306 108.256 112.027 109.5 114.58C111.405 118.477 108.606 122.92 101.159 127.753C96.7266 130.637 94.2575 135.508 94.5296 140.769C94.7046 144.101 96.0656 146.946 97.8931 147.862C99.7012 148.778 100.868 148.992 101.879 148.622C103.648 147.999 105.3 145.485 108.022 139.366C112.999 128.123 120.193 130.461 121.593 131.026C123.595 131.864 124.081 135.372 124.606 139.074C124.84 140.73 125.073 142.426 125.442 143.926C126.103 146.557 127.406 148.564 128.475 150.162C129.331 151.487 130.011 152.519 130.089 153.494C130.186 154.916 128.728 156.943 126.687 159.729C125.598 161.23 124.334 162.945 123.129 164.835C119.454 170.603 117.082 174.831 117.646 180.677C118.015 184.457 116.402 187.867 115.119 190.615C114.263 192.427 113.524 194.005 113.66 195.077C113.777 196.032 114.555 197.454 115.391 198.955C117.005 201.878 118.851 205.19 117.491 207.763C115.721 211.075 108.975 212.342 105.456 211.543C103.881 211.192 102.306 211.601 101.257 212.634C100.401 213.492 100.032 214.661 100.284 215.752C101.043 219.065 103.998 222.26 109.092 225.261C116.207 229.47 121.204 233.757 123.945 238.005C127.075 242.838 128.125 246.15 127.153 248.157C126.589 249.307 125.384 249.97 123.556 250.106C123.401 250.184 123.245 250.184 123.09 250.184ZM62.3921 183.6C62.7227 183.6 63.0143 183.678 63.267 183.834C63.8697 184.223 64.1614 185.003 64.1614 186.328C64.3947 203.359 68.1275 209.906 74.8933 221.793C75.4571 222.786 76.0404 223.819 76.6625 224.891C84.4976 238.784 117.821 249.794 123.479 249.307C124.976 249.19 125.948 248.683 126.376 247.826C127.192 246.15 126.142 243.032 123.226 238.531C120.543 234.4 115.644 230.211 108.644 226.06C103.356 222.923 100.265 219.552 99.4484 215.986C99.1374 214.602 99.5845 213.141 100.654 212.069C101.898 210.822 103.765 210.315 105.65 210.744C109.208 211.543 115.332 210.042 116.732 207.392C117.86 205.249 116.149 202.151 114.633 199.423C113.719 197.786 112.941 196.363 112.805 195.233C112.65 193.927 113.427 192.252 114.341 190.303C115.585 187.653 117.141 184.34 116.791 180.813C116.149 174.227 119.338 169.239 122.39 164.425C123.615 162.496 124.878 160.782 125.987 159.262C127.834 156.728 129.311 154.721 129.233 153.591C129.175 152.831 128.553 151.876 127.756 150.668C126.667 149.012 125.306 146.927 124.626 144.16C124.237 142.62 124.004 140.886 123.77 139.21C123.304 135.898 122.837 132.488 121.282 131.845C120.018 131.319 113.486 129.234 108.839 139.737C105.981 146.186 104.251 148.739 102.209 149.46C100.634 150.025 98.9624 149.363 97.5431 148.642C95.424 147.57 93.9269 144.511 93.7131 140.828C93.402 135.235 96.0267 130.091 100.732 127.032C107.75 122.472 110.453 118.419 108.761 114.95C107.75 112.865 103.453 112.32 100.109 113.84C98.2236 114.697 97.6015 115.671 95.5212 118.867C93.9269 121.342 91.5161 125.064 87.1028 130.948C80.3759 139.912 71.1216 143.536 66.1444 145.485L65.9695 145.543C62.5866 153.63 56.8901 176.137 54.907 184.438C56.0152 185.88 57.6483 185.315 59.8258 184.36C60.7007 183.99 61.6145 183.6 62.3921 183.6Z" fill="#1A171B"></path>
  <path d="M337.573 231.867C337.456 231.867 337.359 231.828 337.281 231.75C334.871 229.431 332.615 225.924 330.807 223.118L330.263 222.28C327.094 217.369 330.068 211.231 331.838 207.548C333.743 203.612 335.104 195.311 331.954 190.011C329.116 185.256 330.263 181.651 331.293 178.475C331.527 177.773 331.74 177.091 331.915 176.429C332.868 172.649 329.952 166.218 326.686 162.399C322.992 158.073 323.303 156.027 325.286 153.533C326.122 152.48 325.772 150.922 325.441 149.538C325.111 148.077 324.761 146.557 326.141 146.05C326.608 145.875 327.852 145.407 333.276 151.448C333.315 151.487 333.335 151.545 333.354 151.584C342.395 177.247 344.008 204.898 338.02 231.516C337.981 231.672 337.865 231.789 337.729 231.828C337.651 231.867 337.612 231.867 337.573 231.867ZM326.413 146.849C325.811 147.063 325.908 147.784 326.258 149.343C326.588 150.844 327.016 152.695 325.927 154.078C324.178 156.3 323.944 157.937 327.308 161.853C330.788 165.906 333.762 172.551 332.732 176.643C332.557 177.345 332.324 178.046 332.11 178.748C331.099 181.885 330.049 185.139 332.693 189.582C335.998 195.136 334.598 203.807 332.615 207.938C330.924 211.445 328.066 217.311 330.982 221.812L331.527 222.65C333.179 225.222 335.201 228.359 337.34 230.581C343.095 204.372 341.442 177.208 332.557 151.974C327.813 146.693 326.608 146.771 326.413 146.849Z" fill="#1A171B"></path>
  <path d="M59.6897 195.234H56.4041V179.898L59.6897 179.956V195.234Z" fill="white"></path>
  <path d="M59.6897 195.234H58.0371V179.898L59.6897 179.956V195.234Z" fill="white"></path>
  <path d="M63.5587 188.082L59.6898 189.212L56.4041 188.959L52.5352 186.971V184.75L63.5587 185.549V188.082Z" fill="white"></path>
  <path d="M40.1117 191.843L43.864 190.908L68.1858 192.603L70.9077 200.651L66.2611 200.436L66.2416 220.39L42.8724 222.378L43.4362 199.384L37.9536 199.111L40.1117 191.843Z" fill="white"></path>
  <path d="M43.8639 190.908L73.5517 192.973L75.8653 199.813L71.2187 199.599L71.1992 219.552L46.6441 221.462L47.2079 198.449L41.7058 198.196L43.8639 190.908Z" fill="white"></path>
  <path d="M46.6441 221.891C46.5275 221.891 46.4303 221.852 46.3525 221.774C46.2553 221.696 46.2164 221.579 46.2164 221.443L46.7802 198.859L41.7059 198.625C41.5698 198.625 41.4531 198.547 41.3754 198.449C41.2976 198.332 41.2782 198.196 41.317 198.079L43.4751 190.791C43.5334 190.596 43.7278 190.479 43.9223 190.479L73.6101 192.545C73.7851 192.565 73.9212 192.662 73.9795 192.837L76.2931 199.677C76.332 199.813 76.3125 199.95 76.2347 200.067C76.157 200.184 76.0209 200.242 75.8653 200.242L71.6659 200.047L71.6465 219.553C71.6465 219.767 71.4715 219.962 71.2576 219.981L46.683 221.891C46.6636 221.891 46.6441 221.891 46.6441 221.891ZM42.2697 197.787L47.208 198.021C47.4413 198.04 47.6162 198.235 47.6162 198.469L47.0719 220.995L70.7716 219.144L70.791 199.58C70.791 199.463 70.8299 199.346 70.9271 199.268C71.0049 199.19 71.1215 199.151 71.2382 199.151L75.2626 199.346L73.2407 193.383L44.175 191.356L42.2697 197.787Z" fill="#1A171B"></path>
  <path d="M47.3441 193.558L70.9077 195.234V197.358L47.3052 196.208L47.3441 193.558Z" fill="#1A171B"></path>
  <path d="M36.4177 221.89L82.4173 216.785L84.7698 212.712C84.7698 212.712 119.201 204.489 128.339 208.932C136.524 212.907 121.476 222.417 119.726 225.476C117.977 228.535 113.797 236.174 113.797 236.174L51.0769 234.654C49.9687 234.634 48.88 234.459 47.8107 234.128C44.2917 233.095 37.3509 229.997 36.4177 221.89Z" fill="white"></path>
  <path d="M37.176 225.554C37.001 225.554 36.8455 225.437 36.7677 225.281C36.3789 224.229 36.1067 223.118 35.9901 221.949C35.9706 221.832 36.0095 221.715 36.0873 221.637C36.165 221.54 36.2622 221.481 36.3789 221.481L82.1646 216.415L84.4005 212.518C84.4588 212.42 84.556 212.342 84.6726 212.323C86.0919 211.992 119.357 204.119 128.534 208.562C130.089 209.322 130.964 210.335 131.158 211.563C131.567 214.272 128.65 217.467 125.734 220.215C125.617 220.312 125.462 220.351 125.326 220.312C125.19 220.273 125.073 220.156 125.034 220C125.034 220 124.49 219.085 120.582 218.714C118.774 218.539 106.039 219.396 105.923 219.416L37.2149 225.554C37.2149 225.554 37.1955 225.554 37.176 225.554ZM36.9038 222.261C37.0205 223.099 37.2149 223.898 37.4871 224.658L105.825 218.539C106.37 218.5 118.774 217.662 120.64 217.837C123.673 218.13 124.956 218.753 125.481 219.24C127.989 216.844 130.653 213.901 130.303 211.66C130.147 210.706 129.447 209.926 128.145 209.303C119.59 205.152 87.725 212.459 85.042 213.083L82.7868 217C82.709 217.117 82.5924 217.194 82.4563 217.214L36.9038 222.261Z" fill="#1A171B"></path>
  <path d="M128.339 208.913C127.931 208.718 127.445 208.543 126.939 208.387C126.784 208.348 123.42 212.596 121.01 217.448C117.646 224.229 114.846 232.628 113.68 236.174H113.797C113.797 236.174 117.977 228.536 119.726 225.476C121.476 222.398 136.524 212.888 128.339 208.913Z" fill="white"></path>
  <path d="M125.423 220.312C125.384 220.312 125.345 220.312 125.306 220.293C125.17 220.254 125.054 220.137 125.015 219.981C125.015 219.981 124.47 219.065 120.562 218.695C120.426 218.675 120.29 218.598 120.232 218.481C120.154 218.364 120.154 218.208 120.212 218.091C120.349 217.799 120.485 217.526 120.621 217.253C121.923 214.622 123.42 212.323 124.451 210.842C126.551 207.841 126.784 207.9 127.056 207.978C127.6 208.134 128.086 208.328 128.514 208.523C130.07 209.283 130.944 210.296 131.139 211.524C131.547 214.233 128.631 217.428 125.715 220.176C125.637 220.273 125.52 220.312 125.423 220.312ZM121.243 217.916C123.848 218.227 124.976 218.792 125.462 219.241C127.97 216.844 130.633 213.901 130.283 211.661C130.128 210.706 129.428 209.926 128.125 209.303C127.795 209.147 127.425 208.991 127.017 208.874C126.337 209.614 123.498 213.356 121.379 217.643C121.34 217.721 121.282 217.818 121.243 217.916Z" fill="#1A171B"></path>
  <path d="M113.797 236.583L51.0577 235.083C49.9106 235.063 48.7636 234.869 47.6748 234.557C45.1862 233.816 41.6867 232.296 39.1204 229.276C39.0037 229.159 38.9843 228.964 39.062 228.828C39.1398 228.672 39.2759 228.575 39.4509 228.575L116.48 227.659C116.499 227.659 116.538 227.659 116.558 227.659L118.171 227.932C118.307 227.951 118.424 228.048 118.482 228.165C118.541 228.282 118.541 228.438 118.463 228.555C116.558 231.965 114.186 236.33 114.166 236.369C114.108 236.505 113.952 236.583 113.797 236.583ZM40.423 229.412C42.7754 231.809 45.7695 233.095 47.9276 233.738C48.9385 234.05 50.0078 234.206 51.0771 234.245L113.544 235.745C114.03 234.849 115.838 231.556 117.432 228.691L116.441 228.536L40.423 229.412Z" fill="black"></path>
  <path d="M117.082 226.899C117.024 226.899 116.985 226.899 116.927 226.879C116.713 226.801 116.596 226.548 116.674 226.334C118.016 222.865 119.318 219.825 120.601 217.253C122.254 213.902 124.451 210.706 125.831 208.972C125.987 208.777 126.24 208.757 126.434 208.894C126.628 209.049 126.648 209.303 126.512 209.498C125.17 211.193 123.012 214.35 121.379 217.643C120.115 220.176 118.813 223.216 117.491 226.645C117.432 226.801 117.257 226.899 117.082 226.899Z" fill="#1A171B"></path>
  <path d="M113.797 236.583L51.0576 235.083C49.9105 235.063 48.7634 234.868 47.6747 234.557C44.5056 233.602 36.9816 230.445 35.9901 221.93C35.9706 221.813 36.0095 221.696 36.0873 221.618C36.165 221.52 36.2622 221.462 36.3789 221.462L82.1646 216.395L84.4005 212.498C84.4588 212.401 84.556 212.323 84.6726 212.303C86.0919 211.972 119.357 204.1 128.534 208.543C130.108 209.303 130.983 210.335 131.158 211.582C131.625 214.895 127.134 218.948 123.537 222.222C121.923 223.683 120.543 224.93 120.115 225.69C118.385 228.711 114.244 236.31 114.205 236.388C114.108 236.505 113.952 236.583 113.797 236.583ZM36.9038 222.261C37.9731 229.666 44.2529 232.627 47.9274 233.738C48.9384 234.05 50.0077 234.206 51.077 234.245L113.544 235.745C114.263 234.44 117.782 227.99 119.338 225.262C119.843 224.385 121.204 223.157 122.934 221.579C126.201 218.617 130.692 214.564 130.283 211.699C130.147 210.725 129.447 209.946 128.125 209.303C119.571 205.152 87.7056 212.459 85.0226 213.083L82.7673 217C82.6896 217.116 82.5729 217.194 82.4368 217.214L36.9038 222.261Z" fill="#1A171B"></path>
  <path d="M42.9113 221.559C42.6974 221.559 42.5225 221.403 42.4836 221.189C42.4836 221.169 42.4836 221.13 42.4836 221.111C42.503 220.682 42.9307 202.755 43.0085 199.774L37.9342 199.442C37.7981 199.442 37.6814 199.364 37.6036 199.267C37.5259 199.17 37.5064 199.033 37.5453 198.897L39.6645 191.59C39.6839 191.414 39.8006 191.258 39.995 191.219L43.7279 190.381C43.7667 190.381 43.8056 190.362 43.8445 190.381L55.8791 191.297V189.212L52.2629 187.322C52.1268 187.244 52.0296 187.108 52.0296 186.932V184.711C52.0296 184.594 52.0879 184.477 52.1656 184.399C52.2434 184.321 52.3795 184.282 52.4962 184.282L55.8985 184.536V179.859C55.8985 179.742 55.9374 179.625 56.0346 179.547C56.1124 179.469 56.229 179.43 56.3457 179.43L57.9205 179.45C57.9593 179.43 58.0177 179.43 58.0566 179.43L59.7674 179.489C60.0007 179.489 60.1757 179.683 60.1757 179.917V184.828L63.6364 185.081C63.8697 185.101 64.0252 185.276 64.0252 185.51V188.082C64.0252 188.277 63.9086 188.433 63.7142 188.491L60.1757 189.524V191.609L73.6684 192.544C73.8434 192.564 73.9795 192.661 74.0378 192.837L75.6904 197.669L80.7453 197.981C80.9786 198 81.1536 198.176 81.1536 198.41V205.717L85.4308 204.782V198.312C85.4308 198.117 85.5474 197.961 85.7224 197.903L105.845 191.628C105.903 191.609 105.942 191.609 106 191.609C106.175 191.628 115.41 192.213 115.41 192.213C115.644 192.233 115.819 192.408 115.819 192.642V193.109L117.84 192.564C117.879 192.544 117.938 192.544 117.977 192.544C118.074 192.544 127.386 193.148 127.386 193.148C127.62 193.168 127.795 193.343 127.795 193.577V206.029C127.795 206.867 127.795 207.744 127.814 208.581C127.814 208.815 127.639 209.01 127.406 209.03C127.192 209.03 126.978 208.854 126.959 208.62C126.939 207.782 126.939 206.886 126.939 206.048V194.006L119.396 193.519C118.754 193.48 118.327 193.441 118.054 193.421L115.507 194.123C115.371 194.162 115.235 194.123 115.138 194.045C115.041 193.967 114.963 193.83 114.963 193.714V193.09L107.42 192.603C106.778 192.564 106.35 192.525 106.078 192.505L86.2862 198.682V205.191C86.2862 205.386 86.1501 205.561 85.9557 205.62L80.823 206.75C80.687 206.769 80.5703 206.75 80.4537 206.672C80.3564 206.594 80.2981 206.477 80.2981 206.341V198.799L75.3599 198.507C75.1849 198.488 75.0294 198.39 74.9905 198.215L73.3379 193.382L59.7286 192.447C59.4953 192.427 59.3397 192.252 59.3397 192.018V189.212C59.3397 189.017 59.4564 188.861 59.6508 188.803L63.1892 187.77V185.978L59.7286 185.724C59.4953 185.705 59.3397 185.529 59.3397 185.296V180.385L58.1732 180.346C58.1343 180.366 58.0954 180.366 58.0371 180.366L56.7539 180.346V185.042C56.7539 185.159 56.6956 185.276 56.6178 185.354C56.5401 185.432 56.404 185.471 56.2873 185.471L52.885 185.218V186.718L56.5012 188.608C56.6373 188.686 56.7345 188.822 56.7345 188.998V191.784C56.7345 191.901 56.6762 192.018 56.5984 192.096C56.5012 192.174 56.3845 192.213 56.2679 192.213L43.8445 191.258L40.4227 192.018L38.498 198.643L43.4557 198.955C43.689 198.975 43.8639 199.17 43.8639 199.403L43.3585 220.215C43.3196 221.52 43.3196 221.52 42.9696 221.559C42.9502 221.559 42.9307 221.559 42.9113 221.559Z" fill="#1A171B"></path>
  <path d="M99.3124 131.631C99.3124 140.244 85.6058 160.957 82.3201 165.79C81.9896 166.277 81.2508 166.277 80.9203 165.79C78.5678 162.321 70.8688 150.727 66.7083 141.257C65.0557 137.496 63.9475 134.086 63.9475 131.631C63.9475 121.849 71.8604 113.898 81.6397 113.898C91.3995 113.898 99.3124 121.829 99.3124 131.631Z" fill="#CDAF71"></path>
  <path d="M87.3415 137.366C90.5 134.2 90.5 129.068 87.3415 125.902C84.1831 122.736 79.0622 122.736 75.9037 125.902C72.7453 129.068 72.7453 134.2 75.9037 137.366C79.0622 140.531 84.1831 140.531 87.3415 137.366Z" fill="white"></path>
  <path d="M303.628 67.4628C303.628 76.0757 289.921 96.7894 286.635 101.622C286.305 102.109 285.566 102.109 285.236 101.622C282.883 98.1535 275.184 86.5592 271.023 77.089C269.371 73.3282 268.263 69.9181 268.263 67.4628C268.263 57.6808 276.176 49.7305 285.955 49.7305C295.734 49.7305 303.628 57.6808 303.628 67.4628Z" fill="#CDAF71"></path>
  <path d="M291.649 73.2046C294.808 70.0389 294.808 64.9064 291.649 61.7408C288.491 58.5751 283.37 58.5751 280.212 61.7407C277.053 64.9064 277.053 70.0389 280.212 73.2046C283.37 76.3702 288.491 76.3702 291.649 73.2046Z" fill="white"></path>
  <path d="M180.58 102.07C180.405 102.07 180.23 101.954 180.171 101.759C180.094 101.525 180.23 101.291 180.463 101.213C181.552 100.882 182.66 100.551 183.749 100.239C183.982 100.18 184.215 100.297 184.274 100.531C184.332 100.765 184.215 100.999 183.982 101.057C182.893 101.369 181.785 101.7 180.716 102.031C180.657 102.07 180.619 102.07 180.58 102.07ZM282.3 101.739C282.261 101.739 282.203 101.739 282.164 101.72L281.542 101.505C281.308 101.427 281.192 101.194 281.269 100.96C281.347 100.726 281.58 100.609 281.814 100.687L282.436 100.901C282.669 100.979 282.786 101.213 282.708 101.447C282.65 101.622 282.475 101.739 282.3 101.739ZM278.411 100.492C278.373 100.492 278.334 100.492 278.295 100.473C277.206 100.141 276.117 99.8101 275.009 99.5178C274.776 99.4593 274.64 99.2255 274.717 98.9916C274.776 98.7578 275.009 98.6214 275.242 98.6994C276.331 99.0111 277.439 99.3229 278.548 99.6737C278.781 99.7516 278.897 99.9854 278.839 100.2C278.761 100.375 278.606 100.492 278.411 100.492ZM187.17 100.18C186.976 100.18 186.801 100.063 186.762 99.8685C186.704 99.6347 186.84 99.4009 187.073 99.3424C188.181 99.0501 189.29 98.7578 190.398 98.485C190.631 98.4266 190.864 98.563 190.923 98.7968C190.981 99.0306 190.845 99.2645 190.612 99.3229C189.504 99.5957 188.395 99.888 187.307 100.18C187.229 100.18 187.19 100.18 187.17 100.18ZM271.821 98.6409C271.782 98.6409 271.743 98.6409 271.723 98.6214C270.635 98.3486 269.507 98.0758 268.399 97.8225C268.166 97.764 268.029 97.5302 268.068 97.3158C268.127 97.082 268.36 96.9456 268.574 96.9846C269.682 97.2379 270.81 97.5107 271.918 97.803C272.151 97.8615 272.287 98.0953 272.229 98.3291C272.19 98.524 272.015 98.6409 271.821 98.6409ZM193.8 98.524C193.606 98.524 193.431 98.3876 193.392 98.1927C193.334 97.9589 193.489 97.7251 193.722 97.6861C194.831 97.4328 195.958 97.1794 197.066 96.9456C197.3 96.8871 197.533 97.043 197.572 97.2769C197.63 97.5107 197.475 97.7445 197.241 97.7835C196.133 98.0173 195.006 98.2707 193.897 98.524C193.878 98.5045 193.839 98.524 193.8 98.524ZM265.152 97.1015C265.133 97.1015 265.094 97.1015 265.074 97.1015C263.966 96.8677 262.838 96.6533 261.73 96.4585C261.497 96.4195 261.341 96.1857 261.38 95.9518C261.419 95.718 261.653 95.5621 261.886 95.6011C263.013 95.8154 264.141 96.0298 265.249 96.2636C265.483 96.3026 265.638 96.5364 265.58 96.7702C265.521 96.9651 265.346 97.1015 265.152 97.1015ZM200.508 97.1015C200.313 97.1015 200.119 96.9651 200.08 96.7507C200.041 96.5169 200.197 96.3026 200.41 96.2441C201.538 96.0298 202.666 95.8154 203.793 95.6206C204.027 95.5816 204.24 95.7375 204.279 95.9713C204.318 96.2051 204.163 96.4195 203.929 96.4585C202.821 96.6533 201.674 96.8482 200.566 97.0625C200.566 97.1015 200.527 97.1015 200.508 97.1015ZM207.254 95.9323C207.04 95.9323 206.865 95.7764 206.826 95.5621C206.787 95.3283 206.943 95.1139 207.176 95.0749C208.304 94.8996 209.451 94.7437 210.579 94.5878C210.812 94.5488 211.026 94.7242 211.065 94.958C211.103 95.1919 210.929 95.4062 210.695 95.4452C209.568 95.6011 208.44 95.757 207.312 95.9323C207.293 95.9323 207.273 95.9323 207.254 95.9323ZM258.406 95.8739C258.386 95.8739 258.367 95.8739 258.347 95.8739C257.22 95.6985 256.092 95.5231 254.964 95.3672C254.731 95.3283 254.576 95.1139 254.595 94.8801C254.634 94.6462 254.848 94.4904 255.081 94.5098C256.209 94.6657 257.356 94.8411 258.483 95.0165C258.717 95.0555 258.872 95.2698 258.833 95.5036C258.795 95.718 258.62 95.8739 258.406 95.8739ZM214.039 95.036C213.825 95.036 213.631 94.8801 213.611 94.6462C213.592 94.4124 213.748 94.1981 213.981 94.1786C215.109 94.0422 216.256 93.9253 217.403 93.8278C217.636 93.8083 217.85 93.9837 217.869 94.2176C217.889 94.4514 217.714 94.6657 217.48 94.6852C216.353 94.7827 215.206 94.9191 214.078 95.036C214.078 95.036 214.059 95.036 214.039 95.036ZM251.62 94.958C251.601 94.958 251.582 94.958 251.562 94.958C250.435 94.8216 249.287 94.7047 248.16 94.6073C247.927 94.5878 247.752 94.3734 247.771 94.1396C247.79 93.9058 248.004 93.7304 248.238 93.7499C249.365 93.8473 250.532 93.9642 251.659 94.1006C251.893 94.1201 252.068 94.3345 252.029 94.5683C252.029 94.7827 251.834 94.958 251.62 94.958ZM220.863 94.3929C220.649 94.3929 220.455 94.2176 220.436 94.0032C220.416 93.7694 220.591 93.555 220.824 93.5355C221.952 93.4576 223.119 93.3797 224.246 93.3212C224.46 93.3017 224.693 93.4966 224.693 93.7304C224.713 93.9642 224.518 94.1786 224.285 94.1786C223.157 94.237 222.01 94.315 220.883 94.3929H220.863ZM244.816 94.315C244.796 94.315 244.796 94.315 244.777 94.315C243.649 94.237 242.502 94.1591 241.375 94.1201C241.141 94.1006 240.966 93.9058 240.966 93.6719C240.986 93.4381 241.18 93.2432 241.413 93.2627C242.561 93.3212 243.708 93.3796 244.835 93.4576C245.069 93.4771 245.243 93.6719 245.224 93.9253C245.224 94.1396 245.03 94.315 244.816 94.315ZM227.707 94.0227C227.474 94.0227 227.279 93.8473 227.279 93.6135C227.279 93.3797 227.454 93.1848 227.687 93.1653C228.835 93.1263 229.982 93.1068 231.129 93.0874C231.362 93.0874 231.556 93.2822 231.556 93.5161C231.556 93.7499 231.362 93.9447 231.129 93.9447C230.001 93.9447 228.854 93.9837 227.707 94.0227ZM237.972 93.9837C236.825 93.9447 235.678 93.9253 234.55 93.9253C234.317 93.9253 234.123 93.7304 234.123 93.4966C234.123 93.2627 234.317 93.0679 234.55 93.0679C235.698 93.0679 236.845 93.0874 237.992 93.1263C238.225 93.1263 238.419 93.3212 238.4 93.5745C238.4 93.8083 238.206 93.9837 237.972 93.9837Z" fill="#1A171B"></path>
  <path d="M85.8586 166.725C85.7614 166.725 85.6836 166.686 85.5864 166.628C85.392 166.492 85.3726 166.219 85.5086 166.024C86.2086 165.108 86.9279 164.212 87.6473 163.335C87.8028 163.159 88.0555 163.12 88.25 163.276C88.4249 163.432 88.4638 163.705 88.3083 163.88C87.6084 164.757 86.889 165.654 86.1891 166.569C86.1113 166.667 85.9947 166.725 85.8586 166.725ZM90.1747 161.406C90.0775 161.406 89.9803 161.367 89.9025 161.308C89.7275 161.152 89.7081 160.88 89.8442 160.704C90.583 159.827 91.3218 158.95 92.08 158.093C92.2356 157.918 92.5077 157.898 92.6827 158.054C92.8577 158.21 92.8771 158.483 92.7216 158.658C91.9828 159.516 91.2246 160.392 90.4858 161.25C90.408 161.347 90.2914 161.406 90.1747 161.406ZM94.6852 156.242C94.588 156.242 94.4714 156.203 94.3936 156.125C94.2186 155.969 94.1992 155.696 94.3742 155.521C95.1518 154.663 95.9295 153.826 96.7072 153.007C96.8627 152.832 97.1349 152.832 97.3099 152.988C97.4849 153.144 97.4849 153.416 97.3293 153.592C96.5517 154.41 95.774 155.248 94.9963 156.105C94.9185 156.183 94.8019 156.242 94.6852 156.242ZM99.3902 151.253C99.2735 151.253 99.1763 151.214 99.0986 151.137C98.9236 150.961 98.9236 150.708 99.0986 150.532C99.8957 149.714 100.712 148.915 101.529 148.097C101.704 147.921 101.976 147.941 102.131 148.097C102.287 148.272 102.287 148.545 102.131 148.701C101.315 149.5 100.498 150.318 99.7207 151.117C99.604 151.214 99.5068 151.253 99.3902 151.253ZM104.29 146.46C104.173 146.46 104.056 146.421 103.978 146.323C103.823 146.148 103.823 145.875 103.998 145.719C104.834 144.94 105.67 144.141 106.506 143.381C106.681 143.225 106.953 143.225 107.109 143.401C107.264 143.576 107.264 143.849 107.089 144.005C106.253 144.765 105.417 145.544 104.581 146.323C104.503 146.421 104.387 146.46 104.29 146.46ZM109.344 141.842C109.228 141.842 109.111 141.783 109.014 141.686C108.858 141.51 108.878 141.238 109.053 141.082C109.908 140.341 110.783 139.581 111.658 138.841C111.833 138.685 112.105 138.704 112.261 138.899C112.416 139.075 112.397 139.347 112.202 139.503C111.328 140.244 110.453 140.984 109.617 141.744C109.558 141.803 109.442 141.842 109.344 141.842ZM114.574 137.418C114.458 137.418 114.322 137.36 114.244 137.262C114.088 137.087 114.127 136.814 114.302 136.658C115.196 135.937 116.091 135.216 116.985 134.515C117.18 134.359 117.432 134.398 117.588 134.593C117.743 134.788 117.704 135.041 117.51 135.197C116.616 135.898 115.721 136.619 114.847 137.34C114.769 137.379 114.672 137.418 114.574 137.418ZM119.96 133.19C119.824 133.19 119.707 133.131 119.61 133.014C119.474 132.82 119.513 132.547 119.688 132.41C120.601 131.728 121.515 131.027 122.448 130.364C122.643 130.228 122.915 130.267 123.051 130.462C123.187 130.657 123.148 130.929 122.954 131.066C122.04 131.728 121.107 132.43 120.212 133.112C120.135 133.151 120.057 133.19 119.96 133.19ZM125.501 129.137C125.365 129.137 125.229 129.078 125.151 128.961C125.015 128.766 125.054 128.494 125.248 128.357C126.181 127.695 127.134 127.032 128.067 126.409C128.261 126.272 128.534 126.331 128.67 126.526C128.806 126.72 128.747 126.993 128.553 127.13C127.62 127.753 126.667 128.416 125.734 129.078C125.676 129.117 125.578 129.137 125.501 129.137ZM131.158 125.298C131.022 125.298 130.886 125.22 130.808 125.103C130.672 124.908 130.731 124.635 130.925 124.518C131.878 123.895 132.85 123.271 133.822 122.667C134.016 122.55 134.288 122.609 134.405 122.804C134.522 122.999 134.463 123.271 134.269 123.388C133.316 123.992 132.344 124.616 131.392 125.239C131.333 125.278 131.255 125.298 131.158 125.298ZM136.971 121.654C136.835 121.654 136.68 121.576 136.602 121.44C136.485 121.245 136.544 120.972 136.738 120.855C137.71 120.27 138.702 119.666 139.693 119.101C139.888 118.984 140.16 119.043 140.277 119.257C140.393 119.472 140.335 119.725 140.121 119.842C139.149 120.407 138.157 120.991 137.185 121.576C137.127 121.635 137.049 121.654 136.971 121.654ZM142.901 118.205C142.746 118.205 142.61 118.127 142.532 117.991C142.415 117.776 142.493 117.523 142.707 117.406C143.698 116.86 144.709 116.295 145.72 115.769C145.934 115.652 146.187 115.73 146.304 115.945C146.42 116.159 146.342 116.412 146.129 116.529C145.118 117.075 144.107 117.62 143.135 118.166C143.037 118.185 142.96 118.205 142.901 118.205ZM148.928 114.97C148.773 114.97 148.617 114.892 148.539 114.736C148.423 114.522 148.52 114.269 148.734 114.152C149.745 113.626 150.775 113.119 151.806 112.612C152.019 112.515 152.272 112.593 152.369 112.807C152.467 113.022 152.389 113.275 152.175 113.372C151.164 113.879 150.134 114.386 149.123 114.912C149.064 114.97 149.006 114.97 148.928 114.97ZM155.091 111.95C154.936 111.95 154.78 111.852 154.702 111.697C154.605 111.482 154.702 111.229 154.916 111.132C155.947 110.644 156.997 110.157 158.027 109.69C158.241 109.592 158.494 109.69 158.591 109.904C158.688 110.118 158.591 110.372 158.377 110.469C157.347 110.937 156.297 111.404 155.266 111.891C155.208 111.95 155.15 111.95 155.091 111.95ZM161.332 109.144C161.157 109.144 161.002 109.046 160.943 108.891C160.846 108.676 160.943 108.423 161.177 108.326C162.226 107.877 163.296 107.429 164.346 107C164.56 106.903 164.812 107.02 164.909 107.234C165.007 107.449 164.89 107.702 164.676 107.799C163.626 108.228 162.557 108.676 161.527 109.124C161.449 109.144 161.39 109.144 161.332 109.144ZM167.69 106.572C167.515 106.572 167.359 106.474 167.281 106.299C167.204 106.085 167.301 105.831 167.534 105.753C168.603 105.344 169.673 104.935 170.742 104.545C170.956 104.467 171.209 104.584 171.286 104.799C171.364 105.013 171.248 105.266 171.034 105.344C169.964 105.734 168.895 106.143 167.826 106.552C167.787 106.552 167.729 106.572 167.69 106.572ZM174.105 104.194C173.931 104.194 173.756 104.078 173.697 103.902C173.619 103.688 173.736 103.434 173.969 103.357C175.039 102.986 176.147 102.616 177.216 102.265C177.45 102.187 177.683 102.324 177.761 102.538C177.838 102.772 177.702 103.006 177.488 103.084C176.419 103.434 175.33 103.805 174.242 104.175C174.203 104.194 174.164 104.194 174.105 104.194Z" fill="#1A171B"></path>
  <path d="M183.432 108.02C185.687 105.76 185.686 102.096 183.432 99.836C181.177 97.5759 177.521 97.5759 175.266 99.836C173.011 102.096 173.011 105.76 175.266 108.02C177.521 110.281 181.177 110.281 183.432 108.02Z" fill="#CDAF71"></path>
  <path d="M189.756 396.545C188.784 390.231 188.123 385.457 188.123 385.457L118.657 396.272C118.657 396.272 118.638 396.369 118.618 396.545H189.756Z" fill="#1A171B"></path>
  <path d="M147.84 255.815L149.453 223.157L172.998 235.452L172.512 256.088C172.278 260.687 168.74 272.028 168.74 272.028C163.86 275.535 156.725 265.987 151.825 262.499L150.698 261.7C148.773 260.375 147.704 258.154 147.84 255.815Z" fill="white"></path>
  <path d="M166.368 273.256C163.024 273.256 159.233 269.749 155.811 266.553C154.275 265.13 152.836 263.786 151.553 262.87L150.425 262.071C148.403 260.629 147.276 258.271 147.412 255.796L149.026 223.157C149.026 223.021 149.123 222.884 149.239 222.807C149.356 222.729 149.512 222.729 149.648 222.807L173.192 235.102C173.328 235.18 173.425 235.336 173.425 235.492L172.939 256.128C172.706 260.746 169.284 271.736 169.148 272.184C169.129 272.282 169.07 272.36 168.992 272.399C168.156 273.003 167.282 273.256 166.368 273.256ZM149.842 223.859L148.267 255.835C148.131 258.018 149.123 260.103 150.911 261.37L152.039 262.168C153.361 263.104 154.839 264.468 156.375 265.91C160.438 269.69 165.046 273.958 168.331 271.775C168.74 270.47 171.85 260.298 172.045 256.069L172.531 235.706L149.842 223.859Z" fill="#1A171B"></path>
  <path d="M184.274 186.133C177.955 185.705 185.829 192.272 162.537 185.198C153.264 182.392 157.852 193.265 155.441 192.544C146.556 189.875 146.848 189.953 142.493 191.044C139.596 191.765 137.671 197.046 138.157 201.001C138.818 206.224 143.134 207.627 146.828 218.695C149.434 226.47 148.714 231.166 151.825 232.335C154.955 233.504 157.346 229.334 160.865 230.347C165.434 231.673 164.443 239.564 168.856 242.877C171.636 244.982 178.169 245.995 188.706 241.045C190.417 240.246 191.312 238.337 190.825 236.505C190.203 234.167 189.406 231.205 188.415 228.457C183.671 215.324 179.024 212.303 180.755 208.932C183.418 203.768 193.236 206.867 194.928 202.599C196.678 198.234 192.925 186.738 184.274 186.133Z" fill="#1A171B"></path>
  <path d="M161.974 208.425L163.743 211.816C164.579 213.414 165.298 215.051 165.901 216.746C167.048 219.922 169.206 225.3 170.392 228.321C174.203 238.083 186.315 227.541 186.315 227.541L187.17 224.872L188.784 224.229C189.095 224.112 189.387 223.917 189.601 223.663C190.126 223.001 190.145 222.124 189.698 221.481C187.326 217.915 182.388 209.887 180.657 202.716C180.677 202.716 170.411 199.949 161.974 208.425Z" fill="white"></path>
  <path d="M162.401 208.484C162.81 209.186 163.198 209.868 163.587 210.55L164.151 211.602C164.346 211.972 164.54 212.362 164.734 212.751C165.493 214.291 166.115 215.908 166.698 217.506C167.884 220.682 169.148 223.839 170.373 226.996L170.839 228.184C170.995 228.555 171.15 228.925 171.345 229.276C171.733 229.977 172.239 230.601 172.861 231.068C173.483 231.536 174.203 231.828 174.98 231.945C175.758 232.062 176.555 232.023 177.352 231.867C178.946 231.556 180.482 230.874 181.921 230.055C183.36 229.237 184.76 228.262 186.023 227.21L185.887 227.405L186.762 224.735C186.801 224.618 186.898 224.521 187.015 224.463C187.52 224.268 188.026 224.092 188.551 223.917C189.037 223.781 189.387 223.527 189.581 223.099C189.776 222.689 189.756 222.183 189.542 221.793C189.503 221.696 189.426 221.598 189.348 221.481L189.115 221.15L188.667 220.468C187.481 218.636 186.373 216.785 185.304 214.875C184.254 212.966 183.282 211.017 182.407 209.01C181.532 207.003 180.774 204.957 180.249 202.814L180.56 203.125C178.985 202.775 177.274 202.658 175.622 202.736C173.95 202.814 172.317 203.106 170.722 203.593C169.128 204.08 167.612 204.762 166.193 205.639C165.493 206.087 164.793 206.535 164.151 207.062C163.821 207.315 163.51 207.588 163.198 207.86C163.023 208.016 162.946 208.094 162.81 208.192C162.674 208.309 162.537 208.406 162.401 208.484ZM161.546 208.367C161.701 208.172 161.876 207.958 162.071 207.763C162.246 207.568 162.46 207.354 162.615 207.237C162.946 206.964 163.257 206.652 163.607 206.399C164.268 205.853 165.007 205.366 165.726 204.899C167.203 204.002 168.798 203.281 170.47 202.775C172.122 202.268 173.853 201.976 175.583 201.898C177.313 201.82 179.044 201.917 180.774 202.326C180.93 202.365 181.046 202.482 181.066 202.619V202.638C181.571 204.723 182.271 206.75 183.107 208.737C183.943 210.725 184.876 212.674 185.907 214.564C186.937 216.454 188.026 218.324 189.192 220.156L189.62 220.838L189.834 221.169C189.892 221.267 189.989 221.403 190.067 221.54C190.359 222.105 190.359 222.787 190.126 223.371C190.009 223.664 189.834 223.936 189.581 224.151C189.348 224.365 189.056 224.521 188.803 224.638C188.317 224.852 187.812 225.086 187.306 225.281L187.559 225.008L186.704 227.678C186.684 227.756 186.626 227.814 186.587 227.873C185.246 228.983 183.846 229.958 182.349 230.835C180.852 231.672 179.238 232.413 177.508 232.744C176.633 232.92 175.739 232.978 174.825 232.842C173.93 232.705 173.036 232.354 172.297 231.789C171.558 231.244 170.975 230.503 170.548 229.724C170.334 229.334 170.139 228.925 169.984 228.516L169.517 227.327C168.273 224.17 167.009 221.014 165.804 217.818C165.24 216.2 164.637 214.661 163.898 213.141C163.723 212.771 163.529 212.381 163.335 212.011L162.712 210.803C162.324 209.984 161.935 209.166 161.546 208.367Z" fill="#1A171B"></path>
  <path d="M164.404 220.195C164.404 220.195 160.166 212.05 156.861 214.778C153.575 217.487 158.474 226.333 164.404 220.195Z" fill="white"></path>
  <path d="M180.482 221.657C180.327 221.657 180.191 221.657 180.035 221.637C179.471 221.579 178.888 221.111 178.402 220.332C177.43 218.714 176.905 215.713 178.344 212.128C178.558 211.582 179.044 211.134 179.685 210.861C180.482 210.53 181.396 210.569 182.252 210.959C183.399 211.465 184.021 212.79 184.118 214.992C184.254 217.837 183.768 219.805 182.679 220.838C182.116 221.364 181.377 221.657 180.482 221.657ZM180.852 211.485C180.56 211.485 180.288 211.543 180.016 211.641C179.608 211.816 179.277 212.108 179.141 212.42C177.819 215.713 178.266 218.422 179.141 219.864C179.53 220.487 179.899 220.741 180.113 220.76C180.949 220.838 181.61 220.643 182.116 220.176C183.01 219.318 183.399 217.584 183.282 214.992C183.204 213.141 182.757 212.069 181.921 211.719C181.571 211.563 181.202 211.485 180.852 211.485Z" fill="#1A171B"></path>
  <path d="M160.554 213.764C160.341 213.764 160.146 213.609 160.127 213.394C160.107 213.16 160.263 212.946 160.496 212.927L180.268 210.647C180.502 210.627 180.716 210.783 180.735 211.017C180.755 211.251 180.599 211.465 180.366 211.485L160.613 213.764C160.593 213.764 160.574 213.764 160.554 213.764Z" fill="#1A171B"></path>
  <path d="M189.115 219.708C188.959 219.708 188.804 219.611 188.726 219.455C188.629 219.24 188.726 218.987 188.94 218.89C189.445 218.578 190.981 214.564 189.329 211.66C189.056 211.193 188.706 210.92 188.259 210.842C187.054 210.608 185.401 211.621 184.857 212.05C184.663 212.187 184.41 212.167 184.254 211.972C184.118 211.777 184.138 211.524 184.332 211.368C184.429 211.29 186.587 209.634 188.415 210.004C189.115 210.14 189.679 210.569 190.067 211.251C191.253 213.317 191.039 215.986 190.437 217.799C190.281 218.286 189.854 219.435 189.27 219.689C189.231 219.689 189.173 219.708 189.115 219.708Z" fill="#1A171B"></path>
  <path d="M193.703 292.119C193.703 292.119 200.235 318.561 206.437 326.024C212.658 333.488 225.082 342.198 239.683 343.445C239.683 343.445 247.946 342.919 242.755 357.923C241.919 360.359 239.741 362.093 237.194 362.347C225.996 363.496 194.675 364.295 182.524 339.723C167.592 309.539 193.703 292.119 193.703 292.119Z" fill="#1A171B"></path>
  <path d="M115.41 396.545H194.792C192.575 381.462 189.134 350.733 193.703 327.934C196.308 314.956 202.063 293.444 187.481 274.191C184.157 269.807 177.547 262.11 174.591 257.453L171.014 261.038C170.314 261.213 169.536 266.787 168.72 266.923C159.952 268.443 157.463 264.429 151.339 257.959L145.973 252.834C145.973 252.834 142.182 254.978 135.299 260.843C128.436 266.689 117.976 267.02 111.911 281.518C101.334 306.753 104.425 360.963 114.283 388.399C115.021 390.445 115.313 393.505 115.41 396.545Z" fill="#1A171B"></path>
  <path d="M191.467 355.059C191.233 355.059 191.039 354.864 191.039 354.63C191.039 344.361 191.797 335.358 193.294 327.856C193.469 326.999 193.644 326.102 193.839 325.167C194.597 321.465 195.472 317.275 196.036 312.716C196.075 312.482 196.288 312.306 196.522 312.345C196.755 312.365 196.93 312.579 196.891 312.832C196.327 317.412 195.452 321.621 194.675 325.343C194.48 326.278 194.305 327.155 194.13 328.012C192.633 335.456 191.895 344.419 191.895 354.611C191.895 354.864 191.7 355.059 191.467 355.059Z" fill="white"></path>
  <path d="M241.705 348.453C240.441 350.323 236.572 355.234 241.18 358.254C242.385 359.034 249.617 360.008 251.523 360.943C254.342 362.307 256.442 365.211 260.797 366.848C268.884 369.868 273.9 367.861 278.178 363.418C282.455 358.975 270.479 344.205 261.924 344.945C253.409 345.705 243.532 345.744 241.705 348.453Z" fill="white"></path>
  <path d="M267.835 368.719C265.638 368.719 263.266 368.232 260.68 367.257C258.036 366.264 256.208 364.822 254.575 363.536C253.487 362.678 252.476 361.879 251.367 361.334C250.454 360.885 248.121 360.398 246.04 359.97C243.299 359.405 241.588 359.015 240.966 358.625C239.683 357.787 238.886 356.715 238.652 355.468C238.147 352.877 240.072 350.11 241.083 348.629C241.18 348.492 241.277 348.356 241.355 348.239C242.949 345.881 249.384 345.452 256.831 344.926C258.503 344.809 260.252 344.693 261.924 344.556C268.282 344.011 275.825 351.337 278.431 356.852C279.869 359.872 279.889 362.327 278.508 363.75C275.281 367.082 271.84 368.719 267.835 368.719ZM242.055 348.707C241.977 348.824 241.88 348.96 241.783 349.116C240.83 350.499 239.041 353.072 239.488 355.312C239.683 356.326 240.344 357.203 241.433 357.924C241.958 358.274 244.213 358.742 246.215 359.151C248.432 359.619 250.745 360.087 251.737 360.574C252.923 361.158 253.992 361.996 255.1 362.873C256.675 364.12 258.444 365.523 260.972 366.459C268.029 369.109 273.104 368.115 277.886 363.146C279.383 361.587 278.372 358.762 277.653 357.203C274.873 351.357 267.426 344.926 262.002 345.394C260.33 345.53 258.58 345.667 256.908 345.764C250.259 346.232 243.416 346.7 242.055 348.707Z" fill="#1A171B"></path>
  <path d="M248.607 350.909C247.984 349.739 248.334 348.395 249.19 347.401C251.27 345.004 255.567 340.483 258.6 340.737C262.177 341.049 266.746 345.043 265.346 351.883C264.452 356.248 260.563 354.104 260.038 352.389C259.475 350.538 258.658 348.512 257.725 349.35C256.714 350.265 250.959 355.234 248.607 350.909Z" fill="white"></path>
  <path d="M263.013 354.883C261.516 354.883 259.999 353.636 259.65 352.506C258.872 349.953 258.366 349.622 258.211 349.583C258.191 349.583 258.133 349.564 258.036 349.661C256.733 350.83 253.409 353.5 250.726 353.032C249.656 352.857 248.82 352.194 248.237 351.123C247.576 349.895 247.809 348.375 248.879 347.128C251.678 343.874 255.645 340.054 258.658 340.327C260.699 340.503 262.819 341.769 264.218 343.62C265.404 345.199 266.629 347.927 265.813 351.98C265.307 354.435 263.927 354.864 263.149 354.883C263.091 354.883 263.052 354.883 263.013 354.883ZM258.191 348.706C258.289 348.706 258.386 348.726 258.444 348.745C259.183 348.96 259.786 349.992 260.466 352.253C260.719 353.091 261.983 354.065 263.091 354.026C264.257 353.968 264.743 352.779 264.938 351.805C265.696 348.083 264.588 345.569 263.499 344.147C262.255 342.471 260.369 341.341 258.561 341.185C256.539 341.009 253.214 343.387 249.501 347.693C248.859 348.434 248.373 349.622 248.956 350.713C249.423 351.571 250.045 352.058 250.842 352.194C253.214 352.604 256.5 349.875 257.433 349.038C257.725 348.784 257.978 348.706 258.191 348.706Z" fill="#1A171B"></path>
  <path d="M177.799 316.496C168.603 293.327 158.727 271.619 147.236 253.438C155.557 259.362 162.634 267.702 172.802 260.785C175.544 277.328 179.685 297.224 177.799 316.496Z" fill="white"></path>
  <path d="M177.799 316.924C177.624 316.924 177.469 316.827 177.41 316.651C166.737 289.76 157.035 269.748 146.886 253.672C146.77 253.497 146.809 253.263 146.945 253.126C147.081 252.99 147.314 252.971 147.489 253.088C148.831 254.042 150.153 255.075 151.416 256.069C158.027 261.213 164.268 266.065 172.569 260.434C172.686 260.356 172.841 260.336 172.978 260.395C173.114 260.453 173.211 260.57 173.23 260.726C173.561 262.714 173.911 264.76 174.261 266.825C176.885 282.161 179.879 299.542 178.207 316.554C178.188 316.749 178.032 316.905 177.838 316.944C177.838 316.924 177.819 316.924 177.799 316.924ZM148.792 255.114C158.318 270.567 167.514 289.604 177.527 314.664C178.81 298.334 175.952 281.693 173.425 266.962C173.114 265.11 172.803 263.279 172.491 261.506C169.867 263.162 167.456 263.863 165.181 263.863C160.029 263.863 155.558 260.375 150.911 256.751C150.211 256.205 149.511 255.66 148.792 255.114Z" fill="#1A171B"></path>
  <path d="M147.567 250.184C154.216 255.153 163.996 259.479 170.781 260.259C168.681 266.455 170.275 267.176 165.415 272.554C153.147 265.384 150.756 258.485 145.701 252.074C144.729 250.847 146.303 249.249 147.567 250.184Z" fill="white"></path>
  <path d="M165.395 273.003C165.318 273.003 165.24 272.983 165.182 272.944C155.713 267.41 152.097 262.071 148.617 256.927C147.548 255.348 146.537 253.848 145.37 252.367C144.806 251.665 144.865 250.71 145.487 250.048C146.129 249.385 147.081 249.307 147.82 249.853C154.566 254.881 164.229 259.09 170.82 259.849C170.956 259.869 171.072 259.927 171.131 260.044C171.209 260.161 171.209 260.298 171.17 260.415C170.509 262.363 170.217 263.727 169.964 264.955C169.42 267.546 169.089 269.125 165.707 272.866C165.629 272.944 165.512 273.003 165.395 273.003ZM146.751 250.34C146.478 250.34 146.245 250.477 146.09 250.633C145.837 250.886 145.662 251.354 146.031 251.821C147.217 253.341 148.248 254.842 149.317 256.439C152.719 261.467 156.219 266.65 165.318 272.028C168.331 268.638 168.623 267.254 169.128 264.779C169.362 263.708 169.634 262.383 170.198 260.648C163.49 259.713 153.983 255.524 147.295 250.555C147.12 250.399 146.926 250.34 146.751 250.34Z" fill="#1A171B"></path>
  <path d="M170.256 262.071C173.25 258.485 174.008 254.53 173.075 250.282C178.324 253.516 180.929 258.856 182.018 265.403C178.402 261.876 173.95 261.856 170.256 262.071Z" fill="white"></path>
  <path d="M182.018 265.832C181.902 265.832 181.804 265.793 181.727 265.715C178.285 262.363 174.028 262.305 170.295 262.5C170.12 262.5 169.964 262.422 169.887 262.266C169.809 262.11 169.828 261.935 169.945 261.798C172.725 258.447 173.619 254.725 172.667 250.379C172.628 250.204 172.706 250.029 172.842 249.931C172.978 249.834 173.172 249.834 173.308 249.912C178.227 252.952 181.221 257.998 182.446 265.325C182.485 265.501 182.388 265.695 182.232 265.773C182.154 265.812 182.077 265.832 182.018 265.832ZM172.414 261.564C175.408 261.564 178.558 262.032 181.357 264.253C180.132 258.252 177.605 253.965 173.658 251.198C174.261 255.037 173.425 258.525 171.15 261.603C171.578 261.584 172.006 261.564 172.414 261.564Z" fill="#1A171B"></path>
  <path d="M97.543 396.544C100.557 339.703 114.496 332.376 133.219 313.611C145.584 301.218 145.37 289.332 143.329 281.966C142.143 277.698 139.421 274.015 135.708 271.599C133.083 269.884 125.617 267.507 122.643 268.501C104.037 274.814 86.0529 322.049 78.7621 342.529C73.5906 357.085 74.2127 381.033 75.3598 396.544H97.543Z" fill="#1A171B"></path>
  <path d="M129.058 318.132C128.942 318.132 128.825 318.093 128.747 317.996C128.592 317.82 128.592 317.547 128.767 317.392C129.992 316.222 131.43 314.819 132.927 313.299C144.981 301.218 145.02 289.643 142.921 282.063C142.104 279.121 140.529 276.432 138.332 274.249C138.157 274.074 138.157 273.821 138.332 273.645C138.507 273.47 138.76 273.47 138.935 273.645C141.229 275.925 142.901 278.751 143.757 281.829C145.915 289.624 145.895 301.51 133.53 313.904C132.014 315.423 130.575 316.826 129.35 318.015C129.272 318.093 129.156 318.132 129.058 318.132Z" fill="white"></path>
  <path d="M378.44 375.811C378.44 389.705 348.888 391.946 329.621 391.946C310.354 391.946 308.527 385.554 308.527 371.641C308.527 357.728 324.139 346.465 343.406 346.465C362.692 346.465 378.44 361.898 378.44 375.811Z" fill="#1A171B"></path>
  <path d="M329.621 392.375C320.134 392.375 314.554 390.796 311.521 387.289C308.663 383.957 308.099 379.027 308.099 371.641C308.099 357.533 323.944 346.037 343.406 346.037C363.373 346.037 378.848 362.035 378.848 375.792C378.868 389.491 352.077 392.375 329.621 392.375ZM343.425 346.894C324.43 346.894 308.974 358.001 308.974 371.641C308.974 378.812 309.499 383.586 312.182 386.724C315.02 390.036 320.406 391.517 329.621 391.517C347.702 391.517 378.012 389.471 378.012 375.811C378.012 362.444 362.886 346.894 343.425 346.894Z" fill="#1A171B"></path>
  <path d="M375.776 396.545C365.628 378.306 346.944 363.146 346.944 363.146L297.542 369.478C297.095 378.403 296.92 387.484 296.978 396.545H375.776Z" fill="white"></path>
  <path d="M346.575 392.433C346.458 392.433 346.341 392.375 346.244 392.277C344.106 389.744 342.861 385.789 343.036 382.203C343.056 381.969 343.25 381.794 343.483 381.794C343.717 381.813 343.892 382.008 343.892 382.242C343.717 385.574 344.922 389.374 346.886 391.712C347.041 391.888 347.022 392.161 346.827 392.316C346.769 392.394 346.672 392.433 346.575 392.433Z" fill="#1A171B"></path>
  <path d="M375.776 396.973C375.621 396.973 375.485 396.896 375.407 396.759C365.88 379.631 348.558 365.036 346.827 363.594L297.97 369.868C297.561 378.189 297.367 387.172 297.425 396.545C297.425 396.779 297.231 396.973 296.998 396.973C296.764 396.973 296.57 396.779 296.57 396.545C296.512 387.016 296.687 377.897 297.134 369.459C297.153 369.245 297.309 369.089 297.503 369.05L346.905 362.717C347.022 362.697 347.138 362.736 347.236 362.814C347.43 362.97 366.094 378.247 376.165 396.33C376.282 396.545 376.204 396.798 376.01 396.915C375.912 396.954 375.835 396.973 375.776 396.973Z" fill="#1A171B"></path>
  <path d="M378.304 377.974C378.304 377.974 366.969 359.209 343.425 371.641C322.447 382.709 297.62 376.259 292.448 374.72C291.865 374.544 291.437 374.038 291.418 373.414C290.951 365.698 288.463 315.034 299.409 286.331C301.236 281.537 306.758 276.646 311.735 275.516C322.35 273.119 330.069 269.729 341.753 268.93C350.696 268.326 368.194 269.904 373.657 271.093C379.179 272.301 382.542 274.659 381.084 278.302L371.946 300.75C367.358 312.286 367.864 325.283 373.502 336.332C373.541 336.43 373.599 336.507 373.638 336.605C378.343 345.783 379.12 367.023 378.304 377.974Z" fill="white"></path>
  <path d="M378.304 378.403C378.148 378.403 378.012 378.325 377.935 378.188C377.915 378.15 375.077 373.531 369.458 370.491C362.031 366.477 353.107 367.003 343.62 372.011C334.346 376.902 324.275 378.383 315.506 378.383C304.23 378.383 295.054 375.928 292.332 375.129C291.573 374.895 291.029 374.233 290.99 373.434C290.426 363.866 288.152 314.644 299 286.156C300.886 281.206 306.563 276.237 311.638 275.087C315.098 274.308 318.287 273.412 321.359 272.535C327.774 270.723 333.821 269.027 341.734 268.482C350.424 267.897 368.039 269.417 373.755 270.645C377.837 271.541 380.404 272.944 381.415 274.834C381.998 275.925 382.017 277.133 381.492 278.439L372.355 300.887C367.786 312.384 368.35 325.225 373.891 336.118L374.027 336.391C378.673 345.452 379.587 366.555 378.751 377.974C378.732 378.169 378.596 378.325 378.421 378.364C378.362 378.403 378.343 378.403 378.304 378.403ZM346.264 269.242C344.611 269.242 343.095 269.281 341.773 269.378C333.957 269.904 327.93 271.599 321.572 273.392C318.481 274.269 315.312 275.165 311.812 275.945C306.971 277.036 301.586 281.771 299.778 286.487C288.988 314.8 291.262 363.847 291.826 373.395C291.846 373.824 292.137 374.194 292.565 374.311C297.348 375.733 322.311 382.281 343.231 371.251C355.576 364.743 364.558 366.848 369.905 369.77C374.124 372.07 376.787 375.149 377.973 376.727C378.673 365.191 377.682 345.413 373.268 336.819L373.132 336.547C367.475 325.42 366.891 312.325 371.558 300.595L380.695 278.147C381.123 277.075 381.104 276.14 380.637 275.263C379.762 273.626 377.332 272.34 373.56 271.502C368.758 270.489 355.46 269.242 346.264 269.242Z" fill="#1A171B"></path>
  <path d="M309.052 356.617C306.952 356.13 299.584 354.396 298.281 353.85C295.734 352.759 294.626 351.59 293.77 348.94C292.196 343.99 292.137 340.951 292.526 339.119C292.857 337.618 294.14 336.508 295.676 336.41C302.772 335.962 335.648 334.13 339.537 330.233C343.989 325.751 343.989 319.009 349.996 299.737C356.004 280.446 364.461 275.068 364.461 275.068C364.461 275.068 382.348 263.357 388.647 288.845C388.647 288.845 393.294 304.628 380.987 329.96C372.841 346.718 350.094 366.263 309.052 356.617Z" fill="white"></path>
  <path d="M329.932 359.618C323.303 359.618 316.323 358.761 308.954 357.027C308.721 356.968 308.585 356.734 308.643 356.52C308.702 356.286 308.935 356.15 309.149 356.208C316.634 357.962 323.555 358.761 329.932 358.761C356.49 358.761 373.249 344.906 380.598 329.765C392.71 304.862 388.277 289.117 388.239 288.962C386.586 282.297 384 277.64 380.54 275.087C380.345 274.951 380.306 274.678 380.442 274.483C380.578 274.288 380.851 274.25 381.045 274.386C384.661 277.056 387.364 281.888 389.055 288.728C389.094 288.864 393.605 304.94 381.356 330.136C378.537 335.923 371.713 346.66 357.52 353.578C349.277 357.611 340.042 359.618 329.932 359.618Z" fill="#1A171B"></path>
  <path d="M309.052 357.046C309.013 357.046 308.994 357.046 308.955 357.027L308.702 356.968C304.716 356.033 299.273 354.727 298.126 354.24C295.443 353.11 294.257 351.804 293.382 349.057C292.021 344.809 291.613 341.438 292.118 339.022C292.487 337.346 293.926 336.079 295.657 335.982L296.959 335.904C322.661 334.325 336.873 332.318 339.245 329.922C342.064 327.096 343.056 323.277 345.039 315.697C346.031 311.877 347.275 307.142 349.141 301.082C349.219 300.848 349.452 300.731 349.666 300.79C349.899 300.868 350.016 301.102 349.958 301.316C348.111 307.337 346.867 312.092 345.875 315.892C343.853 323.628 342.823 327.505 339.848 330.506C337.301 333.078 323.283 335.124 296.998 336.742L295.715 336.82C294.373 336.898 293.246 337.872 292.954 339.197C292.624 340.756 292.565 343.679 294.198 348.784C294.995 351.298 296.006 352.389 298.456 353.441C299.662 353.948 306.622 355.585 308.896 356.13L309.149 356.189C309.383 356.247 309.519 356.481 309.46 356.695C309.421 356.91 309.246 357.046 309.052 357.046Z" fill="#1A171B"></path>
  <path d="M265.599 314.508C265.541 314.508 265.463 314.489 265.405 314.469C265.191 314.372 265.113 314.099 265.21 313.884L271.004 302.173C271.101 301.959 271.373 301.881 271.568 301.978C271.782 302.076 271.859 302.349 271.762 302.544L265.969 314.255C265.91 314.411 265.755 314.508 265.599 314.508Z" fill="#1A171B"></path>
  <path d="M244.33 320.276C244.252 320.276 244.174 320.257 244.096 320.198L233.189 313.008C232.995 312.871 232.937 312.618 233.073 312.423C233.209 312.228 233.462 312.17 233.656 312.306L244.563 319.497C244.757 319.633 244.816 319.886 244.68 320.081C244.621 320.198 244.485 320.276 244.33 320.276Z" fill="#1A171B"></path>
  <path d="M253.856 315.482C253.662 315.482 253.487 315.365 253.448 315.17L249.248 299.64C249.19 299.406 249.326 299.172 249.54 299.114C249.773 299.055 250.007 299.192 250.065 299.406L254.264 314.936C254.323 315.17 254.187 315.404 253.973 315.463C253.934 315.482 253.895 315.482 253.856 315.482Z" fill="#1A171B"></path>
  <path d="M291.651 339.684C290.465 339.587 282.183 339.158 280.997 339.216C268.671 339.723 263.499 344.575 258.911 350.947C254.323 357.319 260.7 364.276 266.299 362.873C271.898 361.489 281.25 357.943 294.84 349.719C296.376 348.784 298.961 348.375 298.825 346.563C298.534 343.406 297.989 340.171 291.651 339.684Z" fill="white"></path>
  <path d="M264.841 363.457C262.352 363.457 259.805 362.093 258.25 359.794C256.345 356.968 256.461 353.558 258.561 350.674C263.597 343.679 269.118 339.255 280.978 338.768C282.202 338.729 290.563 339.158 291.69 339.236C298.145 339.742 298.942 342.958 299.234 346.485C299.37 348.102 297.795 348.784 296.415 349.388C295.929 349.602 295.442 349.817 295.034 350.051C280.978 358.566 271.704 361.937 266.377 363.262C265.871 363.399 265.366 363.457 264.841 363.457ZM281.25 339.625C281.153 339.625 281.075 339.625 281.017 339.625C269.449 340.093 264.277 344.224 259.261 351.161C257.395 353.753 257.278 356.793 258.969 359.306C260.641 361.781 263.616 363.067 266.202 362.424C271.451 361.119 280.647 357.787 294.626 349.33C295.073 349.057 295.598 348.823 296.103 348.609C297.581 347.966 298.475 347.517 298.398 346.563C298.184 343.893 297.912 340.58 291.651 340.093C290.329 340.015 282.98 339.625 281.25 339.625Z" fill="#1A171B"></path>
  <path d="M281.405 352.915C283.447 352.954 284.847 355.098 283.991 356.968C283.913 357.144 283.816 357.339 283.7 357.534C281.736 361.1 275.145 367.14 270.751 367.881C266.357 368.621 263.713 359.521 265.871 356.793C268.826 353.052 277.673 352.837 281.405 352.915Z" fill="white"></path>
  <path d="M270.246 368.368C268.749 368.368 267.368 367.394 266.279 365.542C264.685 362.853 264.005 358.488 265.541 356.54C268.613 352.643 277.672 352.409 281.405 352.487C282.514 352.506 283.544 353.091 284.147 354.046C284.73 354.981 284.827 356.15 284.38 357.144C284.302 357.339 284.186 357.534 284.088 357.748C282.105 361.372 275.378 367.549 270.829 368.309C270.634 368.348 270.44 368.368 270.246 368.368ZM280.239 353.344C276.175 353.344 268.768 353.812 266.202 357.085C265.055 358.547 265.444 362.444 267.018 365.114C267.621 366.127 268.885 367.783 270.693 367.471C274.931 366.75 281.483 360.749 283.33 357.339C283.427 357.144 283.524 356.968 283.602 356.793C283.933 356.053 283.874 355.215 283.427 354.513C282.98 353.812 282.222 353.364 281.386 353.344C281.055 353.344 280.667 353.344 280.239 353.344Z" fill="#1A171B"></path>
  <path d="M338.565 255.387C341.17 257.94 344.436 258.427 346.011 258.661C349.316 259.168 363.431 259.947 372.919 249.288C382.212 238.863 383.165 221.871 377.857 218.403C374.046 215.908 367.98 221.033 362.245 217.175C359.698 215.46 360.301 214.057 357.598 212.245C353.049 209.186 347.197 210.374 342.706 211.349C334.521 213.122 334.793 215.382 327.599 217.194C317.354 219.767 311.521 216.493 309.518 219.806C307.924 222.436 309.966 227.249 312.726 230.036C318.442 235.804 325.539 230.932 329.952 236.252C332.693 239.565 332.285 244.085 336.368 252.289C336.679 252.932 337.32 254.16 338.565 255.387Z" fill="#1A171B"></path>
  <path d="M330.554 263.357C330.865 262.304 331.176 261.135 331.488 259.907C329.174 260.862 326.744 261.018 325.324 260.219C323.555 259.245 323.244 257.335 322.525 255.036C322.233 254.081 321.961 252.951 320.95 251.977C320.425 251.45 319.822 251.119 319.259 250.885C318.559 250.613 318.189 249.833 318.384 249.093L318.559 248.664C320.017 245.234 320.775 241.552 320.814 237.83L320.892 230.483C324.897 228.886 326.355 229.158 326.899 229.801C327.094 230.035 327.405 230.191 327.385 231.321C327.327 236.777 332.207 236.212 336.309 235.219C340.411 234.205 338.973 241.824 338.973 241.824C338.973 241.824 341.52 238.531 344.339 241.396C346.361 243.442 342.414 246.793 340.023 248.547L341.636 264.331C342.064 268.481 345.972 268.442 349.88 269.884L360.437 272.534C360.437 272.534 332.829 284.83 315.817 276.139L324.936 273.022C328.066 271.346 329.738 266.163 330.554 263.357Z" fill="white"></path>
  <path d="M330.574 279.666C325.325 279.666 320.114 278.828 315.643 276.529C315.487 276.451 315.39 276.295 315.409 276.12C315.429 275.945 315.526 275.808 315.701 275.75L324.78 272.632C327.91 270.917 329.582 265.13 330.146 263.24C330.399 262.343 330.652 261.466 330.885 260.609C328.649 261.369 326.511 261.369 325.13 260.609C323.458 259.693 322.972 258.037 322.408 256.108C322.311 255.796 322.233 255.484 322.136 255.172L322.058 254.9C321.786 254.023 321.514 253.107 320.678 252.288C320.25 251.879 319.725 251.528 319.123 251.295C318.228 250.944 317.742 249.95 317.995 248.995C317.995 248.976 318.014 248.956 318.014 248.937L318.209 248.508C319.648 245.118 320.386 241.532 320.425 237.849L320.503 230.503C320.503 230.328 320.62 230.172 320.775 230.113C324.333 228.71 326.394 228.515 327.269 229.548C327.288 229.568 327.308 229.587 327.327 229.607C327.619 229.899 327.871 230.269 327.852 231.341C327.833 232.9 328.221 233.991 329.057 234.653C330.691 235.959 333.762 235.413 336.251 234.809C337.223 234.576 338.001 234.731 338.584 235.297C339.809 236.466 339.75 239.116 339.595 240.675C340.139 240.265 340.878 239.856 341.753 239.798C342.783 239.739 343.775 240.168 344.689 241.084C345.194 241.591 345.428 242.214 345.369 242.896C345.214 244.864 342.686 247.125 340.528 248.722L342.122 264.272C342.433 267.215 344.669 267.858 347.488 268.657C348.324 268.891 349.18 269.144 350.055 269.456L360.592 272.086C360.767 272.125 360.903 272.281 360.923 272.457C360.942 272.632 360.845 272.807 360.67 272.885C360.417 273.041 345.311 279.666 330.574 279.666ZM316.965 276.217C331.643 282.921 353.768 274.795 359.095 272.651L349.802 270.313C349.783 270.313 349.763 270.313 349.763 270.294C348.908 269.982 348.052 269.748 347.236 269.514C344.339 268.696 341.617 267.916 341.248 264.389L339.634 248.606C339.614 248.45 339.692 248.313 339.809 248.216C342.686 246.131 344.397 244.182 344.494 242.877C344.533 242.428 344.397 242.058 344.067 241.727C343.347 240.986 342.589 240.636 341.811 240.694C340.412 240.772 339.362 242.117 339.342 242.117C339.226 242.273 339.012 242.331 338.837 242.253C338.662 242.175 338.565 241.98 338.584 241.785C338.817 240.538 339.167 237.07 337.981 235.94C337.612 235.589 337.106 235.491 336.445 235.667C333.762 236.329 330.438 236.875 328.513 235.355C327.483 234.537 326.958 233.192 326.977 231.36C326.997 230.542 326.841 230.386 326.686 230.23C326.647 230.191 326.627 230.172 326.588 230.133C326.258 229.762 325.15 229.353 321.339 230.834L321.261 237.888C321.222 241.688 320.445 245.39 318.967 248.878L318.792 249.288C318.675 249.814 318.948 250.34 319.434 250.535C320.134 250.827 320.756 251.217 321.261 251.723C322.253 252.678 322.564 253.75 322.855 254.685L322.933 254.939C323.03 255.27 323.128 255.582 323.225 255.893C323.75 257.706 324.178 259.128 325.538 259.868C326.841 260.589 329.116 260.453 331.332 259.518C331.488 259.459 331.663 259.479 331.779 259.596C331.896 259.693 331.954 259.868 331.915 260.024C331.643 261.135 331.313 262.304 330.982 263.493C329.971 266.942 328.28 271.736 325.169 273.411C325.15 273.431 325.13 273.431 325.111 273.431L316.965 276.217Z" fill="#1A171B"></path>
  <path d="M330.769 260.336C330.594 260.336 330.419 260.22 330.36 260.044C330.283 259.83 330.399 259.577 330.633 259.499C334.793 258.057 336.621 251.977 336.64 251.899C336.698 251.665 336.951 251.548 337.165 251.607C337.398 251.665 337.515 251.918 337.457 252.133C337.379 252.406 335.493 258.7 330.924 260.297C330.866 260.336 330.827 260.336 330.769 260.336Z" fill="#1A171B"></path>
</svg>
