<?xml version="1.0" encoding="UTF-8"?>
<svg xmlns="http://www.w3.org/2000/svg" width="49" height="51" viewBox="0 0 49 51" fill="none">
  <path d="M4.08327 46.8463C4.29986 46.8463 4.50758 46.76 4.66074 46.6064C4.81389 46.4528 4.89993 46.2445 4.89993 46.0273V45.2084C4.89993 44.9912 4.81389 44.7829 4.66074 44.6293C4.50758 44.4757 4.29986 44.3894 4.08327 44.3894C3.86667 44.3894 3.65895 44.4757 3.5058 44.6293C3.35264 44.7829 3.2666 44.9912 3.2666 45.2084V46.0273C3.2666 46.2445 3.35264 46.4528 3.5058 46.6064C3.65895 46.76 3.86667 46.8463 4.08327 46.8463Z" fill="#CDAF71"></path>
  <path d="M48.1833 0.984863H41.65C41.4334 0.984863 41.2257 1.07115 41.0725 1.22473C40.9194 1.37831 40.8333 1.58662 40.8333 1.80382V2.93397L39.7798 2.40984C38.9856 2.01339 38.1109 1.806 37.2237 1.80382H24.9982C23.9942 1.80163 23.0077 2.06732 22.1398 2.57363L8.41983 10.5175C7.66934 10.9519 7.12166 11.6675 6.89729 12.5068C6.67292 13.3461 6.79023 14.2405 7.22342 14.9931C7.6566 15.7457 8.37018 16.2949 9.20717 16.5199C10.0442 16.7449 10.936 16.6272 11.6865 16.1928L19.649 11.5821C19.828 11.8476 20.0423 12.0873 20.286 12.2946C17.586 13.1581 15.2141 14.8292 13.4886 17.0836C11.7631 19.338 10.7667 22.0678 10.633 24.9065C10.6248 25.1194 10.6167 25.3405 10.6167 25.5535C10.6231 28.9319 11.8504 32.1934 14.0712 34.7339C13.5271 34.7108 12.9826 34.766 12.4542 34.8977L8.16667 35.9706V34.562C8.16667 34.3447 8.08062 34.1364 7.92747 33.9829C7.77432 33.8293 7.56659 33.743 7.35 33.743H0.816667C0.600073 33.743 0.392351 33.8293 0.239196 33.9829C0.0860414 34.1364 0 34.3447 0 34.562V49.3031C0 49.5203 0.0860414 49.7286 0.239196 49.8822C0.392351 50.0358 0.600073 50.1221 0.816667 50.1221H7.35C7.56659 50.1221 7.77432 50.0358 7.92747 49.8822C8.08062 49.7286 8.16667 49.5203 8.16667 49.3031V48.173L9.22017 48.6971C10.0144 49.0935 10.8891 49.3009 11.7763 49.3031H24.0018C25.0058 49.3053 25.9923 49.0396 26.8602 48.5333L40.5802 40.5894C41.3307 40.155 41.8783 39.4395 42.1027 38.6001C42.3271 37.7608 42.2098 36.8665 41.7766 36.1139C41.3434 35.3613 40.6298 34.8121 39.7928 34.5871C38.9558 34.3621 38.064 34.4797 37.3135 34.9141L29.351 39.5248C29.1742 39.26 28.9596 39.0227 28.714 38.8205C31.5253 37.9312 33.9796 36.1643 35.7191 33.7777C37.4585 31.3911 38.392 28.5095 38.3833 25.5535C38.3865 25.1269 38.3675 24.7005 38.3262 24.2759C38.0561 21.345 36.8667 18.5754 34.9288 16.3648C35.0047 16.3743 35.081 16.3798 35.1575 16.3812C35.6256 16.3811 36.0918 16.3233 36.5458 16.2092L40.8333 15.1364V16.545C40.8333 16.7622 40.9194 16.9705 41.0725 17.1241C41.2257 17.2776 41.4334 17.3639 41.65 17.3639H48.1833C48.3999 17.3639 48.6077 17.2776 48.7608 17.1241C48.914 16.9705 49 16.7622 49 16.545V1.80382C49 1.58662 48.914 1.37831 48.7608 1.22473C48.6077 1.07115 48.3999 0.984863 48.1833 0.984863ZM6.53333 48.4842H1.63333V35.3809H6.53333V48.4842ZM20.4248 13.9817L22.05 16.0127V16.6678L17.836 17.3721C17.6442 17.4033 17.4697 17.5021 17.3439 17.6507C17.2182 17.7993 17.1494 17.988 17.15 18.1829V19.5096L15.7617 19.051C15.5559 18.9838 15.332 19.0013 15.139 19.0995C14.9461 19.1978 14.7999 19.3689 14.7327 19.5751L13.9242 22.0238C13.8827 22.1486 13.8721 22.2817 13.8935 22.4116C13.9148 22.5414 13.9674 22.6641 14.0467 22.769L16.4967 26.0448C16.6162 26.2055 16.7907 26.3164 16.9867 26.356L20.9638 27.1504L23.2587 28.3051L21.4212 30.7784C21.3572 30.8642 21.31 30.9615 21.2823 31.065L20.4412 34.3572C20.4085 34.489 20.4085 34.6267 20.4412 34.7585L20.8495 36.4046L19.8123 36.1262L19.5918 34.4555C19.5668 34.2771 19.4869 34.1111 19.3632 33.9805L16.513 31.1223L17.0602 30.0168C17.1228 29.8944 17.1534 29.758 17.1491 29.6205C17.1448 29.483 17.1058 29.3488 17.0357 29.2306L14.5857 25.1358C14.5306 25.0423 14.4574 24.9608 14.3705 24.8961C14.2835 24.8314 14.1845 24.7848 14.0793 24.7591L12.3235 24.3168C12.557 22.0009 13.4427 19.7993 14.8772 17.9692C16.3117 16.1392 18.2358 14.7561 20.4248 13.9817ZM12.2745 25.9957L13.3525 26.266L15.4023 29.681L14.7898 30.9176C14.7113 31.0713 14.6833 31.2459 14.7097 31.4165C14.7361 31.5871 14.8156 31.745 14.9368 31.8676L18.0075 34.9469L18.1055 35.6675L17.2153 35.43C15.7415 34.3273 14.5327 32.9075 13.6777 31.2749C12.8228 29.6423 12.3433 27.8384 12.2745 25.9957ZM29.8165 42.2028C29.9071 41.8418 29.9374 41.4682 29.9063 41.0972L38.1302 36.3391C38.5054 36.1302 38.9469 36.0758 39.3614 36.1874C39.7759 36.2989 40.131 36.5677 40.3515 36.9369C40.5684 37.3118 40.6283 37.7575 40.5181 38.1766C40.4079 38.5956 40.1365 38.9538 39.7635 39.1727L26.0435 47.1165C25.423 47.4766 24.7187 47.6659 24.0018 47.6652H11.7763C11.141 47.6665 10.5144 47.5178 9.947 47.2312L8.16667 46.3385V37.6576L12.8462 36.4865C13.5196 36.3158 14.2254 36.3214 14.896 36.5029L27.0807 39.7787C27.3941 39.8603 27.6762 40.034 27.8906 40.2774C28.105 40.5208 28.2421 40.8228 28.2842 41.1449C28.3263 41.4669 28.2716 41.7942 28.127 42.0848C27.9824 42.3754 27.7546 42.6161 27.4727 42.7761C27.2886 42.8849 27.0845 42.9555 26.8727 42.9837C26.6608 43.0118 26.4455 42.9969 26.2395 42.9398L16.4967 40.3192C16.2866 40.2627 16.0627 40.2923 15.8743 40.4013C15.6859 40.5103 15.5485 40.69 15.4922 40.9007C15.4359 41.1113 15.4653 41.3358 15.574 41.5247C15.6828 41.7136 15.8619 41.8515 16.072 41.908L25.8148 44.5204C26.0918 44.5952 26.3773 44.6338 26.6642 44.6351C27.2356 44.6359 27.7967 44.4832 28.2893 44.1928C28.6626 43.979 28.9898 43.693 29.252 43.3514C29.5141 43.0098 29.706 42.6194 29.8165 42.2028ZM25.8883 37.7559L22.6625 36.8878L22.0745 34.562L22.8258 31.6301L25.1533 28.5017C25.2245 28.406 25.274 28.2958 25.2982 28.1789C25.3225 28.0619 25.3209 27.9411 25.2937 27.8248C25.2665 27.7086 25.2142 27.5997 25.1406 27.5058C25.067 27.412 24.9738 27.3354 24.8675 27.2815L21.6008 25.6435C21.5356 25.6118 21.4671 25.5871 21.3967 25.5698L17.6155 24.8082L15.6065 22.1302L16.0312 20.8609L17.7135 21.4177C17.8361 21.4578 17.9663 21.4682 18.0936 21.4481C18.221 21.428 18.3418 21.378 18.4461 21.3021C18.5505 21.2262 18.6354 21.1267 18.694 21.0115C18.7526 20.8964 18.7832 20.769 18.7833 20.6397V18.879L22.9973 18.1747C23.1892 18.1435 23.3636 18.0447 23.4894 17.8961C23.6151 17.7475 23.6839 17.5588 23.6833 17.3639V15.726C23.6838 15.541 23.6203 15.3616 23.5037 15.2183L22.1317 13.4985C22.4583 13.433 22.785 13.3838 23.1035 13.3429L28.91 14.9071L28.6732 15.3493C28.5928 15.5039 28.5637 15.6802 28.5901 15.8525C28.6165 16.0249 28.6971 16.1843 28.8202 16.3075L30.2167 17.6997V18.4122L28.322 19.0428C28.1923 19.0878 28.0758 19.1645 27.9831 19.266C27.8904 19.3676 27.8244 19.4907 27.7912 19.6242L26.9745 22.9001C26.9418 23.029 26.9418 23.1642 26.9745 23.2932L27.7912 26.569C27.8185 26.6836 27.8707 26.7907 27.9441 26.8827C28.0175 26.9748 28.1103 27.0494 28.2158 27.1013L30.9598 28.4771L30.2248 33.6283C30.2015 33.7975 30.2314 33.9698 30.3105 34.121C30.3896 34.2723 30.5138 34.3949 30.6658 34.4719C30.7785 34.5333 30.9051 34.5643 31.0333 34.562C31.2503 34.5626 31.4587 34.4772 31.6132 34.3245L34.0632 31.8676C34.1634 31.7689 34.2341 31.6441 34.2673 31.5073L35.8027 26.1267L36.7418 25.6517C36.7315 28.654 35.6193 31.5474 33.6175 33.7799C31.6157 36.0124 28.8643 37.4277 25.8883 37.7559ZM36.6193 23.8828L34.7492 24.8246C34.6483 24.8754 34.5591 24.9468 34.4874 25.0343C34.4156 25.1217 34.3629 25.2233 34.3327 25.3323L32.7565 30.8603L32.1848 31.4254L32.6585 28.125C32.6819 27.9558 32.6519 27.7836 32.5729 27.6323C32.4938 27.4811 32.3695 27.3584 32.2175 27.2815L29.2857 25.8073L28.6078 23.0966L29.2693 20.4514L31.2947 19.7798C31.4559 19.7234 31.5959 19.6184 31.6953 19.4791C31.7947 19.3398 31.8487 19.1731 31.85 19.0018V17.3639C31.8484 17.1468 31.7636 16.9386 31.6132 16.7825L30.4045 15.5704L30.527 15.3411L31.7847 15.6769C33.095 16.6527 34.1977 17.8813 35.028 19.2905C35.8582 20.6997 36.3993 22.261 36.6193 23.8828ZM40.8333 13.4493L36.1538 14.6204C35.4804 14.7912 34.7746 14.7856 34.104 14.6041L21.9193 11.3282C21.6059 11.2466 21.3238 11.073 21.1094 10.8296C20.895 10.5862 20.7579 10.2841 20.7158 9.96207C20.6737 9.64004 20.7284 9.31274 20.873 9.02212C21.0176 8.7315 21.2454 8.4908 21.5273 8.33087C21.7114 8.22199 21.9154 8.15138 22.1273 8.12324C22.3392 8.0951 22.5545 8.11001 22.7605 8.16708L32.5033 10.7877C32.7134 10.8442 32.9373 10.8147 33.1257 10.7056C33.3141 10.5966 33.4515 10.417 33.5078 10.2063C33.5641 9.99559 33.5347 9.77111 33.426 9.5822C33.3172 9.39329 33.1381 9.25544 32.928 9.19897L23.1852 6.5865C22.7719 6.47211 22.3398 6.44216 21.9148 6.49843C21.4897 6.5547 21.0802 6.69605 20.7107 6.91409C20.3374 7.12788 20.0102 7.41389 19.748 7.75551C19.4859 8.09713 19.294 8.48756 19.1835 8.90414C19.0929 9.26517 19.0626 9.63875 19.0937 10.0097L10.8698 14.7678C10.4946 14.9767 10.0531 15.0311 9.63856 14.9196C9.22405 14.808 8.86903 14.5392 8.6485 14.17C8.43161 13.7952 8.37172 13.3494 8.48193 12.9303C8.59214 12.5113 8.86347 12.1531 9.2365 11.9343L22.9565 3.99042C23.577 3.63035 24.2813 3.44106 24.9982 3.44172H37.2237C37.859 3.44043 38.4856 3.58912 39.053 3.87577L40.8333 4.76843V13.4493ZM47.3667 15.726H42.4667V2.62277H47.3667V15.726Z" fill="#CDAF71"></path>
  <path d="M44.9168 6.71748C45.1334 6.71748 45.3411 6.6312 45.4942 6.47761C45.6474 6.32403 45.7334 6.11573 45.7334 5.89853V5.07957C45.7334 4.86237 45.6474 4.65407 45.4942 4.50049C45.3411 4.3469 45.1334 4.26062 44.9168 4.26062C44.7002 4.26062 44.4924 4.3469 44.3393 4.50049C44.1861 4.65407 44.1001 4.86237 44.1001 5.07957V5.89853C44.1001 6.11573 44.1861 6.32403 44.3393 6.47761C44.4924 6.6312 44.7002 6.71748 44.9168 6.71748Z" fill="#CDAF71"></path>
</svg>
