<?xml version="1.0" encoding="UTF-8"?>
<svg xmlns="http://www.w3.org/2000/svg" width="49" height="49" viewBox="0 0 49 49" fill="none">
  <path d="M34.709 24.6023C34.6079 24.6029 34.5081 24.5789 34.4182 24.5323L24.769 19.88C24.6566 19.8256 24.5616 19.7408 24.495 19.6351C24.4284 19.5295 24.3927 19.4072 24.3921 19.2823V8.87386C24.3926 8.76099 24.4214 8.65005 24.476 8.55125C24.5306 8.45246 24.6091 8.36897 24.7044 8.30847C24.7952 8.25566 24.8972 8.22519 25.002 8.21958C25.1069 8.21396 25.2116 8.23336 25.3075 8.27616L34.9998 12.9231C35.1122 12.9775 35.2072 13.0623 35.2738 13.168C35.3404 13.2736 35.3761 13.3959 35.3767 13.5208V23.9346C35.3723 24.043 35.3416 24.1487 35.2871 24.2425C35.2327 24.3363 35.1563 24.4155 35.0644 24.4731C34.96 24.548 34.8371 24.5927 34.709 24.6023ZM25.7059 18.8462L34.0413 22.8577V13.9515L25.7059 9.93463V18.8462Z" fill="#CDAF71"></path>
  <path d="M34.709 14.1885C34.6086 14.1882 34.5094 14.1662 34.4182 14.1238L24.769 9.47154C24.6557 9.41674 24.5603 9.33106 24.4936 9.22436C24.4269 9.11766 24.3917 8.99429 24.3921 8.86846C24.3921 8.74341 24.4275 8.62092 24.4942 8.51515C24.5609 8.40938 24.6562 8.32465 24.769 8.27077L34.4613 3.62385C34.5514 3.5812 34.6498 3.55908 34.7494 3.55908C34.849 3.55908 34.9474 3.5812 35.0375 3.62385L44.7298 8.27615C44.8431 8.33095 44.9385 8.41663 45.0052 8.52333C45.0719 8.63003 45.1071 8.7534 45.1067 8.87923C45.1049 9.00879 45.0644 9.13486 44.9906 9.24132C44.9167 9.34779 44.8128 9.42982 44.6921 9.47692L34.9998 14.1238C34.9087 14.1662 34.8095 14.1882 34.709 14.1885ZM26.5782 8.86846L34.709 12.7831L42.8452 8.87923L34.7144 4.96462L26.5782 8.86846Z" fill="#CDAF71"></path>
  <path d="M34.7092 24.6024C34.5837 24.6007 34.461 24.5654 34.3538 24.5C34.2619 24.4424 34.1855 24.3633 34.1311 24.2694C34.0767 24.1756 34.0459 24.0699 34.0415 23.9616V13.5316C34.0415 13.4065 34.0769 13.284 34.1436 13.1783C34.2103 13.0725 34.3056 12.9878 34.4184 12.9339L44.1107 8.2762C44.2115 8.22685 44.3232 8.20393 44.4353 8.20958C44.5474 8.21523 44.6562 8.24927 44.7515 8.3085C44.8468 8.369 44.9253 8.45249 44.9799 8.55129C45.0345 8.65008 45.0633 8.76102 45.0638 8.87389V19.2824C45.0632 19.4073 45.0275 19.5295 44.9609 19.6351C44.8943 19.7408 44.7993 19.8256 44.6869 19.88L35 24.5324C34.9101 24.5789 34.8104 24.6029 34.7092 24.6024ZM35.3769 13.9516V22.8739L43.7123 18.8462V9.93466L35.3769 13.9516Z" fill="#CDAF71"></path>
  <path d="M29.8736 11.8461C29.7317 11.8324 29.5979 11.7737 29.4917 11.6784C29.3856 11.5832 29.3128 11.4564 29.2839 11.3168C29.255 11.1771 29.2716 11.0319 29.3312 10.9024C29.3908 10.7728 29.4903 10.6658 29.6152 10.5969L39.3075 5.94997C39.46 5.9109 39.6214 5.92696 39.7632 5.99532C39.905 6.06368 40.018 6.17993 40.0825 6.32357C40.1469 6.4672 40.1585 6.62897 40.1152 6.78032C40.0719 6.93167 39.9765 7.06287 39.8459 7.15074L30.1536 11.7977C30.0645 11.8325 29.9693 11.849 29.8736 11.8461Z" fill="#CDAF71"></path>
  <path d="M31.1716 16.4285C31.0712 16.4277 30.9721 16.4057 30.8808 16.3638L28.027 14.9908C27.9415 14.9572 27.864 14.9064 27.7991 14.8415C27.7342 14.7766 27.6834 14.699 27.6498 14.6136C27.6162 14.5282 27.6006 14.4367 27.604 14.345C27.6073 14.2533 27.6295 14.1633 27.6692 14.0805C27.7089 13.9978 27.7653 13.9241 27.8347 13.8641C27.9042 13.8041 27.9852 13.7591 28.0729 13.7318C28.1605 13.7045 28.2528 13.6956 28.3441 13.7056C28.4353 13.7157 28.5235 13.7444 28.6031 13.79L31.4623 15.1631C31.5966 15.2299 31.7044 15.3399 31.7685 15.4755C31.8325 15.611 31.8491 15.7642 31.8155 15.9103C31.7819 16.0565 31.7002 16.187 31.5834 16.281C31.4665 16.375 31.3215 16.4269 31.1716 16.4285Z" fill="#CDAF71"></path>
  <path d="M20.5693 12.5031H12.4923C12.3204 12.4989 12.1569 12.428 12.0363 12.3054C11.9157 12.1828 11.8475 12.0182 11.8462 11.8462V5.81004C11.8462 5.63296 11.9165 5.46313 12.0418 5.33791C12.167 5.2127 12.3368 5.14235 12.5139 5.14235H15.54C15.998 4.37825 16.6537 3.75193 17.4379 3.32949C18.2222 2.90704 19.106 2.70414 19.996 2.74219C20.886 2.78024 21.7492 3.05783 22.4946 3.54566C23.2399 4.0335 23.8398 4.71349 24.2308 5.51389C24.3003 5.67121 24.3064 5.84927 24.2478 6.01097C24.1893 6.17267 24.0706 6.30554 23.9165 6.38189C23.7624 6.45825 23.5848 6.4722 23.4206 6.42084C23.2565 6.36948 23.1185 6.25677 23.0354 6.1062C22.7388 5.49529 22.2762 4.98019 21.7006 4.61981C21.125 4.25943 20.4595 4.06832 19.7804 4.06832C19.1013 4.06832 18.4359 4.25943 17.8603 4.61981C17.2847 4.98019 16.8221 5.49529 16.5254 6.1062C16.4713 6.21844 16.3864 6.31297 16.2805 6.37875C16.1747 6.44454 16.0523 6.47887 15.9277 6.47773H13.1816V11.1677H20.5693C20.7464 11.1677 20.9162 11.2381 21.0414 11.3633C21.1666 11.4885 21.237 11.6583 21.237 11.8354C21.237 12.0125 21.1666 12.1823 21.0414 12.3076C20.9162 12.4328 20.7464 12.5031 20.5693 12.5031Z" fill="#CDAF71"></path>
  <path d="M34.0148 46.2646H4.63092C4.54394 46.2646 4.45782 46.2475 4.37747 46.2142C4.29711 46.1809 4.2241 46.1321 4.1626 46.0706C4.1011 46.0091 4.05231 45.9361 4.01903 45.8558C3.98574 45.7754 3.96861 45.6893 3.96861 45.6023V8.22231C3.96572 8.13353 3.98072 8.04509 4.01271 7.96223C4.0447 7.87937 4.09302 7.8038 4.15482 7.74C4.21661 7.6762 4.2906 7.62548 4.37239 7.59085C4.45418 7.55623 4.5421 7.53841 4.63092 7.53846H12.514C12.6064 7.53014 12.6994 7.54115 12.7873 7.57079C12.8752 7.60043 12.9559 7.64805 13.0244 7.71061C13.0928 7.77317 13.1475 7.8493 13.1849 7.93416C13.2223 8.01901 13.2416 8.11073 13.2416 8.20346C13.2416 8.29619 13.2223 8.38791 13.1849 8.47276C13.1475 8.55762 13.0928 8.63375 13.0244 8.69631C12.9559 8.75887 12.8752 8.80649 12.7873 8.83613C12.6994 8.86577 12.6064 8.87678 12.514 8.86846H5.29861V44.9454H34.0148C34.7445 44.9454 35.4444 44.6555 35.9604 44.1395C36.4764 43.6235 36.7663 42.9236 36.7663 42.1938V26.6054C36.758 26.513 36.769 26.4199 36.7986 26.3321C36.8283 26.2442 36.8759 26.1635 36.9384 26.095C37.001 26.0266 37.0771 25.9719 37.162 25.9345C37.2469 25.8971 37.3386 25.8778 37.4313 25.8778C37.524 25.8778 37.6157 25.8971 37.7006 25.9345C37.7855 25.9719 37.8616 26.0266 37.9242 26.095C37.9867 26.1635 38.0343 26.2442 38.064 26.3321C38.0936 26.4199 38.1046 26.513 38.0963 26.6054V42.1831C38.0949 43.2651 37.6644 44.3025 36.8993 45.0676C36.1341 45.8327 35.0968 46.2632 34.0148 46.2646Z" fill="#CDAF71"></path>
  <path d="M11.5825 27.2192H11.5556C11.4491 27.2176 11.3445 27.1904 11.2508 27.1398C11.157 27.0891 11.0769 27.0166 11.0171 26.9285L9.5633 24.8177C9.49411 24.7488 9.44087 24.6656 9.40733 24.5739C9.3738 24.4822 9.36077 24.3843 9.36918 24.287C9.37759 24.1897 9.40723 24.0955 9.456 24.0109C9.50478 23.9264 9.57151 23.8535 9.65149 23.7975C9.73148 23.7415 9.82276 23.7038 9.91892 23.6869C10.0151 23.67 10.1138 23.6744 10.208 23.6998C10.3023 23.7252 10.3899 23.771 10.4645 23.8338C10.5392 23.8967 10.5992 23.9753 10.6402 24.0638L11.5879 25.4423L14.7271 21.6138C14.7799 21.5384 14.8477 21.4746 14.9262 21.4266C15.0048 21.3786 15.0924 21.3473 15.1836 21.3348C15.2748 21.3223 15.3677 21.3288 15.4563 21.3538C15.5448 21.3789 15.6273 21.422 15.6984 21.4805C15.7695 21.539 15.8278 21.6115 15.8696 21.6936C15.9113 21.7756 15.9356 21.8654 15.941 21.9574C15.9464 22.0493 15.9327 22.1413 15.9008 22.2277C15.8689 22.314 15.8194 22.3929 15.7556 22.4592L12.0995 26.9769C12.0358 27.0522 11.9567 27.1128 11.8675 27.1546C11.7783 27.1964 11.6811 27.2185 11.5825 27.2192Z" fill="#CDAF71"></path>
  <path d="M11.5825 33.8531H11.5556C11.4494 33.8502 11.3453 33.8224 11.2517 33.7719C11.1582 33.7214 11.0779 33.6496 11.0172 33.5624L9.56331 31.457C9.49538 31.3879 9.44329 31.3049 9.41064 31.2137C9.378 31.1225 9.36559 31.0253 9.37427 30.9289C9.38295 30.8324 9.41251 30.739 9.46091 30.6551C9.50931 30.5712 9.57538 30.4988 9.65455 30.443C9.73371 30.3872 9.82407 30.3493 9.91935 30.3319C10.0146 30.3145 10.1126 30.318 10.2063 30.3423C10.3001 30.3665 10.3875 30.4108 10.4624 30.4722C10.5374 30.5336 10.598 30.6106 10.6402 30.6977L11.5879 32.0762L14.7272 28.2424C14.8378 28.101 15.0001 28.0093 15.1784 27.9876C15.3566 27.9659 15.5362 28.0159 15.6775 28.1266C15.8189 28.2373 15.9105 28.3996 15.9323 28.5778C15.954 28.756 15.904 28.9356 15.7933 29.077L12.0995 33.5947C12.0379 33.6734 11.9596 33.7375 11.8702 33.7822C11.7807 33.8269 11.6825 33.8511 11.5825 33.8531Z" fill="#CDAF71"></path>
  <path d="M11.5825 40.4869H11.5556C11.4495 40.4864 11.3451 40.4601 11.2513 40.4104C11.1575 40.3607 11.0772 40.2891 11.0172 40.2015L9.56331 38.0961C9.49538 38.0271 9.44329 37.9441 9.41064 37.8529C9.378 37.7617 9.36559 37.6645 9.37427 37.568C9.38295 37.4716 9.41251 37.3782 9.46091 37.2943C9.50931 37.2104 9.57538 37.138 9.65455 37.0822C9.73371 37.0264 9.82407 36.9884 9.91935 36.9711C10.0146 36.9537 10.1126 36.9572 10.2063 36.9814C10.3001 37.0057 10.3875 37.05 10.4624 37.1114C10.5374 37.1728 10.598 37.2497 10.6402 37.3369L11.5879 38.7154L14.7272 34.8815C14.7799 34.8061 14.8477 34.7423 14.9262 34.6943C15.0048 34.6463 15.0924 34.615 15.1836 34.6025C15.2749 34.59 15.3677 34.5965 15.4563 34.6215C15.5449 34.6466 15.6273 34.6897 15.6984 34.7482C15.7696 34.8067 15.8278 34.8792 15.8696 34.9613C15.9113 35.0433 15.9356 35.1331 15.941 35.2251C15.9464 35.317 15.9327 35.409 15.9008 35.4954C15.8689 35.5817 15.8195 35.6606 15.7556 35.7269L12.0618 40.2446C12.0028 40.3157 11.9298 40.3739 11.8474 40.4156C11.7649 40.4573 11.6748 40.4816 11.5825 40.4869Z" fill="#CDAF71"></path>
  <path d="M27.7093 27.2193H18.3778C18.2118 27.2043 18.0573 27.1278 17.9449 27.0047C17.8324 26.8817 17.77 26.721 17.77 26.5543C17.77 26.3876 17.8324 26.2269 17.9449 26.1038C18.0573 25.9808 18.2118 25.9042 18.3778 25.8893H27.7093C27.8754 25.9042 28.0298 25.9808 28.1423 26.1038C28.2548 26.2269 28.3171 26.3876 28.3171 26.5543C28.3171 26.721 28.2548 26.8817 28.1423 27.0047C28.0298 27.1278 27.8754 27.2043 27.7093 27.2193Z" fill="#CDAF71"></path>
  <path d="M32.2538 33.2501H18.3777C18.2006 33.2501 18.0307 33.1797 17.9055 33.0545C17.7803 32.9293 17.71 32.7594 17.71 32.5824C17.71 32.4053 17.7803 32.2355 17.9055 32.1102C18.0307 31.985 18.2006 31.9147 18.3777 31.9147H32.2538C32.4309 31.9147 32.6007 31.985 32.7259 32.1102C32.8512 32.2355 32.9215 32.4053 32.9215 32.5824C32.9215 32.7594 32.8512 32.9293 32.7259 33.0545C32.6007 33.1797 32.4309 33.2501 32.2538 33.2501Z" fill="#CDAF71"></path>
  <path d="M32.254 39.2754H18.3778C18.2118 39.2605 18.0573 39.184 17.9449 39.0609C17.8324 38.9378 17.77 38.7772 17.77 38.6104C17.77 38.4437 17.8324 38.283 17.9449 38.16C18.0573 38.0369 18.2118 37.9604 18.3778 37.9454H32.254C32.3463 37.9371 32.4394 37.9481 32.5273 37.9778C32.6151 38.0074 32.6959 38.055 32.7643 38.1176C32.8328 38.1801 32.8874 38.2563 32.9248 38.3411C32.9622 38.426 32.9816 38.5177 32.9816 38.6104C32.9816 38.7032 32.9622 38.7949 32.9248 38.8797C32.8874 38.9646 32.8328 39.0407 32.7643 39.1033C32.6959 39.1659 32.6151 39.2135 32.5273 39.2431C32.4394 39.2727 32.3463 39.2838 32.254 39.2754Z" fill="#CDAF71"></path>
</svg>
