<?xml version="1.0" encoding="UTF-8"?>
<svg xmlns="http://www.w3.org/2000/svg" width="48" height="48" viewBox="0 0 48 48" fill="none">
  <g clip-path="url(#clip0_113_13782)">
    <path d="M11.0375 0.0825701L1.27836 4.96212L1.21323 5.01931L1.14017 5.07609L1.0667 5.17378L1.00992 5.24684C0.987682 5.28616 0.968621 5.32666 0.953134 5.36875V5.44222C0.890789 5.52044 0.849094 5.61257 0.830827 5.71066V16.283C0.828842 16.592 1.00198 16.8755 1.27836 17.0149L11.0375 21.8944H11.078C11.2837 21.9925 11.5227 21.9925 11.7288 21.8944H11.7693L21.5284 17.0149C21.8044 16.8755 21.9779 16.592 21.9756 16.283V5.71066C21.9879 5.64037 21.9879 5.56889 21.9756 5.499V5.42594C21.9601 5.38384 21.941 5.34294 21.9188 5.30403L21.862 5.23056L21.7885 5.13327L21.7155 5.07609L21.6503 5.01931H21.6098L11.8507 0.139752C11.6093 -0.0234553 11.2992 -0.0452957 11.0375 0.0825701ZM10.5899 19.8204L2.45735 15.7541V7.00361L10.5899 11.0699V19.8204ZM20.349 15.7541L12.2165 19.8204V11.0699L20.349 7.00361V15.7541ZM19.3408 5.71066L11.4032 9.65464L8.34553 8.15043L16.2827 4.1572L19.3408 5.71066ZM6.52364 7.21487L3.46598 5.71066L11.4032 1.71743L14.4613 3.27088L6.52364 7.21487Z" fill="#CDAF71"></path>
    <path d="M26.782 47.9267C27.3431 48.0002 27.9125 48.0002 28.4816 48.0002V46.3736C27.9614 46.3736 27.4408 46.3736 26.9285 46.3002L26.782 47.9267Z" fill="#CDAF71"></path>
    <path d="M45.3977 31.621C44.9268 34.9959 43.4535 38.1521 41.1686 40.6808H38.2408V42.3073H39.477C36.8196 44.5843 33.5201 45.9797 30.0352 46.3001L30.1817 47.9267C34.0665 47.5546 37.7377 45.9761 40.6806 43.4132V44.7471H42.3071V41.8356C44.8497 39.0586 46.4913 35.5769 47.0159 31.8485L45.3977 31.621Z" fill="#CDAF71"></path>
    <path d="M45.4055 26.969C45.5064 27.7406 45.558 28.5173 45.56 29.2952H47.1865C47.1869 28.441 47.1301 27.5877 47.0158 26.7415L45.4055 26.969Z" fill="#CDAF71"></path>
    <path d="M10.7444 23.3419C8.87165 28.9041 9.71786 35.0226 13.0297 39.8676H11.4032V41.4941H14.331C16.7116 44.2758 19.8606 46.2927 23.3824 47.2926L23.8216 45.7312C20.6063 44.8139 17.7325 42.9697 15.5592 40.4287L16.2827 37.6228L14.6562 37.2324L14.2658 38.7776C11.3265 34.3837 10.5879 28.8759 12.2653 23.8625L10.7444 23.3419Z" fill="#CDAF71"></path>
    <path d="M16.0795 21.5446C14.6189 23.866 13.8438 26.5524 13.843 29.2952C13.843 29.7423 13.843 30.1894 13.9081 30.6449C13.9081 30.8728 13.9733 31.1087 14.0058 31.3362C14.0384 31.5642 14.0547 31.7186 14.0872 31.9057C14.1198 32.0927 14.2171 32.5236 14.2905 32.8246L14.3636 33.1172C14.4613 33.4587 14.5669 33.7923 14.6809 34.1259V34.1989C15.4028 36.2206 16.5608 38.0583 18.0721 39.5828C20.0866 41.6044 22.6523 42.9875 25.4482 43.5597C25.8596 43.6455 26.275 43.7106 26.6927 43.7547H26.9123C27.4004 43.8036 27.8964 43.8278 28.3923 43.8278C28.8625 43.8282 29.3319 43.8036 29.7993 43.7547C30.0272 43.7547 30.2547 43.6896 30.4823 43.657L31.1411 43.5597C31.4421 43.5026 31.7431 43.4295 32.0357 43.3481L32.4181 43.2504C32.7596 43.1531 33.1011 43.0392 33.4347 42.9172L33.6217 42.8438C33.9958 42.6976 34.3615 42.5432 34.7276 42.3641C39.0977 40.2622 42.1435 36.1324 42.8602 31.3362C42.9949 30.6628 43.0818 29.9805 43.1203 29.2952C43.1235 26.9094 42.537 24.5597 41.4128 22.4555C41.4128 22.4555 41.4128 22.4555 41.4128 22.4067V22.3499L41.3477 22.2359C41.1523 21.8861 40.949 21.5529 40.7294 21.2194L40.5912 21.024C40.0897 20.2826 39.5175 19.5908 38.8833 18.9587C37.9191 17.9961 36.8239 17.1749 35.6303 16.5189L35.5083 16.4538C35.1124 16.2346 34.705 16.0364 34.2885 15.8601H34.2317C33.8596 15.7001 33.4796 15.5587 33.0932 15.4372L32.8001 15.3474C32.3856 15.2255 31.9869 15.112 31.5477 15.0222H31.4583C31.06 14.9492 30.6451 14.884 30.2547 14.8435L29.9132 14.8026C29.3684 14.6565 28.9292 14.6565 28.4817 14.6565C28.0345 14.6565 27.8149 14.6565 27.4814 14.697C27.3758 14.697 27.2781 14.697 27.1724 14.697C26.9366 14.697 26.7007 14.7458 26.4732 14.7784C26.3636 14.7859 26.2547 14.8022 26.1479 14.8272C25.8962 14.8606 25.6464 14.9067 25.3994 14.9654L25.1639 15.0143H25.0416L24.1795 15.2418L24.6513 16.8032C24.936 16.7139 25.2124 16.6408 25.4645 16.5757C25.8962 16.4728 26.3334 16.3942 26.7742 16.3398H27.0748C27.5425 16.2953 28.0123 16.2763 28.4817 16.283C28.8804 16.283 29.2949 16.283 29.669 16.3398H29.9049C30.2873 16.3398 30.6534 16.4375 31.0191 16.5105L31.2387 16.5594C31.5858 16.6352 31.9356 16.7246 32.2879 16.8278H32.3693C32.735 16.9418 33.1011 17.08 33.4589 17.2261L33.6134 17.2912C35.5036 18.1097 37.175 19.3605 38.4929 20.943L38.5418 21.0081C38.786 21.3008 39.0135 21.6097 39.2331 21.927H35.801C35.6418 21.9282 35.4861 21.9762 35.3539 22.0652L33.3044 23.4316L32.1008 22.8296C31.9837 22.7883 31.8582 22.7744 31.7347 22.7891H28.4817C28.3224 22.7903 28.1668 22.8383 28.0345 22.9273L25.5948 24.5538C25.4744 24.6277 25.3783 24.7349 25.3184 24.8627L24.5051 26.4893C24.3892 26.7196 24.3892 26.9912 24.5051 27.2211L25.1067 28.4247L23.7407 30.4741C23.6005 30.6822 23.5648 30.9435 23.643 31.1818L24.4563 33.6215C24.5683 33.9527 24.8792 34.1755 25.2286 34.1747H26.416L27.6037 35.9557L26.8552 38.8589C26.7936 39.1023 26.8476 39.3604 27.0017 39.5582C27.1621 39.7615 27.4099 39.8763 27.6684 39.8675H30.1082C30.4727 39.8866 30.8055 39.6602 30.9215 39.3144L32.5075 34.5567L34.5811 31.7349H35.6712L36.6877 32.0764C36.7683 32.248 36.9061 32.3862 37.0781 32.4668C37.308 32.5827 37.5796 32.5827 37.8099 32.4668L39.2899 33.9551C39.6052 34.2597 40.1052 34.2597 40.4205 33.9551L40.6806 33.6867C39.226 37.6874 35.9217 40.734 31.8161 41.8598L31.3606 41.9737L30.7916 42.0877L30.1165 42.1933L29.669 42.2501C29.2949 42.3073 28.8804 42.3073 28.4817 42.3073C28.0834 42.3073 27.6684 42.3073 27.2129 42.2422L26.8552 42.1933C26.5462 42.1933 26.2373 42.1119 25.9363 42.0551L25.611 41.9817C25.3021 41.9086 24.9928 41.8355 24.7001 41.7462L24.4154 41.6565C24.1064 41.5508 23.7975 41.4452 23.4965 41.3149L23.2769 41.2256C22.9596 41.0874 22.6507 40.9409 22.358 40.7781L22.1952 40.6808C21.8946 40.51 21.6015 40.3309 21.3089 40.1439L21.1623 40.0299C20.886 39.835 20.6175 39.6316 20.3491 39.42L20.1621 39.2739L19.8857 39.0543L20.9265 38.0214C21.0142 37.9309 21.0805 37.8229 21.1218 37.7041L21.9351 35.2643C22.0252 34.978 21.9502 34.6655 21.7397 34.4511L19.3 32.0113C19.1534 31.8441 18.9449 31.7441 18.7226 31.7349H15.7054C15.6486 31.4256 15.5998 31.1087 15.5593 30.7994C15.5593 30.6775 15.5593 30.5555 15.5593 30.4336C15.5593 30.3117 15.5593 30.222 15.5593 30.1164C15.7598 30.1017 15.9492 30.0183 16.0958 29.8805L19.3488 26.6274C19.5966 26.3777 19.6558 25.9972 19.4953 25.6843L18.6821 24.0578C18.6221 23.9299 18.526 23.8223 18.4057 23.7485L17.1937 22.9352C17.2994 22.7645 17.3971 22.5858 17.511 22.415L16.0795 21.5446ZM39.8673 32.2388L38.7939 31.1575C38.7038 31.0698 38.5954 31.0035 38.4767 30.9622L37.8993 30.7672H37.7774C37.7428 30.7438 37.7043 30.7275 37.6634 30.7184L36.0369 30.1731C35.9614 30.1418 35.882 30.1199 35.801 30.1084H34.1745C33.9188 30.1084 33.6777 30.2287 33.524 30.4336L31.0843 33.6867C31.0326 33.7562 30.9913 33.8328 30.9624 33.9142L29.5229 38.241H28.7096L29.2949 35.9962C29.3485 35.7754 29.3072 35.5427 29.1814 35.3537L27.5548 32.9139C27.4004 32.6796 27.1359 32.541 26.8552 32.5482H25.8144L25.31 31.0436L26.717 28.929C26.8778 28.6864 26.8965 28.3759 26.7658 28.1158L26.1396 26.8554L26.6765 25.7816L28.7259 24.4156H31.5397L32.9955 25.1391C33.2556 25.2698 33.5657 25.2511 33.8088 25.0903L36.0452 23.6023H40.1683C41.0364 25.3746 41.4895 27.3216 41.4938 29.2952C41.4914 29.8197 41.4561 30.3443 41.3882 30.8645L39.8673 32.2388ZM16.2828 33.3614H18.3894L20.2355 35.2076L19.6419 36.9886L18.7226 37.8912C17.6607 36.6832 16.8332 35.2874 16.2828 33.776V33.3614ZM17.2751 24.9684L17.7306 25.8793L15.5347 28.0832C15.6482 26.8228 15.9496 25.5866 16.4293 24.4156L17.2751 24.9684Z" fill="#CDAF71"></path>
    <path d="M30.3441 8.38635L28.1323 10.5903C26.5256 10.6184 24.9293 10.8535 23.3826 11.2895L23.8218 12.8509C25.2338 12.4566 26.6908 12.2434 28.1565 12.2168L30.3441 14.4123L31.4989 13.2576L30.5883 12.355C37.389 13.2187 43.0231 18.047 44.9176 24.6353L46.4794 24.1961C44.3653 16.8215 37.976 11.4758 30.3441 10.6959L31.4989 9.54112L30.3441 8.38635Z" fill="#CDAF71"></path>
  </g>
  <defs>
    <clipPath id="clip0_113_13782">
      <rect width="48" height="48" fill="white"></rect>
    </clipPath>
  </defs>
</svg>
