<?xml version="1.0" encoding="UTF-8"?>
<svg xmlns="http://www.w3.org/2000/svg" width="39" height="27" viewBox="0 0 39 27" fill="none">
  <path d="M37 0.5H2.00004C0.899971 0.5 0 1.39997 0 2.49997V24.5C0 25.5999 0.899971 26.5 2.00004 26.5H37C38.1 26.5 39.0001 25.6001 39.0001 24.5V2.49997C39 1.39997 38.1 0.5 37 0.5ZM36.2494 1.9999L20.6505 13.7001C20.37 13.9135 19.9395 14.047 19.4999 14.045C19.0604 14.047 18.63 13.9135 18.3494 13.7001L2.75049 1.9999H36.2494ZM27.917 14.4721L36.417 24.9721C36.4255 24.9826 36.436 24.9906 36.445 25.0002H2.55496C2.56395 24.9902 2.57446 24.9826 2.58299 24.9721L11.083 14.4721C11.3434 14.1501 11.2941 13.678 10.9715 13.417C10.6495 13.1566 10.1775 13.2059 9.91697 13.528L1.49998 23.9255V2.93742L17.4499 14.8999C18.0495 15.3464 18.7789 15.543 19.4998 15.5449C20.2198 15.5434 20.9499 15.3469 21.5498 14.8999L37.4997 2.93742V23.9254L29.083 13.528C28.8224 13.206 28.35 13.1565 28.0284 13.417C27.7059 13.6774 27.6564 14.1501 27.917 14.4721Z" fill="white"></path>
</svg>
