<?xml version="1.0" encoding="UTF-8"?>
<svg xmlns="http://www.w3.org/2000/svg" width="48" height="48" viewBox="0 0 48 48" fill="none">
  <g clip-path="url(#clip0_113_13801)">
    <path d="M7.12524 16.5937C6.87842 16.5937 6.63672 16.4934 6.4624 16.3187C6.28809 16.1448 6.18774 15.9027 6.18774 15.6562C6.18774 15.4098 6.28772 15.1677 6.4624 14.9934C6.63672 14.8191 6.87842 14.7188 7.12524 14.7188C7.3717 14.7188 7.6134 14.8191 7.78772 14.9934C7.96204 15.1677 8.06274 15.4098 8.06274 15.6562C8.06274 15.9027 7.9624 16.1448 7.78772 16.3187C7.6134 16.4934 7.3717 16.5937 7.12524 16.5937Z" fill="#CDAF71"></path>
    <path d="M34.9376 29.2745H30.7969C30.2794 29.2745 29.8594 28.8545 29.8594 28.337C29.8594 27.8192 30.2794 27.3995 30.7969 27.3995H34.9376C35.4554 27.3995 35.8751 27.8192 35.8751 28.337C35.8751 28.8545 35.4554 29.2745 34.9376 29.2745Z" fill="#CDAF71"></path>
    <path d="M27.031 29.2742C26.7842 29.2742 26.5425 29.1738 26.3682 28.9995C26.1938 28.8252 26.0935 28.5831 26.0935 28.3367C26.0935 28.0902 26.1935 27.8481 26.3682 27.6738C26.5425 27.4995 26.7842 27.3992 27.031 27.3992C27.2786 27.3992 27.5195 27.4995 27.6935 27.6738C27.8689 27.8481 27.9685 28.0902 27.9685 28.3367C27.9685 28.5831 27.8689 28.8252 27.6935 28.9995C27.5195 29.1738 27.2775 29.2742 27.031 29.2742Z" fill="#CDAF71"></path>
    <path d="M46.4681 29.4001C45.2827 28.5264 43.6852 28.4245 42.3984 29.1412L41.8124 29.4675V5.34375C41.8124 3.79285 40.5508 2.53125 38.9999 2.53125H9.00033C7.44943 2.53125 6.18783 3.79285 6.18783 5.34375V11.5312C6.18783 12.0491 6.60751 12.4687 7.12533 12.4687C7.64279 12.4687 8.06283 12.0491 8.06283 11.5312V5.34375C8.06283 4.82666 8.48324 4.40625 9.00033 4.40625H18V16.9687C18 17.4862 18.42 17.9062 18.9375 17.9062H29.0625C29.5803 17.9062 30 17.4862 30 16.9687V4.40625H38.9999C39.517 4.40625 39.9374 4.82666 39.9374 5.34375V30.5123L34.1755 33.7222C31.1934 35.3833 27.8686 36.3699 24.4713 36.6123C24.8822 35.5979 24.88 34.4868 24.4603 33.4702C24.0249 32.4159 23.2001 31.6055 22.1389 31.188L13.4025 27.7536C11.7118 27.089 9.85653 26.8806 8.06283 27.1384V19.2187C8.06283 18.7009 7.64279 18.2812 7.12533 18.2812C6.60751 18.2812 6.18783 18.7009 6.18783 19.2187V27.5694L0.688078 29.0896C0.188933 29.2273 -0.103669 29.7436 0.0340258 30.2428C0.172087 30.7419 0.688078 31.0345 1.18759 30.8968L7.2795 29.213C9.06368 28.7201 10.9943 28.8215 12.7163 29.4986L21.4526 32.9333C22.0356 33.1622 22.4879 33.6072 22.727 34.1861C22.9661 34.7648 22.9592 35.3994 22.708 35.9732C22.2209 37.084 20.9505 37.6201 19.8153 37.1935L12.7269 34.5304C12.2417 34.3484 11.7015 34.5937 11.5195 35.0786C11.3375 35.5631 11.5828 36.1036 12.0673 36.2856L19.1557 38.9487C19.6366 39.1293 20.1302 39.2153 20.6169 39.2153C21.4233 39.2153 22.2088 38.9787 22.8768 38.547C27.1413 38.5371 31.3623 37.4359 35.0881 35.3606L41.2745 31.9138C41.3155 31.8948 41.355 31.8732 41.3924 31.8482L43.3106 30.7796C43.9573 30.4193 44.7597 30.4706 45.3555 30.9097C45.8536 31.277 46.1341 31.8424 46.1246 32.4609C46.1154 33.0798 45.8184 33.6368 45.3101 33.9891L41.8652 36.3753C35.0482 41.0976 27.0615 43.5937 18.769 43.5937H0.937834C0.420012 43.5937 0.000334454 44.0138 0.000334454 44.5312C0.000334454 45.049 0.420012 45.4687 0.937834 45.4687H18.7686C27.4449 45.4687 35.8007 42.8573 42.9327 37.9167L46.3776 35.5305C47.3902 34.8292 47.9813 33.7203 47.9996 32.4888C48.0175 31.2568 47.4594 30.1315 46.4681 29.4001ZM28.125 16.0312H19.875V4.40625H28.125V16.0312Z" fill="#CDAF71"></path>
  </g>
  <defs>
    <clipPath id="clip0_113_13801">
      <rect width="48" height="48" fill="white"></rect>
    </clipPath>
  </defs>
</svg>
