<?xml version="1.0" encoding="UTF-8"?>
<svg xmlns="http://www.w3.org/2000/svg" width="52" height="54" viewBox="0 0 52 54" fill="none">
  <path d="M50.381 52.2839H47.9819V25.018C47.9819 24.8053 47.8976 24.6013 47.7476 24.4509C47.5977 24.3006 47.3943 24.2161 47.1822 24.2161H39.9849C39.7728 24.2161 39.5694 24.3006 39.4194 24.4509C39.2694 24.6013 39.1852 24.8053 39.1852 25.018V52.2839H35.9864V30.6316C35.9864 30.4189 35.9021 30.2149 35.7522 30.0645C35.6022 29.9141 35.3988 29.8296 35.1867 29.8296H27.9894C27.7773 29.8296 27.5739 29.9141 27.4239 30.0645C27.274 30.2149 27.1897 30.4189 27.1897 30.6316V52.2839H23.9909V35.4432C23.9909 35.2305 23.9067 35.0265 23.7567 34.8761C23.6067 34.7257 23.4033 34.6412 23.1912 34.6412H15.994C15.7819 34.6412 15.5785 34.7257 15.4285 34.8761C15.2785 35.0265 15.1943 35.2305 15.1943 35.4432V52.2839H11.9955V40.2548C11.9955 40.0421 11.9112 39.8381 11.7612 39.6877C11.6113 39.5374 11.4079 39.4529 11.1958 39.4529H3.99849C3.7864 39.4529 3.58299 39.5374 3.43302 39.6877C3.28304 39.8381 3.19879 40.0421 3.19879 40.2548V52.2839H0.799698C0.587605 52.2839 0.384198 52.3683 0.234226 52.5187C0.0842536 52.6691 0 52.8731 0 53.0858C0 53.2985 0.0842536 53.5025 0.234226 53.6528C0.384198 53.8032 0.587605 53.8877 0.799698 53.8877H50.381C50.593 53.8877 50.7965 53.8032 50.9464 53.6528C51.0964 53.5025 51.1806 53.2985 51.1806 53.0858C51.1806 52.8731 51.0964 52.6691 50.9464 52.5187C50.7965 52.3683 50.593 52.2839 50.381 52.2839ZM40.7846 25.8199H46.3825V52.2839H40.7846V25.8199ZM28.7891 31.4335H34.387V52.2839H28.7891V31.4335ZM16.7936 36.2451H22.3915V52.2839H16.7936V36.2451ZM4.79819 41.0567H10.3961V52.2839H4.79819V41.0567Z" fill="#CDAF71"></path>
  <path d="M35.1869 12.989H41.3743C37.1932 17.4071 22.4882 31.4336 4.34657 31.4336C4.13448 31.4336 3.93107 31.518 3.7811 31.6684C3.63113 31.8188 3.54688 32.0228 3.54688 32.2355C3.54688 32.4482 3.63113 32.6522 3.7811 32.8025C3.93107 32.9529 4.13448 33.0374 4.34657 33.0374C22.8658 33.0374 37.8563 18.9851 42.3841 14.2465V20.2064C42.3841 20.4191 42.4684 20.6231 42.6184 20.7735C42.7683 20.9239 42.9717 21.0084 43.1838 21.0084C43.3959 21.0084 43.5993 20.9239 43.7493 20.7735C43.8993 20.6231 43.9835 20.4191 43.9835 20.2064V12.1871C43.9757 11.9769 43.8889 11.7775 43.7406 11.6288C43.5923 11.48 43.3934 11.393 43.1838 11.3851H35.1869C34.9748 11.3851 34.7714 11.4696 34.6214 11.62C34.4714 11.7704 34.3872 11.9744 34.3872 12.1871C34.3872 12.3998 34.4714 12.6037 34.6214 12.7541C34.7714 12.9045 34.9748 12.989 35.1869 12.989Z" fill="#CDAF71"></path>
</svg>
