<?xml version="1.0" encoding="UTF-8"?>
<svg xmlns="http://www.w3.org/2000/svg" width="59" height="81" viewBox="0 0 59 81" fill="none">
  <path d="M21.1903 34.973C20.4263 34.9876 19.8166 35.5966 19.802 36.3597C19.755 38.8238 20.6893 41.1396 22.4323 42.8806C24.1014 44.548 26.2989 45.4719 28.6486 45.5064V50.9016C28.6486 51.371 29.0295 51.7519 29.5 51.7519C29.9704 51.7519 30.3513 51.371 30.3513 50.9016V45.5073C31.7929 45.4843 33.2149 45.1154 34.4826 44.4316C34.8963 44.2084 35.0507 43.692 34.8272 43.2788C34.6037 42.866 34.0871 42.7119 33.6734 42.9351C32.654 43.4851 31.5117 43.7845 30.3526 43.8071C30.3877 41.9151 31.1388 40.1476 32.4846 38.8026C33.8122 37.477 35.5779 36.7086 37.4957 36.6732C37.4695 38.0537 37.0576 39.3836 36.2975 40.5347C36.0386 40.9266 36.1468 41.4541 36.5392 41.7127C36.9316 41.9714 37.4597 41.8633 37.7187 41.4714C38.7213 39.9536 39.2325 38.1861 39.1979 36.3597C39.1833 35.5966 38.5736 34.9872 37.81 34.973C37.6438 34.9699 37.4788 34.9721 37.3143 34.9779C38.5736 33.364 39.2374 31.3879 39.1984 29.3042C39.1837 28.5411 38.5736 27.9321 37.81 27.9175C37.6522 27.9149 37.4952 27.9157 37.3387 27.9211C38.582 26.313 39.2374 24.3488 39.1984 22.2788C39.1837 21.5157 38.574 20.9067 37.81 20.8921C37.6349 20.8886 37.4611 20.8917 37.2881 20.8979C38.5643 19.2783 39.2383 17.2889 39.1984 15.1905C39.1837 14.4274 38.574 13.8185 37.81 13.8039C36.4332 13.7773 35.1056 14.0563 33.8982 14.6086C35.397 10.2143 34.4676 4.95957 30.663 1.30139C30.0112 0.674276 28.9896 0.674276 28.3373 1.30139C24.5856 4.90952 23.5795 10.1443 25.1035 14.6108C23.8938 14.0576 22.5645 13.7782 21.1908 13.8039C20.4268 13.8185 19.8171 14.4274 19.8024 15.1905C19.7625 17.2889 20.4361 19.2783 21.7127 20.8979C21.5397 20.8912 21.3655 20.8886 21.1908 20.8917C20.4268 20.9063 19.8171 21.5153 19.8024 22.2783C19.7634 24.3497 20.4192 26.3143 21.6639 27.9228C21.495 27.9175 21.4169 27.9131 21.1908 27.9175C20.4268 27.9317 19.8171 28.5406 19.8024 29.3042C19.763 31.3879 20.4276 33.3645 21.6874 34.9788C21.581 34.9748 21.4746 34.9708 21.3677 34.9708C21.3083 34.9712 21.2493 34.9717 21.1903 34.973ZM37.4957 29.6182C37.4234 33.539 34.2543 36.6807 30.3526 36.7525C30.4258 32.7954 33.6295 29.6895 37.4957 29.6182ZM37.4957 22.5923C37.4234 26.5078 34.2596 29.6549 30.3526 29.7267C30.4245 25.8223 33.575 22.665 37.4957 22.5923ZM37.4957 15.5045C37.4234 19.4089 34.2729 22.5667 30.3526 22.6388C30.4245 18.7508 33.5643 15.5771 37.4957 15.5045ZM29.5 2.54411C33.9949 6.88565 34.0113 14.0669 29.5 18.424C24.986 14.0647 25.0073 6.88388 29.5 2.54411ZM21.5043 15.5045C25.4205 15.5767 28.575 18.7309 28.6473 22.6388C24.7448 22.5667 21.5765 19.4275 21.5043 15.5045ZM21.5043 22.5923C25.4063 22.6645 28.575 25.8032 28.6473 29.7267C24.7527 29.6549 21.577 26.5216 21.5043 22.5923ZM21.5043 29.6182C25.3988 29.6899 28.5745 32.8237 28.6473 36.7525C24.7261 36.6799 21.5765 33.5195 21.5043 29.6182ZM28.6473 43.8075C26.753 43.7726 24.9829 43.0228 23.6367 41.6782C22.2904 40.3336 21.5393 38.5656 21.5043 36.6732C25.3957 36.745 28.5745 39.8766 28.6473 43.8075Z" fill="#CDAF71"></path>
  <path d="M42.0981 62.7239C41.3615 62.7381 40.7736 63.3254 40.7598 64.061C40.6734 68.6164 44.277 72.3512 48.8079 72.4584V79.2247C48.8079 79.6946 49.1887 80.0755 49.6592 80.0755C50.1292 80.0755 50.5106 79.6946 50.5106 79.2247V72.4584C55.0334 72.3512 58.6451 68.6235 58.5586 64.061C58.5444 63.3254 57.9569 62.7381 57.2204 62.7244C57.1144 62.7222 57.0093 62.7239 56.9038 62.7262C58.0119 61.2625 58.5941 59.4847 58.5586 57.6131C58.5444 56.8771 57.9564 56.2903 57.2204 56.2761C56.0152 56.2522 54.8494 56.4865 53.7803 56.9497C53.9364 56.4683 54.0637 55.9754 54.1572 55.4718C54.2433 55.0103 53.9377 54.5661 53.4753 54.4807C53.0137 54.3947 52.5689 54.6999 52.4833 55.1618C52.1086 57.1782 51.1331 59.0042 49.6592 60.4484C45.6662 56.5361 45.6645 50.1307 49.6592 46.2165C51.1331 47.6608 52.1086 49.4868 52.4833 51.5032C52.5689 51.9651 53.0137 52.2698 53.4753 52.1843C53.9377 52.0989 54.2433 51.6551 54.1572 51.1932C53.7116 48.7937 52.5405 46.6258 50.7704 44.9233C50.147 44.3241 49.171 44.3241 48.548 44.9233C45.1825 48.1599 44.2052 52.8575 45.5323 56.9462C44.4659 56.4856 43.3028 56.2526 42.0981 56.2761C41.3615 56.2898 40.7736 56.8771 40.7598 57.6127C40.7244 59.4843 41.3066 61.262 42.4147 62.7257C42.3091 62.7239 42.204 62.7217 42.0981 62.7239ZM56.8537 57.9781C56.749 61.4294 53.9688 64.2063 50.5132 64.3112C50.6183 60.8603 53.3985 58.083 56.8537 57.9781ZM56.8537 64.4264C56.749 67.8773 53.9688 70.6541 50.5132 70.7591C50.6183 67.3082 53.3985 64.5313 56.8537 64.4264ZM48.8043 64.3112C45.3488 64.2058 42.5694 61.4294 42.4639 57.9781C45.9194 58.0835 48.6992 60.8599 48.8043 64.3112ZM48.8043 70.7591C45.3488 70.6541 42.5694 67.8773 42.4639 64.4264C45.9199 64.5313 48.6992 67.3082 48.8043 70.7591Z" fill="#CDAF71"></path>
  <path d="M0.441465 64.061C0.354999 68.6173 3.95998 72.3512 8.48948 72.4584V79.2247C8.48948 79.6946 8.87082 80.075 9.34129 80.075C9.81131 80.075 10.1926 79.6946 10.1926 79.2247V72.4584C14.7142 72.3512 18.3271 68.6249 18.2407 64.061C18.2265 63.3254 17.6385 62.7381 16.902 62.724C16.7965 62.7222 16.6914 62.724 16.5858 62.7257C17.6935 61.262 18.2761 59.4847 18.2407 57.6127C18.2265 56.8771 17.6385 56.2903 16.9024 56.2761H16.902C15.699 56.2526 14.5355 56.486 13.4677 56.947C14.7598 52.9651 13.8965 48.2356 10.4525 44.9233C9.82949 44.3241 8.85309 44.3241 8.23009 44.9233C4.85746 48.1665 3.88992 52.8677 5.21485 56.9479C4.14621 56.486 2.9818 56.2526 1.78014 56.2761C1.04363 56.2903 0.455654 56.8771 0.441908 57.6127C0.406435 59.4843 0.988642 61.262 2.09674 62.7257C1.99121 62.724 1.88612 62.7222 1.78014 62.724C1.04363 62.7381 0.455654 63.3254 0.441465 64.061ZM10.1953 70.7591C10.3004 67.3077 13.0806 64.5313 16.5357 64.4264C16.4306 67.8777 13.6509 70.6546 10.1953 70.7591ZM16.5357 57.9785C16.4311 61.429 13.6509 64.2063 10.1953 64.3112C10.2995 60.8816 13.0664 58.0835 16.5357 57.9785ZM9.34085 46.2165C13.3338 50.1289 13.3351 56.5343 9.34085 60.4484C5.34832 56.5361 5.34654 50.1303 9.34085 46.2165ZM8.48638 64.3112C5.03083 64.2063 2.25105 61.4294 2.14596 57.9785C5.60018 58.0835 8.38129 60.8585 8.48638 64.3112ZM8.48638 70.7591C5.03083 70.6541 2.25105 67.8773 2.14596 64.4264C5.60195 64.5318 8.38173 67.3086 8.48638 70.7591Z" fill="#CDAF71"></path>
</svg>
