<?xml version="1.0" encoding="UTF-8"?>
<svg xmlns="http://www.w3.org/2000/svg" width="32" height="38" viewBox="0 0 32 38" fill="none">
  <path d="M22.0581 21.304C25.0614 19.2417 27.0347 15.7847 27.0347 11.8761C27.0347 5.57319 21.9041 0.445312 15.5972 0.445312C9.29055 0.445312 4.15983 5.57319 4.15983 11.8761C4.15983 15.7851 6.13311 19.2419 9.13637 21.304C3.75114 23.7615 0 29.1924 0 35.4821V35.6988C0.000170359 36.6384 0.763036 37.4004 1.70376 37.4004H29.4909C30.4316 37.4004 31.1945 36.6384 31.1945 35.6988V35.4821C31.1945 29.1924 27.4434 23.7615 22.0581 21.304ZM7.56719 11.876C7.56719 7.44947 11.1696 3.84819 15.5974 3.84819C20.0252 3.84819 23.6276 7.44947 23.6276 11.876C23.6276 16.3025 20.0252 19.9038 15.5974 19.9038C11.1696 19.9038 7.56719 16.3022 7.56719 11.876ZM3.49782 33.9972C4.23309 27.9814 9.37896 23.3065 15.5976 23.3065C21.8162 23.3065 26.9621 27.9814 27.6974 33.9972H3.49782Z" fill="white"></path>
</svg>
