<?xml version="1.0" encoding="UTF-8"?>
<svg xmlns="http://www.w3.org/2000/svg" width="96" height="119" viewBox="0 0 96 119" fill="none">
  <path d="M5.51048 99.0668V103.674H4.67462V102.468C4.33409 103.396 3.65302 103.859 2.66237 103.859C2.25992 103.859 1.88842 103.798 1.6098 103.643C1.33118 103.488 1.08352 103.303 0.866817 103.086C0.681071 102.839 0.495324 102.561 0.402451 102.252C0.27862 101.942 0.185747 101.602 0.123831 101.262C0.0619155 100.922 0.0309578 100.582 0 100.242C0 99.8707 0 99.5615 0 99.2523C0 98.9122 0 98.572 0.0309578 98.201C0.0619155 97.83 0.0928733 97.4898 0.154789 97.1497C0.216704 96.8096 0.309578 96.4695 0.433409 96.1912C0.55724 95.882 0.712028 95.6037 0.928733 95.3873C1.14544 95.1708 1.3931 94.9853 1.70268 94.8307C2.01225 94.707 2.38375 94.6143 2.81716 94.6143C3.62206 94.6143 4.24121 94.8307 4.70558 95.2945C5.13899 95.7583 5.38665 96.4076 5.41761 97.2425H4.33409C4.30313 96.6859 4.1793 96.253 3.90068 95.9438C3.65302 95.6346 3.28152 95.48 2.81716 95.48C2.50758 95.48 2.25992 95.5419 2.04321 95.6965C1.82651 95.8511 1.67172 96.0057 1.54789 96.2221C1.42406 96.4385 1.33118 96.6859 1.26927 96.9951C1.20735 97.2734 1.14544 97.5826 1.14544 97.8609C1.11448 98.1392 1.11448 98.4484 1.11448 98.6957C1.11448 98.974 1.11448 99.2214 1.11448 99.4069C1.11448 100.644 1.26927 101.509 1.54789 102.097C1.82651 102.653 2.25992 102.932 2.87907 102.932C3.25056 102.932 3.56014 102.839 3.77685 102.623C3.99355 102.437 4.1793 102.19 4.27217 101.88C4.36504 101.571 4.45792 101.262 4.48887 100.922C4.51983 100.582 4.51983 100.273 4.51983 99.9634V99.8707H2.75524V99.0668H5.51048Z" fill="black"></path>
  <path d="M11.7949 94.7847C12.5688 94.7847 13.188 94.9702 13.6214 95.3412C14.0858 95.7123 14.3025 96.2998 14.3025 97.1037C14.3025 97.6912 14.1786 98.155 13.931 98.526C13.6833 98.8971 13.3428 99.1444 12.8784 99.2681C13.188 99.3299 13.4047 99.4227 13.5904 99.5464C13.7762 99.6701 13.9 99.8247 13.9929 100.041C14.0548 100.134 14.0858 100.227 14.1167 100.35C14.1477 100.443 14.1786 100.567 14.1786 100.752C14.2096 100.907 14.2096 101.123 14.2406 101.371C14.2406 101.618 14.2715 101.927 14.2715 102.329C14.2715 102.453 14.2715 102.577 14.2715 102.7C14.2715 102.824 14.3025 102.948 14.3334 103.102C14.3644 103.226 14.3953 103.35 14.4573 103.473C14.5192 103.597 14.612 103.69 14.7049 103.752H13.3737C13.3118 103.628 13.2499 103.473 13.2189 103.288C13.188 103.102 13.157 102.824 13.1261 102.453L13.0951 101.711C13.0951 101.432 13.0642 101.216 13.0642 101.031C13.0332 100.845 13.0022 100.69 12.9713 100.567C12.9403 100.443 12.9094 100.35 12.8475 100.258C12.7855 100.165 12.7236 100.103 12.6307 100.041C12.445 99.8865 12.2283 99.7937 11.9806 99.7937C11.733 99.7628 11.4853 99.7628 11.2686 99.7628H10.1851V103.752H9.10156V94.8465H11.7949V94.7847ZM10.247 98.8661H11.4234C11.5782 98.8661 11.7639 98.8661 11.9187 98.8352C12.0735 98.8043 12.2283 98.7734 12.3212 98.7424C12.5998 98.6497 12.7855 98.4642 12.9403 98.1859C13.0951 97.9076 13.157 97.5675 13.157 97.1964C13.157 96.8872 13.1261 96.6399 13.0332 96.4544C12.9403 96.2688 12.8165 96.1142 12.6617 95.9906C12.5069 95.8669 12.3212 95.7741 12.1045 95.7432C11.8878 95.6814 11.6711 95.6814 11.3924 95.6814H10.1851V98.8661H10.247Z" fill="black"></path>
  <path d="M21.2369 94.7847L23.7135 103.69H22.5371L21.887 101.247H19.0389L18.3578 103.69H17.2124L19.7819 94.7847H21.2369ZM20.432 95.9287C20.4011 96.0833 20.3701 96.2379 20.3082 96.4544L19.2556 100.35H21.6703L20.6797 96.4544C20.6178 96.2688 20.5868 96.0833 20.5868 95.9596C20.5558 95.8359 20.5249 95.6813 20.4939 95.4649C20.4939 95.6195 20.463 95.7741 20.432 95.9287Z" fill="black"></path>
  <path d="M27.8 94.7847V103.69H26.6855V94.7847H27.8Z" fill="black"></path>
  <path d="M33.0628 94.6452L35.0441 99.4687C35.2608 99.9944 35.4466 100.551 35.6323 101.077C35.8181 101.602 35.9729 102.159 36.0967 102.715H36.1586C36.1276 102.313 36.0967 101.911 36.0657 101.509C36.0348 101.107 36.0348 100.706 36.0348 100.304V94.6143H37.0873V103.519H35.6633L33.651 98.5102C33.5272 98.2319 33.4343 97.9227 33.3105 97.6444C33.1867 97.3661 33.0938 97.057 33.0319 96.8096C32.939 96.5313 32.8771 96.2839 32.8152 96.0675C32.7532 95.8201 32.6913 95.6346 32.6913 95.48H32.6294C32.6913 95.8511 32.7223 96.253 32.7223 96.7168C32.7223 97.1497 32.7532 97.5826 32.7532 97.9846V103.581H31.7007V94.6761H33.0628V94.6452Z" fill="black"></path>
  <path d="M47.0867 100.86V101.015C47.0867 101.293 47.1177 101.54 47.1487 101.757C47.1796 102.004 47.2725 102.19 47.3963 102.375C47.5202 102.561 47.6749 102.684 47.8916 102.777C48.0774 102.87 48.356 102.932 48.6656 102.932C49.1919 102.932 49.5943 102.808 49.8729 102.53C50.1516 102.252 50.3064 101.85 50.3064 101.355C50.3064 100.953 50.2135 100.613 49.9968 100.365C49.811 100.118 49.4705 99.9325 49.0061 99.747L48.1393 99.4378C47.4582 99.1904 46.932 98.9122 46.6224 98.5102C46.3128 98.1392 46.158 97.6135 46.158 97.026C46.158 96.253 46.3747 95.6655 46.8391 95.2327C47.2725 94.7998 47.9226 94.6143 48.7585 94.6143C49.5634 94.6143 50.1516 94.8307 50.585 95.2327C51.0184 95.6346 51.2041 96.2221 51.2041 96.9951V97.0879H50.1206C50.1206 96.8405 50.0896 96.655 50.0587 96.4385C50.0277 96.253 49.9349 96.0675 49.842 95.9438C49.7491 95.8201 49.5943 95.6965 49.4086 95.6346C49.2228 95.5728 49.0061 95.5109 48.7275 95.5109C48.2631 95.5109 47.8916 95.6346 47.644 95.882C47.3963 96.1293 47.2725 96.4695 47.2725 96.9333C47.2725 97.3662 47.3963 97.7063 47.613 97.9536C47.8297 98.201 48.2322 98.4174 48.7585 98.603L49.5943 98.8812C49.9039 98.974 50.1825 99.0977 50.3992 99.2523C50.6159 99.376 50.8326 99.5615 50.9874 99.747C51.1422 99.9325 51.266 100.149 51.328 100.396C51.3899 100.644 51.4518 100.953 51.4518 101.262C51.4518 102.097 51.2041 102.715 50.7398 103.148C50.2444 103.581 49.5634 103.798 48.6656 103.798C47.7369 103.798 47.0558 103.55 46.6533 103.086C46.2509 102.623 46.0342 101.911 46.0342 101.015V100.86H47.0867Z" fill="black"></path>
  <path d="M59.9032 94.7847V95.7432H57.6742V103.69H56.5907V95.7432H54.3308V94.7847H59.9032Z" fill="black"></path>
  <path d="M65.6923 94.7847C66.4663 94.7847 67.0854 94.9702 67.5189 95.3412C67.9832 95.7123 68.1999 96.2998 68.1999 97.1037C68.1999 97.6912 68.0761 98.155 67.8284 98.526C67.5808 98.8971 67.2402 99.1444 66.7759 99.2681C67.0854 99.3299 67.3022 99.4227 67.4879 99.5464C67.6736 99.6701 67.7975 99.8247 67.8903 100.041C67.9523 100.134 67.9832 100.227 68.0142 100.35C68.0451 100.443 68.0761 100.567 68.0761 100.752C68.1071 100.907 68.1071 101.123 68.138 101.371C68.138 101.618 68.169 101.927 68.169 102.329C68.169 102.453 68.169 102.577 68.169 102.7C68.169 102.824 68.1999 102.948 68.2309 103.102C68.2618 103.226 68.2928 103.35 68.3547 103.473C68.4166 103.597 68.5095 103.69 68.6024 103.752H67.2712C67.2093 103.628 67.1474 103.473 67.1164 103.288C67.0854 103.102 67.0545 102.824 67.0235 102.453L66.9926 101.711C66.9926 101.432 66.9616 101.216 66.9616 101.031C66.9307 100.845 66.8997 100.69 66.8687 100.567C66.8378 100.443 66.8068 100.35 66.7449 100.258C66.683 100.165 66.6211 100.103 66.5282 100.041C66.3425 99.8865 66.1258 99.7937 65.8781 99.7937C65.6304 99.7628 65.3828 99.7628 65.1661 99.7628H64.0825V103.752H62.999V94.8465H65.6923V94.7847ZM64.1445 98.8661H65.3209C65.4756 98.8661 65.6614 98.8661 65.8162 98.8352C65.971 98.8043 66.1258 98.7734 66.2186 98.7424C66.4972 98.6497 66.683 98.4642 66.8378 98.1859C66.9926 97.9076 67.0545 97.5675 67.0545 97.1964C67.0545 96.8872 67.0235 96.6399 66.9307 96.4544C66.8378 96.2688 66.714 96.1142 66.5592 95.9906C66.4044 95.8669 66.2186 95.7741 66.0019 95.7432C65.7852 95.6814 65.5685 95.6814 65.2899 95.6814H64.0825V98.8661H64.1445Z" fill="black"></path>
  <path d="M76.5896 94.7847V95.7432H73.0913V98.5878H76.4038V99.5154H73.0913V102.731H76.7443V103.69H72.0078V94.7847H76.5896Z" fill="black"></path>
  <path d="M83.3072 94.7847L85.7838 103.69H84.6074L83.9573 101.247H81.1092L80.4281 103.69H79.2827L81.8522 94.7847H83.3072ZM82.5023 95.9287C82.4714 96.0833 82.4404 96.2379 82.3785 96.4544L81.3259 100.35H83.7406L82.75 96.4544C82.6881 96.2688 82.6571 96.0833 82.6571 95.9596C82.6262 95.8359 82.5952 95.6813 82.5642 95.4649C82.5642 95.6195 82.5333 95.7741 82.5023 95.9287Z" fill="black"></path>
  <path d="M90.6132 94.7847L91.6968 98.928C91.8515 99.5464 92.0063 100.134 92.1302 100.752C92.254 101.371 92.3778 101.989 92.4397 102.607H92.4707C92.5326 102.082 92.5945 101.587 92.6874 101.092C92.7803 100.598 92.9041 100.103 93.0279 99.6082L94.2353 94.8156H95.9999V103.721H94.9473V97.4747C94.9473 96.98 94.9473 96.578 94.9783 96.2688C95.0092 95.9596 95.0092 95.7123 95.0402 95.5267H94.9783C94.9473 95.6504 94.9473 95.7432 94.9164 95.836C94.8854 95.9287 94.8854 96.0215 94.8544 96.1142C94.8235 96.207 94.8235 96.3307 94.7925 96.4234C94.7616 96.5471 94.7306 96.7017 94.6687 96.8872L92.9351 103.721H91.9134L90.2108 97.2274C90.1798 97.0728 90.1179 96.8872 90.0869 96.7017C90.056 96.5162 90.025 96.3616 89.9941 96.207C89.9631 96.0524 89.9322 95.8978 89.9012 95.7741C89.8702 95.6504 89.8702 95.5577 89.8393 95.5267H89.7774C89.8083 95.9287 89.8083 96.3616 89.8393 96.7636C89.8702 97.1655 89.8702 97.5984 89.8702 98.0004V103.721H88.8486V94.8156H90.6132V94.7847Z" fill="black"></path>
  <path d="M38.7591 109.616V117.562H42.4121V118.521H37.6755V109.616H38.7591Z" fill="black"></path>
  <path d="M46.6844 109.616V117.562H50.3374V118.521H45.6008V109.616H46.6844Z" fill="black"></path>
  <path d="M58.8506 115.584C58.8196 116.047 58.7887 116.48 58.6648 116.882C58.5719 117.284 58.4172 117.624 58.2005 117.903C57.9838 118.181 57.7051 118.428 57.3956 118.583C57.055 118.737 56.6526 118.83 56.1572 118.83C55.5071 118.83 54.9808 118.676 54.6094 118.397C54.2379 118.119 53.9592 117.748 53.7735 117.315C53.5877 116.882 53.4639 116.387 53.402 115.862C53.3401 115.336 53.3401 114.811 53.3401 114.316C53.3401 113.79 53.371 113.265 53.402 112.708C53.4639 112.151 53.5877 111.626 53.7735 111.193C53.9592 110.729 54.2379 110.358 54.6403 110.049C55.0118 109.74 55.5381 109.616 56.1882 109.616C57.0241 109.616 57.6742 109.863 58.1076 110.327C58.541 110.791 58.7577 111.471 58.7887 112.399H57.7051C57.7051 112.151 57.6742 111.935 57.6123 111.688C57.5503 111.471 57.4884 111.255 57.3646 111.1C57.2408 110.915 57.086 110.791 56.9002 110.667C56.7145 110.574 56.4668 110.513 56.1882 110.513C55.8786 110.513 55.631 110.574 55.4452 110.698C55.2595 110.822 55.0737 111.007 54.9499 111.224C54.8261 111.44 54.7332 111.688 54.6713 111.966C54.6094 112.244 54.5474 112.522 54.5474 112.801C54.5165 113.079 54.5165 113.357 54.5165 113.636C54.5165 113.914 54.5165 114.161 54.5165 114.347C54.5165 114.532 54.5165 114.78 54.5165 115.027C54.5165 115.274 54.5474 115.553 54.5784 115.8C54.6094 116.078 54.6403 116.326 54.7332 116.573C54.7951 116.82 54.888 117.068 55.0118 117.253C55.1356 117.439 55.2904 117.624 55.5071 117.748C55.6929 117.872 55.9405 117.933 56.2501 117.933C57.2717 117.933 57.798 117.16 57.829 115.584H58.8506Z" fill="black"></path>
  <path d="M55.1048 62.0299C53.9903 63.8851 52.3495 66.235 50.4301 68.3685C48.8823 70.1001 47.1796 71.6461 45.6626 72.821C46.3437 71.8316 47.0248 70.6566 47.582 69.4198C48.4488 67.5955 49.099 65.6785 49.4705 64.1943C49.8419 62.7411 49.9967 61.7516 49.9967 61.7516L49.7181 61.6898C49.7181 61.6898 49.5324 62.6792 49.1299 64.1016C48.7275 65.5239 48.0464 67.41 47.1486 69.2034C46.2508 70.9968 45.1364 72.6355 44.2076 73.7796C44.1457 73.8723 44.0838 73.9032 44.0219 73.996C43.8052 74.1506 43.5885 74.3052 43.4027 74.4289C43.0312 74.6762 42.7217 74.8618 42.443 75.0164C41.9168 75.3256 41.6072 75.5111 41.6072 75.5111L42.1025 76.3769C42.1025 76.3769 42.3811 76.1913 42.8455 75.9131L43.0312 76.0986C43.0312 76.0986 43.217 75.9131 43.4956 75.5729C43.5575 75.4802 43.6504 75.4183 43.7433 75.3256C43.8052 75.2946 43.8671 75.2637 43.929 75.2019C44.3005 74.9545 44.703 74.6453 45.1364 74.3052C46.901 72.9756 49.068 70.9967 50.9564 68.7705C52.8448 66.5442 54.4546 64.1016 55.5382 62.2154C56.6217 60.3293 57.2099 58.9997 57.2099 58.9997L56.8694 58.8142C56.8384 58.907 56.2192 60.2056 55.1048 62.0299Z" fill="black"></path>
  <path d="M54.7024 41.7293C54.3619 41.3273 54.3619 41.3273 54.269 41.2964C54.1761 41.2964 53.9594 41.3273 53.8975 41.7602C53.8975 41.8839 53.8666 42.1931 53.8046 42.5641C53.5879 41.7602 53.3712 41.1727 53.2784 40.9563C53.0926 40.5543 52.9378 40.5543 52.8759 40.5852C52.814 40.6161 52.814 40.6161 52.6902 41.049C52.6902 41.049 52.6592 41.2345 52.6282 41.5747C52.5973 41.8839 52.5044 42.3477 52.3496 42.9042C52.102 43.9864 51.5757 45.3778 50.8327 46.7074C50.4612 47.6659 50.3374 48.3462 50.3683 48.9646C50.3683 49.583 50.4922 50.1395 50.5541 50.7579C50.6779 49.3047 50.7089 48.779 51.0494 48.037C51.2351 47.6659 51.4518 47.233 51.7614 46.6146C51.9162 46.3054 52.102 45.9344 52.3187 45.4706C52.5354 45.0068 52.7521 44.4812 52.9688 43.8318C53.2784 45.0377 53.4641 46.2745 53.4951 47.4186C53.4641 47.9442 53.4641 48.4698 53.4331 48.9337C53.4331 48.9337 53.4331 48.9336 53.4331 48.9646C53.4331 49.0264 53.4331 49.0882 53.4331 49.1192C53.3403 49.8922 53.1236 50.6033 52.8449 51.2217C52.5354 51.8092 52.1639 52.3039 51.6376 52.6441C52.102 52.6131 52.7521 52.273 53.3403 51.5C53.4331 51.3763 53.526 51.2527 53.6189 51.0981C53.6498 51.2836 53.6808 51.4691 53.7118 51.6546C53.557 51.9329 53.3712 52.2112 53.1855 52.4895C52.783 53.077 52.3496 53.6644 51.8233 54.221C51.2661 55.0558 50.9875 55.7361 50.8946 56.3236C50.7708 56.942 50.7708 57.4985 50.7089 58.086C50.9256 57.4058 51.0494 56.911 51.2042 56.54C51.359 56.169 51.5138 55.8598 51.7305 55.5506C51.9781 55.2104 52.2877 54.8703 52.7521 54.3138C53.0926 53.9118 53.4951 53.3861 53.9904 52.675C54.0523 52.8914 54.1452 53.1079 54.2071 53.3243C54.269 53.5098 54.3619 53.6335 54.4547 53.7881C54.3619 54.9631 54.1761 56.1071 53.8356 57.0966C53.7118 57.4676 53.557 57.8077 53.4022 58.1479C53.2164 58.4571 53.0307 58.7663 52.8449 59.0136C52.4425 59.5393 51.9472 59.9412 51.3899 60.1577C51.8543 60.2195 52.5663 60.034 53.3093 59.3847C53.6808 59.0755 54.0523 58.6117 54.3928 58.0551C54.7024 57.4676 55.0429 56.7564 55.2596 55.8598C55.3216 55.6124 55.3835 55.3341 55.4144 55.0868C55.6931 55.396 56.0026 55.6742 56.3741 55.8598C56.0336 55.396 55.755 54.9012 55.5383 54.3447C55.6311 53.5408 55.6931 52.675 55.6931 51.902C55.6931 51.2527 55.6621 50.6652 55.6311 50.2014C55.6002 49.7376 55.5692 49.3975 55.5383 49.2429C55.4764 48.81 55.2906 48.81 55.2287 48.81C55.1668 48.81 55.1668 48.81 54.9501 49.2119C54.9501 49.2119 54.9191 49.2429 54.9191 49.3356C54.981 47.8824 55.1668 46.3673 55.3525 44.8213C56.2813 46.2436 56.9314 47.2949 57.3957 48.1297C57.8911 48.9646 58.2006 49.5521 58.3864 50.0468C58.5721 50.5724 58.696 51.0053 58.7269 51.5928C58.7269 52.1493 58.696 52.8605 58.5721 53.8809C58.8198 53.077 59.1294 52.3349 59.2532 51.4691C59.3461 50.6033 59.3151 49.6139 58.7269 48.3152C56.5289 44.7285 54.7024 41.7293 54.7024 41.7293Z" fill="black"></path>
  <path d="M69.3145 42.96C69.2216 42.96 69.2216 42.96 68.7882 43.3928C68.7882 43.3928 68.7572 43.4547 68.6644 43.5474C68.6025 43.6402 68.4786 43.7948 68.3548 43.9803C68.0762 44.3514 67.6428 44.8461 67.1165 45.4336C66.5902 46.0211 65.9091 46.6704 65.1661 47.3197C64.3922 47.969 63.5563 48.6493 62.6276 49.2368C61.5441 50.1953 60.894 51.0301 60.5225 51.834C60.12 52.638 59.9033 53.411 59.5938 54.2458C60.151 53.3491 60.5225 52.7307 60.894 52.2669C61.2345 51.7722 61.575 51.4321 62.0085 51.092C62.4728 50.7209 63.061 50.3499 63.8659 49.7624C64.7018 49.1749 65.7853 48.3401 67.2403 47.0414C66.6212 49.6696 65.6305 52.1432 64.3303 54.0294C63.9898 54.4932 63.6802 54.9261 63.3087 55.2971C62.9372 55.6681 62.5657 56.0083 62.1942 56.2865C61.4203 56.874 60.5844 57.2142 59.7176 57.3378C60.3367 57.5852 61.4203 57.6161 62.6895 56.9977C63.3087 56.6885 64.0207 56.2247 64.7018 55.5445C65.3829 54.8642 66.0949 53.9675 66.714 52.8235C67.5809 51.3393 68.2929 49.2677 68.8192 47.4743C69.0668 46.5776 69.2526 45.7428 69.3764 45.0625C69.5002 44.3823 69.5931 43.8876 69.5931 43.6711C69.6241 43.0527 69.4074 42.96 69.3145 42.96Z" fill="black"></path>
  <path d="M55.9718 35.7307C56.5909 36.2873 57.1172 36.8129 57.5506 37.2767C58.015 37.7405 58.3865 38.1425 58.696 38.4826C59.3461 39.1938 59.7796 39.6885 60.0891 40.1523C60.7083 41.0799 60.8631 41.822 61.0179 43.8627C61.1107 43.0279 61.2346 42.2239 61.2036 41.3582C61.1107 40.4924 60.8631 39.5339 60.0272 38.3898C58.5412 36.8747 57.241 35.5143 56.2813 34.5557C55.817 34.0919 55.4455 33.69 55.1668 33.4426C54.8882 33.1643 54.7644 33.0406 54.7334 33.0406C54.331 32.7314 54.331 32.7314 54.2072 32.7314C54.1143 32.7314 53.8976 32.8242 53.9285 33.2571C53.9595 33.5663 54.1452 34.6176 54.331 35.9471C54.5477 37.2767 54.7644 38.8536 55.043 40.1523C55.2288 40.9871 55.4455 41.7601 55.755 42.4404C56.0337 43.1206 56.3742 43.739 56.7147 44.2337C57.4268 45.285 58.3555 45.9962 59.3152 46.3054C56.7147 44.0173 56.4361 39.8122 55.9718 35.7307Z" fill="black"></path>
  <path d="M69.6241 31.343C69.5312 30.6937 69.3145 30.6627 69.2217 30.6937C69.1288 30.6937 69.1288 30.7246 68.8192 31.2502C68.8192 31.2502 68.6954 31.4976 68.5096 31.9305C68.3239 32.3633 68.0143 32.9508 67.6428 33.662C66.8689 35.0534 65.6306 36.8468 64.0827 38.3928C63.2158 39.5677 62.7824 40.4953 62.5657 41.392C62.3181 42.2578 62.3181 43.0617 62.1323 43.9275C62.8753 41.9486 63.092 41.2065 63.835 40.3098C64.2065 39.846 64.6709 39.3513 65.3829 38.5783C65.7234 38.2072 66.1259 37.7434 66.5593 37.1869C67.0237 36.6303 67.519 35.981 68.0762 35.1771C68.0453 37.898 67.6118 40.5881 66.7141 42.6907C66.2807 43.742 65.7234 44.6696 65.1043 45.3807C64.4542 46.0919 63.7421 46.6175 62.9063 46.9267C63.5564 47.0504 64.6089 46.8649 65.7234 45.9991C66.8379 45.1334 68.0453 43.5874 68.8192 41.0828C69.3455 39.4131 69.6551 37.2178 69.717 35.3317C69.8408 33.4146 69.686 31.8068 69.6241 31.343Z" fill="black"></path>
  <path d="M57.798 28.8084C58.6029 29.3031 59.1292 29.7051 59.5626 30.0452C60.3675 30.7873 60.7081 31.4675 61.3582 33.3846C61.2962 32.9517 61.2653 32.5498 61.2034 32.1478C61.1415 31.7458 61.0795 31.3439 60.9248 30.911C60.6461 30.0761 60.1508 29.2104 59.0673 28.3446C57.2717 27.2624 55.631 26.3657 54.4855 25.7782C53.8973 25.5 53.433 25.2526 53.0924 25.098C52.7519 24.9434 52.5662 24.8506 52.5662 24.8506C52.1018 24.696 52.1018 24.696 51.978 24.7579C51.8851 24.7888 51.6993 24.9434 51.8541 25.2835C51.978 25.5618 52.4114 26.4276 52.9377 27.5716C53.4639 28.7157 54.0521 30.1071 54.6403 31.2202C56.1263 34.1576 58.1386 35.92 60.2127 36.1056C58.6648 35.3016 57.6432 33.9102 56.7764 32.2715C55.9096 30.6327 55.2285 28.7466 54.4855 26.9532C55.2285 27.2933 55.8477 27.6334 56.4049 27.9426C56.9312 28.2828 57.3956 28.5611 57.798 28.8084Z" fill="black"></path>
  <path d="M62.2871 30.7623C62.2871 31.2261 62.3181 31.628 62.349 32.0609C62.38 32.4938 62.4419 32.8957 62.4729 33.3286C62.7205 31.2261 62.7824 30.4531 63.2778 29.4018C63.4945 28.8761 63.866 28.2577 64.3303 27.3301C64.547 26.8663 64.8256 26.3098 65.1043 25.6604C65.3829 24.9802 65.6925 24.2072 66.002 23.2487C66.776 26.0006 66.9927 28.7834 66.6522 31.0715C66.3116 33.3595 65.3519 35.1838 63.8969 36.1114C64.578 36.0805 65.5377 35.6786 66.4355 34.5654C67.3023 33.4523 68.1691 31.6589 68.262 28.938C68.3239 27.1446 68.0453 24.8565 67.5809 22.9395C67.1165 20.9915 66.4974 19.4146 66.2807 18.9817C65.9711 18.3633 65.7544 18.3942 65.6615 18.4251C65.5686 18.456 65.5686 18.487 65.4448 19.1054C65.4448 19.1054 65.4448 19.1672 65.4448 19.3218C65.4448 19.4455 65.4448 19.631 65.4138 19.8784C65.3519 20.3731 65.2591 21.0533 65.1043 21.8573C64.7328 23.4651 64.1136 25.5677 62.9991 27.4847C62.4729 28.8452 62.2871 29.8656 62.2871 30.7623Z" fill="black"></path>
  <path d="M56.8074 21.3037C57.2718 21.5201 57.6123 21.7675 57.9838 22.1385C58.1696 22.3241 58.3553 22.5405 58.572 22.8188C58.7887 23.0971 59.0054 23.4372 59.2841 23.8082C59.1293 23.4372 58.9745 23.0971 58.8197 22.726C58.6649 22.3859 58.4792 22.0458 58.2315 21.7057C58.0148 21.3655 57.7052 21.0563 57.3337 20.7471C57.148 20.5925 56.9313 20.4379 56.6836 20.3143C56.4359 20.1906 56.1573 20.0669 55.8787 19.9432C54.95 19.7268 54.0212 19.5722 53.2163 19.4176C52.4114 19.2939 51.6994 19.1702 51.0802 19.1084C50.492 19.0465 50.0277 18.9847 49.6871 18.9538C49.3466 18.9229 49.1609 18.9229 49.1609 18.9229C48.6965 18.9538 48.6965 18.9538 48.6346 19.0156C48.5727 19.0775 48.4488 19.263 48.6965 19.5103C48.7894 19.6031 48.9751 19.7886 49.2537 20.0669C49.3776 20.2215 49.5633 20.3452 49.7181 20.5307C49.8729 20.7162 50.0586 20.9017 50.2753 21.0873C51.0493 21.8912 51.9471 22.8806 52.721 23.6846C52.9996 23.9319 53.2473 24.2102 53.495 24.4266C53.7736 24.6431 54.0212 24.8595 54.2689 25.076C54.5166 25.2615 54.7952 25.447 55.0738 25.6016C55.3215 25.7562 55.6001 25.9108 55.8477 26.0345C56.9003 26.5292 57.9529 26.7147 58.8816 26.5601C58.4791 26.4674 58.1077 26.3437 57.7671 26.1891C57.3956 26.0345 57.0551 25.849 56.7146 25.6325C56.0644 25.1996 55.4143 24.674 54.8571 24.0556C53.6807 22.8497 52.5662 21.4583 51.3898 20.1287C52.8758 20.2833 53.9903 20.4998 54.8261 20.7162C55.7549 20.9017 56.3121 21.0873 56.8074 21.3037Z" fill="black"></path>
  <path d="M58.7887 10.4782C58.8815 10.942 59.0363 11.5913 59.1602 12.3334C59.253 13.1064 59.3459 14.034 59.3459 14.9926C59.315 15.982 59.253 16.9715 59.0054 18.0227C58.9744 18.3629 58.9744 18.6721 58.9744 18.9813C58.9744 19.2905 58.9744 19.5687 59.0054 19.8161C59.0673 20.3417 59.1602 20.7746 59.253 21.1766C59.3769 21.5786 59.5317 21.9496 59.6555 22.3206C59.8103 22.6917 59.9341 23.0627 60.0889 23.4338C59.996 22.939 59.9341 22.5371 59.8722 22.166C59.8103 21.795 59.7484 21.5167 59.7174 21.2384C59.6555 20.6819 59.6555 20.2181 59.7174 19.6924C59.7793 19.1359 59.9341 18.4865 60.0579 17.528C60.2127 16.5386 60.3675 15.2708 60.3056 13.3538C61.8535 15.611 62.8751 18.0846 63.1847 20.2799C63.3395 21.393 63.3395 22.3825 63.1228 23.3101C63.0299 23.743 62.8751 24.1758 62.6894 24.5469C62.5036 24.9179 62.2559 25.2581 61.9773 25.5673C62.5655 25.3817 63.3704 24.7633 63.8657 23.5265C64.1134 22.9081 64.3301 22.1351 64.392 21.2075C64.4539 20.2799 64.3611 19.1668 64.0205 17.8991C63.5871 16.2294 62.6274 14.2196 61.6058 12.5808C61.3272 12.1788 61.0795 11.8078 60.8319 11.4367C60.5842 11.0966 60.3366 10.7874 60.1199 10.5091C59.6864 9.95258 59.3459 9.55062 59.1602 9.39601C58.6958 8.93221 58.5101 9.02497 58.4481 9.08681C58.3862 9.14865 58.3862 9.14865 58.5101 9.76706C58.6029 9.76706 58.6648 10.0453 58.7887 10.4782Z" fill="black"></path>
  <path d="M49.1608 14.1777C49.9967 14.0541 50.6158 13.9922 51.1421 14.0231C51.6374 14.0541 52.0708 14.1468 52.5352 14.3324C52.7829 14.456 53.0305 14.5797 53.3091 14.7652C53.6187 14.9508 53.9593 15.1672 54.3308 15.4455C54.2069 15.2909 54.0521 15.1672 53.9283 15.0126L53.5259 14.6106C53.2472 14.3633 52.9686 14.085 52.6281 13.8685C52.2875 13.6521 51.8851 13.4666 51.4517 13.312C50.9873 13.1883 50.4301 13.1265 49.8109 13.1265C47.8606 13.4975 46.2508 13.8685 45.0744 14.2087C44.4862 14.3633 44.0528 14.487 43.7122 14.6106C43.4027 14.7034 43.2169 14.7652 43.2169 14.7652C42.8145 14.9508 42.8145 14.9508 42.7526 15.0435C42.7216 15.1363 42.6906 15.3218 43.0002 15.4764C43.2479 15.6001 44.0837 15.9093 45.0744 16.3422C46.096 16.7441 47.2414 17.3316 48.2321 17.7336C48.8822 17.9809 49.5013 18.2283 50.1205 18.352C50.7087 18.5066 51.3279 18.5993 51.8851 18.6612C52.9996 18.7539 54.0831 18.5684 54.888 18.1046C54.0831 18.1974 53.3091 18.1664 52.5662 17.9809C51.7922 17.8263 51.0492 17.548 50.3062 17.2388C48.8203 16.5895 47.3033 15.7547 45.7245 14.9817C46.4365 14.7652 47.0866 14.5797 47.6129 14.487C48.2321 14.3324 48.7584 14.2396 49.1608 14.1777Z" fill="black"></path>
  <path d="M48.8515 3.35444C49.1301 3.69456 49.5016 4.25112 49.904 4.93137C50.7089 6.26093 51.5757 8.17798 51.9782 10.2187C52.1949 10.899 52.4426 11.4246 52.6902 11.8884C52.9069 12.3522 53.1546 12.7232 53.4332 13.0634C53.7118 13.4035 53.9595 13.7127 54.2381 13.991L54.6406 14.4239C54.7644 14.5785 54.8882 14.7331 55.043 14.8877C54.8263 14.4548 54.6096 14.0837 54.3929 13.7745C54.2072 13.4653 54.0524 13.187 53.9285 12.9397C53.6499 12.445 53.4951 12.043 53.3713 11.4864C53.2475 10.9299 53.0927 10.2806 52.876 9.35295C52.7521 8.85823 52.5974 8.33258 52.3806 7.68326C52.1639 7.00302 51.8853 6.29185 51.4829 5.39517C53.7737 6.87934 55.755 8.82731 56.8695 10.8062C57.4577 11.7956 57.7983 12.7851 57.953 13.7127C58.0769 14.6403 57.984 15.5061 57.6744 16.2481C58.1698 15.8771 58.696 15.0423 58.7579 13.6818C58.8199 12.3213 58.3865 10.4042 56.7457 8.23982C56.498 7.86878 56.1885 7.49774 55.8479 7.15762C55.5074 6.78658 55.1668 6.41553 54.7954 6.07541C54.4239 5.73529 54.0214 5.39517 53.619 5.05505C53.2165 4.71493 52.8141 4.43664 52.4116 4.15836C50.8328 3.04524 49.3777 2.33407 48.9443 2.17947C48.3561 1.93211 48.2014 2.08671 48.1704 2.17947C48.1394 2.27223 48.1394 2.27223 48.48 2.79788C48.3871 2.79788 48.5728 2.9834 48.8515 3.35444Z" fill="black"></path>
  <path d="M40.1212 10.9633C40.6784 10.7159 41.1738 10.4995 41.6072 10.3758C42.474 10.0666 43.0931 9.85013 43.6194 9.78829C44.1457 9.69553 44.6101 9.66461 45.1363 9.78829C45.6626 9.88105 46.3127 10.0666 47.1796 10.4067C46.5294 9.97381 45.9103 9.60277 45.1363 9.29357C44.3624 9.04621 43.4027 8.89161 42.0715 9.23173C41.8239 9.32449 41.6072 9.41725 41.3595 9.51001C41.1118 9.60277 40.8951 9.69553 40.6784 9.78829C40.2141 9.97381 39.8116 10.1284 39.3782 10.3139C38.5423 10.685 37.8613 10.9633 37.2421 11.2415C36.623 11.5198 36.1586 11.7053 35.8181 11.8909C35.4775 12.0455 35.2918 12.1382 35.2918 12.1382C34.8584 12.4165 34.8584 12.4165 34.8274 12.5093C34.7965 12.602 34.7965 12.7875 35.1989 12.9112C35.3537 12.9421 35.6942 13.004 36.1276 13.0658C36.561 13.1586 37.1492 13.2204 37.7374 13.3441C38.9448 13.5606 40.3379 13.8388 41.4833 13.9934C42.2263 14.1171 42.9074 14.1171 43.5575 14.148C43.8671 14.148 44.2076 14.1171 44.5172 14.0862C44.8268 14.0553 45.1054 14.0244 45.415 13.9625C46.0032 13.8388 46.5294 13.6842 47.0248 13.4987C47.5201 13.2823 47.9535 13.0349 48.356 12.7257C46.7771 13.2823 45.1983 13.2204 43.5265 13.004C41.8548 12.7566 40.0902 12.2928 38.2328 11.8909C38.6043 11.7053 38.9448 11.5507 39.2544 11.3961C39.533 11.1797 39.8116 11.056 40.1212 10.9633Z" fill="black"></path>
  <path d="M36.1588 0.803924C36.1588 0.803924 36.4064 0.927604 36.8089 1.14405C37.2113 1.36049 37.7995 1.70061 38.4806 2.13349C39.1617 2.53545 39.9046 3.15386 40.7095 3.77226C41.112 4.08146 41.4835 4.48342 41.8859 4.85446C42.0717 5.03998 42.2574 5.22551 42.4432 5.44195C42.6289 5.65839 42.8147 5.87483 43.0004 6.09127C44.0839 7.08071 44.8888 7.6682 45.6937 8.00832C46.4677 8.37936 47.2107 8.56488 47.9537 8.905C47.1178 8.31752 46.4986 8.00832 46.0033 7.63728C45.539 7.29716 45.1675 7.01887 44.765 6.55507C44.3626 6.12219 43.8982 5.59655 43.1862 4.82354C42.8147 4.42158 42.4122 4.01962 41.855 3.49398C41.5764 3.24662 41.2977 2.96833 40.9572 2.69005C40.6167 2.41177 40.2761 2.13349 39.8737 1.82429C42.4432 2.13349 45.0127 2.90649 46.994 4.1433C49.0062 5.38011 50.3684 7.04979 50.7089 8.81224C50.8018 8.31752 50.7708 7.79188 50.647 7.2044C50.4922 6.61691 50.2445 5.99851 49.8111 5.38011C49.5944 5.0709 49.3468 4.7617 49.0681 4.42158C48.7895 4.11238 48.449 3.80318 48.0775 3.49398C47.3345 2.87557 46.4367 2.34993 45.3842 1.82429C43.7744 1.08221 41.6383 0.525643 39.8427 0.247361C38.945 0.0927605 38.14 0.0618403 37.4899 0C36.8398 0.0309202 36.3755 0.0309202 36.1588 0.0309202C35.5706 0.0618403 35.5706 0.247361 35.5706 0.340122C35.6015 0.463802 35.6015 0.463802 36.1588 0.803924Z" fill="black"></path>
  <path d="M26.6235 7.00558C26.7783 7.06742 27.1808 7.16018 27.7071 7.28386C27.9857 7.3457 28.2953 7.40754 28.6048 7.46938C28.9454 7.56214 29.2859 7.62398 29.6574 7.71675C30.0289 7.80951 30.4313 7.90227 30.8028 7.96411C31.2053 8.05687 31.6077 8.14963 31.9792 8.24239C32.7532 8.39699 33.5271 8.61343 34.2082 8.73711C35.9728 9.07723 37.4278 9.10815 38.6971 8.98447C39.3472 8.89171 39.9663 8.76803 40.5236 8.61343C41.1118 8.45883 41.6381 8.21147 42.1643 7.99503C40.183 8.36607 38.3565 8.30423 36.4371 7.93319C34.5178 7.59306 32.5365 7.00558 30.4004 6.29442C32.4436 5.42865 34.6106 4.87209 36.7467 4.93393C38.8519 4.99577 40.8951 5.67602 42.443 7.0365C42.1334 6.54178 41.7 6.1089 41.2356 5.67602C40.7403 5.24313 40.1521 4.87209 39.502 4.56289C38.1708 3.94449 36.4371 3.63529 34.4249 3.78989C32.877 3.94449 30.9886 4.40829 29.4717 4.99577C29.1002 5.15037 28.7287 5.27405 28.3881 5.39773C28.0786 5.55233 27.769 5.67602 27.4904 5.7997C26.9641 6.04706 26.6235 6.23258 26.4688 6.29442C26.2211 6.44902 26.1901 6.60362 26.2211 6.66546C26.283 6.78914 26.314 6.91282 26.6235 7.00558Z" fill="black"></path>
  <path d="M49.099 55.5628C49.3157 55.872 49.4705 56.1502 49.5943 56.5213C49.6872 56.8923 49.811 57.3871 49.9039 58.0673C49.9348 57.4798 49.9967 56.9232 49.9348 56.3358C49.842 55.7483 49.6253 55.068 49.0061 54.326C46.9629 52.378 45.1983 50.7083 45.1673 50.6774C44.8578 50.4609 44.8578 50.4609 44.7958 50.4609C44.7339 50.4609 44.5791 50.5228 44.6411 50.832C44.672 50.9557 44.703 51.203 44.7649 51.5431C44.8268 51.8833 44.9197 52.3161 45.0125 52.7799C45.1983 53.7076 45.415 54.8207 45.6317 55.7174C45.9413 56.8614 46.4056 57.789 46.9629 58.5002C47.5201 59.1804 48.1393 59.6442 48.8513 59.8297C46.9629 58.3765 46.5914 55.5009 46.158 52.5944C47.0248 53.3674 47.6749 53.9549 48.1393 54.4187C48.5727 54.9134 48.8823 55.2536 49.099 55.5628Z" fill="black"></path>
  <path d="M47.2416 47.7431C47.7988 48.0832 48.1703 48.3615 48.4799 48.6088C49.0681 49.1036 49.2848 49.5674 49.7801 50.8969C49.6872 50.3094 49.6253 49.7529 49.4395 49.1963C49.2228 48.6397 48.8823 48.0213 48.1084 47.4339C46.8391 46.6918 45.7246 46.0115 44.9197 45.5477C44.5173 45.3004 44.2077 45.1149 43.96 44.9912C43.7433 44.8675 43.6195 44.8057 43.5885 44.7747C43.248 44.6511 43.248 44.6511 43.1861 44.682C43.1242 44.7129 43.0003 44.8057 43.0932 45.0839C43.1551 45.3004 43.4957 45.9806 43.8362 46.8155C44.2077 47.6503 44.6411 48.6707 45.0745 49.5055C45.3531 50.0312 45.6317 50.495 45.9723 50.8969C46.2819 51.2989 46.6224 51.639 46.9629 51.9173C47.644 52.4738 48.387 52.814 49.0681 52.8449C46.901 51.8245 45.9723 49.0726 44.9197 46.4135C45.446 46.6918 45.8794 46.9391 46.2509 47.1556C46.6224 47.372 46.9629 47.5575 47.2416 47.7431Z" fill="black"></path>
  <path d="M47.8296 45.905C46.6532 45.6576 45.7245 44.9155 44.8267 43.957C43.9599 43.0294 43.155 41.8854 42.3192 40.8032C42.8764 40.8959 43.3408 41.0196 43.7742 41.1124C44.1766 41.236 44.5481 41.3288 44.8577 41.4216C45.4768 41.6071 45.9103 41.7617 46.2508 41.9472C46.9319 42.2873 47.2724 42.6893 48.0463 43.8642C47.9225 43.586 47.8296 43.3386 47.7058 43.0603C47.6129 42.782 47.4581 42.5347 47.3034 42.2873C46.9628 41.7926 46.4675 41.2979 45.6007 40.8959C44.2076 40.494 42.9383 40.2157 42.0715 39.9992C41.6381 39.9065 41.2666 39.8446 41.0189 39.7828C40.7713 39.7519 40.6474 39.7209 40.6165 39.7209C40.2759 39.7209 40.2759 39.7209 40.214 39.7519C40.1521 39.7828 40.0592 39.9065 40.245 40.1229C40.3688 40.2775 40.8332 40.8031 41.3904 41.4525C41.9477 42.1018 42.5978 42.9366 43.186 43.586C44.7648 45.3175 46.4365 46.1523 47.8296 45.905Z" fill="black"></path>
  <path d="M51.6996 43.6083C52.071 42.7116 52.3187 41.3511 51.9163 39.4959C51.6376 38.29 51.0494 36.8059 50.3684 35.6C49.6873 34.3941 49.0062 33.4356 48.7895 33.1882C48.48 32.8481 48.3252 32.879 48.2942 32.9409C48.2323 33.0027 48.2323 33.0027 48.2942 33.4356C48.2942 33.4356 48.2942 33.4974 48.3252 33.5902C48.3561 33.6829 48.3871 33.8066 48.3871 33.9921C48.449 34.3323 48.5109 34.7961 48.5419 35.3835C48.6038 36.5276 48.5419 38.0427 48.1394 39.5268C48.0156 40.5472 48.1085 41.2584 48.2632 41.8459C48.3561 42.1551 48.449 42.4333 48.5419 42.7116C48.6347 42.9899 48.7586 43.2682 48.8514 43.5465C48.6347 42.0932 48.5419 41.5676 48.6657 40.7636C48.7276 40.3617 48.8514 39.8979 49.0062 39.1867C49.0681 38.8466 49.161 38.4137 49.2229 37.919C49.2849 37.4243 49.3468 36.8368 49.3777 36.1565C50.3993 37.8572 51.0494 39.6814 51.2352 41.2584C51.4209 42.8662 51.1114 44.2267 50.3065 45.1234C50.7399 44.9688 51.2971 44.505 51.6996 43.6083Z" fill="black"></path>
  <path d="M41.2357 39.2013C41.4524 39.294 41.6691 39.3868 41.8858 39.4795C42.1025 39.5723 42.3192 39.6341 42.505 39.696C42.7217 39.7578 42.9074 39.8197 43.0932 39.8506C43.8981 39.9743 44.6101 39.9433 45.2293 39.6651C44.9506 39.6651 44.672 39.6651 44.4244 39.6342C44.1457 39.6032 43.8981 39.5414 43.6195 39.4486C43.0932 39.2631 42.5669 39.0467 42.0716 38.7375C41.05 38.15 40.0593 37.4079 39.0377 36.7277C40.0593 36.5731 40.8333 36.5112 41.4524 36.5112C42.0716 36.4803 42.474 36.5112 42.8146 36.5731C43.1551 36.6349 43.4337 36.7277 43.7433 36.9132C43.8981 37.0059 44.0838 37.1296 44.2696 37.2533C44.4553 37.4079 44.672 37.5934 44.9197 37.7789C44.7339 37.5625 44.5791 37.3461 44.4244 37.1296C44.2696 36.9132 44.0529 36.7277 43.8671 36.5421C43.6504 36.3566 43.4028 36.202 43.0932 36.0783C42.9384 36.0165 42.7836 35.9547 42.5979 35.8928C42.4121 35.8619 42.1954 35.8 41.9787 35.8C41.2976 35.831 40.6475 35.8928 40.0903 35.9237C39.533 35.9856 39.0377 36.0474 38.6043 36.1093C38.2018 36.1711 37.8613 36.2329 37.6446 36.2639C37.4279 36.2948 37.3041 36.3257 37.2731 36.3257C36.9635 36.4185 36.9635 36.4185 36.9326 36.4803C36.9016 36.5421 36.8707 36.6658 37.0564 36.7895C37.1493 36.8204 37.3041 36.9441 37.5517 37.0678C37.6756 37.1296 37.7994 37.1915 37.9542 37.2842C38.109 37.377 38.2638 37.4697 38.4186 37.5625C39.0687 37.9645 39.8426 38.4592 40.5237 38.8611C40.8023 38.9848 41.019 39.1085 41.2357 39.2013Z" fill="black"></path>
  <path d="M47.1796 38.5604C47.5511 38.344 47.9536 37.7874 48.0774 36.8598C48.1393 36.396 48.1393 35.8394 47.9845 35.221C47.8607 34.5717 47.5821 33.8606 47.1177 33.0566C46.5295 32.0053 45.5079 30.8613 44.5482 29.9337C44.3006 29.7173 44.0529 29.5008 43.8362 29.3153C43.6195 29.1298 43.3718 28.9752 43.1861 28.8206C42.7836 28.5423 42.505 28.3258 42.3502 28.264C41.9478 28.0476 41.8549 28.1403 41.8239 28.2022C41.793 28.264 41.793 28.264 41.9787 28.635C41.9787 28.635 42.0716 28.7897 42.2573 29.0679C42.4121 29.3462 42.6288 29.7482 42.8455 30.2429C43.0622 30.7376 43.279 31.3251 43.4337 31.9744C43.5885 32.6237 43.7124 33.3349 43.7743 34.0461C43.8362 34.2934 43.8671 34.5099 43.9291 34.6954C43.991 34.8809 44.0529 35.0664 44.1148 35.252C44.2386 35.5921 44.3934 35.8704 44.5482 36.1177C44.703 36.3651 44.8578 36.5815 45.0435 36.798C45.1983 37.0144 45.3841 37.2309 45.5389 37.4782C45.3841 37.169 45.2912 36.8907 45.1674 36.6743C45.0745 36.4578 44.9816 36.2414 44.8888 36.0868C44.734 35.7158 44.6721 35.4066 44.6101 35.0355C44.5482 34.6645 44.5482 34.2007 44.4554 33.5204C44.3625 32.8402 44.2386 31.9435 43.8672 30.6758C45.2912 31.9126 46.4676 33.3658 47.0558 34.7882C47.3654 35.4993 47.5511 36.1796 47.5511 36.8289C47.5511 37.1381 47.5511 37.4473 47.4892 37.7256C47.3963 38.0348 47.3035 38.3131 47.1796 38.5604Z" fill="black"></path>
  <path d="M39.1305 35.8225C39.9045 35.6988 40.5855 35.3587 41.0499 34.9258C40.5236 35.1423 39.9973 35.235 39.4711 35.266C38.9138 35.2969 38.3875 35.235 37.8303 35.1732C36.7158 35.0186 35.5704 34.7403 34.363 34.4929C34.7964 34.2147 35.1989 33.9982 35.5394 33.8127C35.88 33.6272 36.2205 33.4726 36.4682 33.3489C36.9944 33.1325 37.4279 32.9469 37.7684 32.8851C38.1089 32.8233 38.3875 32.7923 38.759 32.8542C38.9448 32.8851 39.1305 32.9469 39.3472 33.0088C39.5949 33.0706 39.8426 33.1634 40.1521 33.2871C40.0283 33.2252 39.9354 33.1325 39.8116 33.0706L39.4711 32.8851C39.2234 32.7614 39.0067 32.6377 38.7281 32.545C38.4495 32.4522 38.1708 32.3904 37.8303 32.3904C37.4898 32.3904 37.1183 32.4522 36.6849 32.5759C35.4466 33.1634 34.425 33.7199 33.7129 34.1528C33.3414 34.3693 33.0628 34.5239 32.8771 34.6785C32.6913 34.8022 32.5675 34.864 32.5675 34.864C32.3198 35.0804 32.3198 35.0804 32.3198 35.1423C32.3198 35.2041 32.3198 35.3587 32.5675 35.3896C32.7532 35.4206 33.3724 35.4824 34.1154 35.5752C34.8584 35.6679 35.7252 35.8225 36.4682 35.9462C36.9635 36.008 37.3969 36.039 37.8613 36.008C38.3256 35.9462 38.7281 35.8844 39.1305 35.8225Z" fill="black"></path>
  <path d="M42.7218 31.1198C42.5051 30.1922 41.886 28.9863 40.4 27.8422C40.1524 27.6567 39.9047 27.4712 39.5951 27.2857C39.3165 27.1001 39.0069 26.9146 38.6973 26.76C38.3878 26.6054 38.0472 26.4508 37.7376 26.2962C37.4281 26.1416 37.0875 26.0489 36.778 25.9252C35.5087 25.4614 34.4252 25.2759 34.0846 25.2449C33.6512 25.1831 33.5893 25.3377 33.5583 25.3686C33.5583 25.4305 33.5583 25.4305 33.8679 25.7397C33.8679 25.7397 34.0227 25.8633 34.2704 26.0489C34.518 26.2344 34.8586 26.5436 35.261 26.9146C36.035 27.6567 36.9637 28.8007 37.6138 30.0685C37.8924 30.4704 38.1401 30.7796 38.3878 31.0579C38.6354 31.3362 38.8521 31.5217 39.0998 31.7072C39.3474 31.8928 39.5642 32.0474 39.8118 32.171L40.1523 32.3875C40.2762 32.4802 40.3691 32.5421 40.4929 32.6348C40.2452 32.3875 40.0595 32.171 39.8737 32.0164C39.688 31.8309 39.5332 31.6763 39.4094 31.5526C39.1307 31.2744 38.945 31.027 38.7593 30.6869C38.5735 30.3468 38.3568 29.9448 38.0472 29.3264C37.8924 29.0172 37.6757 28.708 37.3971 28.2751C37.1185 27.8731 36.8089 27.4403 36.3755 26.9146C38.1711 27.5021 39.8428 28.4297 40.9573 29.5738C41.5145 30.1303 41.9169 30.7487 42.1956 31.3053C42.4432 31.9237 42.5361 32.4802 42.4742 33.0677C42.7528 32.7276 42.9385 32.0474 42.7218 31.1198Z" fill="black"></path>
  <path d="M33.3105 33.8599C33.4963 33.7981 33.713 33.7053 33.8678 33.6126C34.2392 33.4271 34.5488 33.2415 34.8584 33.0251C35.137 32.8087 35.4156 32.5613 35.6014 32.283C34.6417 32.9323 33.5891 33.1797 32.4127 33.3343C31.2673 33.4889 29.998 33.4889 28.6668 33.5507C28.8836 33.3652 29.0693 33.2106 29.255 33.0251C29.4408 32.8705 29.6265 32.7468 29.7813 32.5922C30.1219 32.3449 30.4005 32.0975 30.6791 31.912C31.2054 31.5409 31.5769 31.2936 31.9174 31.139C32.2579 30.9844 32.5675 30.8916 32.939 30.8607C33.3105 30.8298 33.7749 30.8298 34.425 30.8916C33.8987 30.737 33.4343 30.5824 32.8771 30.5206C32.3199 30.4896 31.6388 30.5824 30.8029 31.0153C30.6481 31.1081 30.5243 31.2317 30.3695 31.3245C30.2147 31.4173 30.0909 31.5409 29.9671 31.6337C29.6885 31.8501 29.4408 32.0357 29.1931 32.2212C28.6978 32.6231 28.2954 32.9323 27.9239 33.2415C27.5833 33.5507 27.2737 33.7672 27.088 33.9218C26.9023 34.0764 26.7784 34.1691 26.7784 34.2001C26.5308 34.4474 26.5308 34.4474 26.5308 34.5402C26.5308 34.602 26.5617 34.7257 26.8403 34.7257C26.9332 34.7257 27.1809 34.6948 27.4905 34.6639C27.8 34.6329 28.2025 34.602 28.6049 34.5711C29.4408 34.4784 30.4314 34.4474 31.2054 34.3237C31.7007 34.2619 32.196 34.1382 32.6294 34.0455C32.8771 34.0145 33.0938 33.9218 33.3105 33.8599Z" fill="black"></path>
  <path d="M25.3234 26.6422C25.3234 26.6422 25.5091 26.6731 25.8187 26.7349C26.1283 26.7968 26.5926 26.9514 27.1189 27.106C27.6452 27.2606 28.2643 27.5388 28.9145 27.8171C29.224 27.9717 29.5646 28.1573 29.8742 28.3428C30.0289 28.4355 30.1837 28.5283 30.3695 28.6211C30.5243 28.7138 30.6791 28.8375 30.8648 28.9612C31.7626 29.425 32.4127 29.6723 33.0009 29.7651C33.5891 29.8888 34.1154 29.8579 34.6726 29.9506C33.9915 29.7033 33.5272 29.6105 33.1557 29.4559C32.7842 29.3013 32.4746 29.1776 32.1341 28.9612C31.7935 28.7447 31.3911 28.4665 30.7719 28.0954C30.4623 27.879 30.0909 27.6934 29.6574 27.4461C29.4407 27.3224 29.1931 27.1987 28.9145 27.075C28.6358 26.9514 28.3572 26.8277 28.0476 26.6731C29.8122 26.4257 31.6697 26.4876 33.2485 26.9514C34.8274 27.4152 36.0347 28.2809 36.561 29.3941C36.5301 29.0539 36.4372 28.7138 36.2205 28.3428C36.0347 27.9717 35.7252 27.6007 35.3227 27.2606C35.137 27.075 34.8893 26.9204 34.6416 26.7658C34.394 26.6112 34.1154 26.4566 33.8058 26.333C33.2176 26.0547 32.5056 25.8692 31.7007 25.7146C30.4933 25.529 28.9764 25.529 27.7071 25.6836C27.088 25.7455 26.5307 25.8692 26.0973 25.931C25.6639 26.0238 25.3543 26.1165 25.1995 26.1474C24.828 26.2711 24.828 26.3948 24.859 26.4566C24.89 26.4876 24.89 26.4876 25.3234 26.6422Z" fill="black"></path>
  <path d="M29.7194 31.1188C30.0599 30.9023 30.4004 30.655 30.71 30.4076C29.4717 31.026 28.2334 31.3043 26.8712 31.397C25.5401 31.5207 24.085 31.4898 22.5372 31.397L22.5681 31.3661H22.5372C23.7445 30.4076 25.1066 29.6655 26.5307 29.2945C27.9548 28.9544 29.4407 29.0471 30.71 29.6655C30.4004 29.3872 30.0599 29.1708 29.6574 28.9853C29.255 28.7688 28.7906 28.6452 28.2953 28.5524C27.2737 28.3669 26.0663 28.4906 24.7661 28.9544C23.7445 29.3254 22.5681 30.0056 21.6703 30.655C21.4536 30.8096 21.2369 30.9642 21.0202 31.1188C20.8345 31.2734 20.6487 31.428 20.4939 31.5516C20.1844 31.799 19.9677 31.9845 19.9057 32.0773C19.751 32.2319 19.7819 32.3247 19.8129 32.3865C19.8129 32.4483 19.8748 32.5411 20.0915 32.5411C20.2153 32.5411 20.4939 32.5411 20.8654 32.5411C21.0512 32.5411 21.2679 32.5102 21.5156 32.5102C21.7632 32.5102 22.0109 32.5102 22.2895 32.4793C22.5681 32.4793 22.8158 32.4483 23.1254 32.4483C23.404 32.4483 23.6826 32.4483 23.9612 32.4174C24.5185 32.3865 25.0757 32.3865 25.5401 32.3556C26.7784 32.2628 27.769 32.0464 28.6049 31.7063C28.9764 31.5207 29.3788 31.3043 29.7194 31.1188Z" fill="black"></path>
</svg>
