<?xml version="1.0" encoding="UTF-8"?>
<svg xmlns="http://www.w3.org/2000/svg" width="248" height="308" viewBox="0 0 248 308" fill="none">
  <path d="M14.2298 256.51V268.407H12.0714V265.294C11.192 267.689 9.43326 268.887 6.87509 268.887C5.83583 268.887 4.87652 268.727 4.15703 268.328C3.43754 267.928 2.798 267.449 2.2384 266.89C1.75874 266.252 1.27909 265.533 1.03926 264.735C0.719486 263.936 0.479657 263.058 0.319772 262.18C0.159886 261.301 0.0799429 260.423 0 259.545C0 258.586 0 257.788 0 256.99C0 256.111 0 255.233 0.0799429 254.275C0.159886 253.317 0.239829 252.438 0.399714 251.56C0.5596 250.682 0.799429 249.803 1.1192 249.085C1.43897 248.286 1.83869 247.568 2.39829 247.009C2.95789 246.45 3.59743 245.971 4.39686 245.572C5.19629 245.252 6.1556 245.013 7.2748 245.013C9.35332 245.013 10.9522 245.572 12.1513 246.769C13.2705 247.967 13.9101 249.644 13.99 251.8H11.192C11.1121 250.362 10.7923 249.245 10.0728 248.446C9.43326 247.648 8.47395 247.248 7.2748 247.248C6.47538 247.248 5.83583 247.408 5.27623 247.807C4.71663 248.207 4.31692 248.606 3.99714 249.165C3.67737 249.724 3.43754 250.362 3.27766 251.161C3.11777 251.879 2.95789 252.678 2.95789 253.397C2.87794 254.115 2.87794 254.914 2.87794 255.552C2.87794 256.271 2.87794 256.91 2.87794 257.389C2.87794 260.583 3.27766 262.818 3.99714 264.335C4.71663 265.773 5.83583 266.491 7.43469 266.491C8.394 266.491 9.19343 266.252 9.75303 265.693C10.3126 265.214 10.7923 264.575 11.0321 263.776C11.2719 262.978 11.5118 262.18 11.5917 261.301C11.6717 260.423 11.6717 259.624 11.6717 258.826V258.586H7.11492V256.51H14.2298Z" fill="#1A171B"></path>
  <path d="M30.4584 245.453C32.457 245.453 34.0559 245.932 35.1751 246.89C36.3742 247.848 36.9338 249.366 36.9338 251.442C36.9338 252.959 36.6141 254.156 35.9745 255.114C35.335 256.073 34.4556 256.711 33.2565 257.031C34.0559 257.19 34.6155 257.43 35.0951 257.749C35.5748 258.069 35.8946 258.468 36.1344 259.027C36.2943 259.266 36.3742 259.506 36.4542 259.825C36.5341 260.065 36.6141 260.384 36.6141 260.863C36.694 261.263 36.694 261.822 36.7739 262.46C36.7739 263.099 36.8539 263.898 36.8539 264.935C36.8539 265.255 36.8539 265.574 36.8539 265.894C36.8539 266.213 36.9338 266.532 37.0138 266.932C37.0937 267.251 37.1737 267.57 37.3335 267.89C37.4934 268.209 37.7333 268.449 37.9731 268.608H34.5355C34.3757 268.289 34.2158 267.89 34.1358 267.411C34.0559 266.932 33.9759 266.213 33.896 265.255L33.8161 263.339C33.8161 262.62 33.7361 262.061 33.7361 261.582C33.6562 261.103 33.5762 260.704 33.4963 260.384C33.4163 260.065 33.3364 259.825 33.1765 259.586C33.0166 259.346 32.8567 259.187 32.6169 259.027C32.1373 258.628 31.5777 258.388 30.9381 258.388C30.2986 258.308 29.659 258.308 29.0994 258.308H26.3014V268.608H23.5034V245.613H30.4584V245.453ZM26.4613 255.993H29.4991C29.8989 255.993 30.3785 255.993 30.7782 255.913C31.1779 255.833 31.5777 255.753 31.8175 255.673C32.537 255.434 33.0166 254.955 33.4163 254.236C33.8161 253.518 33.9759 252.639 33.9759 251.681C33.9759 250.883 33.896 250.244 33.6562 249.765C33.4163 249.286 33.0966 248.886 32.6969 248.567C32.2971 248.248 31.8175 248.008 31.2579 247.928C30.6983 247.769 30.1387 247.769 29.4192 247.769H26.3014V255.993H26.4613Z" fill="#1A171B"></path>
  <path d="M54.8408 245.453L61.2363 268.449H58.1984L56.5196 262.141H49.1649L47.4061 268.449H44.4482L51.0835 245.453H54.8408ZM52.7623 248.407C52.6824 248.807 52.6024 249.206 52.4425 249.765L49.7245 259.825H55.96L53.4019 249.765C53.242 249.286 53.162 248.807 53.162 248.487C53.0821 248.168 53.0021 247.769 52.9222 247.21C52.9222 247.609 52.8422 248.008 52.7623 248.407Z" fill="#1A171B"></path>
  <path d="M71.7886 245.453V268.449H68.9106V245.453H71.7886Z" fill="#1A171B"></path>
  <path d="M85.3788 245.093L90.4952 257.548C91.0548 258.906 91.5344 260.343 92.0141 261.7C92.4937 263.058 92.8934 264.495 93.2132 265.932H93.3731C93.2932 264.894 93.2132 263.856 93.1333 262.818C93.0533 261.78 93.0533 260.742 93.0533 259.704V245.013H95.7714V268.008H92.094L86.8977 255.073C86.578 254.355 86.3381 253.556 86.0184 252.838C85.6986 252.119 85.4588 251.321 85.2989 250.682C85.059 249.963 84.8992 249.324 84.7393 248.765C84.5794 248.127 84.4195 247.648 84.4195 247.248H84.2596C84.4195 248.207 84.4994 249.245 84.4994 250.442C84.4994 251.56 84.5794 252.678 84.5794 253.716V268.168H81.8613V245.172H85.3788V245.093Z" fill="#1A171B"></path>
  <path d="M121.593 261.142V261.541C121.593 262.259 121.673 262.898 121.753 263.457C121.833 264.096 122.073 264.575 122.392 265.054C122.712 265.533 123.112 265.852 123.672 266.092C124.151 266.332 124.871 266.491 125.67 266.491C127.029 266.491 128.068 266.172 128.788 265.453C129.507 264.735 129.907 263.697 129.907 262.419C129.907 261.381 129.667 260.503 129.108 259.864C128.628 259.225 127.749 258.746 126.55 258.267L124.311 257.469C122.552 256.83 121.193 256.111 120.394 255.073C119.594 254.115 119.195 252.758 119.195 251.241C119.195 249.245 119.754 247.727 120.954 246.61C122.073 245.492 123.752 245.013 125.91 245.013C127.988 245.013 129.507 245.572 130.627 246.61C131.746 247.648 132.225 249.165 132.225 251.161V251.4H129.427C129.427 250.762 129.348 250.283 129.268 249.724C129.188 249.245 128.948 248.765 128.708 248.446C128.468 248.127 128.068 247.807 127.589 247.648C127.109 247.488 126.55 247.328 125.83 247.328C124.631 247.328 123.672 247.648 123.032 248.286C122.392 248.925 122.073 249.803 122.073 251.001C122.073 252.119 122.392 252.997 122.952 253.636C123.512 254.275 124.551 254.834 125.91 255.313L128.068 256.031C128.868 256.271 129.587 256.59 130.147 256.99C130.707 257.309 131.266 257.788 131.666 258.267C132.066 258.746 132.385 259.305 132.545 259.944C132.705 260.583 132.865 261.381 132.865 262.18C132.865 264.335 132.225 265.932 131.026 267.05C129.747 268.168 127.988 268.727 125.67 268.727C123.272 268.727 121.513 268.088 120.474 266.89C119.435 265.693 118.875 263.856 118.875 261.541V261.142H121.593Z" fill="#1A171B"></path>
  <path d="M154.69 245.453V247.928H148.934V268.449H146.136V247.928H140.3V245.453H154.69Z" fill="#1A171B"></path>
  <path d="M169.639 245.453C171.637 245.453 173.236 245.932 174.355 246.89C175.554 247.848 176.114 249.366 176.114 251.442C176.114 252.959 175.794 254.156 175.155 255.114C174.515 256.073 173.636 256.711 172.437 257.031C173.236 257.19 173.796 257.43 174.275 257.749C174.755 258.069 175.075 258.468 175.315 259.027C175.474 259.266 175.554 259.506 175.634 259.825C175.714 260.065 175.794 260.384 175.794 260.863C175.874 261.263 175.874 261.822 175.954 262.46C175.954 263.099 176.034 263.898 176.034 264.935C176.034 265.255 176.034 265.574 176.034 265.894C176.034 266.213 176.114 266.532 176.194 266.932C176.274 267.251 176.354 267.57 176.514 267.89C176.674 268.209 176.913 268.449 177.153 268.608H173.716C173.556 268.289 173.396 267.89 173.316 267.411C173.236 266.932 173.156 266.213 173.076 265.255L172.996 263.339C172.996 262.62 172.916 262.061 172.916 261.582C172.836 261.103 172.756 260.704 172.676 260.384C172.597 260.065 172.517 259.825 172.357 259.586C172.197 259.346 172.037 259.187 171.797 259.027C171.317 258.628 170.758 258.388 170.118 258.388C169.479 258.308 168.839 258.308 168.28 258.308H165.482V268.608H162.684V245.613H169.639V245.453ZM165.641 255.993H168.679C169.079 255.993 169.559 255.993 169.958 255.913C170.358 255.833 170.758 255.753 170.998 255.673C171.717 255.434 172.197 254.955 172.597 254.236C172.996 253.518 173.156 252.639 173.156 251.681C173.156 250.883 173.076 250.244 172.836 249.765C172.597 249.286 172.277 248.886 171.877 248.567C171.477 248.248 170.998 248.008 170.438 247.928C169.878 247.769 169.319 247.769 168.599 247.769H165.482V255.993H165.641Z" fill="#1A171B"></path>
  <path d="M197.779 245.453V247.928H188.745V255.274H197.299V257.67H188.745V265.973H198.179V268.449H185.947V245.453H197.779Z" fill="#1A171B"></path>
  <path d="M215.126 245.453L221.522 268.449H218.484L216.805 262.141H209.451L207.692 268.449H204.734L211.369 245.453H215.126ZM213.048 248.407C212.968 248.807 212.888 249.206 212.728 249.765L210.01 259.825H216.246L213.687 249.765C213.528 249.286 213.448 248.807 213.448 248.487C213.368 248.168 213.288 247.769 213.208 247.21C213.208 247.609 213.128 248.008 213.048 248.407Z" fill="#1A171B"></path>
  <path d="M233.993 245.453L236.791 256.152C237.191 257.749 237.59 259.266 237.91 260.863C238.23 262.46 238.55 264.057 238.709 265.654H238.789C238.949 264.297 239.109 263.019 239.349 261.742C239.589 260.464 239.909 259.187 240.228 257.909L243.346 245.533H247.903V268.529H245.185V252.4C245.185 251.122 245.185 250.084 245.265 249.286C245.345 248.487 245.345 247.848 245.425 247.369H245.265C245.185 247.689 245.185 247.928 245.105 248.168C245.025 248.407 245.025 248.647 244.945 248.886C244.865 249.126 244.865 249.445 244.785 249.685C244.705 250.004 244.625 250.404 244.465 250.883L239.989 268.529H237.35L232.954 251.761C232.874 251.362 232.714 250.883 232.634 250.404C232.554 249.924 232.474 249.525 232.394 249.126C232.314 248.727 232.234 248.328 232.154 248.008C232.074 247.689 232.074 247.449 231.994 247.369H231.834C231.914 248.407 231.914 249.525 231.994 250.563C232.074 251.601 232.074 252.719 232.074 253.757V268.529H229.436V245.533H233.993V245.453Z" fill="#1A171B"></path>
  <path d="M100.089 283.752V304.272H109.522V306.748H97.2905V283.752H100.089Z" fill="#1A171B"></path>
  <path d="M120.554 283.752V304.272H129.987V306.748H117.756V283.752H120.554Z" fill="#1A171B"></path>
  <path d="M151.972 299.162C151.892 300.36 151.812 301.478 151.492 302.516C151.252 303.554 150.852 304.432 150.293 305.151C149.733 305.869 149.014 306.508 148.214 306.907C147.335 307.306 146.296 307.546 145.016 307.546C143.338 307.546 141.979 307.147 141.019 306.428C140.06 305.71 139.341 304.751 138.861 303.634C138.381 302.516 138.061 301.238 137.902 299.881C137.742 298.523 137.742 297.166 137.742 295.889C137.742 294.531 137.822 293.174 137.902 291.737C138.061 290.299 138.381 288.942 138.861 287.824C139.341 286.626 140.06 285.668 141.099 284.87C142.059 284.071 143.418 283.752 145.096 283.752C147.255 283.752 148.934 284.391 150.053 285.588C151.172 286.786 151.732 288.543 151.812 290.938H149.014C149.014 290.299 148.934 289.74 148.774 289.102C148.614 288.543 148.454 287.984 148.134 287.585C147.815 287.105 147.415 286.786 146.935 286.467C146.455 286.227 145.816 286.067 145.096 286.067C144.297 286.067 143.657 286.227 143.178 286.547C142.698 286.866 142.218 287.345 141.899 287.904C141.579 288.463 141.339 289.102 141.179 289.82C141.019 290.539 140.859 291.257 140.859 291.976C140.78 292.695 140.78 293.413 140.78 294.132C140.78 294.851 140.78 295.489 140.78 295.968C140.78 296.447 140.78 297.086 140.78 297.725C140.78 298.364 140.859 299.082 140.939 299.721C141.019 300.44 141.099 301.078 141.339 301.717C141.499 302.356 141.739 302.995 142.059 303.474C142.378 303.953 142.778 304.432 143.338 304.751C143.817 305.071 144.457 305.23 145.256 305.23C147.894 305.23 149.253 303.234 149.333 299.162H151.972Z" fill="#1A171B"></path>
  <path d="M142.298 160.872C139.421 165.663 135.184 171.731 130.227 177.24C126.23 181.712 121.833 185.704 117.916 188.738C119.675 186.183 121.433 183.149 122.872 179.955C125.111 175.244 126.79 170.294 127.749 166.461C128.708 162.708 129.108 160.153 129.108 160.153L128.388 159.994C128.388 159.994 127.909 162.549 126.869 166.222C125.83 169.894 124.071 174.765 121.753 179.396C119.435 184.027 116.557 188.259 114.159 191.213C113.999 191.453 113.839 191.533 113.679 191.772C113.119 192.171 112.56 192.571 112.08 192.89C111.121 193.529 110.321 194.008 109.602 194.407C108.243 195.206 107.443 195.685 107.443 195.685L108.722 197.92C108.722 197.92 109.442 197.441 110.641 196.723L111.121 197.202C111.121 197.202 111.6 196.723 112.32 195.844C112.48 195.605 112.72 195.445 112.959 195.206C113.119 195.126 113.279 195.046 113.439 194.886C114.398 194.247 115.438 193.449 116.557 192.571C121.114 189.137 126.71 184.027 131.586 178.278C136.463 172.529 140.62 166.222 143.418 161.351C146.216 156.48 147.735 153.047 147.735 153.047L146.855 152.568C146.775 152.807 145.176 156.161 142.298 160.872Z" fill="#1A171B"></path>
  <path d="M141.259 108.448C140.38 107.41 140.38 107.41 140.14 107.33C139.9 107.33 139.34 107.41 139.18 108.528C139.18 108.847 139.1 109.646 138.941 110.604C138.381 108.528 137.821 107.011 137.582 106.452C137.102 105.414 136.702 105.414 136.542 105.494C136.382 105.574 136.382 105.574 136.063 106.691C136.063 106.691 135.983 107.171 135.903 108.049C135.823 108.847 135.583 110.045 135.183 111.482C134.544 114.277 133.185 117.87 131.266 121.303C130.307 123.778 129.987 125.535 130.067 127.132C130.067 128.729 130.387 130.166 130.547 131.763C130.866 128.01 130.946 126.653 131.826 124.737C132.305 123.778 132.865 122.661 133.664 121.064C134.064 120.265 134.544 119.307 135.103 118.109C135.663 116.912 136.223 115.554 136.782 113.878C137.582 116.992 138.061 120.185 138.141 123.14C138.061 124.497 138.061 125.854 137.981 127.052C137.981 127.052 137.981 127.052 137.981 127.132C137.981 127.292 137.981 127.451 137.981 127.531C137.741 129.527 137.182 131.364 136.462 132.961C135.663 134.478 134.704 135.755 133.345 136.634C134.544 136.554 136.223 135.676 137.741 133.679C137.981 133.36 138.221 133.041 138.461 132.641C138.541 133.12 138.621 133.6 138.701 134.079C138.301 134.797 137.821 135.516 137.342 136.234C136.302 137.751 135.183 139.269 133.824 140.706C132.385 142.862 131.666 144.618 131.426 146.135C131.106 147.732 131.106 149.169 130.946 150.687C131.506 148.93 131.826 147.652 132.225 146.694C132.625 145.736 133.025 144.938 133.584 144.139C134.224 143.261 135.023 142.383 136.223 140.945C137.102 139.907 138.141 138.55 139.42 136.713C139.58 137.272 139.82 137.831 139.98 138.39C140.14 138.869 140.38 139.189 140.619 139.588C140.38 142.622 139.9 145.576 139.021 148.131C138.701 149.09 138.301 149.968 137.901 150.846C137.422 151.645 136.942 152.443 136.462 153.082C135.423 154.439 134.144 155.477 132.705 156.036C133.904 156.196 135.743 155.717 137.662 154.04C138.621 153.242 139.58 152.044 140.46 150.607C141.259 149.09 142.138 147.253 142.698 144.938C142.858 144.299 143.018 143.58 143.098 142.941C143.817 143.74 144.617 144.459 145.576 144.938C144.696 143.74 143.977 142.462 143.417 141.025C143.657 138.949 143.817 136.713 143.817 134.717C143.817 133.041 143.737 131.524 143.657 130.326C143.577 129.128 143.497 128.25 143.417 127.851C143.258 126.733 142.778 126.733 142.618 126.733C142.458 126.733 142.458 126.733 141.898 127.771C141.898 127.771 141.819 127.851 141.819 128.09C141.978 124.337 142.458 120.425 142.938 116.433C145.336 120.106 147.015 122.82 148.214 124.976C149.493 127.132 150.293 128.649 150.772 129.927C151.252 131.284 151.572 132.402 151.652 133.919C151.652 135.356 151.572 137.193 151.252 139.827C151.891 137.751 152.691 135.835 153.011 133.6C153.25 131.364 153.17 128.809 151.652 125.455C145.976 116.193 141.259 108.448 141.259 108.448Z" fill="#1A171B"></path>
  <path d="M178.992 111.625C178.752 111.625 178.752 111.625 177.633 112.743C177.633 112.743 177.553 112.903 177.313 113.142C177.154 113.382 176.834 113.781 176.514 114.26C175.794 115.218 174.675 116.496 173.316 118.013C171.957 119.53 170.198 121.206 168.28 122.883C166.281 124.56 164.123 126.317 161.725 127.834C158.927 130.309 157.248 132.465 156.288 134.541C155.249 136.617 154.69 138.613 153.89 140.769C155.329 138.453 156.288 136.856 157.248 135.659C158.127 134.381 159.006 133.503 160.126 132.624C161.325 131.666 162.844 130.708 164.922 129.191C167.081 127.674 169.879 125.518 173.636 122.165C172.037 128.952 169.479 135.339 166.121 140.21C165.242 141.407 164.443 142.525 163.483 143.483C162.524 144.442 161.565 145.32 160.605 146.039C158.607 147.556 156.448 148.434 154.21 148.753C155.809 149.392 158.607 149.472 161.884 147.875C163.483 147.077 165.322 145.879 167.081 144.122C168.839 142.366 170.678 140.05 172.277 137.096C174.515 133.263 176.354 127.914 177.713 123.282C178.353 120.967 178.832 118.811 179.152 117.055C179.472 115.298 179.712 114.02 179.712 113.461C179.792 111.865 179.232 111.625 178.992 111.625Z" fill="#1A171B"></path>
  <path d="M144.537 92.956C146.136 94.3932 147.495 95.7506 148.614 96.9483C149.813 98.146 150.772 99.184 151.572 100.062C153.251 101.899 154.37 103.176 155.169 104.374C156.768 106.769 157.168 108.686 157.568 113.955C157.807 111.8 158.127 109.724 158.047 107.488C157.807 105.252 157.168 102.777 155.009 99.8227C151.172 95.9103 147.815 92.3971 145.336 89.9218C144.137 88.7242 143.178 87.6862 142.458 87.0474C141.739 86.3288 141.419 86.0094 141.339 86.0094C140.3 85.2109 140.3 85.2109 139.98 85.2109C139.74 85.2109 139.181 85.4505 139.261 86.5683C139.341 87.3668 139.82 90.0815 140.3 93.5149C140.86 96.9483 141.419 101.02 142.139 104.374C142.618 106.53 143.178 108.526 143.977 110.283C144.697 112.039 145.576 113.636 146.456 114.914C148.294 117.628 150.693 119.465 153.171 120.263C146.456 114.355 145.736 103.496 144.537 92.956Z" fill="#1A171B"></path>
  <path d="M179.791 81.6258C179.552 79.949 178.992 79.8692 178.752 79.949C178.512 79.949 178.512 80.0289 177.713 81.3862C177.713 81.3862 177.393 82.025 176.914 83.1428C176.434 84.2607 175.634 85.7778 174.675 87.6142C172.677 91.2073 169.479 95.8383 165.482 99.8306C163.243 102.865 162.124 105.26 161.565 107.576C160.925 109.811 160.925 111.887 160.445 114.123C162.364 109.013 162.924 107.097 164.842 104.781C165.801 103.583 167.001 102.306 168.839 100.31C169.719 99.3515 170.758 98.1539 171.877 96.7166C173.076 95.2794 174.355 93.6026 175.794 91.5267C175.714 98.5531 174.595 105.5 172.277 110.929C171.158 113.644 169.719 116.039 168.12 117.876C166.441 119.712 164.602 121.07 162.444 121.868C164.123 122.187 166.841 121.708 169.719 119.473C172.597 117.237 175.714 113.245 177.713 106.777C179.072 102.466 179.871 96.7965 180.031 91.9259C180.351 86.9754 179.951 82.8235 179.791 81.6258Z" fill="#1A171B"></path>
  <path d="M149.254 75.0815C151.332 76.3591 152.691 77.3971 153.81 78.2754C155.889 80.1917 156.768 81.9483 158.447 86.8987C158.287 85.7809 158.207 84.7429 158.047 83.7049C157.887 82.6669 157.728 81.6289 157.328 80.5111C156.608 78.3552 155.329 76.1195 152.531 73.8839C147.895 71.0893 143.658 68.7737 140.7 67.2566C139.181 66.538 137.982 65.8993 137.102 65.5C136.223 65.1008 135.743 64.8613 135.743 64.8613C134.544 64.462 134.544 64.4621 134.224 64.6217C133.984 64.7016 133.505 65.1008 133.905 65.9791C134.224 66.6977 135.343 68.9334 136.703 71.8877C138.062 74.842 139.58 78.4351 141.099 81.3095C144.937 88.8949 150.133 93.4461 155.489 93.9251C151.492 91.8492 148.854 88.2561 146.615 84.0243C144.377 79.7924 142.618 74.9218 140.7 70.2908C142.618 71.1691 144.217 72.0474 145.656 72.8459C147.015 73.7242 148.214 74.4428 149.254 75.0815Z" fill="#1A171B"></path>
  <path d="M160.845 80.1282C160.845 81.3259 160.925 82.3639 161.005 83.4817C161.085 84.5995 161.245 85.6375 161.325 86.7554C161.964 81.3259 162.124 79.3297 163.403 76.615C163.963 75.2576 164.922 73.6607 166.121 71.2653C166.681 70.0676 167.401 68.6304 168.12 66.9536C168.84 65.197 169.639 63.2009 170.438 60.7257C172.437 67.8319 172.997 75.018 172.117 80.9266C171.238 86.8352 168.76 91.5461 165.002 93.9415C166.761 93.8617 169.239 92.8237 171.558 89.9492C173.796 87.0748 176.034 82.4437 176.274 75.4173C176.434 70.7862 175.715 64.8776 174.515 59.9272C173.316 54.8969 171.717 50.8248 171.158 49.7069C170.358 48.11 169.799 48.1899 169.559 48.2697C169.319 48.3496 169.319 48.4294 168.999 50.0263C168.999 50.0263 168.999 50.186 168.999 50.5852C168.999 50.9046 168.999 51.3837 168.919 52.0225C168.76 53.3 168.52 55.0566 168.12 57.1326C167.161 61.2846 165.562 66.7141 162.684 71.6645C161.325 75.1777 160.845 77.8126 160.845 80.1282Z" fill="#1A171B"></path>
  <path d="M146.695 55.7018C147.894 56.2608 148.774 56.8995 149.733 57.8577C150.213 58.3368 150.692 58.8957 151.252 59.6143C151.812 60.3329 152.371 61.2112 153.091 62.1693C152.691 61.2112 152.291 60.3329 151.892 59.3747C151.492 58.4964 151.012 57.6181 150.373 56.7398C149.813 55.8615 149.014 55.0631 148.054 54.2646C147.575 53.8654 147.015 53.4662 146.376 53.1468C145.736 52.8274 145.017 52.508 144.297 52.1886C141.899 51.6297 139.5 51.2305 137.422 50.8312C135.343 50.5119 133.505 50.1925 131.906 50.0328C130.387 49.8731 129.188 49.7134 128.308 49.6336C127.429 49.5537 126.949 49.5537 126.949 49.5537C125.75 49.6336 125.75 49.6336 125.59 49.7932C125.431 49.9529 125.111 50.432 125.75 51.0708C125.99 51.3103 126.47 51.7894 127.189 52.508C127.509 52.9072 127.989 53.2266 128.388 53.7057C128.788 54.1848 129.268 54.6638 129.827 55.1429C131.826 57.2189 134.144 59.774 136.143 61.85C136.862 62.4887 137.502 63.2073 138.141 63.7663C138.861 64.3252 139.5 64.8841 140.14 65.443C140.78 65.9221 141.499 66.4012 142.219 66.8004C142.858 67.1996 143.578 67.5989 144.217 67.9182C146.935 69.1958 149.653 69.6749 152.051 69.2756C151.012 69.0361 150.053 68.7167 149.174 68.3175C148.214 67.9182 147.335 67.4392 146.455 66.8802C144.777 65.7624 143.098 64.405 141.659 62.8081C138.621 59.6941 135.743 56.1011 132.705 52.6677C136.543 53.0669 139.421 53.6258 141.579 54.1848C143.977 54.6638 145.416 55.1429 146.695 55.7018Z" fill="#1A171B"></path>
  <path d="M151.812 27.747C152.051 28.9447 152.451 30.6214 152.771 32.5377C153.011 34.5339 153.251 36.9292 153.251 39.4045C153.171 41.9595 153.011 44.5146 152.371 47.2293C152.291 48.1076 152.291 48.9061 152.291 49.7046C152.291 50.503 152.291 51.2216 152.371 51.8604C152.531 53.2178 152.771 54.3356 153.011 55.3736C153.33 56.4116 153.73 57.3698 154.05 58.3279C154.45 59.2861 154.769 60.2442 155.169 61.2024C154.929 59.9248 154.769 58.8868 154.61 57.9287C154.45 56.9705 154.29 56.2519 154.21 55.5333C154.05 54.0961 154.05 52.8984 154.21 51.541C154.37 50.1038 154.769 48.427 155.089 45.9518C155.489 43.3967 155.889 40.1231 155.729 35.1726C159.726 41.0014 162.364 47.389 163.163 53.0581C163.563 55.9325 163.563 58.4876 163.004 60.883C162.764 62.0008 162.364 63.1187 161.884 64.0768C161.405 65.035 160.765 65.9133 160.046 66.7117C161.565 66.2326 163.643 64.6357 164.922 61.4419C165.562 59.845 166.121 57.8488 166.281 55.4535C166.441 53.0581 166.201 50.1836 165.322 46.91C164.203 42.5983 161.724 37.4083 159.086 33.1765C158.367 32.1385 157.727 31.1803 157.088 30.2222C156.448 29.3439 155.809 28.5454 155.249 27.8268C154.13 26.3896 153.251 25.3516 152.771 24.9524C151.572 23.7547 151.092 23.9942 150.932 24.1539C150.772 24.3136 150.772 24.3136 151.092 25.9105C151.332 25.9105 151.492 26.6291 151.812 27.747Z" fill="#1A171B"></path>
  <path d="M126.949 37.3012C129.108 36.9818 130.707 36.8221 132.066 36.902C133.345 36.9818 134.464 37.2213 135.663 37.7004C136.303 38.0198 136.942 38.3392 137.662 38.8183C138.461 39.2973 139.341 39.8562 140.3 40.5749C139.98 40.1756 139.58 39.8562 139.261 39.457L138.221 38.419C137.502 37.7803 136.782 37.0616 135.903 36.5027C135.024 35.9438 133.984 35.4647 132.865 35.0655C131.666 34.7461 130.227 34.5864 128.628 34.5864C123.592 35.5446 119.435 36.5027 116.397 37.381C114.878 37.7803 113.759 38.0996 112.879 38.419C112.08 38.6586 111.6 38.8183 111.6 38.8183C110.561 39.2973 110.561 39.2973 110.401 39.5369C110.321 39.7764 110.241 40.2555 111.041 40.6547C111.68 40.9741 113.839 41.7725 116.397 42.8904C119.035 43.9284 121.993 45.4455 124.551 46.4834C126.23 47.1222 127.829 47.761 129.428 48.0804C130.947 48.4796 132.545 48.7191 133.984 48.8788C136.862 49.1184 139.66 48.6393 141.739 47.4416C139.66 47.6811 137.662 47.6013 135.743 47.1222C133.745 46.723 131.826 46.0044 129.907 45.2059C126.07 43.5292 122.153 41.3733 118.076 39.3772C119.914 38.8183 121.593 38.3392 122.952 38.0996C124.551 37.7004 125.91 37.4609 126.949 37.3012Z" fill="#1A171B"></path>
  <path d="M126.15 9.35075C126.869 10.2291 127.829 11.6663 128.868 13.4229C130.946 16.8563 133.185 21.8067 134.224 27.0765C134.784 28.8331 135.423 30.1905 136.063 31.3882C136.622 32.5859 137.262 33.544 137.981 34.4223C138.701 35.3006 139.34 36.0991 140.06 36.8177L141.099 37.9356C141.419 38.3348 141.739 38.734 142.138 39.1332C141.579 38.0154 141.019 37.0572 140.46 36.2588C139.98 35.4603 139.58 34.7417 139.261 34.103C138.541 32.8254 138.141 31.7874 137.822 30.3502C137.502 28.913 137.102 27.2362 136.542 24.8408C136.223 23.5633 135.823 22.2059 135.263 20.5292C134.704 18.7726 133.984 16.9361 132.945 14.6206C138.861 18.4532 143.977 23.4835 146.855 28.5936C148.374 31.1487 149.253 33.7037 149.653 36.0991C149.973 38.4945 149.733 40.7302 148.934 42.6465C150.213 41.6883 151.572 39.5325 151.732 36.0193C151.892 32.506 150.772 27.5556 146.535 21.9664C145.896 21.0082 145.096 20.0501 144.217 19.1718C143.338 18.2136 142.458 17.2555 141.499 16.3772C140.54 15.4989 139.5 14.6206 138.461 13.7423C137.422 12.864 136.383 12.1454 135.343 11.4267C131.266 8.5523 127.509 6.71584 126.39 6.31661C124.871 5.67785 124.471 6.07708 124.391 6.31661C124.311 6.55615 124.311 6.55615 125.191 7.91353C124.951 7.91353 125.43 8.3926 126.15 9.35075Z" fill="#1A171B"></path>
  <path d="M103.606 28.9995C105.045 28.3607 106.324 27.8018 107.443 27.4824C109.682 26.684 111.28 26.125 112.64 25.9654C113.999 25.7258 115.198 25.646 116.557 25.9654C117.916 26.2049 119.595 26.684 121.833 27.5623C120.154 26.4444 118.555 25.4863 116.557 24.6878C114.558 24.0491 112.08 23.6498 108.642 24.5281C108.003 24.7677 107.443 25.0072 106.804 25.2467C106.164 25.4863 105.605 25.7258 105.045 25.9654C103.846 26.4444 102.807 26.8437 101.687 27.3227C99.5289 28.2809 97.7701 28.9995 96.1713 29.7181C94.5724 30.4367 93.3733 30.9158 92.4939 31.3949C91.6145 31.7941 91.1349 32.0336 91.1349 32.0336C90.0157 32.7522 90.0157 32.7522 89.9357 32.9918C89.8558 33.2313 89.8558 33.7104 90.895 34.0298C91.2948 34.1096 92.1741 34.2693 93.2933 34.429C94.4125 34.6685 95.9315 34.8282 97.4504 35.1476C100.568 35.7065 104.166 36.4251 107.123 36.8244C109.042 37.1438 110.801 37.1438 112.48 37.2236C113.279 37.2236 114.158 37.1438 114.958 37.0639C115.757 36.9841 116.477 36.9042 117.276 36.7445C118.795 36.4251 120.154 36.0259 121.433 35.5468C122.712 34.9879 123.832 34.3492 124.871 33.5507C120.794 34.9879 116.717 34.8282 112.4 34.2693C108.083 33.6305 103.526 32.4329 98.7295 31.3949C99.6888 30.9158 100.568 30.5166 101.368 30.1173C102.087 29.5584 102.807 29.239 103.606 28.9995Z" fill="#1A171B"></path>
  <path d="M93.3734 2.76544C93.3734 2.76544 94.013 3.08483 95.0522 3.64375C96.0915 4.20267 97.6104 5.08097 99.3691 6.19881C101.128 7.23681 103.046 8.83372 105.125 10.4306C106.164 11.2291 107.124 12.2671 108.163 13.2252C108.643 13.7043 109.122 14.1834 109.602 14.7423C110.081 15.3012 110.561 15.8602 111.041 16.4191C113.839 18.9741 115.917 20.4912 117.996 21.3695C119.994 22.3277 121.913 22.8067 123.832 23.685C121.673 22.168 120.074 21.3695 118.795 20.4114C117.596 19.5331 116.637 18.8144 115.598 17.6168C114.558 16.4989 113.359 15.1415 111.52 13.1454C110.561 12.1074 109.522 11.0694 108.083 9.71203C107.363 9.07326 106.644 8.35465 105.765 7.63604C104.885 6.91743 104.006 6.19881 102.967 5.40035C109.602 6.19881 116.237 8.19496 121.353 11.3888C126.55 14.5826 130.067 18.8943 130.947 23.4455C131.186 22.168 131.106 20.8106 130.787 19.2935C130.387 17.7765 129.747 16.1795 128.628 14.5826C128.069 13.7842 127.429 12.9857 126.71 12.1074C125.99 11.3089 125.111 10.5105 124.151 9.71203C122.233 8.11511 119.914 6.75773 117.196 5.40035C113.039 3.48406 107.523 2.04683 102.887 1.32822C100.568 0.928991 98.4898 0.849145 96.8109 0.689453C95.1321 0.769299 93.933 0.769299 93.3734 0.769299C91.8545 0.849145 91.8545 1.32822 91.8545 1.56776C91.9344 1.88714 91.9344 1.88714 93.3734 2.76544Z" fill="#1A171B"></path>
  <path d="M68.7509 18.7802C69.1506 18.9399 70.1898 19.1794 71.5489 19.4988C72.2684 19.6585 73.0678 19.8182 73.8672 19.9779C74.7466 20.2174 75.626 20.3771 76.5853 20.6167C77.5446 20.8562 78.5839 21.0957 79.5432 21.2554C80.5824 21.495 81.6217 21.7345 82.581 21.974C84.5796 22.3733 86.5781 22.9322 88.3369 23.2516C92.8936 24.1299 96.651 24.2097 99.9286 23.8903C101.607 23.6508 103.206 23.3314 104.645 22.9322C106.164 22.533 107.523 21.8942 108.882 21.3353C103.766 22.2934 99.0492 22.1337 94.0928 21.1756C89.1363 20.2973 84.02 18.7802 78.5039 16.9438C83.7801 14.7081 89.3761 13.2709 94.8922 13.4305C100.328 13.5902 105.605 15.3468 109.602 18.8601C108.802 17.5825 107.683 16.4647 106.484 15.3468C105.205 14.229 103.686 13.2709 102.007 12.4724C98.5696 10.8755 94.0928 10.077 88.8965 10.4762C84.8993 10.8755 80.0228 12.0732 76.1056 13.5902C75.1463 13.9895 74.187 14.3088 73.3076 14.6282C72.5082 15.0275 71.7088 15.3468 70.9893 15.6662C69.6303 16.305 68.7509 16.7841 68.3512 16.9438C67.7116 17.343 67.6317 17.7422 67.7116 17.9019C67.8715 18.2213 67.9514 18.5407 68.7509 18.7802Z" fill="#1A171B"></path>
  <path d="M126.79 144.171C127.349 144.969 127.749 145.688 128.069 146.646C128.308 147.604 128.628 148.882 128.868 150.638C128.948 149.121 129.108 147.684 128.948 146.167C128.708 144.65 128.149 142.893 126.55 140.977C121.273 135.947 116.717 131.635 116.637 131.555C115.837 130.996 115.837 130.996 115.677 130.996C115.518 130.996 115.118 131.156 115.278 131.954C115.358 132.274 115.438 132.912 115.598 133.791C115.757 134.669 115.997 135.787 116.237 136.985C116.717 139.38 117.276 142.254 117.836 144.57C118.635 147.524 119.835 149.92 121.273 151.756C122.712 153.513 124.311 154.71 126.15 155.189C121.273 151.437 120.314 144.011 119.195 136.505C121.433 138.502 123.112 140.019 124.311 141.216C125.431 142.494 126.23 143.372 126.79 144.171Z" fill="#1A171B"></path>
  <path d="M121.993 123.976C123.432 124.855 124.391 125.573 125.191 126.212C126.71 127.49 127.269 128.687 128.548 132.121C128.308 130.604 128.149 129.166 127.669 127.729C127.109 126.292 126.23 124.695 124.231 123.178C120.954 121.262 118.076 119.505 115.997 118.307C114.958 117.669 114.159 117.19 113.519 116.87C112.959 116.551 112.64 116.391 112.56 116.311C111.68 115.992 111.68 115.992 111.52 116.072C111.361 116.152 111.041 116.391 111.281 117.11C111.44 117.669 112.32 119.425 113.199 121.581C114.159 123.737 115.278 126.372 116.397 128.528C117.116 129.885 117.836 131.083 118.715 132.121C119.515 133.159 120.394 134.037 121.273 134.756C123.032 136.193 124.951 137.071 126.71 137.151C121.114 134.516 118.715 127.41 115.997 120.543C117.356 121.262 118.475 121.9 119.435 122.459C120.394 123.018 121.273 123.497 121.993 123.976Z" fill="#1A171B"></path>
  <path d="M123.512 119.231C120.474 118.593 118.076 116.676 115.758 114.201C113.519 111.806 111.441 108.851 109.282 106.057C110.721 106.296 111.92 106.616 113.039 106.855C114.079 107.175 115.038 107.414 115.837 107.654C117.436 108.133 118.556 108.532 119.435 109.011C121.194 109.889 122.073 110.927 124.072 113.962C123.752 113.243 123.512 112.604 123.192 111.886C122.952 111.167 122.553 110.528 122.153 109.889C121.274 108.612 119.994 107.334 117.756 106.296C114.159 105.258 110.881 104.54 108.643 103.981C107.523 103.741 106.564 103.582 105.925 103.422C105.285 103.342 104.965 103.262 104.885 103.262C104.006 103.262 104.006 103.262 103.846 103.342C103.686 103.422 103.446 103.741 103.926 104.3C104.246 104.699 105.445 106.057 106.884 107.734C108.323 109.41 110.002 111.566 111.521 113.243C115.598 117.714 119.915 119.87 123.512 119.231Z" fill="#1A171B"></path>
  <path d="M133.505 113.299C134.464 110.983 135.104 107.47 134.064 102.679C133.345 99.5654 131.826 95.7328 130.067 92.6188C128.308 89.5048 126.55 87.0296 125.99 86.3908C125.191 85.5125 124.791 85.5924 124.711 85.7521C124.551 85.9118 124.551 85.9118 124.711 87.0296C124.711 87.0296 124.711 87.1893 124.791 87.4288C124.871 87.6684 124.951 87.9878 124.951 88.4668C125.111 89.3451 125.271 90.5428 125.351 92.0599C125.51 95.0142 125.351 98.9266 124.311 102.759C123.991 105.394 124.231 107.231 124.631 108.748C124.871 109.546 125.111 110.265 125.351 110.983C125.59 111.702 125.91 112.421 126.15 113.139C125.59 109.386 125.351 108.029 125.67 105.953C125.83 104.915 126.15 103.717 126.55 101.881C126.71 101.003 126.949 99.8848 127.109 98.6072C127.269 97.3297 127.429 95.8126 127.509 94.056C130.147 98.4476 131.826 103.158 132.306 107.231C132.785 111.383 131.986 114.896 129.907 117.211C131.026 116.812 132.465 115.614 133.505 113.299Z" fill="#1A171B"></path>
  <path d="M106.484 101.92C107.044 102.159 107.603 102.399 108.163 102.638C108.722 102.878 109.282 103.038 109.762 103.197C110.321 103.357 110.801 103.517 111.281 103.597C113.359 103.916 115.198 103.836 116.797 103.117C116.077 103.117 115.358 103.117 114.718 103.038C113.999 102.958 113.359 102.798 112.64 102.559C111.281 102.079 109.922 101.521 108.642 100.722C106.004 99.205 103.446 97.2887 100.808 95.5321C103.446 95.1329 105.445 94.9732 107.044 94.9732C108.642 94.8933 109.682 94.9732 110.561 95.1329C111.44 95.2926 112.16 95.5321 112.959 96.0112C113.359 96.2507 113.839 96.5701 114.318 96.8895C114.798 97.2887 115.358 97.7678 115.997 98.2469C115.518 97.6879 115.118 97.129 114.718 96.5701C114.318 96.0112 113.759 95.5321 113.279 95.053C112.72 94.5739 112.08 94.1747 111.281 93.8553C110.881 93.6956 110.481 93.536 110.002 93.3763C109.522 93.2964 108.962 93.1367 108.403 93.1367C106.644 93.2166 104.965 93.3763 103.526 93.4561C102.087 93.6158 100.808 93.7755 99.6889 93.9352C98.6496 94.0949 97.7702 94.2546 97.2106 94.3344C96.651 94.4143 96.3313 94.4941 96.2513 94.4941C95.4519 94.7336 95.4519 94.7336 95.372 94.8933C95.292 95.053 95.2121 95.3724 95.6917 95.6918C95.9316 95.7716 96.3313 96.091 96.9708 96.4104C97.2906 96.5701 97.6104 96.7298 98.0101 96.9693C98.4098 97.2089 98.8095 97.4484 99.2092 97.6879C100.888 98.7259 102.887 100.003 104.645 101.041C105.365 101.361 105.924 101.68 106.484 101.92Z" fill="#1A171B"></path>
  <path d="M121.833 100.265C122.792 99.706 123.832 98.2688 124.151 95.8734C124.311 94.6758 124.311 93.2385 123.912 91.6416C123.592 89.9649 122.872 88.1284 121.673 86.0524C120.154 83.3377 117.516 80.3834 115.038 77.988C114.398 77.4291 113.759 76.8701 113.199 76.3911C112.64 75.912 112 75.5128 111.52 75.1135C110.481 74.3949 109.762 73.836 109.362 73.6763C108.323 73.1174 108.083 73.3569 108.003 73.5166C107.923 73.6763 107.923 73.6763 108.403 74.6345C108.403 74.6345 108.643 75.0337 109.122 75.7523C109.522 76.4709 110.082 77.5089 110.641 78.7864C111.201 80.064 111.76 81.581 112.16 83.2578C112.56 84.9346 112.88 86.771 113.039 88.6075C113.199 89.2462 113.279 89.8052 113.439 90.2842C113.599 90.7633 113.759 91.2424 113.919 91.7215C114.239 92.5998 114.638 93.3184 115.038 93.9571C115.438 94.5959 115.837 95.1548 116.317 95.7138C116.717 96.2727 117.196 96.8316 117.596 97.4704C117.196 96.6719 116.957 95.9533 116.637 95.3944C116.397 94.8354 116.157 94.2765 115.917 93.8773C115.518 92.9192 115.358 92.1207 115.198 91.1625C115.038 90.2044 115.038 89.0067 114.798 87.2501C114.558 85.4935 114.239 83.178 113.279 79.9043C116.957 83.0981 119.994 86.8509 121.513 90.5238C122.313 92.3602 122.792 94.1168 122.792 95.7936C122.792 96.5921 122.792 97.3905 122.633 98.1091C122.393 98.9076 122.153 99.6262 121.833 100.265Z" fill="#1A171B"></path>
  <path d="M101.048 93.1954C103.046 92.876 104.805 91.9977 106.004 90.8799C104.645 91.4388 103.286 91.6783 101.927 91.7582C100.488 91.838 99.1293 91.6783 97.6903 91.5186C94.8123 91.1194 91.8545 90.4008 88.7367 89.762C89.8559 89.0434 90.8951 88.4845 91.7745 88.0054C92.6539 87.5264 93.5333 87.1271 94.1728 86.8077C95.5318 86.2488 96.651 85.7697 97.5304 85.6101C98.4098 85.4504 99.1293 85.3705 100.089 85.5302C100.568 85.6101 101.048 85.7697 101.607 85.9294C102.247 86.0891 102.887 86.3287 103.686 86.648C103.366 86.4884 103.126 86.2488 102.807 86.0891L101.927 85.6101C101.288 85.2907 100.728 84.9713 100.009 84.7317C99.2891 84.4922 98.5697 84.3325 97.6903 84.3325C96.8109 84.3325 95.8516 84.4922 94.7324 84.8116C91.5347 86.3287 88.8966 87.7659 87.0579 88.8837C86.0986 89.4426 85.3791 89.8419 84.8994 90.2411C84.4198 90.5605 84.1 90.7202 84.1 90.7202C83.4604 91.2791 83.4604 91.2791 83.4604 91.4388C83.4604 91.5985 83.4604 91.9977 84.1 92.0776C84.5796 92.1574 86.1785 92.3171 88.0971 92.5566C90.0158 92.7962 92.2542 93.1954 94.1728 93.5148C95.4519 93.6745 96.5711 93.7543 97.7702 93.6745C98.9694 93.5148 100.009 93.3551 101.048 93.1954Z" fill="#1A171B"></path>
  <path d="M110.321 81.0513C109.762 78.6559 108.163 75.5419 104.326 72.5877C103.686 72.1086 103.046 71.6295 102.247 71.1504C101.528 70.6714 100.728 70.1923 99.9287 69.7931C99.1293 69.3938 98.2499 68.9946 97.4505 68.5954C96.6511 68.1961 95.7717 67.9566 94.9723 67.6372C91.6946 66.4395 88.8966 65.9605 88.0172 65.8806C86.898 65.7209 86.7381 66.1201 86.6582 66.2C86.6582 66.3597 86.6582 66.3597 87.4576 67.1581C87.4576 67.1581 87.8573 67.4775 88.4969 67.9566C89.1364 68.4357 90.0158 69.2341 91.0551 70.1923C93.0536 72.1086 95.4519 75.0629 97.1307 78.3365C97.8502 79.3745 98.4897 80.173 99.1293 80.8916C99.7688 81.6102 100.328 82.0893 100.968 82.5684C101.608 83.0475 102.167 83.4467 102.807 83.7661L103.686 84.325C104.006 84.5645 104.246 84.7242 104.565 84.9637C103.926 84.325 103.446 83.7661 102.967 83.3668C102.487 82.8878 102.087 82.4885 101.767 82.1691C101.048 81.4505 100.568 80.8118 100.089 79.9335C99.6089 79.0552 99.0494 78.0172 98.2499 76.4202C97.8502 75.6218 97.2906 74.8233 96.5711 73.7055C95.8516 72.6675 95.0522 71.5497 93.933 70.1923C98.5697 71.7093 102.887 74.1047 105.765 77.059C107.204 78.4962 108.243 80.0932 108.962 81.5304C109.602 83.1273 109.842 84.5645 109.682 86.0816C110.401 85.2033 110.881 83.4467 110.321 81.0513Z" fill="#1A171B"></path>
  <path d="M86.0187 88.1257C86.4984 87.966 87.058 87.7264 87.4577 87.4869C88.417 87.0078 89.2164 86.5287 90.0159 85.9698C90.7354 85.4109 91.4548 84.7721 91.9345 84.0535C89.4563 85.7303 86.7382 86.3691 83.7004 86.7683C80.7425 87.1675 77.4648 87.1675 74.0273 87.3272C74.5869 86.8481 75.0666 86.4489 75.5462 85.9698C76.0259 85.5706 76.5055 85.2512 76.9052 84.852C77.7846 84.2132 78.5041 83.5744 79.2236 83.0954C80.5826 82.1372 81.5419 81.4985 82.4213 81.0992C83.3007 80.7 84.1001 80.4605 85.0594 80.3806C86.0187 80.3008 87.2179 80.3008 88.8967 80.4605C87.5376 80.0612 86.3385 79.662 84.8995 79.5023C83.4606 79.4225 81.7018 79.662 79.5434 80.7798C79.1436 81.0194 78.8239 81.3388 78.4242 81.5783C78.0244 81.8178 77.7047 82.1372 77.3849 82.3768C76.6654 82.9357 76.0259 83.4148 75.3863 83.8938C74.1072 84.9318 73.068 85.7303 72.1087 86.5287C71.2293 87.3272 70.4299 87.8861 69.9502 88.2853C69.4705 88.6846 69.1508 88.9241 69.1508 89.004C68.5112 89.6427 68.5112 89.6427 68.5112 89.8823C68.5112 90.042 68.5912 90.3613 69.3107 90.3613C69.5505 90.3613 70.19 90.2815 70.9895 90.2016C71.7889 90.1218 72.8282 90.042 73.8674 89.9621C76.0259 89.7226 78.584 89.6427 80.5826 89.3233C81.8617 89.1637 83.1408 88.8443 84.26 88.6047C84.8995 88.5249 85.4591 88.2853 86.0187 88.1257Z" fill="#1A171B"></path>
  <path d="M65.3935 69.4885C65.3935 69.4885 65.8732 69.5683 66.6726 69.728C67.4721 69.8877 68.6712 70.2869 70.0302 70.6862C71.3893 71.0854 72.9881 71.804 74.6669 72.5226C75.4664 72.9219 76.3457 73.4009 77.1452 73.88C77.5449 74.1195 77.9446 74.3591 78.4242 74.5986C78.8239 74.8382 79.2237 75.1575 79.7033 75.4769C82.0217 76.6746 83.7005 77.3134 85.2194 77.5529C86.7383 77.8723 88.0973 77.7924 89.5363 78.032C87.7776 77.3932 86.5784 77.1537 85.6191 76.7545C84.6598 76.3552 83.8604 76.0358 82.981 75.4769C82.1016 74.918 81.0624 74.1994 79.4635 73.2412C78.6641 72.6823 77.7048 72.2032 76.5856 71.5645C76.026 71.2451 75.3864 70.9257 74.6669 70.6063C73.9474 70.2869 73.2279 69.9676 72.4285 69.5683C76.9853 68.9296 81.7818 69.0893 85.8589 70.2869C89.936 71.4846 93.0538 73.7203 94.4128 76.5948C94.3329 75.7165 94.093 74.8382 93.5334 73.88C93.0538 72.9219 92.2544 71.9637 91.2151 71.0854C90.7354 70.6063 90.0959 70.2071 89.4564 69.8079C88.8168 69.4086 88.0973 69.0094 87.2979 68.69C85.779 67.9714 83.9403 67.4923 81.8618 67.0931C78.744 66.614 74.8268 66.614 71.5491 67.0133C69.9503 67.173 68.5113 67.4923 67.3921 67.652C66.2729 67.8916 65.4735 68.1311 65.0738 68.211C64.1145 68.5303 64.1145 68.8497 64.1944 69.0094C64.2743 69.0893 64.2743 69.0893 65.3935 69.4885Z" fill="#1A171B"></path>
  <path d="M76.7451 81.0453C77.6245 80.4863 78.5039 79.8476 79.3033 79.2088C76.1056 80.8057 72.9079 81.5243 69.3904 81.7639C65.9529 82.0833 62.1955 82.0034 58.1984 81.7639L58.2783 81.684H58.1984C61.3162 79.2088 64.8336 77.2925 68.511 76.3344C72.1884 75.4561 76.0257 75.6956 79.3033 77.2925C78.5039 76.5739 77.6245 76.015 76.5853 75.5359C75.546 74.977 74.3469 74.6576 73.0678 74.4181C70.4297 73.939 67.3119 74.2584 63.9543 75.4561C61.3162 76.4142 58.2783 78.1708 55.96 79.8476C55.4004 80.2468 54.8408 80.646 54.2812 81.0453C53.8015 81.4445 53.3219 81.8437 52.9222 82.1631C52.1227 82.8019 51.5631 83.2809 51.4032 83.5205C51.0035 83.9197 51.0835 84.1593 51.1634 84.3189C51.1634 84.4786 51.3233 84.7182 51.8829 84.7182C52.2027 84.7182 52.9222 84.7182 53.8815 84.7182C54.3611 84.7182 54.9207 84.6383 55.5603 84.6383C56.1998 84.6383 56.8394 84.6383 57.5588 84.5585C58.2783 84.5585 58.9179 84.4786 59.7173 84.4786C60.4368 84.4786 61.1563 84.4786 61.8758 84.3988C63.3147 84.3189 64.7537 84.3189 65.9529 84.2391C69.1506 83.9996 71.7087 83.4406 73.8672 82.5623C74.8265 82.0833 75.8658 81.5243 76.7451 81.0453Z" fill="#1A171B"></path>
</svg>
