<?xml version="1.0" encoding="UTF-8"?>
<svg xmlns="http://www.w3.org/2000/svg" width="16" height="16" viewBox="0 0 16 16" fill="none">
  <path d="M1.87716 0C0.839815 0 0.000167829 0.840136 0 1.87388C0 2.90863 0.839647 3.7486 1.87733 3.7486C2.91216 3.7486 3.75299 2.90863 3.75299 1.87388C3.75299 0.839968 2.912 0 1.87716 0Z" fill="black"></path>
  <path d="M0.258057 5.17041H3.49497V15.5722H0.258057V5.17041Z" fill="black"></path>
  <path d="M11.7354 4.91187C10.1608 4.91187 9.10503 5.77413 8.67287 6.5918H8.62957V5.17051H5.52507H5.5249V15.5721H8.75896V10.4264C8.75896 9.0698 9.01759 7.75579 10.7016 7.75579C12.3614 7.75579 12.3836 9.30733 12.3836 10.5134V15.572H15.6181V9.86669C15.6181 7.06618 15.0131 4.91187 11.7354 4.91187Z" fill="black"></path>
</svg>
