<?xml version="1.0" encoding="UTF-8"?>
<svg xmlns="http://www.w3.org/2000/svg" width="54" height="54" viewBox="0 0 54 54" fill="none">
  <g clip-path="url(#clip0_113_16686)">
    <path d="M20.25 34.7431V26.5781C20.25 24.9497 18.9253 23.625 17.2969 23.625C16.8421 23.625 16.416 23.7372 16.0312 23.9212V18.9844C16.0312 17.3559 14.7066 16.0312 13.0781 16.0312C12.6233 16.0312 12.1973 16.1435 11.8125 16.3274V13.9219C11.8125 12.2934 10.4878 10.9688 8.85938 10.9688C7.48828 10.9688 6.34163 11.9137 6.01172 13.1827C5.49028 12.8537 4.87856 12.6562 4.21875 12.6562C2.35744 12.6562 0.84375 14.1699 0.84375 16.0312V30.375C0.84375 30.5159 0.879187 30.6551 0.946687 30.7792L6.00919 40.0604C6.048 40.1304 6.09694 40.1963 6.15347 40.2528L12.7592 46.8585C13.23 47.3293 13.5 47.9815 13.5 48.6481V52.3125C13.5 52.7783 13.878 53.1562 14.3438 53.1562H24.4688C24.9345 53.1562 25.3125 52.7783 25.3125 52.3125V41.8306C25.3125 40.7582 24.9092 39.7356 24.1777 38.9517L20.25 34.7431ZM17.2969 25.3125C17.9947 25.3125 18.5625 25.8803 18.5625 26.5781V32.9349L16.0312 30.2231V26.5781C16.0312 25.8803 16.5991 25.3125 17.2969 25.3125ZM13.0781 17.7188C13.7759 17.7188 14.3438 18.2866 14.3438 18.9844V26.5781V28.415L13.7734 27.8041C13.2967 27.2936 12.6225 27 11.923 27H11.8125V18.9844C11.8125 18.2866 12.3803 17.7188 13.0781 17.7188ZM7.59375 13.9219C7.59375 13.2241 8.16159 12.6562 8.85938 12.6562C9.55716 12.6562 10.125 13.2241 10.125 13.9219V18.9844V27.6564C9.75037 27.9939 9.47109 28.4369 9.35044 28.944L7.59375 26.7081V16.0312V13.9219ZM23.625 51.4688H15.1875V48.6481C15.1875 47.5217 14.7487 46.4619 13.9522 45.6654L7.43259 39.1458L2.53125 30.1598V16.0312C2.53125 15.1006 3.28809 14.3438 4.21875 14.3438C5.14941 14.3438 5.90625 15.1006 5.90625 16.0312V27C5.90625 27.189 5.96953 27.3721 6.08681 27.5214L15.3681 39.3339L16.6944 38.2919L10.9688 31.0036V29.5312C10.9688 29.0663 11.3476 28.6875 11.8125 28.6875H11.923C12.1559 28.6875 12.3803 28.7854 12.5398 28.955L22.9449 40.1026C23.3828 40.5734 23.625 41.1868 23.625 41.8306V51.4688Z" fill="#CDAF71"></path>
    <path d="M49.7812 12.6562C49.1214 12.6562 48.5097 12.8537 47.9883 13.1827C47.6584 11.9137 46.5117 10.9688 45.1406 10.9688C43.5122 10.9688 42.1875 12.2934 42.1875 13.9219V16.3274C41.8027 16.1435 41.3767 16.0312 40.9219 16.0312C39.2934 16.0312 37.9688 17.3559 37.9688 18.9844V23.9212C37.584 23.7372 37.1579 23.625 36.7031 23.625C35.0747 23.625 33.75 24.9497 33.75 26.5781V34.7431L29.8223 38.9517C29.0908 39.7356 28.6875 40.7582 28.6875 41.8306V52.3125C28.6875 52.7783 29.0655 53.1562 29.5312 53.1562H39.6562C40.122 53.1562 40.5 52.7783 40.5 52.3125V48.6481C40.5 47.9815 40.77 47.3302 41.2408 46.8585L47.8465 40.2528C47.9031 40.1963 47.952 40.1304 47.9908 40.0604L53.0533 30.7792C53.1208 30.6551 53.1562 30.5159 53.1562 30.375V16.0312C53.1562 14.1699 51.6426 12.6562 49.7812 12.6562ZM43.875 13.9219C43.875 13.2241 44.4428 12.6562 45.1406 12.6562C45.8384 12.6562 46.4062 13.2241 46.4062 13.9219V16.0312V26.7081L44.6496 28.9432C44.5289 28.4361 44.2496 27.9939 43.875 27.6556V18.9844V13.9219ZM39.6562 18.9844C39.6562 18.2866 40.2241 17.7188 40.9219 17.7188C41.6197 17.7188 42.1875 18.2866 42.1875 18.9844V27H42.077C41.3775 27 40.7033 27.2936 40.2266 27.8041L39.6562 28.4158V26.5781V18.9844ZM35.4375 26.5781C35.4375 25.8803 36.0053 25.3125 36.7031 25.3125C37.4009 25.3125 37.9688 25.8803 37.9688 26.5781V30.2231L35.4375 32.9349V26.5781ZM51.4688 30.1598L46.5674 39.1449L40.0478 45.6646C39.2513 46.4619 38.8125 47.5208 38.8125 48.6481V51.4688H30.375V41.8306C30.375 41.1868 30.6172 40.5734 31.0559 40.1034L41.461 28.9558C41.6197 28.7854 41.8441 28.6875 42.077 28.6875H42.1875C42.6524 28.6875 43.0312 29.0663 43.0312 29.5312V31.0036L37.3056 38.2911L38.6319 39.3331L47.9132 27.5206C48.0305 27.3721 48.0938 27.189 48.0938 27V16.0312C48.0938 15.1006 48.8506 14.3438 49.7812 14.3438C50.7119 14.3438 51.4688 15.1006 51.4688 16.0312V30.1598Z" fill="#CDAF71"></path>
    <path d="M39.6412 7.79457C39.4995 5.51813 38.3579 3.46698 36.5109 2.16676C33.8151 0.270007 30.1735 0.435382 27.6549 2.56838L27.0001 3.12357L26.3446 2.56838C23.826 0.435382 20.1852 0.270007 17.4886 2.16676C15.6416 3.46698 14.5 5.51813 14.3582 7.79457C14.2156 10.0778 15.0965 12.2622 16.7756 13.7886L26.4323 22.5712C26.5935 22.7171 26.7968 22.7905 27.0001 22.7905C27.2035 22.7905 27.4068 22.7171 27.568 22.5712L37.2247 13.7886C38.9029 12.2622 39.7838 10.0778 39.6412 7.79457ZM27.0001 20.8077L17.9113 12.5415C16.6136 11.3611 15.9327 9.66938 16.0432 7.90088C16.1529 6.13829 17.0346 4.55119 18.4606 3.54798C19.4216 2.87129 20.5387 2.53716 21.6541 2.53716C22.9383 2.53716 24.22 2.98013 25.2536 3.85679L26.4542 4.87435C26.769 5.14013 27.2305 5.14013 27.5452 4.87435L28.7467 3.85594C30.6781 2.21991 33.4725 2.09166 35.5397 3.54713C36.9657 4.55035 37.8474 6.13744 37.9571 7.90004C38.0676 9.66938 37.3867 11.3611 36.089 12.5407L27.0001 20.8077Z" fill="#CDAF71"></path>
  </g>
  <defs>
    <clipPath id="clip0_113_16686">
      <rect width="54" height="54" fill="white"></rect>
    </clipPath>
  </defs>
</svg>
