<?xml version="1.0" encoding="UTF-8"?>
<svg xmlns="http://www.w3.org/2000/svg" width="48" height="73" viewBox="0 0 48 73" fill="none">
  <path d="M27.3576 3.15612C27.6199 3.47756 27.9696 4.00356 28.3484 4.64645C29.1061 5.903 29.922 7.71478 30.3008 9.64344C30.5048 10.2863 30.7379 10.7831 30.9711 11.2214C31.175 11.6598 31.4082 12.0104 31.6704 12.3319C31.9327 12.6533 32.1658 12.9455 32.4281 13.2085L32.8069 13.6177C32.9235 13.7638 33.04 13.9099 33.1857 14.056C32.9818 13.6469 32.7778 13.2962 32.5738 13.004C32.3989 12.7118 32.2532 12.4488 32.1367 12.215C31.8744 11.7474 31.7287 11.3675 31.6121 10.8415C31.4956 10.3156 31.3499 9.70188 31.1459 8.82522C31.0293 8.35766 30.8836 7.86089 30.6796 7.24722C30.4757 6.60433 30.2134 5.93222 29.8346 5.08478C31.991 6.48744 33.856 8.32844 34.905 10.1987C35.4587 11.1338 35.7792 12.0689 35.9249 12.9455C36.0415 13.8222 35.9541 14.6404 35.6627 15.3418C36.1289 14.9911 36.6243 14.2021 36.6826 12.9163C36.7409 11.6305 36.3329 9.81877 34.7885 7.77322C34.5553 7.42255 34.2639 7.07189 33.9434 6.75044C33.6228 6.39978 33.3023 6.04911 32.9526 5.72767C32.6029 5.40622 32.2241 5.08478 31.8453 4.76334C31.4664 4.44189 31.0876 4.17889 30.7088 3.91589C29.2226 2.86389 27.853 2.19178 27.445 2.04567C26.8914 1.8119 26.7457 1.95801 26.7165 2.04567C26.6874 2.13334 26.6874 2.13334 27.0079 2.63012C26.9205 2.63012 27.0954 2.80545 27.3576 3.15612Z" fill="#CDAF71"></path>
  <path d="M19.1398 10.2568C19.6644 10.023 20.1306 9.81846 20.5386 9.70157C21.3545 9.40935 21.9373 9.20479 22.4327 9.14635C22.9281 9.05868 23.3652 9.02946 23.8606 9.14635C24.356 9.23402 24.9679 9.40935 25.7839 9.73079C25.1719 9.32168 24.5891 8.97102 23.8606 8.67879C23.1321 8.44502 22.2287 8.29891 20.9757 8.62035C20.7426 8.70802 20.5386 8.79568 20.3055 8.88335C20.0723 8.97102 19.8683 9.05868 19.6644 9.14635C19.2272 9.32168 18.8484 9.46779 18.4405 9.64313C17.6537 9.99379 17.0126 10.2568 16.4298 10.5198C15.8469 10.7828 15.4098 10.9581 15.0893 11.1335C14.7687 11.2796 14.5939 11.3672 14.5939 11.3672C14.1859 11.6302 14.1859 11.6302 14.1568 11.7179C14.1276 11.8056 14.1276 11.9809 14.5065 12.0978C14.6522 12.127 14.9727 12.1855 15.3807 12.2439C15.7887 12.3316 16.3423 12.39 16.896 12.5069C18.0325 12.7115 19.3438 12.9745 20.422 13.1206C21.1214 13.2375 21.7625 13.2375 22.3744 13.2667C22.6658 13.2667 22.9864 13.2375 23.2778 13.2082C23.5692 13.179 23.8315 13.1498 24.1229 13.0913C24.6765 12.9745 25.1719 12.8283 25.6382 12.653C26.1044 12.4485 26.5124 12.2147 26.8912 11.9225C25.4051 12.4485 23.9189 12.39 22.3453 12.1855C20.7717 11.9517 19.1107 11.5133 17.3623 11.1335C17.7119 10.9581 18.0325 10.812 18.3239 10.6659C18.5862 10.4613 18.8484 10.3445 19.1398 10.2568Z" fill="#CDAF71"></path>
  <path d="M15.4101 0.759777C15.4101 0.759777 15.6432 0.876665 16.0221 1.08122C16.4009 1.28578 16.9546 1.60722 17.5957 2.01633C18.2368 2.39622 18.9361 2.98066 19.6938 3.56511C20.0726 3.85733 20.4223 4.23722 20.8011 4.58788C20.976 4.76322 21.1508 4.93855 21.3257 5.1431C21.5005 5.34766 21.6753 5.55221 21.8502 5.75677C22.8701 6.69188 23.6278 7.2471 24.3854 7.56854C25.1139 7.91921 25.8133 8.09454 26.5127 8.41599C25.7259 7.86077 25.1431 7.56854 24.6768 7.21788C24.2397 6.89643 23.89 6.63343 23.5112 6.1951C23.1324 5.78599 22.6953 5.28921 22.025 4.55866C21.6753 4.17877 21.2965 3.79888 20.772 3.30211C20.5097 3.06833 20.2475 2.80533 19.9269 2.54233C19.6064 2.27933 19.2858 2.01633 18.907 1.72411C21.3257 2.01633 23.7443 2.74689 25.6093 3.91577C27.5035 5.08466 28.7856 6.66266 29.1062 8.32832C29.1936 7.86077 29.1645 7.36399 29.0479 6.80877C28.9022 6.25355 28.6691 5.6691 28.2611 5.08466C28.0571 4.79244 27.824 4.50022 27.5617 4.17877C27.2995 3.88655 26.9789 3.59433 26.6292 3.30211C25.9299 2.71766 25.0848 2.22089 24.094 1.72411C22.5787 1.02278 20.568 0.496777 18.8778 0.233777C18.0328 0.0876665 17.2751 0.0584444 16.6632 0C16.0512 0.0292222 15.6141 0.0292222 15.4101 0.0292222C14.8564 0.0584444 14.8564 0.233777 14.8564 0.321444C14.8856 0.438333 14.8856 0.438333 15.4101 0.759777Z" fill="#CDAF71"></path>
  <path d="M6.43454 6.63347C6.58024 6.69191 6.95907 6.77958 7.45446 6.89647C7.71673 6.95491 8.00813 7.01336 8.29954 7.0718C8.62008 7.15947 8.94063 7.21791 9.29032 7.30558C9.64001 7.39325 10.0188 7.48091 10.3685 7.53936C10.7473 7.62702 11.1262 7.71469 11.4759 7.80236C12.2044 7.94847 12.9329 8.15302 13.574 8.26991C15.235 8.59136 16.6046 8.62058 17.7994 8.50369C18.4113 8.41602 18.9941 8.29913 19.5187 8.15302C20.0723 8.00691 20.5677 7.77313 21.0631 7.56858C19.1981 7.91925 17.4788 7.8608 15.6721 7.51014C13.8654 7.18869 12.0004 6.63347 9.98969 5.96136C11.913 5.14314 13.9528 4.61714 15.9635 4.67558C17.9451 4.73403 19.8684 5.37692 21.3254 6.66269C21.034 6.19514 20.626 5.78603 20.1889 5.37692C19.7226 4.96781 19.169 4.61714 18.557 4.32492C17.304 3.74047 15.6721 3.44825 13.778 3.59436C12.3209 3.74047 10.5434 4.17881 9.11547 4.73403C8.76579 4.88014 8.4161 4.99703 8.09555 5.11392C7.80415 5.26003 7.51274 5.37692 7.25048 5.49381C6.75509 5.72758 6.43454 5.90292 6.28884 5.96136C6.05571 6.10747 6.02657 6.25358 6.05571 6.31203C6.11399 6.42891 6.14313 6.5458 6.43454 6.63347Z" fill="#CDAF71"></path>
  <path d="M33.2444 58.5904C32.1953 60.3437 30.6508 62.5646 28.8441 64.5809C27.3871 66.2174 25.7844 67.6785 24.3565 68.7889C24.9976 67.8538 25.6387 66.7434 26.1632 65.5745C26.9791 63.8504 27.5911 62.0386 27.9408 60.6359C28.2905 59.2625 28.4362 58.3274 28.4362 58.3274L28.1739 58.2689C28.1739 58.2689 27.9991 59.204 27.6202 60.5483C27.2414 61.8925 26.6003 63.675 25.7552 65.3699C24.9102 67.0648 23.8611 68.6136 22.9869 69.6948C22.9286 69.7825 22.8703 69.8117 22.812 69.8994C22.608 70.0455 22.4041 70.1916 22.2292 70.3085C21.8795 70.5422 21.5881 70.7176 21.3259 70.8637C20.8305 71.1559 20.5391 71.3312 20.5391 71.3312L21.0053 72.1495C21.0053 72.1495 21.2676 71.9741 21.7047 71.7111L21.8795 71.8865C21.8795 71.8865 22.0544 71.7111 22.3166 71.3897C22.3749 71.302 22.4623 71.2436 22.5498 71.1559C22.608 71.1267 22.6663 71.0975 22.7246 71.039C23.0743 70.8052 23.4531 70.513 23.8611 70.1916C25.5221 68.935 27.5619 67.0648 29.3395 64.9608C31.1171 62.8568 32.6324 60.5483 33.6523 58.7657C34.6722 56.9832 35.2259 55.7266 35.2259 55.7266L34.9054 55.5513C34.8762 55.6389 34.2934 56.8663 33.2444 58.5904Z" fill="#CDAF71"></path>
  <path d="M32.8652 39.4793C32.5447 39.0994 32.5447 39.0994 32.4573 39.0701C32.3698 39.0701 32.1658 39.0994 32.1076 39.5085C32.1076 39.6254 32.0784 39.9176 32.0201 40.2682C31.8162 39.5085 31.6122 38.9533 31.5248 38.7487C31.3499 38.3688 31.2042 38.3688 31.1459 38.398C31.0876 38.4273 31.0876 38.4273 30.9711 38.8364C30.9711 38.8364 30.9419 39.0117 30.9128 39.3331C30.8837 39.6254 30.7962 40.0637 30.6505 40.5897C30.4174 41.6125 29.922 42.9275 29.2226 44.184C28.873 45.0899 28.7564 45.7328 28.7855 46.3172C28.7855 46.9017 28.9021 47.4277 28.9604 48.0121C29.0769 46.6387 29.1061 46.1419 29.4266 45.4406C29.6015 45.0899 29.8055 44.6808 30.0969 44.0964C30.2426 43.8041 30.4174 43.4535 30.6214 43.0151C30.8254 42.5768 31.0294 42.08 31.2333 41.4664C31.5248 42.606 31.6996 43.7749 31.7287 44.8561C31.6996 45.3529 31.6996 45.8497 31.6705 46.288C31.6705 46.288 31.6705 46.288 31.6705 46.3172C31.6705 46.3757 31.6705 46.4341 31.6705 46.4634C31.583 47.1939 31.379 47.866 31.1168 48.4505C30.8254 49.0057 30.4757 49.4732 29.9803 49.7947C30.4174 49.7655 31.0294 49.444 31.583 48.7135C31.6705 48.5966 31.7579 48.4797 31.8453 48.3336C31.8744 48.5089 31.9036 48.6842 31.9327 48.8596C31.787 49.1226 31.6122 49.3856 31.4373 49.6486C31.0585 50.2038 30.6505 50.759 30.1551 51.285C29.6306 52.074 29.3683 52.7169 29.2809 53.2721C29.1644 53.8566 29.1644 54.3826 29.1061 54.9378C29.3101 54.2949 29.4266 53.8273 29.5723 53.4767C29.718 53.126 29.8637 52.8338 30.0677 52.5416C30.3009 52.2201 30.5923 51.8987 31.0294 51.3727C31.3499 50.9928 31.7287 50.496 32.195 49.8239C32.2533 50.0285 32.3407 50.233 32.399 50.4376C32.4573 50.6129 32.5447 50.7298 32.6321 50.8759C32.5447 51.9863 32.3698 53.0676 32.0493 54.0027C31.9327 54.3533 31.787 54.6748 31.6413 54.9962C31.4665 55.2885 31.2916 55.5807 31.1168 55.8144C30.738 56.3112 30.2717 56.6911 29.7472 56.8957C30.1843 56.9541 30.8545 56.7788 31.5539 56.1651C31.9036 55.8729 32.2533 55.4346 32.5738 54.9086C32.8652 54.3533 33.1858 53.6812 33.3898 52.8338C33.448 52.6 33.5063 52.337 33.5355 52.1032C33.7977 52.3955 34.0891 52.6585 34.4388 52.8338C34.1183 52.3955 33.856 51.9279 33.652 51.4019C33.7394 50.6421 33.7977 49.8239 33.7977 49.0933C33.7977 48.4797 33.7686 47.9245 33.7394 47.4861C33.7103 47.0478 33.6812 46.7264 33.652 46.5802C33.5937 46.1711 33.4189 46.1711 33.3606 46.1711C33.3023 46.1711 33.3023 46.1711 33.0983 46.551C33.0983 46.551 33.0692 46.5802 33.0692 46.6679C33.1275 45.2945 33.3023 43.8626 33.4772 42.4015C34.3514 43.7457 34.9633 44.7392 35.4005 45.5282C35.8667 46.3172 36.1581 46.8725 36.333 47.34C36.5078 47.8368 36.6244 48.2459 36.6535 48.8011C36.6535 49.3271 36.6244 49.9992 36.5078 50.9636C36.7409 50.2038 37.0323 49.5025 37.1489 48.6842C37.2363 47.866 37.2072 46.9309 36.6535 45.7036C34.5845 42.3138 32.8652 39.4793 32.8652 39.4793Z" fill="#CDAF71"></path>
  <path d="M46.6199 40.5896C46.5324 40.5896 46.5324 40.5896 46.1245 40.9987C46.1245 40.9987 46.0953 41.0572 46.0079 41.1448C45.9496 41.2325 45.8331 41.3786 45.7165 41.5539C45.4542 41.9046 45.0463 42.3722 44.5509 42.9274C44.0555 43.4826 43.4144 44.0963 42.715 44.7099C41.9865 45.3236 41.1997 45.9665 40.3255 46.5217C39.3056 47.4276 38.6936 48.2166 38.3439 48.9764C37.9651 49.7361 37.7611 50.4667 37.4697 51.2557C37.9943 50.4083 38.3439 49.8238 38.6936 49.3855C39.0142 48.9179 39.3347 48.5965 39.7427 48.275C40.1798 47.9244 40.7335 47.5737 41.4911 47.0185C42.2779 46.4633 43.2978 45.6743 44.6675 44.4469C44.0846 46.9308 43.1521 49.2686 41.9282 51.0511C41.6077 51.4895 41.3163 51.8986 40.9666 52.2492C40.6169 52.5999 40.2672 52.9214 39.9175 53.1844C39.189 53.7396 38.4022 54.061 37.5863 54.1779C38.1691 54.4117 39.189 54.4409 40.3838 53.8565C40.9666 53.5642 41.6368 53.1259 42.2779 52.483C42.919 51.8401 43.5893 50.9927 44.1721 49.9115C44.988 48.5088 45.6582 46.5509 46.1536 44.856C46.3867 44.0086 46.5616 43.2196 46.6782 42.5767C46.7947 41.9338 46.8821 41.4663 46.8821 41.2617C46.9113 40.6773 46.7073 40.5896 46.6199 40.5896Z" fill="#CDAF71"></path>
  <path d="M34.0599 33.7518C34.6427 34.2778 35.1381 34.7746 35.5461 35.2129C35.9832 35.6512 36.3329 36.0311 36.6243 36.3526C37.2362 37.0247 37.6442 37.4922 37.9356 37.9306C38.5184 38.8072 38.6641 39.5086 38.8098 41.4372C38.8972 40.6482 39.0138 39.8884 38.9847 39.0702C38.8972 38.252 38.6641 37.3461 37.8773 36.2649C36.4786 34.833 35.2547 33.5472 34.3513 32.6413C33.9142 32.203 33.5645 31.8231 33.3022 31.5893C33.04 31.3263 32.9234 31.2095 32.8943 31.2095C32.5154 30.9172 32.5154 30.9172 32.3989 30.9172C32.3115 30.9172 32.1075 31.0049 32.1366 31.414C32.1658 31.7062 32.3406 32.6998 32.5154 33.9563C32.7194 35.2129 32.9234 36.7032 33.1857 37.9306C33.3605 38.7196 33.5645 39.4501 33.8559 40.093C34.1182 40.7359 34.4387 41.3203 34.7593 41.7879C35.4295 42.7814 36.3037 43.4536 37.2071 43.7458C34.7593 41.5833 34.497 37.6091 34.0599 33.7518Z" fill="#CDAF71"></path>
  <path d="M46.9109 29.6314C46.8235 29.0177 46.6195 28.9885 46.5321 29.0177C46.4447 29.0177 46.4447 29.0469 46.1533 29.5437C46.1533 29.5437 46.0367 29.7775 45.8618 30.1866C45.687 30.5957 45.3956 31.1509 45.0459 31.823C44.3174 33.138 43.1518 34.8329 41.6947 36.294C40.8788 37.4045 40.4708 38.2811 40.2669 39.1286C40.0337 39.9468 40.0337 40.7066 39.8589 41.5248C40.5583 39.6546 40.7622 38.9532 41.4616 38.1058C41.8113 37.6675 42.2484 37.1999 42.9186 36.4693C43.2392 36.1187 43.618 35.6803 44.026 35.1543C44.4631 34.6283 44.9293 34.0147 45.4539 33.2549C45.4247 35.8265 45.0168 38.3688 44.1717 40.3559C43.7637 41.3494 43.2392 42.2261 42.6564 42.8982C42.0444 43.5703 41.3742 44.0671 40.5874 44.3593C41.1994 44.4762 42.1901 44.3009 43.2392 43.4827C44.2883 42.6644 45.4247 41.2033 46.1533 38.8363C46.6486 37.2583 46.94 35.1836 46.9983 33.401C47.1149 31.5892 46.9692 30.0697 46.9109 29.6314Z" fill="#CDAF71"></path>
  <path d="M35.7794 27.2059C36.537 27.6735 37.0324 28.0534 37.4404 28.3748C38.198 29.0761 38.5186 29.719 39.1305 31.5308C39.0723 31.1217 39.0431 30.7418 38.9848 30.3619C38.9266 29.982 38.8683 29.6021 38.7226 29.193C38.4603 28.404 37.9941 27.5858 36.9741 26.7676C35.284 25.7448 33.7395 24.8974 32.6613 24.3422C32.1077 24.0792 31.6706 23.8454 31.35 23.6993C31.0295 23.5532 30.8546 23.4655 30.8546 23.4655C30.4175 23.3194 30.4175 23.3194 30.3009 23.3778C30.2135 23.407 30.0387 23.5532 30.1844 23.8746C30.3009 24.1376 30.7089 24.9558 31.2043 26.037C31.6997 27.1183 32.2534 28.4333 32.807 29.4853C34.2058 32.2614 36.0999 33.927 38.0523 34.1024C36.5953 33.3426 35.6337 32.0276 34.8177 30.4788C34.0018 28.93 33.3607 27.1475 32.6613 25.4526C33.3607 25.774 33.9435 26.0955 34.468 26.3877C34.9634 26.7091 35.4005 26.9722 35.7794 27.2059Z" fill="#CDAF71"></path>
  <path d="M40.0049 29.0176C40.0049 29.456 40.034 29.8358 40.0632 30.245C40.0923 30.6541 40.1506 31.0339 40.1797 31.4431C40.4129 29.456 40.4711 28.7254 40.9374 27.7318C41.1414 27.2351 41.4911 26.6506 41.9282 25.774C42.1321 25.3356 42.3944 24.8096 42.6567 24.196C42.9189 23.5531 43.2103 22.8225 43.5018 21.9166C44.2303 24.5174 44.4343 27.1474 44.1137 29.3098C43.7932 31.4723 42.8898 33.1964 41.5202 34.0731C42.1613 34.0438 43.0646 33.6639 43.9097 32.6119C44.7257 31.5599 45.5416 29.8651 45.629 27.2935C45.6873 25.5986 45.425 23.4362 44.9879 21.6244C44.5508 19.7834 43.968 18.2931 43.764 17.884C43.4726 17.2995 43.2686 17.3287 43.1812 17.358C43.0938 17.3872 43.0938 17.4164 42.9772 18.0009C42.9772 18.0009 42.9772 18.0593 42.9772 18.2054C42.9772 18.3223 42.9772 18.4976 42.9481 18.7314C42.8898 19.199 42.8024 19.8419 42.6567 20.6016C42.307 22.1212 41.7242 24.1083 40.6751 25.9201C40.1797 27.2058 40.0049 28.1702 40.0049 29.0176Z" fill="#CDAF71"></path>
  <path d="M34.8466 20.0758C35.2837 20.2803 35.6042 20.5141 35.9539 20.8648C36.1287 21.0401 36.3036 21.2447 36.5076 21.5077C36.7116 21.7707 36.9155 22.0921 37.1778 22.4428C37.0321 22.0921 36.8864 21.7707 36.7407 21.42C36.595 21.0986 36.4202 20.7771 36.187 20.4557C35.983 20.1342 35.6916 19.842 35.342 19.5498C35.1671 19.4037 34.9631 19.2576 34.73 19.1407C34.4969 19.0238 34.2346 18.9069 33.9723 18.79C33.0981 18.5855 32.2239 18.4393 31.4663 18.2932C30.7086 18.1763 30.0384 18.0595 29.4556 18.001C28.9019 17.9426 28.4648 17.8841 28.1442 17.8549C27.8237 17.8257 27.6488 17.8257 27.6488 17.8257C27.2117 17.8549 27.2117 17.8549 27.1534 17.9133C27.0952 17.9718 26.9786 18.1471 27.2117 18.3809C27.2992 18.4686 27.474 18.6439 27.7363 18.9069C27.8528 19.053 28.0277 19.1699 28.1734 19.3452C28.3191 19.5206 28.4939 19.6959 28.6979 19.8712C29.4264 20.631 30.2715 21.5661 31 22.3259C31.2623 22.5597 31.4954 22.8227 31.7285 23.0272C31.9908 23.2318 32.2239 23.4363 32.457 23.6409C32.6902 23.8162 32.9524 23.9916 33.2147 24.1377C33.4478 24.2838 33.7101 24.4299 33.9432 24.5468C34.934 25.0143 35.9248 25.1897 36.799 25.0436C36.4202 24.9559 36.0705 24.839 35.7499 24.6929C35.4002 24.5468 35.0797 24.3715 34.7591 24.1669C34.1472 23.7578 33.5352 23.261 33.0107 22.6766C31.9034 21.5369 30.8543 20.2219 29.747 18.9653C31.1457 19.1115 32.1948 19.316 32.9816 19.5206C33.8558 19.6959 34.3803 19.8712 34.8466 20.0758Z" fill="#CDAF71"></path>
  <path d="M36.7119 9.9063C36.7993 10.3446 36.945 10.9583 37.0615 11.6596C37.149 12.3902 37.2364 13.2669 37.2364 14.1727C37.2072 15.1078 37.149 16.043 36.9158 17.0365C36.8867 17.358 36.8867 17.6502 36.8867 17.9424C36.8867 18.2346 36.8867 18.4976 36.9158 18.7314C36.9741 19.2282 37.0615 19.6373 37.149 20.0172C37.2655 20.3971 37.4112 20.7477 37.5278 21.0984C37.6735 21.4491 37.7901 21.7997 37.9358 22.1504C37.8483 21.6828 37.7901 21.3029 37.7318 20.9523C37.6735 20.6016 37.6152 20.3386 37.5861 20.0756C37.5278 19.5496 37.5278 19.1113 37.5861 18.6145C37.6444 18.0885 37.7901 17.4748 37.9066 16.569C38.0523 15.6338 38.198 14.4357 38.1397 12.624C39.5968 14.7572 40.5584 17.095 40.8498 19.1697C40.9955 20.2217 40.9955 21.1568 40.7915 22.0335C40.7041 22.4426 40.5584 22.8517 40.3836 23.2024C40.2087 23.5531 39.9756 23.8745 39.7133 24.1667C40.267 23.9914 41.0247 23.4069 41.4909 22.2381C41.724 21.6536 41.928 20.9231 41.9863 20.0464C42.0446 19.1697 41.9572 18.1177 41.6366 16.9196C41.2286 15.3416 40.3253 13.4422 39.3636 11.8934C39.1014 11.5135 38.8683 11.1629 38.6351 10.8122C38.402 10.4907 38.1689 10.1985 37.9649 9.93552C37.5569 9.40952 37.2364 9.02963 37.0615 8.88352C36.6244 8.44519 36.4496 8.53286 36.3913 8.5913C36.333 8.64975 36.333 8.64975 36.4496 9.23419C36.537 9.23419 36.5953 9.49719 36.7119 9.9063Z" fill="#CDAF71"></path>
  <path d="M27.6493 13.413C28.4361 13.2961 29.0189 13.2377 29.5143 13.2669C29.9805 13.2961 30.3885 13.3838 30.8256 13.5591C31.0587 13.676 31.2919 13.7929 31.5541 13.9682C31.8455 14.1435 32.1661 14.3481 32.5158 14.6111C32.3992 14.465 32.2535 14.3481 32.1369 14.202L31.7581 13.8221C31.4958 13.5883 31.2336 13.3253 30.913 13.1208C30.5925 12.9162 30.2137 12.7409 29.8057 12.5948C29.3686 12.4779 28.844 12.4194 28.2612 12.4194C26.4254 12.7701 24.9101 13.1208 23.8027 13.4422C23.2491 13.5883 22.8411 13.7052 22.5205 13.8221C22.2291 13.9098 22.0543 13.9682 22.0543 13.9682C21.6755 14.1435 21.6755 14.1435 21.6172 14.2312C21.588 14.3189 21.5589 14.4942 21.8503 14.6403C22.0834 14.7572 22.8702 15.0494 23.8027 15.4585C24.7644 15.8384 25.8426 16.3937 26.7751 16.7735C27.387 17.0073 27.9698 17.2411 28.5526 17.358C29.1063 17.5041 29.6891 17.5918 30.2137 17.6502C31.2627 17.7379 32.2826 17.5625 33.0403 17.1242C32.2826 17.2119 31.5541 17.1826 30.8547 17.0073C30.1262 16.8612 29.4269 16.5982 28.7275 16.306C27.3287 15.6923 25.9008 14.9033 24.4147 14.1728C25.0849 13.9682 25.6969 13.7929 26.1923 13.7052C26.7751 13.5591 27.2705 13.4714 27.6493 13.413Z" fill="#CDAF71"></path>
  <path d="M27.3576 3.15612C27.6199 3.47756 27.9696 4.00356 28.3484 4.64645C29.1061 5.903 29.922 7.71478 30.3008 9.64344C30.5048 10.2863 30.7379 10.7831 30.9711 11.2214C31.175 11.6598 31.4082 12.0104 31.6704 12.3319C31.9327 12.6533 32.1658 12.9455 32.4281 13.2085L32.8069 13.6177C32.9235 13.7638 33.04 13.9099 33.1857 14.056C32.9818 13.6469 32.7778 13.2962 32.5738 13.004C32.3989 12.7118 32.2532 12.4488 32.1367 12.215C31.8744 11.7474 31.7287 11.3675 31.6121 10.8415C31.4956 10.3156 31.3499 9.70188 31.1459 8.82522C31.0293 8.35766 30.8836 7.86089 30.6796 7.24722C30.4757 6.60433 30.2134 5.93222 29.8346 5.08478C31.991 6.48744 33.856 8.32844 34.905 10.1987C35.4587 11.1338 35.7792 12.0689 35.9249 12.9455C36.0415 13.8222 35.9541 14.6404 35.6627 15.3418C36.1289 14.9911 36.6243 14.2021 36.6826 12.9163C36.7409 11.6305 36.3329 9.81877 34.7885 7.77322C34.5553 7.42255 34.2639 7.07189 33.9434 6.75044C33.6228 6.39978 33.3023 6.04911 32.9526 5.72767C32.6029 5.40622 32.2241 5.08478 31.8453 4.76334C31.4664 4.44189 31.0876 4.17889 30.7088 3.91589C29.2226 2.86389 27.853 2.19178 27.445 2.04567C26.8914 1.8119 26.7457 1.95801 26.7165 2.04567C26.6874 2.13334 26.6874 2.13334 27.0079 2.63012C26.9205 2.63012 27.0954 2.80545 27.3576 3.15612Z" fill="#CDAF71"></path>
  <path d="M19.1398 10.2568C19.6644 10.023 20.1306 9.81846 20.5386 9.70157C21.3545 9.40935 21.9373 9.20479 22.4327 9.14635C22.9281 9.05868 23.3652 9.02946 23.8606 9.14635C24.356 9.23402 24.9679 9.40935 25.7839 9.73079C25.1719 9.32168 24.5891 8.97102 23.8606 8.67879C23.1321 8.44502 22.2287 8.29891 20.9757 8.62035C20.7426 8.70802 20.5386 8.79568 20.3055 8.88335C20.0723 8.97102 19.8683 9.05868 19.6644 9.14635C19.2272 9.32168 18.8484 9.46779 18.4405 9.64313C17.6537 9.99379 17.0126 10.2568 16.4298 10.5198C15.8469 10.7828 15.4098 10.9581 15.0893 11.1335C14.7687 11.2796 14.5939 11.3672 14.5939 11.3672C14.1859 11.6302 14.1859 11.6302 14.1568 11.7179C14.1276 11.8056 14.1276 11.9809 14.5065 12.0978C14.6522 12.127 14.9727 12.1855 15.3807 12.2439C15.7887 12.3316 16.3423 12.39 16.896 12.5069C18.0325 12.7115 19.3438 12.9745 20.422 13.1206C21.1214 13.2375 21.7625 13.2375 22.3744 13.2667C22.6658 13.2667 22.9864 13.2375 23.2778 13.2082C23.5692 13.179 23.8315 13.1498 24.1229 13.0913C24.6765 12.9745 25.1719 12.8283 25.6382 12.653C26.1044 12.4485 26.5124 12.2147 26.8912 11.9225C25.4051 12.4485 23.9189 12.39 22.3453 12.1855C20.7717 11.9517 19.1107 11.5133 17.3623 11.1335C17.7119 10.9581 18.0325 10.812 18.3239 10.6659C18.5862 10.4613 18.8484 10.3445 19.1398 10.2568Z" fill="#CDAF71"></path>
  <path d="M15.4101 0.759777C15.4101 0.759777 15.6432 0.876665 16.0221 1.08122C16.4009 1.28578 16.9546 1.60722 17.5957 2.01633C18.2368 2.39622 18.9361 2.98066 19.6938 3.56511C20.0726 3.85733 20.4223 4.23722 20.8011 4.58788C20.976 4.76322 21.1508 4.93855 21.3257 5.1431C21.5005 5.34766 21.6753 5.55221 21.8502 5.75677C22.8701 6.69188 23.6278 7.2471 24.3854 7.56854C25.1139 7.91921 25.8133 8.09454 26.5127 8.41599C25.7259 7.86077 25.1431 7.56854 24.6768 7.21788C24.2397 6.89643 23.89 6.63343 23.5112 6.1951C23.1324 5.78599 22.6953 5.28921 22.025 4.55866C21.6753 4.17877 21.2965 3.79888 20.772 3.30211C20.5097 3.06833 20.2475 2.80533 19.9269 2.54233C19.6064 2.27933 19.2858 2.01633 18.907 1.72411C21.3257 2.01633 23.7443 2.74689 25.6093 3.91577C27.5035 5.08466 28.7856 6.66266 29.1062 8.32832C29.1936 7.86077 29.1645 7.36399 29.0479 6.80877C28.9022 6.25355 28.6691 5.6691 28.2611 5.08466C28.0571 4.79244 27.824 4.50022 27.5617 4.17877C27.2995 3.88655 26.9789 3.59433 26.6292 3.30211C25.9299 2.71766 25.0848 2.22089 24.094 1.72411C22.5787 1.02278 20.568 0.496777 18.8778 0.233777C18.0328 0.0876665 17.2751 0.0584444 16.6632 0C16.0512 0.0292222 15.6141 0.0292222 15.4101 0.0292222C14.8564 0.0584444 14.8564 0.233777 14.8564 0.321444C14.8856 0.438333 14.8856 0.438333 15.4101 0.759777Z" fill="#CDAF71"></path>
  <path d="M6.43454 6.63347C6.58024 6.69191 6.95907 6.77958 7.45446 6.89647C7.71673 6.95491 8.00813 7.01336 8.29954 7.0718C8.62008 7.15947 8.94063 7.21791 9.29032 7.30558C9.64001 7.39325 10.0188 7.48091 10.3685 7.53936C10.7473 7.62702 11.1262 7.71469 11.4759 7.80236C12.2044 7.94847 12.9329 8.15302 13.574 8.26991C15.235 8.59136 16.6046 8.62058 17.7994 8.50369C18.4113 8.41602 18.9941 8.29913 19.5187 8.15302C20.0723 8.00691 20.5677 7.77313 21.0631 7.56858C19.1981 7.91925 17.4788 7.8608 15.6721 7.51014C13.8654 7.18869 12.0004 6.63347 9.98969 5.96136C11.913 5.14314 13.9528 4.61714 15.9635 4.67558C17.9451 4.73403 19.8684 5.37692 21.3254 6.66269C21.034 6.19514 20.626 5.78603 20.1889 5.37692C19.7226 4.96781 19.169 4.61714 18.557 4.32492C17.304 3.74047 15.6721 3.44825 13.778 3.59436C12.3209 3.74047 10.5434 4.17881 9.11547 4.73403C8.76579 4.88014 8.4161 4.99703 8.09555 5.11392C7.80415 5.26003 7.51274 5.37692 7.25048 5.49381C6.75509 5.72758 6.43454 5.90292 6.28884 5.96136C6.05571 6.10747 6.02657 6.25358 6.05571 6.31203C6.11399 6.42891 6.14313 6.5458 6.43454 6.63347Z" fill="#CDAF71"></path>
  <path d="M27.5906 52.483C27.7946 52.7753 27.9403 53.0383 28.0569 53.3889C28.1443 53.7396 28.2608 54.2071 28.3483 54.85C28.3774 54.2948 28.4357 53.7688 28.3774 53.2136C28.29 52.6584 28.086 52.0155 27.5032 51.3142C25.5799 49.4732 23.9189 47.8952 23.8898 47.8659C23.5983 47.6614 23.5983 47.6614 23.5401 47.6614C23.4818 47.6614 23.3361 47.7198 23.3944 48.012C23.4235 48.1289 23.4526 48.3627 23.5109 48.6842C23.5692 49.0056 23.6566 49.4147 23.744 49.853C23.9189 50.7297 24.1229 51.7817 24.3269 52.6291C24.6183 53.7104 25.0554 54.587 25.5799 55.2591C26.1044 55.902 26.6873 56.3404 27.3575 56.5157C25.5799 55.1423 25.2302 52.4246 24.8223 49.6777C25.6382 50.4083 26.2501 50.9635 26.6873 51.4018C27.0952 51.8694 27.3866 52.1908 27.5906 52.483Z" fill="#CDAF71"></path>
  <path d="M25.8425 45.0896C26.3671 45.4111 26.7167 45.6741 27.0082 45.9079C27.5618 46.3754 27.7658 46.8138 28.2321 48.0703C28.1446 47.5151 28.0863 46.9891 27.9115 46.4631C27.7075 45.9371 27.387 45.3526 26.6585 44.7974C25.4637 44.0961 24.4146 43.4532 23.657 43.0149C23.2782 42.7811 22.9867 42.6058 22.7536 42.4889C22.5496 42.372 22.4331 42.3135 22.4039 42.2843C22.0834 42.1674 22.0834 42.1674 22.0251 42.1967C21.9668 42.2259 21.8503 42.3135 21.9377 42.5765C21.996 42.7811 22.3165 43.424 22.6371 44.213C22.9867 45.002 23.3947 45.9663 23.8027 46.7553C24.065 47.2521 24.3272 47.6904 24.6478 48.0703C24.9392 48.4502 25.2597 48.7716 25.5803 49.0346C26.2214 49.5606 26.9207 49.8821 27.5618 49.9113C25.522 48.947 24.6478 46.3462 23.657 43.8331C24.1524 44.0961 24.5603 44.3299 24.91 44.5344C25.2597 44.739 25.5803 44.9143 25.8425 45.0896Z" fill="#CDAF71"></path>
  <path d="M26.3961 43.3657C25.2887 43.1319 24.4145 42.4306 23.5694 41.5247C22.7535 40.648 21.9958 39.5668 21.209 38.544C21.7336 38.6317 22.1707 38.7486 22.5786 38.8362C22.9575 38.9531 23.3072 39.0408 23.5986 39.1285C24.1814 39.3038 24.5893 39.4499 24.9099 39.6252C25.551 39.9467 25.8715 40.3266 26.6 41.437C26.4835 41.174 26.3961 40.9402 26.2795 40.6772C26.1921 40.4142 26.0464 40.1805 25.9007 39.9467C25.5801 39.4791 25.1139 39.0116 24.2979 38.6317C22.9866 38.2518 21.7918 37.9888 20.9759 37.7842C20.5679 37.6966 20.2183 37.6381 19.9851 37.5797C19.752 37.5505 19.6354 37.5212 19.6063 37.5212C19.2858 37.5212 19.2858 37.5212 19.2275 37.5505C19.1692 37.5797 19.0818 37.6966 19.2566 37.9011C19.3732 38.0472 19.8103 38.544 20.3348 39.1577C20.8593 39.7713 21.4713 40.5603 22.025 41.174C23.5111 42.8105 25.0847 43.5995 26.3961 43.3657Z" fill="#CDAF71"></path>
  <path d="M30.0385 41.2618C30.3882 40.4144 30.6213 39.1286 30.2425 37.3753C29.9802 36.2356 29.4265 34.8329 28.7854 33.6933C28.1443 32.5536 27.5033 31.6477 27.2993 31.4139C27.0079 31.0925 26.8622 31.1217 26.833 31.1802C26.7747 31.2386 26.7747 31.2386 26.833 31.6477C26.833 31.6477 26.833 31.7062 26.8622 31.7938C26.8913 31.8815 26.9204 31.9984 26.9204 32.1737C26.9787 32.4952 27.037 32.9335 27.0661 33.4887C27.1244 34.5699 27.0661 36.0018 26.6873 37.4045C26.5708 38.3688 26.6582 39.0409 26.8039 39.5962C26.8913 39.8884 26.9787 40.1514 27.0661 40.4144C27.1536 40.6774 27.2701 40.9404 27.3576 41.2034C27.1536 39.8299 27.0661 39.3332 27.1827 38.5734C27.241 38.1935 27.3576 37.7552 27.5033 37.083C27.5615 36.7616 27.649 36.3525 27.7072 35.8849C27.7655 35.4174 27.8238 34.8622 27.8529 34.2193C28.8146 35.8265 29.4265 37.5506 29.6014 39.0409C29.7762 40.5605 29.4848 41.8463 28.7272 42.6937C29.1351 42.5476 29.6597 42.1093 30.0385 41.2618Z" fill="#CDAF71"></path>
  <path d="M20.1893 37.0538C20.3933 37.1415 20.5972 37.2291 20.8012 37.3168C21.0052 37.4045 21.2092 37.4629 21.384 37.5214C21.588 37.5798 21.7629 37.6382 21.9377 37.6675C22.6954 37.7844 23.3656 37.7551 23.9484 37.4921C23.6861 37.4921 23.4239 37.4921 23.1907 37.4629C22.9285 37.4337 22.6954 37.3752 22.4331 37.2876C21.9377 37.1122 21.4423 36.9077 20.9761 36.6155C20.0144 36.0602 19.0819 35.3589 18.1203 34.716C19.0819 34.5699 19.8104 34.5115 20.3933 34.5115C20.9761 34.4822 21.3549 34.5115 21.6754 34.5699C21.996 34.6284 22.2583 34.716 22.5497 34.8914C22.6954 34.979 22.8702 35.0959 23.045 35.2128C23.2199 35.3589 23.4239 35.5342 23.657 35.7096C23.4822 35.505 23.3365 35.3005 23.1907 35.0959C23.045 34.8914 22.8411 34.716 22.6662 34.5407C22.4622 34.3654 22.2291 34.2192 21.9377 34.1024C21.792 34.0439 21.6463 33.9855 21.4715 33.927C21.2966 33.8978 21.0926 33.8394 20.8886 33.8394C20.2476 33.8686 19.6356 33.927 19.1111 33.9562C18.5865 34.0147 18.1203 34.0731 17.7123 34.1316C17.3335 34.19 17.0129 34.2485 16.809 34.2777C16.605 34.3069 16.4884 34.3361 16.4593 34.3361C16.1679 34.4238 16.1679 34.4238 16.1387 34.4822C16.1096 34.5407 16.0804 34.6576 16.2553 34.7745C16.3427 34.8037 16.4884 34.9206 16.7215 35.0375C16.8381 35.0959 16.9547 35.1544 17.1004 35.242C17.2461 35.3297 17.3918 35.4174 17.5375 35.505C18.1494 35.8849 18.8779 36.3525 19.519 36.7324C19.7813 36.8492 19.9853 36.9661 20.1893 37.0538Z" fill="#CDAF71"></path>
  <path d="M25.7843 36.3523C26.134 36.1477 26.5128 35.6217 26.6294 34.7451C26.6876 34.3067 26.6876 33.7807 26.5419 33.1963C26.4254 32.5826 26.1631 31.9105 25.726 31.1507C25.1723 30.1572 24.2107 29.076 23.3073 28.1993C23.0742 27.9948 22.8411 27.7902 22.6371 27.6149C22.4331 27.4395 22.2 27.2934 22.0251 27.1473C21.6463 26.8843 21.3841 26.6798 21.2384 26.6213C20.8595 26.4168 20.7721 26.5044 20.743 26.5629C20.7138 26.6213 20.7138 26.6213 20.8887 26.972C20.8887 26.972 20.9761 27.1181 21.1509 27.3811C21.2966 27.6441 21.5006 28.024 21.7046 28.4915C21.9086 28.9591 22.1126 29.5143 22.2583 30.128C22.404 30.7416 22.5205 31.4137 22.5788 32.0859C22.6371 32.3196 22.6662 32.5242 22.7245 32.6995C22.7828 32.8749 22.8411 33.0502 22.8994 33.2255C23.0159 33.547 23.1616 33.81 23.3073 34.0437C23.453 34.2775 23.5987 34.4821 23.7736 34.6866C23.9193 34.8912 24.0941 35.0957 24.2398 35.3295C24.0941 35.0373 24.0067 34.7743 23.8901 34.5697C23.8027 34.3652 23.7153 34.1606 23.6279 34.0145C23.4822 33.6639 23.4239 33.3716 23.3656 33.021C23.3073 32.6703 23.3073 32.232 23.2199 31.5891C23.1325 30.9462 23.0159 30.0987 22.6662 28.9006C24.0067 30.0695 25.114 31.443 25.6677 32.7872C25.9591 33.4593 26.134 34.1022 26.134 34.7159C26.134 35.0081 26.134 35.3003 26.0757 35.5633C25.9883 35.8555 25.9008 36.1185 25.7843 36.3523Z" fill="#CDAF71"></path>
  <path d="M18.2078 33.7517C18.9363 33.6348 19.5774 33.3134 20.0145 32.9043C19.5191 33.1088 19.0237 33.1965 18.5284 33.2257C18.0038 33.2549 17.5084 33.1965 16.9839 33.1381C15.9348 32.9919 14.8566 32.7289 13.7202 32.4952C14.1281 32.2322 14.507 32.0276 14.8275 31.8523C15.148 31.6769 15.4686 31.5308 15.7017 31.4139C16.1971 31.2094 16.6051 31.0341 16.9256 30.9756C17.2462 30.9172 17.5084 30.8879 17.8581 30.9464C18.033 30.9756 18.2078 31.0341 18.4118 31.0925C18.6449 31.1509 18.878 31.2386 19.1694 31.3555C19.0529 31.2971 18.9655 31.2094 18.8489 31.1509L18.5284 30.9756C18.2952 30.8587 18.0912 30.7418 17.829 30.6542C17.5667 30.5665 17.3044 30.5081 16.9839 30.5081C16.6634 30.5081 16.3137 30.5665 15.9057 30.6834C14.7401 31.2386 13.7784 31.7646 13.1082 32.1737C12.7585 32.3783 12.4962 32.5244 12.3214 32.6705C12.1466 32.7874 12.03 32.8458 12.03 32.8458C11.7969 33.0504 11.7969 33.0504 11.7969 33.1088C11.7969 33.1673 11.7969 33.3134 12.03 33.3426C12.2048 33.3718 12.7877 33.4303 13.487 33.5179C14.1864 33.6056 15.0023 33.7517 15.7017 33.8686C16.168 33.9271 16.5759 33.9563 17.013 33.9271C17.4501 33.8686 17.829 33.8102 18.2078 33.7517Z" fill="#CDAF71"></path>
  <path d="M21.588 29.3977C21.384 28.521 20.8012 27.3813 19.4025 26.3001C19.1693 26.1248 18.9362 25.9495 18.6448 25.7741C18.3826 25.5988 18.0911 25.4235 17.7997 25.2773C17.5083 25.1312 17.1878 24.9851 16.8964 24.839C16.605 24.6929 16.2844 24.6052 15.993 24.4883C14.7983 24.05 13.7783 23.8747 13.4578 23.8455C13.0498 23.787 12.9915 23.9331 12.9624 23.9623C12.9624 24.0208 12.9624 24.0208 13.2538 24.313C13.2538 24.313 13.3995 24.4299 13.6326 24.6052C13.8658 24.7806 14.1863 25.0728 14.5651 25.4235C15.2936 26.1248 16.1679 27.206 16.7798 28.4041C17.0421 28.784 17.2752 29.0762 17.5083 29.3392C17.7415 29.6022 17.9454 29.7776 18.1786 29.9529C18.4117 30.1282 18.6157 30.2743 18.8488 30.3912L19.1693 30.5958C19.2859 30.6834 19.3733 30.7419 19.4899 30.8296C19.2568 30.5958 19.0819 30.3912 18.9071 30.2451C18.7322 30.0698 18.5865 29.9237 18.47 29.8068C18.2077 29.5438 18.0329 29.31 17.858 28.9886C17.6832 28.6671 17.4792 28.2872 17.1878 27.7028C17.0421 27.4106 16.8381 27.1183 16.5758 26.7092C16.3136 26.3293 16.0222 25.9202 15.6142 25.4235C17.3043 25.9787 18.8779 26.8553 19.927 27.9366C20.4515 28.4626 20.8304 29.047 21.0926 29.573C21.3258 30.1574 21.4132 30.6834 21.3549 31.2387C21.6172 30.9172 21.792 30.2743 21.588 29.3977Z" fill="#CDAF71"></path>
  <path d="M12.729 32.0276C12.9038 31.9691 13.1078 31.8815 13.2535 31.7938C13.6032 31.6185 13.8946 31.4431 14.186 31.2386C14.4483 31.034 14.7105 30.8003 14.8854 30.5373C13.982 31.1509 12.9912 31.3847 11.8839 31.5308C10.8057 31.6769 9.61091 31.6769 8.35787 31.7354C8.56185 31.56 8.7367 31.4139 8.91154 31.2386C9.08638 31.0925 9.26123 30.9756 9.40693 30.8295C9.72748 30.5957 9.98974 30.3619 10.252 30.1866C10.7474 29.8359 11.0971 29.6021 11.4176 29.456C11.7382 29.3099 12.0296 29.2223 12.3793 29.193C12.729 29.1638 13.1661 29.1638 13.778 29.2223C13.2826 29.0761 12.8455 28.93 12.321 28.8716C11.7965 28.8424 11.1554 28.93 10.3686 29.3391C10.2229 29.4268 10.1063 29.5437 9.9606 29.6314C9.8149 29.719 9.69834 29.8359 9.58178 29.9236C9.31951 30.1281 9.08639 30.3035 8.85326 30.4788C8.38701 30.8587 8.00818 31.1509 7.65849 31.4431C7.33795 31.7354 7.04654 31.9399 6.8717 32.086C6.69686 32.2321 6.58029 32.3198 6.58029 32.349C6.34717 32.5828 6.34717 32.5828 6.34717 32.6705C6.34717 32.7289 6.37631 32.8458 6.63857 32.8458C6.726 32.8458 6.95912 32.8166 7.25053 32.7874C7.54193 32.7581 7.92076 32.7289 8.29959 32.6997C9.08638 32.612 10.0189 32.5828 10.7474 32.4659C11.2136 32.4075 11.6799 32.2906 12.0879 32.2029C12.321 32.1737 12.525 32.086 12.729 32.0276Z" fill="#CDAF71"></path>
  <path d="M5.21091 25.1603C5.21091 25.1603 5.38575 25.1895 5.67716 25.2479C5.96856 25.3064 6.40567 25.4525 6.90106 25.5986C7.39645 25.7447 7.97926 26.0077 8.59122 26.2707C8.88262 26.4168 9.20317 26.5921 9.49457 26.7675C9.64028 26.8551 9.78598 26.9428 9.96082 27.0305C10.1065 27.1181 10.2522 27.235 10.4271 27.3519C11.2721 27.7903 11.8841 28.024 12.4378 28.1117C12.9914 28.2286 13.4868 28.1994 14.0114 28.287C13.3703 28.0533 12.9332 27.9656 12.5835 27.8195C12.2338 27.6734 11.9424 27.5565 11.6218 27.3519C11.3013 27.1474 10.9225 26.8844 10.3397 26.5337C10.0482 26.3291 9.69856 26.1538 9.29059 25.92C9.08661 25.8031 8.85348 25.6863 8.59122 25.5694C8.32895 25.4525 8.06669 25.3356 7.77528 25.1895C9.43629 24.9557 11.1847 25.0141 12.6709 25.4525C14.1571 25.8908 15.2936 26.709 15.7889 27.761C15.7598 27.4396 15.6724 27.1181 15.4684 26.7675C15.2936 26.4168 15.0021 26.0661 14.6233 25.7447C14.4485 25.5694 14.2154 25.4233 13.9822 25.2771C13.7491 25.131 13.4868 24.9849 13.1954 24.868C12.6418 24.605 11.9715 24.4297 11.2139 24.2836C10.0774 24.1083 8.6495 24.1083 7.45473 24.2544C6.87192 24.3128 6.34739 24.4297 5.93942 24.4881C5.53146 24.5758 5.24005 24.6635 5.09435 24.6927C4.74466 24.8096 4.74466 24.9265 4.7738 24.9849C4.80294 25.0142 4.80294 25.0141 5.21091 25.1603Z" fill="#CDAF71"></path>
  <path d="M9.34878 29.3683C9.66933 29.1638 9.98987 28.93 10.2813 28.6962C9.11566 29.2806 7.95003 29.5436 6.66785 29.6313C5.4148 29.7482 4.0452 29.719 2.58817 29.6313L2.61731 29.6021H2.58817C3.72465 28.6962 5.00683 27.9949 6.3473 27.6442C7.68777 27.3228 9.08652 27.4104 10.2813 27.9949C9.98987 27.7319 9.66933 27.5273 9.2905 27.352C8.91167 27.1474 8.47456 27.0305 8.00831 26.9429C7.04668 26.7675 5.91019 26.8844 4.68629 27.3228C3.72465 27.6734 2.61731 28.3163 1.77223 28.93C1.56824 29.0761 1.36426 29.2222 1.16028 29.3683C0.985433 29.5144 0.810588 29.6605 0.664885 29.7774C0.373479 30.0112 0.169497 30.1865 0.111216 30.2742C-0.0344874 30.4203 -0.00534772 30.508 0.0237929 30.5664C0.0237929 30.6249 0.0820745 30.7125 0.286059 30.7125C0.402621 30.7125 0.664886 30.7125 1.01457 30.7125C1.18942 30.7125 1.3934 30.6833 1.62653 30.6833C1.85965 30.6833 2.09277 30.6833 2.35504 30.6541C2.61731 30.6541 2.85043 30.6249 3.14183 30.6249C3.4041 30.6249 3.66637 30.6249 3.92863 30.5956C4.45316 30.5664 4.97769 30.5664 5.4148 30.5372C6.58043 30.4495 7.51292 30.245 8.29972 29.9235C8.64941 29.7482 9.02824 29.5436 9.34878 29.3683Z" fill="#CDAF71"></path>
  <path d="M33.2444 58.5904C32.1953 60.3437 30.6508 62.5646 28.8441 64.5809C27.3871 66.2174 25.7844 67.6785 24.3565 68.7889C24.9976 67.8538 25.6387 66.7434 26.1632 65.5745C26.9791 63.8504 27.5911 62.0386 27.9408 60.6359C28.2905 59.2625 28.4362 58.3274 28.4362 58.3274L28.1739 58.2689C28.1739 58.2689 27.9991 59.204 27.6202 60.5483C27.2414 61.8925 26.6003 63.675 25.7552 65.3699C24.9102 67.0648 23.8611 68.6136 22.9869 69.6948C22.9286 69.7825 22.8703 69.8117 22.812 69.8994C22.608 70.0455 22.4041 70.1916 22.2292 70.3085C21.8795 70.5422 21.5881 70.7176 21.3259 70.8637C20.8305 71.1559 20.5391 71.3312 20.5391 71.3312L21.0053 72.1495C21.0053 72.1495 21.2676 71.9741 21.7047 71.7111L21.8795 71.8865C21.8795 71.8865 22.0544 71.7111 22.3166 71.3897C22.3749 71.302 22.4623 71.2436 22.5498 71.1559C22.608 71.1267 22.6663 71.0975 22.7246 71.039C23.0743 70.8052 23.4531 70.513 23.8611 70.1916C25.5221 68.935 27.5619 67.0648 29.3395 64.9608C31.1171 62.8568 32.6324 60.5483 33.6523 58.7657C34.6722 56.9832 35.2259 55.7266 35.2259 55.7266L34.9054 55.5513C34.8762 55.6389 34.2934 56.8663 33.2444 58.5904Z" fill="#CDAF71"></path>
  <path d="M32.8652 39.4793C32.5447 39.0994 32.5447 39.0994 32.4573 39.0701C32.3698 39.0701 32.1658 39.0994 32.1076 39.5085C32.1076 39.6254 32.0784 39.9176 32.0201 40.2682C31.8162 39.5085 31.6122 38.9533 31.5248 38.7487C31.3499 38.3688 31.2042 38.3688 31.1459 38.398C31.0876 38.4273 31.0876 38.4273 30.9711 38.8364C30.9711 38.8364 30.9419 39.0117 30.9128 39.3331C30.8837 39.6254 30.7962 40.0637 30.6505 40.5897C30.4174 41.6125 29.922 42.9275 29.2226 44.184C28.873 45.0899 28.7564 45.7328 28.7855 46.3172C28.7855 46.9017 28.9021 47.4277 28.9604 48.0121C29.0769 46.6387 29.1061 46.1419 29.4266 45.4406C29.6015 45.0899 29.8055 44.6808 30.0969 44.0964C30.2426 43.8041 30.4174 43.4535 30.6214 43.0151C30.8254 42.5768 31.0294 42.08 31.2333 41.4664C31.5248 42.606 31.6996 43.7749 31.7287 44.8561C31.6996 45.3529 31.6996 45.8497 31.6705 46.288C31.6705 46.288 31.6705 46.288 31.6705 46.3172C31.6705 46.3757 31.6705 46.4341 31.6705 46.4634C31.583 47.1939 31.379 47.866 31.1168 48.4505C30.8254 49.0057 30.4757 49.4732 29.9803 49.7947C30.4174 49.7655 31.0294 49.444 31.583 48.7135C31.6705 48.5966 31.7579 48.4797 31.8453 48.3336C31.8744 48.5089 31.9036 48.6842 31.9327 48.8596C31.787 49.1226 31.6122 49.3856 31.4373 49.6486C31.0585 50.2038 30.6505 50.759 30.1551 51.285C29.6306 52.074 29.3683 52.7169 29.2809 53.2721C29.1644 53.8566 29.1644 54.3826 29.1061 54.9378C29.3101 54.2949 29.4266 53.8273 29.5723 53.4767C29.718 53.126 29.8637 52.8338 30.0677 52.5416C30.3009 52.2201 30.5923 51.8987 31.0294 51.3727C31.3499 50.9928 31.7287 50.496 32.195 49.8239C32.2533 50.0285 32.3407 50.233 32.399 50.4376C32.4573 50.6129 32.5447 50.7298 32.6321 50.8759C32.5447 51.9863 32.3698 53.0676 32.0493 54.0027C31.9327 54.3533 31.787 54.6748 31.6413 54.9962C31.4665 55.2885 31.2916 55.5807 31.1168 55.8144C30.738 56.3112 30.2717 56.6911 29.7472 56.8957C30.1843 56.9541 30.8545 56.7788 31.5539 56.1651C31.9036 55.8729 32.2533 55.4346 32.5738 54.9086C32.8652 54.3533 33.1858 53.6812 33.3898 52.8338C33.448 52.6 33.5063 52.337 33.5355 52.1032C33.7977 52.3955 34.0891 52.6585 34.4388 52.8338C34.1183 52.3955 33.856 51.9279 33.652 51.4019C33.7394 50.6421 33.7977 49.8239 33.7977 49.0933C33.7977 48.4797 33.7686 47.9245 33.7394 47.4861C33.7103 47.0478 33.6812 46.7264 33.652 46.5802C33.5937 46.1711 33.4189 46.1711 33.3606 46.1711C33.3023 46.1711 33.3023 46.1711 33.0983 46.551C33.0983 46.551 33.0692 46.5802 33.0692 46.6679C33.1275 45.2945 33.3023 43.8626 33.4772 42.4015C34.3514 43.7457 34.9633 44.7392 35.4005 45.5282C35.8667 46.3172 36.1581 46.8725 36.333 47.34C36.5078 47.8368 36.6244 48.2459 36.6535 48.8011C36.6535 49.3271 36.6244 49.9992 36.5078 50.9636C36.7409 50.2038 37.0323 49.5025 37.1489 48.6842C37.2363 47.866 37.2072 46.9309 36.6535 45.7036C34.5845 42.3138 32.8652 39.4793 32.8652 39.4793Z" fill="#CDAF71"></path>
  <path d="M46.6199 40.5896C46.5324 40.5896 46.5324 40.5896 46.1245 40.9987C46.1245 40.9987 46.0953 41.0572 46.0079 41.1448C45.9496 41.2325 45.8331 41.3786 45.7165 41.5539C45.4542 41.9046 45.0463 42.3722 44.5509 42.9274C44.0555 43.4826 43.4144 44.0963 42.715 44.7099C41.9865 45.3236 41.1997 45.9665 40.3255 46.5217C39.3056 47.4276 38.6936 48.2166 38.3439 48.9764C37.9651 49.7361 37.7611 50.4667 37.4697 51.2557C37.9943 50.4083 38.3439 49.8238 38.6936 49.3855C39.0142 48.9179 39.3347 48.5965 39.7427 48.275C40.1798 47.9244 40.7335 47.5737 41.4911 47.0185C42.2779 46.4633 43.2978 45.6743 44.6675 44.4469C44.0846 46.9308 43.1521 49.2686 41.9282 51.0511C41.6077 51.4895 41.3163 51.8986 40.9666 52.2492C40.6169 52.5999 40.2672 52.9214 39.9175 53.1844C39.189 53.7396 38.4022 54.061 37.5863 54.1779C38.1691 54.4117 39.189 54.4409 40.3838 53.8565C40.9666 53.5642 41.6368 53.1259 42.2779 52.483C42.919 51.8401 43.5893 50.9927 44.1721 49.9115C44.988 48.5088 45.6582 46.5509 46.1536 44.856C46.3867 44.0086 46.5616 43.2196 46.6782 42.5767C46.7947 41.9338 46.8821 41.4663 46.8821 41.2617C46.9113 40.6773 46.7073 40.5896 46.6199 40.5896Z" fill="#CDAF71"></path>
  <path d="M34.0599 33.7518C34.6427 34.2778 35.1381 34.7746 35.5461 35.2129C35.9832 35.6512 36.3329 36.0311 36.6243 36.3526C37.2362 37.0247 37.6442 37.4922 37.9356 37.9306C38.5184 38.8072 38.6641 39.5086 38.8098 41.4372C38.8972 40.6482 39.0138 39.8884 38.9847 39.0702C38.8972 38.252 38.6641 37.3461 37.8773 36.2649C36.4786 34.833 35.2547 33.5472 34.3513 32.6413C33.9142 32.203 33.5645 31.8231 33.3022 31.5893C33.04 31.3263 32.9234 31.2095 32.8943 31.2095C32.5154 30.9172 32.5154 30.9172 32.3989 30.9172C32.3115 30.9172 32.1075 31.0049 32.1366 31.414C32.1658 31.7062 32.3406 32.6998 32.5154 33.9563C32.7194 35.2129 32.9234 36.7032 33.1857 37.9306C33.3605 38.7196 33.5645 39.4501 33.8559 40.093C34.1182 40.7359 34.4387 41.3203 34.7593 41.7879C35.4295 42.7814 36.3037 43.4536 37.2071 43.7458C34.7593 41.5833 34.497 37.6091 34.0599 33.7518Z" fill="#CDAF71"></path>
  <path d="M46.9109 29.6314C46.8235 29.0177 46.6195 28.9885 46.5321 29.0177C46.4447 29.0177 46.4447 29.0469 46.1533 29.5437C46.1533 29.5437 46.0367 29.7775 45.8618 30.1866C45.687 30.5957 45.3956 31.1509 45.0459 31.823C44.3174 33.138 43.1518 34.8329 41.6947 36.294C40.8788 37.4045 40.4708 38.2811 40.2669 39.1286C40.0337 39.9468 40.0337 40.7066 39.8589 41.5248C40.5583 39.6546 40.7622 38.9532 41.4616 38.1058C41.8113 37.6675 42.2484 37.1999 42.9186 36.4693C43.2392 36.1187 43.618 35.6803 44.026 35.1543C44.4631 34.6283 44.9293 34.0147 45.4539 33.2549C45.4247 35.8265 45.0168 38.3688 44.1717 40.3559C43.7637 41.3494 43.2392 42.2261 42.6564 42.8982C42.0444 43.5703 41.3742 44.0671 40.5874 44.3593C41.1994 44.4762 42.1901 44.3009 43.2392 43.4827C44.2883 42.6644 45.4247 41.2033 46.1533 38.8363C46.6486 37.2583 46.94 35.1836 46.9983 33.401C47.1149 31.5892 46.9692 30.0697 46.9109 29.6314Z" fill="#CDAF71"></path>
  <path d="M35.7794 27.2059C36.537 27.6735 37.0324 28.0534 37.4404 28.3748C38.198 29.0761 38.5186 29.719 39.1305 31.5308C39.0723 31.1217 39.0431 30.7418 38.9848 30.3619C38.9266 29.982 38.8683 29.6021 38.7226 29.193C38.4603 28.404 37.9941 27.5858 36.9741 26.7676C35.284 25.7448 33.7395 24.8974 32.6613 24.3422C32.1077 24.0792 31.6706 23.8454 31.35 23.6993C31.0295 23.5532 30.8546 23.4655 30.8546 23.4655C30.4175 23.3194 30.4175 23.3194 30.3009 23.3778C30.2135 23.407 30.0387 23.5532 30.1844 23.8746C30.3009 24.1376 30.7089 24.9558 31.2043 26.037C31.6997 27.1183 32.2534 28.4333 32.807 29.4853C34.2058 32.2614 36.0999 33.927 38.0523 34.1024C36.5953 33.3426 35.6337 32.0276 34.8177 30.4788C34.0018 28.93 33.3607 27.1475 32.6613 25.4526C33.3607 25.774 33.9435 26.0955 34.468 26.3877C34.9634 26.7091 35.4005 26.9722 35.7794 27.2059Z" fill="#CDAF71"></path>
  <path d="M40.0049 29.0176C40.0049 29.456 40.034 29.8358 40.0632 30.245C40.0923 30.6541 40.1506 31.0339 40.1797 31.4431C40.4129 29.456 40.4711 28.7254 40.9374 27.7318C41.1414 27.2351 41.4911 26.6506 41.9282 25.774C42.1321 25.3356 42.3944 24.8096 42.6567 24.196C42.9189 23.5531 43.2103 22.8225 43.5018 21.9166C44.2303 24.5174 44.4343 27.1474 44.1137 29.3098C43.7932 31.4723 42.8898 33.1964 41.5202 34.0731C42.1613 34.0438 43.0646 33.6639 43.9097 32.6119C44.7257 31.5599 45.5416 29.8651 45.629 27.2935C45.6873 25.5986 45.425 23.4362 44.9879 21.6244C44.5508 19.7834 43.968 18.2931 43.764 17.884C43.4726 17.2995 43.2686 17.3287 43.1812 17.358C43.0938 17.3872 43.0938 17.4164 42.9772 18.0009C42.9772 18.0009 42.9772 18.0593 42.9772 18.2054C42.9772 18.3223 42.9772 18.4976 42.9481 18.7314C42.8898 19.199 42.8024 19.8419 42.6567 20.6016C42.307 22.1212 41.7242 24.1083 40.6751 25.9201C40.1797 27.2058 40.0049 28.1702 40.0049 29.0176Z" fill="#CDAF71"></path>
  <path d="M34.8466 20.0758C35.2837 20.2803 35.6042 20.5141 35.9539 20.8648C36.1287 21.0401 36.3036 21.2447 36.5076 21.5077C36.7116 21.7707 36.9155 22.0921 37.1778 22.4428C37.0321 22.0921 36.8864 21.7707 36.7407 21.42C36.595 21.0986 36.4202 20.7771 36.187 20.4557C35.983 20.1342 35.6916 19.842 35.342 19.5498C35.1671 19.4037 34.9631 19.2576 34.73 19.1407C34.4969 19.0238 34.2346 18.9069 33.9723 18.79C33.0981 18.5855 32.2239 18.4393 31.4663 18.2932C30.7086 18.1763 30.0384 18.0595 29.4556 18.001C28.9019 17.9426 28.4648 17.8841 28.1442 17.8549C27.8237 17.8257 27.6488 17.8257 27.6488 17.8257C27.2117 17.8549 27.2117 17.8549 27.1534 17.9133C27.0952 17.9718 26.9786 18.1471 27.2117 18.3809C27.2992 18.4686 27.474 18.6439 27.7363 18.9069C27.8528 19.053 28.0277 19.1699 28.1734 19.3452C28.3191 19.5206 28.4939 19.6959 28.6979 19.8712C29.4264 20.631 30.2715 21.5661 31 22.3259C31.2623 22.5597 31.4954 22.8227 31.7285 23.0272C31.9908 23.2318 32.2239 23.4363 32.457 23.6409C32.6902 23.8162 32.9524 23.9916 33.2147 24.1377C33.4478 24.2838 33.7101 24.4299 33.9432 24.5468C34.934 25.0143 35.9248 25.1897 36.799 25.0436C36.4202 24.9559 36.0705 24.839 35.7499 24.6929C35.4002 24.5468 35.0797 24.3715 34.7591 24.1669C34.1472 23.7578 33.5352 23.261 33.0107 22.6766C31.9034 21.5369 30.8543 20.2219 29.747 18.9653C31.1457 19.1115 32.1948 19.316 32.9816 19.5206C33.8558 19.6959 34.3803 19.8712 34.8466 20.0758Z" fill="#CDAF71"></path>
  <path d="M36.7119 9.9063C36.7993 10.3446 36.945 10.9583 37.0615 11.6596C37.149 12.3902 37.2364 13.2669 37.2364 14.1727C37.2072 15.1078 37.149 16.043 36.9158 17.0365C36.8867 17.358 36.8867 17.6502 36.8867 17.9424C36.8867 18.2346 36.8867 18.4976 36.9158 18.7314C36.9741 19.2282 37.0615 19.6373 37.149 20.0172C37.2655 20.3971 37.4112 20.7477 37.5278 21.0984C37.6735 21.4491 37.7901 21.7997 37.9358 22.1504C37.8483 21.6828 37.7901 21.3029 37.7318 20.9523C37.6735 20.6016 37.6152 20.3386 37.5861 20.0756C37.5278 19.5496 37.5278 19.1113 37.5861 18.6145C37.6444 18.0885 37.7901 17.4748 37.9066 16.569C38.0523 15.6338 38.198 14.4357 38.1397 12.624C39.5968 14.7572 40.5584 17.095 40.8498 19.1697C40.9955 20.2217 40.9955 21.1568 40.7915 22.0335C40.7041 22.4426 40.5584 22.8517 40.3836 23.2024C40.2087 23.5531 39.9756 23.8745 39.7133 24.1667C40.267 23.9914 41.0247 23.4069 41.4909 22.2381C41.724 21.6536 41.928 20.9231 41.9863 20.0464C42.0446 19.1697 41.9572 18.1177 41.6366 16.9196C41.2286 15.3416 40.3253 13.4422 39.3636 11.8934C39.1014 11.5135 38.8683 11.1629 38.6351 10.8122C38.402 10.4907 38.1689 10.1985 37.9649 9.93552C37.5569 9.40952 37.2364 9.02963 37.0615 8.88352C36.6244 8.44519 36.4496 8.53286 36.3913 8.5913C36.333 8.64975 36.333 8.64975 36.4496 9.23419C36.537 9.23419 36.5953 9.49719 36.7119 9.9063Z" fill="#CDAF71"></path>
  <path d="M27.6493 13.413C28.4361 13.2961 29.0189 13.2377 29.5143 13.2669C29.9805 13.2961 30.3885 13.3838 30.8256 13.5591C31.0587 13.676 31.2919 13.7929 31.5541 13.9682C31.8455 14.1435 32.1661 14.3481 32.5158 14.6111C32.3992 14.465 32.2535 14.3481 32.1369 14.202L31.7581 13.8221C31.4958 13.5883 31.2336 13.3253 30.913 13.1208C30.5925 12.9162 30.2137 12.7409 29.8057 12.5948C29.3686 12.4779 28.844 12.4194 28.2612 12.4194C26.4254 12.7701 24.9101 13.1208 23.8027 13.4422C23.2491 13.5883 22.8411 13.7052 22.5205 13.8221C22.2291 13.9098 22.0543 13.9682 22.0543 13.9682C21.6755 14.1435 21.6755 14.1435 21.6172 14.2312C21.588 14.3189 21.5589 14.4942 21.8503 14.6403C22.0834 14.7572 22.8702 15.0494 23.8027 15.4585C24.7644 15.8384 25.8426 16.3937 26.7751 16.7735C27.387 17.0073 27.9698 17.2411 28.5526 17.358C29.1063 17.5041 29.6891 17.5918 30.2137 17.6502C31.2627 17.7379 32.2826 17.5625 33.0403 17.1242C32.2826 17.2119 31.5541 17.1826 30.8547 17.0073C30.1262 16.8612 29.4269 16.5982 28.7275 16.306C27.3287 15.6923 25.9008 14.9033 24.4147 14.1728C25.0849 13.9682 25.6969 13.7929 26.1923 13.7052C26.7751 13.5591 27.2705 13.4714 27.6493 13.413Z" fill="#CDAF71"></path>
  <path d="M27.5906 52.483C27.7946 52.7753 27.9403 53.0383 28.0569 53.3889C28.1443 53.7396 28.2608 54.2071 28.3483 54.85C28.3774 54.2948 28.4357 53.7688 28.3774 53.2136C28.29 52.6584 28.086 52.0155 27.5032 51.3142C25.5799 49.4732 23.9189 47.8952 23.8898 47.8659C23.5983 47.6614 23.5983 47.6614 23.5401 47.6614C23.4818 47.6614 23.3361 47.7198 23.3944 48.012C23.4235 48.1289 23.4526 48.3627 23.5109 48.6842C23.5692 49.0056 23.6566 49.4147 23.744 49.853C23.9189 50.7297 24.1229 51.7817 24.3269 52.6291C24.6183 53.7104 25.0554 54.587 25.5799 55.2591C26.1044 55.902 26.6873 56.3404 27.3575 56.5157C25.5799 55.1423 25.2302 52.4246 24.8223 49.6777C25.6382 50.4083 26.2501 50.9635 26.6873 51.4018C27.0952 51.8694 27.3866 52.1908 27.5906 52.483Z" fill="#CDAF71"></path>
  <path d="M25.8425 45.0896C26.3671 45.4111 26.7167 45.6741 27.0082 45.9079C27.5618 46.3754 27.7658 46.8138 28.2321 48.0703C28.1446 47.5151 28.0863 46.9891 27.9115 46.4631C27.7075 45.9371 27.387 45.3526 26.6585 44.7974C25.4637 44.0961 24.4146 43.4532 23.657 43.0149C23.2782 42.7811 22.9867 42.6058 22.7536 42.4889C22.5496 42.372 22.4331 42.3135 22.4039 42.2843C22.0834 42.1674 22.0834 42.1674 22.0251 42.1967C21.9668 42.2259 21.8503 42.3135 21.9377 42.5765C21.996 42.7811 22.3165 43.424 22.6371 44.213C22.9867 45.002 23.3947 45.9663 23.8027 46.7553C24.065 47.2521 24.3272 47.6904 24.6478 48.0703C24.9392 48.4502 25.2597 48.7716 25.5803 49.0346C26.2214 49.5606 26.9207 49.8821 27.5618 49.9113C25.522 48.947 24.6478 46.3462 23.657 43.8331C24.1524 44.0961 24.5603 44.3299 24.91 44.5344C25.2597 44.739 25.5803 44.9143 25.8425 45.0896Z" fill="#CDAF71"></path>
  <path d="M26.3961 43.3657C25.2887 43.1319 24.4145 42.4306 23.5694 41.5247C22.7535 40.648 21.9958 39.5668 21.209 38.544C21.7336 38.6317 22.1707 38.7486 22.5786 38.8362C22.9575 38.9531 23.3072 39.0408 23.5986 39.1285C24.1814 39.3038 24.5893 39.4499 24.9099 39.6252C25.551 39.9467 25.8715 40.3266 26.6 41.437C26.4835 41.174 26.3961 40.9402 26.2795 40.6772C26.1921 40.4142 26.0464 40.1805 25.9007 39.9467C25.5801 39.4791 25.1139 39.0116 24.2979 38.6317C22.9866 38.2518 21.7918 37.9888 20.9759 37.7842C20.5679 37.6966 20.2183 37.6381 19.9851 37.5797C19.752 37.5505 19.6354 37.5212 19.6063 37.5212C19.2858 37.5212 19.2858 37.5212 19.2275 37.5505C19.1692 37.5797 19.0818 37.6966 19.2566 37.9011C19.3732 38.0472 19.8103 38.544 20.3348 39.1577C20.8593 39.7713 21.4713 40.5603 22.025 41.174C23.5111 42.8105 25.0847 43.5995 26.3961 43.3657Z" fill="#CDAF71"></path>
  <path d="M30.0385 41.2618C30.3882 40.4144 30.6213 39.1286 30.2425 37.3753C29.9802 36.2356 29.4265 34.8329 28.7854 33.6933C28.1443 32.5536 27.5033 31.6477 27.2993 31.4139C27.0079 31.0925 26.8622 31.1217 26.833 31.1802C26.7747 31.2386 26.7747 31.2386 26.833 31.6477C26.833 31.6477 26.833 31.7062 26.8622 31.7938C26.8913 31.8815 26.9204 31.9984 26.9204 32.1737C26.9787 32.4952 27.037 32.9335 27.0661 33.4887C27.1244 34.5699 27.0661 36.0018 26.6873 37.4045C26.5708 38.3688 26.6582 39.0409 26.8039 39.5962C26.8913 39.8884 26.9787 40.1514 27.0661 40.4144C27.1536 40.6774 27.2701 40.9404 27.3576 41.2034C27.1536 39.8299 27.0661 39.3332 27.1827 38.5734C27.241 38.1935 27.3576 37.7552 27.5033 37.083C27.5615 36.7616 27.649 36.3525 27.7072 35.8849C27.7655 35.4174 27.8238 34.8622 27.8529 34.2193C28.8146 35.8265 29.4265 37.5506 29.6014 39.0409C29.7762 40.5605 29.4848 41.8463 28.7272 42.6937C29.1351 42.5476 29.6597 42.1093 30.0385 41.2618Z" fill="#CDAF71"></path>
  <path d="M20.1893 37.0538C20.3933 37.1415 20.5972 37.2291 20.8012 37.3168C21.0052 37.4045 21.2092 37.4629 21.384 37.5214C21.588 37.5798 21.7629 37.6382 21.9377 37.6675C22.6954 37.7844 23.3656 37.7551 23.9484 37.4921C23.6861 37.4921 23.4239 37.4921 23.1907 37.4629C22.9285 37.4337 22.6954 37.3752 22.4331 37.2876C21.9377 37.1122 21.4423 36.9077 20.9761 36.6155C20.0144 36.0602 19.0819 35.3589 18.1203 34.716C19.0819 34.5699 19.8104 34.5115 20.3933 34.5115C20.9761 34.4822 21.3549 34.5115 21.6754 34.5699C21.996 34.6284 22.2583 34.716 22.5497 34.8914C22.6954 34.979 22.8702 35.0959 23.045 35.2128C23.2199 35.3589 23.4239 35.5342 23.657 35.7096C23.4822 35.505 23.3365 35.3005 23.1907 35.0959C23.045 34.8914 22.8411 34.716 22.6662 34.5407C22.4622 34.3654 22.2291 34.2192 21.9377 34.1024C21.792 34.0439 21.6463 33.9855 21.4715 33.927C21.2966 33.8978 21.0926 33.8394 20.8886 33.8394C20.2476 33.8686 19.6356 33.927 19.1111 33.9562C18.5865 34.0147 18.1203 34.0731 17.7123 34.1316C17.3335 34.19 17.0129 34.2485 16.809 34.2777C16.605 34.3069 16.4884 34.3361 16.4593 34.3361C16.1679 34.4238 16.1679 34.4238 16.1387 34.4822C16.1096 34.5407 16.0804 34.6576 16.2553 34.7745C16.3427 34.8037 16.4884 34.9206 16.7215 35.0375C16.8381 35.0959 16.9547 35.1544 17.1004 35.242C17.2461 35.3297 17.3918 35.4174 17.5375 35.505C18.1494 35.8849 18.8779 36.3525 19.519 36.7324C19.7813 36.8492 19.9853 36.9661 20.1893 37.0538Z" fill="#CDAF71"></path>
  <path d="M25.7843 36.3523C26.134 36.1477 26.5128 35.6217 26.6294 34.7451C26.6876 34.3067 26.6876 33.7807 26.5419 33.1963C26.4254 32.5826 26.1631 31.9105 25.726 31.1507C25.1723 30.1572 24.2107 29.076 23.3073 28.1993C23.0742 27.9948 22.8411 27.7902 22.6371 27.6149C22.4331 27.4395 22.2 27.2934 22.0251 27.1473C21.6463 26.8843 21.3841 26.6798 21.2384 26.6213C20.8595 26.4168 20.7721 26.5044 20.743 26.5629C20.7138 26.6213 20.7138 26.6213 20.8887 26.972C20.8887 26.972 20.9761 27.1181 21.1509 27.3811C21.2966 27.6441 21.5006 28.024 21.7046 28.4915C21.9086 28.9591 22.1126 29.5143 22.2583 30.128C22.404 30.7416 22.5205 31.4137 22.5788 32.0859C22.6371 32.3196 22.6662 32.5242 22.7245 32.6995C22.7828 32.8749 22.8411 33.0502 22.8994 33.2255C23.0159 33.547 23.1616 33.81 23.3073 34.0437C23.453 34.2775 23.5987 34.4821 23.7736 34.6866C23.9193 34.8912 24.0941 35.0957 24.2398 35.3295C24.0941 35.0373 24.0067 34.7743 23.8901 34.5697C23.8027 34.3652 23.7153 34.1606 23.6279 34.0145C23.4822 33.6639 23.4239 33.3716 23.3656 33.021C23.3073 32.6703 23.3073 32.232 23.2199 31.5891C23.1325 30.9462 23.0159 30.0987 22.6662 28.9006C24.0067 30.0695 25.114 31.443 25.6677 32.7872C25.9591 33.4593 26.134 34.1022 26.134 34.7159C26.134 35.0081 26.134 35.3003 26.0757 35.5633C25.9883 35.8555 25.9008 36.1185 25.7843 36.3523Z" fill="#CDAF71"></path>
  <path d="M18.2078 33.7517C18.9363 33.6348 19.5774 33.3134 20.0145 32.9043C19.5191 33.1088 19.0237 33.1965 18.5284 33.2257C18.0038 33.2549 17.5084 33.1965 16.9839 33.1381C15.9348 32.9919 14.8566 32.7289 13.7202 32.4952C14.1281 32.2322 14.507 32.0276 14.8275 31.8523C15.148 31.6769 15.4686 31.5308 15.7017 31.4139C16.1971 31.2094 16.6051 31.0341 16.9256 30.9756C17.2462 30.9172 17.5084 30.8879 17.8581 30.9464C18.033 30.9756 18.2078 31.0341 18.4118 31.0925C18.6449 31.1509 18.878 31.2386 19.1694 31.3555C19.0529 31.2971 18.9655 31.2094 18.8489 31.1509L18.5284 30.9756C18.2952 30.8587 18.0912 30.7418 17.829 30.6542C17.5667 30.5665 17.3044 30.5081 16.9839 30.5081C16.6634 30.5081 16.3137 30.5665 15.9057 30.6834C14.7401 31.2386 13.7784 31.7646 13.1082 32.1737C12.7585 32.3783 12.4962 32.5244 12.3214 32.6705C12.1466 32.7874 12.03 32.8458 12.03 32.8458C11.7969 33.0504 11.7969 33.0504 11.7969 33.1088C11.7969 33.1673 11.7969 33.3134 12.03 33.3426C12.2048 33.3718 12.7877 33.4303 13.487 33.5179C14.1864 33.6056 15.0023 33.7517 15.7017 33.8686C16.168 33.9271 16.5759 33.9563 17.013 33.9271C17.4501 33.8686 17.829 33.8102 18.2078 33.7517Z" fill="#CDAF71"></path>
  <path d="M21.588 29.3977C21.384 28.521 20.8012 27.3813 19.4025 26.3001C19.1693 26.1248 18.9362 25.9495 18.6448 25.7741C18.3826 25.5988 18.0911 25.4235 17.7997 25.2773C17.5083 25.1312 17.1878 24.9851 16.8964 24.839C16.605 24.6929 16.2844 24.6052 15.993 24.4883C14.7983 24.05 13.7783 23.8747 13.4578 23.8455C13.0498 23.787 12.9915 23.9331 12.9624 23.9623C12.9624 24.0208 12.9624 24.0208 13.2538 24.313C13.2538 24.313 13.3995 24.4299 13.6326 24.6052C13.8658 24.7806 14.1863 25.0728 14.5651 25.4235C15.2936 26.1248 16.1679 27.206 16.7798 28.4041C17.0421 28.784 17.2752 29.0762 17.5083 29.3392C17.7415 29.6022 17.9454 29.7776 18.1786 29.9529C18.4117 30.1282 18.6157 30.2743 18.8488 30.3912L19.1693 30.5958C19.2859 30.6834 19.3733 30.7419 19.4899 30.8296C19.2568 30.5958 19.0819 30.3912 18.9071 30.2451C18.7322 30.0698 18.5865 29.9237 18.47 29.8068C18.2077 29.5438 18.0329 29.31 17.858 28.9886C17.6832 28.6671 17.4792 28.2872 17.1878 27.7028C17.0421 27.4106 16.8381 27.1183 16.5758 26.7092C16.3136 26.3293 16.0222 25.9202 15.6142 25.4235C17.3043 25.9787 18.8779 26.8553 19.927 27.9366C20.4515 28.4626 20.8304 29.047 21.0926 29.573C21.3258 30.1574 21.4132 30.6834 21.3549 31.2387C21.6172 30.9172 21.792 30.2743 21.588 29.3977Z" fill="#CDAF71"></path>
  <path d="M12.729 32.0276C12.9038 31.9691 13.1078 31.8815 13.2535 31.7938C13.6032 31.6185 13.8946 31.4431 14.186 31.2386C14.4483 31.034 14.7105 30.8003 14.8854 30.5373C13.982 31.1509 12.9912 31.3847 11.8839 31.5308C10.8057 31.6769 9.61091 31.6769 8.35787 31.7354C8.56185 31.56 8.7367 31.4139 8.91154 31.2386C9.08638 31.0925 9.26123 30.9756 9.40693 30.8295C9.72748 30.5957 9.98974 30.3619 10.252 30.1866C10.7474 29.8359 11.0971 29.6021 11.4176 29.456C11.7382 29.3099 12.0296 29.2223 12.3793 29.193C12.729 29.1638 13.1661 29.1638 13.778 29.2223C13.2826 29.0761 12.8455 28.93 12.321 28.8716C11.7965 28.8424 11.1554 28.93 10.3686 29.3391C10.2229 29.4268 10.1063 29.5437 9.9606 29.6314C9.8149 29.719 9.69834 29.8359 9.58178 29.9236C9.31951 30.1281 9.08639 30.3035 8.85326 30.4788C8.38701 30.8587 8.00818 31.1509 7.65849 31.4431C7.33795 31.7354 7.04654 31.9399 6.8717 32.086C6.69686 32.2321 6.58029 32.3198 6.58029 32.349C6.34717 32.5828 6.34717 32.5828 6.34717 32.6705C6.34717 32.7289 6.37631 32.8458 6.63857 32.8458C6.726 32.8458 6.95912 32.8166 7.25053 32.7874C7.54193 32.7581 7.92076 32.7289 8.29959 32.6997C9.08638 32.612 10.0189 32.5828 10.7474 32.4659C11.2136 32.4075 11.6799 32.2906 12.0879 32.2029C12.321 32.1737 12.525 32.086 12.729 32.0276Z" fill="#CDAF71"></path>
  <path d="M5.21091 25.1603C5.21091 25.1603 5.38575 25.1895 5.67716 25.2479C5.96856 25.3064 6.40567 25.4525 6.90106 25.5986C7.39645 25.7447 7.97926 26.0077 8.59122 26.2707C8.88262 26.4168 9.20317 26.5921 9.49457 26.7675C9.64028 26.8551 9.78598 26.9428 9.96082 27.0305C10.1065 27.1181 10.2522 27.235 10.4271 27.3519C11.2721 27.7903 11.8841 28.024 12.4378 28.1117C12.9914 28.2286 13.4868 28.1994 14.0114 28.287C13.3703 28.0533 12.9332 27.9656 12.5835 27.8195C12.2338 27.6734 11.9424 27.5565 11.6218 27.3519C11.3013 27.1474 10.9225 26.8844 10.3397 26.5337C10.0482 26.3291 9.69856 26.1538 9.29059 25.92C9.08661 25.8031 8.85348 25.6863 8.59122 25.5694C8.32895 25.4525 8.06669 25.3356 7.77528 25.1895C9.43629 24.9557 11.1847 25.0141 12.6709 25.4525C14.1571 25.8908 15.2936 26.709 15.7889 27.761C15.7598 27.4396 15.6724 27.1181 15.4684 26.7675C15.2936 26.4168 15.0021 26.0661 14.6233 25.7447C14.4485 25.5694 14.2154 25.4233 13.9822 25.2771C13.7491 25.131 13.4868 24.9849 13.1954 24.868C12.6418 24.605 11.9715 24.4297 11.2139 24.2836C10.0774 24.1083 8.6495 24.1083 7.45473 24.2544C6.87192 24.3128 6.34739 24.4297 5.93942 24.4881C5.53146 24.5758 5.24005 24.6635 5.09435 24.6927C4.74466 24.8096 4.74466 24.9265 4.7738 24.9849C4.80294 25.0142 4.80294 25.0141 5.21091 25.1603Z" fill="#CDAF71"></path>
  <path d="M9.34878 29.3683C9.66933 29.1638 9.98987 28.93 10.2813 28.6962C9.11566 29.2806 7.95003 29.5436 6.66785 29.6313C5.4148 29.7482 4.0452 29.719 2.58817 29.6313L2.61731 29.6021H2.58817C3.72465 28.6962 5.00683 27.9949 6.3473 27.6442C7.68777 27.3228 9.08652 27.4104 10.2813 27.9949C9.98987 27.7319 9.66933 27.5273 9.2905 27.352C8.91167 27.1474 8.47456 27.0305 8.00831 26.9429C7.04668 26.7675 5.91019 26.8844 4.68629 27.3228C3.72465 27.6734 2.61731 28.3163 1.77223 28.93C1.56824 29.0761 1.36426 29.2222 1.16028 29.3683C0.985433 29.5144 0.810588 29.6605 0.664885 29.7774C0.373479 30.0112 0.169497 30.1865 0.111216 30.2742C-0.0344874 30.4203 -0.00534772 30.508 0.0237929 30.5664C0.0237929 30.6249 0.0820745 30.7125 0.286059 30.7125C0.402621 30.7125 0.664886 30.7125 1.01457 30.7125C1.18942 30.7125 1.3934 30.6833 1.62653 30.6833C1.85965 30.6833 2.09277 30.6833 2.35504 30.6541C2.61731 30.6541 2.85043 30.6249 3.14183 30.6249C3.4041 30.6249 3.66637 30.6249 3.92863 30.5956C4.45316 30.5664 4.97769 30.5664 5.4148 30.5372C6.58043 30.4495 7.51292 30.245 8.29972 29.9235C8.64941 29.7482 9.02824 29.5436 9.34878 29.3683Z" fill="#CDAF71"></path>
</svg>
