<?xml version="1.0" encoding="UTF-8"?>
<svg xmlns="http://www.w3.org/2000/svg" width="371" height="382" viewBox="0 0 371 382" fill="none">
  <path d="M128.87 40.6476L130.218 45.4322L135.631 45.141C136.15 46.2019 136.731 47.2004 137.394 48.1157L134.574 52.7547L138.141 56.2287L142.683 53.254C143.638 53.8989 144.654 54.4605 145.691 54.939L145.546 60.3685L150.358 61.5958L152.805 56.7488C153.946 56.832 155.107 56.8112 156.269 56.6864L158.862 61.471L163.632 60.1188L163.342 54.6894C164.4 54.1693 165.395 53.5868 166.308 52.9211L170.933 55.7503L174.397 52.1722L171.431 47.6165C172.074 46.6596 172.634 45.6402 173.111 44.6001L178.524 44.7457L179.748 39.9195L174.915 37.4648C174.998 36.3207 174.978 35.1557 174.853 33.9908L179.624 31.3905L178.275 26.6059L172.862 26.8971C172.343 25.8362 171.763 24.8377 171.099 23.9223L173.941 19.325L170.373 15.851L165.831 18.8257C164.877 18.1808 163.86 17.6192 162.823 17.1407L162.968 11.7112L158.156 10.4839L155.709 15.3309C154.568 15.2477 153.407 15.2685 152.245 15.3933L149.653 10.6087L144.882 11.9609L145.172 17.3903C144.115 17.9104 143.119 18.4929 142.206 19.1586L137.581 16.3294L134.117 19.9075L137.083 24.4632C136.44 25.4201 135.88 26.4395 135.403 27.4796L129.99 27.334L128.766 32.1602L133.599 34.6149C133.516 35.759 133.537 36.924 133.661 38.0889L128.87 40.6476ZM150.773 23.7143C157.555 21.7797 164.628 25.753 166.557 32.5554C168.486 39.3579 164.524 46.4515 157.742 48.3862C150.959 50.3208 143.886 46.3475 141.958 39.5451C140.029 32.7218 143.99 25.6282 150.773 23.7143Z" fill="#F2F2F7"></path>
  <path d="M150.358 62.0949C150.316 62.0949 150.275 62.0949 150.254 62.0741L145.442 60.8468C145.234 60.7844 145.089 60.5972 145.089 60.3891L145.214 55.2509C144.343 54.8348 143.471 54.3564 142.663 53.8155L138.369 56.6239C138.182 56.7487 137.954 56.7279 137.788 56.5615L134.221 53.0874C134.076 52.9418 134.034 52.6922 134.159 52.505L136.834 48.1364C136.295 47.3459 135.776 46.493 135.341 45.6193L130.239 45.8897C130.031 45.9105 129.824 45.7649 129.761 45.5569L128.413 40.7723C128.351 40.5643 128.455 40.3355 128.641 40.2314L133.142 37.7767C133.059 36.799 133.039 35.8005 133.101 34.8436L128.538 32.5137C128.351 32.4097 128.247 32.2016 128.289 31.9936L129.513 27.1674C129.575 26.9594 129.761 26.8138 129.969 26.8138L135.092 26.9386C135.507 26.0649 135.984 25.1912 136.523 24.3799L133.723 20.0737C133.599 19.8865 133.619 19.6577 133.785 19.4913L137.249 15.9132C137.394 15.7676 137.643 15.726 137.83 15.8508L142.185 18.5344C142.974 17.9935 143.824 17.4734 144.695 17.0366L144.426 11.9191C144.405 11.7111 144.55 11.5031 144.757 11.4407L149.528 10.0885C149.735 10.0261 149.963 10.1301 150.067 10.3173L152.515 14.8315C153.489 14.7483 154.485 14.7275 155.439 14.7899L157.762 10.2133C157.866 10.0261 158.073 9.92209 158.281 9.9637L163.093 11.191C163.3 11.2535 163.445 11.4407 163.445 11.6487L163.279 16.8285C164.15 17.2446 165.022 17.7231 165.83 18.2639L170.124 15.4556C170.311 15.3308 170.539 15.3516 170.705 15.518L174.272 18.992C174.417 19.1376 174.459 19.3873 174.334 19.5745L171.659 23.943C172.198 24.7335 172.717 25.5864 173.152 26.4601L178.254 26.1897C178.462 26.1689 178.669 26.3145 178.732 26.5225L180.08 31.3071C180.142 31.5152 180.038 31.744 179.852 31.848L175.351 34.3027C175.434 35.2804 175.454 36.279 175.392 37.2359L179.955 39.5658C180.142 39.6698 180.246 39.8778 180.204 40.0858L178.98 44.912C178.918 45.12 178.732 45.2657 178.524 45.2657L173.401 45.1408C172.986 46.0146 172.509 46.8883 171.97 47.6996L174.77 52.0057C174.894 52.1929 174.874 52.4217 174.708 52.5882L171.244 56.1662C171.099 56.3118 170.85 56.3534 170.663 56.2286L166.308 53.5451C165.519 54.086 164.669 54.606 163.798 55.0429L164.067 60.1603C164.088 60.3683 163.943 60.5764 163.736 60.6388L158.965 61.9909C158.758 62.0533 158.53 61.9493 158.426 61.7621L155.978 57.2479C155.004 57.3312 154.008 57.352 153.054 57.2895L150.731 61.8661C150.689 61.9909 150.523 62.0949 150.358 62.0949ZM146.002 60.0355L150.109 61.0756L152.39 56.5615C152.473 56.395 152.66 56.291 152.826 56.3118C153.925 56.395 155.066 56.3742 156.207 56.2494C156.393 56.2286 156.559 56.3326 156.663 56.4991L159.069 60.9508L163.134 59.8067L162.864 54.7516C162.864 54.5644 162.947 54.398 163.113 54.3148C164.13 53.8155 165.125 53.233 166.017 52.5882C166.162 52.4842 166.37 52.4634 166.536 52.5674L170.829 55.2093L173.774 52.1721L171.016 47.9284C170.912 47.7828 170.912 47.5747 171.016 47.4083C171.638 46.4722 172.198 45.4737 172.675 44.4544C172.758 44.2879 172.924 44.1839 173.111 44.1839L178.172 44.3087L179.209 40.1898L174.708 37.9016C174.542 37.8183 174.438 37.6519 174.459 37.4647C174.542 36.3622 174.521 35.218 174.397 34.0739C174.376 33.8867 174.48 33.7202 174.646 33.6162L179.084 31.2031L177.943 27.1258L172.903 27.3963C172.717 27.3963 172.551 27.313 172.468 27.1258C171.97 26.0857 171.389 25.108 170.746 24.2135C170.642 24.0678 170.622 23.8598 170.725 23.6934L173.36 19.3873L170.331 16.4333L166.1 19.2C165.955 19.3041 165.748 19.3041 165.582 19.2C164.648 18.576 163.653 18.0143 162.636 17.5566C162.47 17.4734 162.367 17.307 162.367 17.1198L162.491 12.044L158.384 11.0038L156.103 15.518C156.02 15.6844 155.854 15.7884 155.667 15.7676C154.568 15.6844 153.427 15.7052 152.286 15.83C152.1 15.8508 151.934 15.7468 151.83 15.5804L149.424 11.1286L145.359 12.2728L145.629 17.3278C145.629 17.515 145.546 17.6815 145.38 17.7647C144.343 18.2639 143.368 18.8464 142.476 19.4913C142.331 19.5953 142.123 19.6161 141.957 19.5121L137.664 16.8701L134.719 19.9073L137.477 24.1511C137.581 24.2967 137.581 24.5047 137.477 24.6711C136.855 25.6072 136.295 26.6058 135.839 27.6251C135.756 27.7915 135.59 27.8955 135.403 27.8955L130.342 27.7707L129.305 31.8896L133.806 34.1779C133.972 34.2611 134.076 34.4275 134.055 34.6147C133.972 35.7173 133.993 36.8614 134.117 38.0056C134.138 38.1928 134.034 38.3592 133.868 38.4632L129.43 40.8763L130.57 44.9536L135.611 44.6832C135.797 44.6832 135.963 44.7664 136.046 44.9328C136.544 45.9729 137.125 46.9507 137.768 47.8452C137.871 47.9908 137.892 48.1988 137.788 48.3652L135.154 52.6714L138.182 55.6253L142.414 52.8586C142.559 52.7546 142.766 52.7546 142.932 52.8586C143.866 53.4827 144.861 54.0443 145.877 54.502C146.043 54.5852 146.147 54.7516 146.147 54.9389L146.002 60.0355ZM154.236 49.3222C151.996 49.3222 149.798 48.7397 147.786 47.6372C144.695 45.9105 142.476 43.0814 141.501 39.649C140.547 36.2373 140.962 32.6593 142.683 29.5597C144.405 26.4601 147.226 24.2343 150.648 23.2565C154.049 22.2996 157.617 22.7157 160.707 24.4423C163.798 26.1689 166.017 28.9981 166.992 32.4305C167.946 35.8421 167.531 39.4201 165.81 42.5197C164.088 45.6193 161.267 47.8452 157.845 48.8229C156.663 49.1557 155.439 49.3222 154.236 49.3222ZM150.897 24.1511C147.723 25.0456 145.11 27.1258 143.492 30.0174C141.895 32.8881 141.501 36.2373 142.393 39.3993C143.285 42.5821 145.359 45.2033 148.242 46.8259C151.104 48.4277 154.444 48.8229 157.596 47.9284C160.77 47.0339 163.383 44.9536 165.001 42.0621C166.598 39.1913 166.992 35.8421 166.1 32.6801C165.208 29.4973 163.134 26.8762 160.251 25.2536C157.389 23.6518 154.07 23.2565 150.897 24.1511Z" fill="#7A7A7A"></path>
  <path d="M49.8871 91.0522L52.1894 99.2484L61.4607 98.7491C62.3318 100.559 63.3482 102.265 64.4889 103.846L59.6562 111.772L65.7541 117.721L73.5321 112.645C75.1707 113.748 76.8922 114.726 78.6967 115.537L78.4478 124.836L86.682 126.937L90.8718 118.657C92.8214 118.803 94.7919 118.761 96.783 118.574L101.201 126.749L109.373 124.44L108.875 115.142C110.68 114.268 112.38 113.249 113.957 112.104L121.859 116.951L127.791 110.835L122.73 103.034C123.83 101.391 124.804 99.6645 125.613 97.8546L134.885 98.1043L136.98 89.8457L128.725 85.6435C128.87 83.6881 128.828 81.7118 128.642 79.7148L136.793 75.2839L134.491 67.0876L125.219 67.5869C124.348 65.7771 123.332 64.0713 122.191 62.4903L127.024 54.5645L120.926 48.615L113.148 53.6908C111.509 52.5882 109.788 51.6105 107.983 50.7992L108.232 41.5005L99.9979 39.3994L95.8082 47.6788C93.8585 47.5332 91.8881 47.5748 89.8969 47.762L85.479 39.5866L77.307 41.8957L77.8048 51.1945C76.0003 52.0682 74.2995 53.0875 72.7232 54.2316L64.8208 49.3846L58.8681 55.4798L63.9289 63.2808C62.8296 64.9242 61.8548 66.6508 61.0459 68.4606L51.7746 68.211L49.6797 76.4696L57.9347 80.6717C57.7895 82.6272 57.831 84.6034 58.0177 86.6004L49.8871 91.0522ZM87.3872 62.0534C99.0023 58.7666 111.094 65.5274 114.372 77.1977C117.649 88.8471 110.908 100.975 99.272 104.262C87.6569 107.549 75.5647 100.788 72.2876 89.1176C69.0105 77.4681 75.7514 65.361 87.3872 62.0534Z" fill="#F2F2F7"></path>
  <path d="M86.6611 127.394C86.6196 127.394 86.5782 127.394 86.5574 127.373L78.3231 125.272C78.1157 125.21 77.9705 125.023 77.9705 124.815L78.1987 115.807C76.5809 115.058 75.0045 114.164 73.5112 113.165L65.9821 118.075C65.7954 118.2 65.5673 118.179 65.4014 118.012L59.3034 112.063C59.1582 111.917 59.1168 111.668 59.2412 111.48L63.9287 103.825C62.9124 102.369 61.9791 100.809 61.1909 99.186L52.2307 99.6644C52.0233 99.6852 51.8159 99.5396 51.7536 99.3316L49.4514 91.1354C49.3891 90.9274 49.4928 90.6985 49.6795 90.5945L57.5612 86.3092C57.3952 84.4994 57.3745 82.6895 57.4782 80.9005L49.4928 76.8232C49.3062 76.7192 49.2025 76.5112 49.2439 76.3031L51.3388 68.0445C51.401 67.8365 51.567 67.6909 51.7951 67.6909L60.7761 67.9197C61.5227 66.2971 62.4146 64.7161 63.4102 63.2183L58.4738 55.7294C58.3493 55.5422 58.3701 55.3134 58.536 55.1469L64.468 49.031C64.6132 48.8854 64.8621 48.8437 65.0488 48.9686L72.6815 53.6699C74.1334 52.6506 75.689 51.7145 77.3068 50.924L76.8298 41.9373C76.809 41.7293 76.9542 41.5212 77.1616 41.4588L85.3337 39.1497C85.5411 39.0873 85.7692 39.1914 85.873 39.3786L90.1456 47.2836C91.9501 47.1171 93.7546 47.0963 95.5384 47.2003L99.6036 39.1914C99.7073 39.0041 99.9148 38.9001 100.122 38.9417L108.356 41.0428C108.564 41.1052 108.709 41.2924 108.709 41.5004L108.481 50.508C110.099 51.2568 111.675 52.1514 113.168 53.1499L120.697 48.2405C120.884 48.1157 121.112 48.1365 121.278 48.3029L127.376 54.2524C127.521 54.398 127.563 54.6477 127.438 54.8349L122.751 62.4902C123.767 63.9464 124.68 65.5066 125.489 67.1292L134.449 66.6507C134.656 66.6299 134.864 66.7756 134.926 66.9836L137.228 75.1798C137.29 75.3878 137.187 75.6167 137 75.7207L129.118 80.006C129.284 81.8158 129.305 83.6257 129.201 85.4147L137.187 89.492C137.373 89.596 137.477 89.804 137.436 90.012L135.341 98.2707C135.279 98.4787 135.092 98.6243 134.884 98.6243L125.904 98.3955C125.157 100.018 124.265 101.599 123.269 103.097L128.164 110.648C128.289 110.835 128.268 111.064 128.102 111.231L122.17 117.347C122.025 117.492 121.776 117.534 121.589 117.409L113.957 112.708C112.505 113.727 110.949 114.663 109.331 115.454L109.808 124.44C109.829 124.648 109.684 124.856 109.476 124.919L101.304 127.228C101.097 127.29 100.869 127.186 100.765 126.999L96.4925 119.094C94.688 119.26 92.8835 119.281 91.0997 119.177L87.0759 127.145C86.993 127.311 86.827 127.394 86.6611 127.394ZM78.8832 124.482L86.4122 126.396L90.436 118.449C90.519 118.283 90.7057 118.179 90.8716 118.2C92.7798 118.324 94.7502 118.304 96.7206 118.116C96.9073 118.096 97.0732 118.2 97.1769 118.366L101.429 126.209L108.896 124.087L108.419 115.162C108.419 114.975 108.502 114.809 108.668 114.725C110.431 113.852 112.131 112.853 113.687 111.73C113.832 111.626 114.04 111.605 114.205 111.709L121.797 116.369L127.21 110.794L122.357 103.305C122.253 103.159 122.253 102.951 122.357 102.785C123.435 101.162 124.41 99.4564 125.198 97.6674C125.281 97.501 125.447 97.3969 125.634 97.3969L134.532 97.6258L136.44 90.0744L128.517 86.0387C128.351 85.9555 128.247 85.7891 128.268 85.6019C128.392 83.6881 128.372 81.7118 128.185 79.7356C128.164 79.5483 128.268 79.3819 128.434 79.2779L136.253 75.0134L134.138 67.5245L125.24 68.0029C125.053 68.0029 124.887 67.9197 124.804 67.7533C123.933 65.9643 122.938 64.2793 121.817 62.7191C121.714 62.5734 121.693 62.3654 121.797 62.199L126.443 54.5853L120.884 49.1974L113.417 54.0652C113.272 54.1692 113.065 54.1692 112.899 54.0652C111.281 52.9835 109.58 52.0057 107.796 51.2152C107.63 51.132 107.527 50.9656 107.527 50.7784L107.755 41.8541L100.226 39.9402L96.2021 47.8868C96.1191 48.0533 95.9532 48.1573 95.7665 48.1365C93.8583 48.0116 91.8879 48.0324 89.9175 48.2197C89.7308 48.2405 89.5649 48.1365 89.4612 47.97L85.23 40.1275L77.7631 42.2493L78.2402 51.1736C78.2402 51.3609 78.1572 51.5273 77.9913 51.6105C76.2075 52.4842 74.5275 53.4827 72.9719 54.6061C72.8267 54.7101 72.6193 54.7309 72.4534 54.6269L64.8621 49.9671L59.4486 55.5422L64.3021 63.0311C64.4058 63.1767 64.4058 63.3847 64.3021 63.5512C63.2235 65.1738 62.2694 66.8796 61.4605 68.6686C61.3776 68.835 61.2116 68.939 61.025 68.939L52.127 68.7102L50.2188 76.2615L58.1419 80.2972C58.3079 80.3804 58.4116 80.5469 58.3908 80.7341C58.2664 82.6479 58.2871 84.6242 58.4738 86.6004C58.4945 86.7876 58.3908 86.9541 58.2249 87.0581L50.4054 91.3226L52.5211 98.8115L61.419 98.3331C61.6057 98.3123 61.7716 98.4163 61.8546 98.5827C62.7257 100.372 63.7213 102.057 64.8413 103.617C64.945 103.763 64.9658 103.971 64.8621 104.137L60.2161 111.751L65.7747 117.18L73.2415 112.312C73.3867 112.208 73.5941 112.208 73.7601 112.312C75.3779 113.394 77.0787 114.372 78.8624 115.162C79.0283 115.246 79.1321 115.412 79.1321 115.599L78.8832 124.482ZM93.3398 105.572C83.5914 105.572 74.6312 99.1236 71.8519 89.2631C68.5125 77.3849 75.4194 64.9865 87.2626 61.6165C93.0079 59.9939 99.0229 60.7012 104.229 63.6136C109.435 66.5259 113.189 71.3105 114.828 77.0728C116.446 82.8352 115.74 88.8679 112.837 94.0893C109.933 99.3108 105.162 103.076 99.417 104.719C97.3843 105.281 95.3517 105.572 93.3398 105.572ZM93.3605 61.6789C91.4109 61.6789 89.4404 61.9494 87.5115 62.4902C76.1453 65.7146 69.5289 77.5929 72.7438 88.9927C75.9586 100.393 87.8019 107.029 99.1681 103.804C104.664 102.244 109.228 98.6243 112.028 93.6317C114.828 88.6183 115.491 82.8352 113.936 77.3017C112.38 71.789 108.771 67.2124 103.793 64.4041C100.537 62.6151 96.9695 61.6789 93.3605 61.6789Z" fill="#7A7A7A"></path>
  <path d="M359.554 1.06006H263.999C260.266 1.06006 257.237 4.09723 257.237 7.8417V113.581C257.237 117.326 260.266 120.363 263.999 120.363H359.554C363.287 120.363 366.315 117.326 366.315 113.581V7.8417C366.295 4.09723 363.266 1.06006 359.554 1.06006Z" fill="#F2F2F7"></path>
  <path d="M359.554 120.821H263.999C260.016 120.821 256.781 117.575 256.781 113.581V7.84183C256.781 3.84774 260.016 0.602539 263.999 0.602539H359.554C363.536 0.602539 366.771 3.84774 366.771 7.84183V113.581C366.751 117.575 363.515 120.821 359.554 120.821ZM263.999 1.53865C260.535 1.53865 257.714 4.3678 257.714 7.84183V113.581C257.714 117.055 260.535 119.885 263.999 119.885H359.554C363.017 119.885 365.838 117.055 365.838 113.581V7.84183C365.838 4.3678 363.017 1.53865 359.554 1.53865H263.999Z" fill="#7A7A7A"></path>
  <path d="M361.026 12.6468H262.609C262.36 12.6468 262.153 12.4387 262.153 12.1891C262.153 11.9395 262.36 11.7314 262.609 11.7314H361.026C361.275 11.7314 361.483 11.9395 361.483 12.1891C361.483 12.4387 361.275 12.6468 361.026 12.6468Z" fill="#7A7A7A"></path>
  <path d="M264.331 8.00791C265.282 8.00791 266.052 7.23488 266.052 6.2813C266.052 5.32772 265.282 4.55469 264.331 4.55469C263.38 4.55469 262.609 5.32772 262.609 6.2813C262.609 7.23488 263.38 8.00791 264.331 8.00791Z" fill="#7A7A7A"></path>
  <path d="M271.259 8.00791C272.209 8.00791 272.98 7.23488 272.98 6.2813C272.98 5.32772 272.209 4.55469 271.259 4.55469C270.308 4.55469 269.537 5.32772 269.537 6.2813C269.537 7.23488 270.308 8.00791 271.259 8.00791Z" fill="#CDAF71"></path>
  <path d="M278.186 8.00791C279.137 8.00791 279.907 7.23488 279.907 6.2813C279.907 5.32772 279.137 4.55469 278.186 4.55469C277.235 4.55469 276.464 5.32772 276.464 6.2813C276.464 7.23488 277.235 8.00791 278.186 8.00791Z" fill="#7A7A7A"></path>
  <path d="M361.026 6.73904H351.278C351.029 6.73904 350.822 6.53102 350.822 6.28139C350.822 6.03176 351.029 5.82373 351.278 5.82373H361.026C361.275 5.82373 361.483 6.03176 361.483 6.28139C361.483 6.53102 361.275 6.73904 361.026 6.73904Z" fill="#7A7A7A"></path>
  <path d="M346.88 6.73904H306.497C306.248 6.73904 306.041 6.53102 306.041 6.28139C306.041 6.03176 306.248 5.82373 306.497 5.82373H346.88C347.129 5.82373 347.337 6.03176 347.337 6.28139C347.337 6.53102 347.129 6.73904 346.88 6.73904Z" fill="#7A7A7A"></path>
  <path d="M295.878 6.73904H287.27C287.021 6.73904 286.814 6.53102 286.814 6.28139C286.814 6.03176 287.021 5.82373 287.27 5.82373H295.878C296.127 5.82373 296.334 6.03176 296.334 6.28139C296.334 6.53102 296.127 6.73904 295.878 6.73904Z" fill="#7A7A7A"></path>
  <path d="M295.215 57.6433C298.367 52.1307 304.216 48.2198 311.019 47.5125L311.496 20.5107C291.958 20.5731 274.702 31.6193 266.861 47.9493L295.215 57.6433Z" fill="#F2F2F7"></path>
  <path d="M295.214 58.1008C295.173 58.1008 295.111 58.1008 295.069 58.08L266.695 48.386C266.571 48.3444 266.467 48.2404 266.426 48.1364C266.384 48.0116 266.384 47.866 266.426 47.762C274.494 30.9951 292.186 20.1361 311.476 20.0737C311.621 20.0737 311.724 20.1153 311.807 20.2193C311.89 20.3026 311.953 20.4274 311.932 20.5522L311.455 47.5539C311.455 47.7828 311.268 47.9908 311.04 48.0116C304.507 48.6981 298.74 52.3801 295.588 57.9136C295.546 58.0176 295.38 58.1008 295.214 58.1008ZM267.504 47.6787L295.007 57.0815C298.263 51.6104 304.029 47.9076 310.563 47.0963L311.019 20.989C292.435 21.2179 275.448 31.64 267.504 47.6787Z" fill="#7A7A7A"></path>
  <path d="M293.887 28.3324C293.7 28.3324 293.534 28.2284 293.451 28.0412C293.347 27.8123 293.472 27.5419 293.7 27.4379C298.118 25.6489 302.764 24.5255 307.514 24.1095C307.762 24.0887 307.991 24.2759 308.011 24.5255C308.032 24.7752 307.845 25.004 307.597 25.0248C302.93 25.4201 298.367 26.5226 294.053 28.2908C294.011 28.3116 293.949 28.3324 293.887 28.3324Z" fill="#7A7A7A"></path>
  <path d="M278.31 38.7335C278.186 38.7335 278.082 38.6919 277.978 38.6087C277.792 38.4214 277.792 38.1302 277.978 37.9638C281.318 34.5522 285.176 31.6814 289.469 29.4139C289.697 29.2891 289.967 29.3723 290.091 29.6012C290.216 29.83 290.133 30.1004 289.905 30.2252C285.694 32.4303 281.919 35.2595 278.642 38.5879C278.559 38.6919 278.435 38.7335 278.31 38.7335Z" fill="#7A7A7A"></path>
  <path d="M332.922 69.6045C331.325 78.4664 323.257 85.4352 313.404 85.7473C310.459 85.8305 307.659 85.3312 305.108 84.3327L289.697 108.256C296.853 111.501 304.942 113.082 313.404 112.603C338.004 111.189 357.355 92.6121 359.512 70.2494L332.922 69.6045Z" fill="#F2F2F7"></path>
  <path d="M310.439 113.144C303.179 113.144 295.982 111.626 289.49 108.672C289.365 108.609 289.282 108.505 289.241 108.381C289.199 108.256 289.22 108.11 289.303 108.006L304.714 84.0832C304.838 83.896 305.067 83.8128 305.274 83.896C307.846 84.8945 310.584 85.373 313.404 85.2898C322.862 84.9985 330.889 78.3625 332.486 69.5214C332.528 69.2926 332.735 69.147 332.943 69.147L359.512 69.7919C359.637 69.7919 359.761 69.8543 359.844 69.9375C359.927 70.0415 359.969 70.1663 359.969 70.2911C357.77 93.278 337.755 111.667 313.446 113.061C312.43 113.124 311.434 113.144 310.439 113.144ZM290.361 108.069C297.496 111.189 305.419 112.604 313.363 112.146C337.049 110.773 356.567 93.0075 358.973 70.7072L333.295 70.0831C331.449 79.153 323.153 85.9138 313.404 86.2259C310.584 86.3091 307.867 85.8722 305.274 84.9153L290.361 108.069Z" fill="#7A7A7A"></path>
  <path d="M310.397 109.275C305.212 109.275 300.13 108.443 295.339 106.82C295.09 106.737 294.966 106.467 295.049 106.238C295.132 105.988 295.401 105.863 295.629 105.947C300.338 107.548 305.295 108.339 310.397 108.339C311.31 108.339 312.243 108.318 313.156 108.256C313.405 108.235 313.633 108.443 313.653 108.693C313.674 108.942 313.467 109.171 313.218 109.192C312.264 109.254 311.33 109.275 310.397 109.275Z" fill="#7A7A7A"></path>
  <path d="M322.904 107.611C322.696 107.611 322.509 107.465 322.468 107.278C322.406 107.029 322.551 106.779 322.8 106.717C338.957 102.306 351.443 89.4297 354.596 73.9317C354.638 73.6821 354.887 73.5157 355.135 73.5781C355.384 73.6197 355.55 73.8693 355.488 74.119C352.273 89.9497 339.517 103.097 323.028 107.611C322.987 107.611 322.945 107.611 322.904 107.611Z" fill="#7A7A7A"></path>
  <path d="M284.864 105.739L300.4 81.7534C295.754 78.3001 292.767 72.9331 292.767 66.8379C292.767 65.3609 292.933 63.9255 293.265 62.5526L264.787 52.9834C263.252 57.4768 262.422 62.2613 262.422 67.2124C262.443 83.6256 271.424 97.7505 284.864 105.739Z" fill="#F2F2F7"></path>
  <path d="M284.864 106.217C284.781 106.217 284.698 106.196 284.636 106.155C270.449 97.7089 261.987 83.1679 261.987 67.2123C261.987 62.3029 262.796 57.4767 264.372 52.8169C264.455 52.5673 264.725 52.4425 264.953 52.5257L293.431 62.0949C293.659 62.1781 293.783 62.4069 293.742 62.6357C293.41 64.0087 293.244 65.4025 293.244 66.817C293.244 72.5377 295.961 77.8424 300.69 81.358C300.877 81.5037 300.939 81.7741 300.794 81.9821L285.258 105.967C285.155 106.134 285.01 106.217 284.864 106.217ZM265.098 53.5658C263.646 57.9759 262.92 62.5733 262.92 67.2123C262.92 82.6894 271.071 96.8144 284.719 105.115L299.777 81.8573C295.028 78.1752 292.29 72.7042 292.29 66.817C292.29 65.4857 292.435 64.1335 292.725 62.8229L265.098 53.5658Z" fill="#7A7A7A"></path>
  <path d="M319.855 46.493C328.836 47.8244 335.743 54.814 336.572 63.4471L380.025 64.7161C380.025 64.6953 380.025 64.6745 380.025 64.6537C380.025 32.6801 354.617 5.32472 320.643 1.80908L319.855 46.493Z" fill="#CDAF71"></path>
  <path d="M380.025 65.1735L336.572 63.9045C336.344 63.9045 336.157 63.7173 336.116 63.4885C335.307 55.0634 328.608 48.261 319.793 46.9504C319.564 46.9088 319.398 46.7216 319.398 46.4928L320.187 1.80885C320.187 1.68404 320.249 1.55922 320.353 1.47601C320.456 1.3928 320.581 1.3512 320.705 1.372C337.194 3.07781 352.377 10.5043 363.432 22.2786C374.446 33.9904 380.502 49.0515 380.502 64.695C380.502 64.8199 380.461 64.9655 380.357 65.0487C380.253 65.1111 380.149 65.1735 380.025 65.1735ZM336.987 63.01L379.569 64.2374C379.341 32.4926 354.327 5.99017 321.099 2.32892L320.332 46.0975C329.209 47.5953 335.991 54.4602 336.987 63.01Z" fill="#CDAF71"></path>
  <path d="M271.134 53.1494H214.261C211.461 53.1494 209.18 55.4377 209.18 58.246V134.03C209.18 136.838 211.461 139.126 214.261 139.126H271.134C273.934 139.126 276.215 136.838 276.215 134.03V58.246C276.215 55.4377 273.934 53.1494 271.134 53.1494Z" fill="#F2F2F7"></path>
  <path d="M271.133 139.584H214.261C211.212 139.584 208.723 137.088 208.723 134.03V58.2462C208.723 55.1882 211.212 52.6919 214.261 52.6919H271.133C274.182 52.6919 276.671 55.1882 276.671 58.2462V134.03C276.671 137.088 274.182 139.584 271.133 139.584ZM214.261 53.6072C211.71 53.6072 209.656 55.6875 209.656 58.2254V134.009C209.656 136.568 211.731 138.627 214.261 138.627H271.133C273.685 138.627 275.738 136.547 275.738 134.009V58.2462C275.738 55.6875 273.664 53.628 271.133 53.628H214.261V53.6072Z" fill="#7A7A7A"></path>
  <path d="M231.766 77.7173H217.165V125.834H231.766V77.7173Z" fill="#F2F2F7"></path>
  <path d="M231.767 126.291H217.165C216.916 126.291 216.708 126.083 216.708 125.834V77.7174C216.708 77.4678 216.916 77.2598 217.165 77.2598H231.767C232.016 77.2598 232.223 77.4678 232.223 77.7174V125.834C232.223 126.083 232.016 126.291 231.767 126.291ZM217.621 125.376H231.29V78.1751H217.621V125.376Z" fill="#7A7A7A"></path>
  <path d="M249.998 64.4453H235.396V125.834H249.998V64.4453Z" fill="#CDAF71"></path>
  <path d="M249.998 126.292H235.396C235.147 126.292 234.94 126.083 234.94 125.834V64.4454C234.94 64.1958 235.147 63.9878 235.396 63.9878H249.998C250.247 63.9878 250.454 64.1958 250.454 64.4454V125.834C250.454 126.083 250.247 126.292 249.998 126.292ZM235.873 125.376H249.542V64.9031H235.873V125.376Z" fill="#CDAF71"></path>
  <path d="M268.25 97.147H253.648V125.834H268.25V97.147Z" fill="#F2F2F7"></path>
  <path d="M268.251 126.292H253.649C253.4 126.292 253.192 126.083 253.192 125.834V97.1471C253.192 96.8975 253.4 96.6895 253.649 96.6895H268.251C268.499 96.6895 268.707 96.8975 268.707 97.1471V125.834C268.707 126.083 268.499 126.292 268.251 126.292ZM254.105 125.376H267.773V97.6048H254.105V125.376Z" fill="#7A7A7A"></path>
  <path d="M157.679 311.913L158.965 324.104L167.179 325.081V310.624L157.679 311.913Z" fill="#F2F2F7"></path>
  <path d="M167.178 325.539C167.158 325.539 167.137 325.539 167.116 325.539L158.903 324.582C158.695 324.561 158.529 324.395 158.488 324.166L157.202 311.975C157.181 311.726 157.347 311.497 157.596 311.476L167.096 310.186C167.22 310.166 167.365 310.207 167.469 310.29C167.573 310.374 167.635 310.499 167.635 310.644V325.102C167.635 325.227 167.573 325.352 167.49 325.456C167.407 325.497 167.303 325.539 167.178 325.539ZM159.38 323.687L166.722 324.54V311.143L158.198 312.308L159.38 323.687Z" fill="#7A7A7A"></path>
  <path d="M168.485 346.299C165.063 346.778 159.442 347.215 152.846 346.299C150.689 346.008 149.258 343.907 149.776 341.764C151.228 335.857 153.738 324.623 158.031 319.423L159.089 322.252L160.562 319.589C160.769 319.235 161.122 318.986 161.537 318.923L164.772 318.507C165.436 318.424 166.079 318.861 166.203 319.527L166.722 321.981L167.842 318.778L171.596 342.181C171.845 344.178 170.455 346.008 168.485 346.299Z" fill="#F2F2F7"></path>
  <path d="M160.707 347.298C158.301 347.298 155.626 347.152 152.784 346.757C151.623 346.591 150.586 345.946 149.922 344.968C149.258 343.99 149.051 342.784 149.32 341.661L149.631 340.392C151.104 334.296 153.593 324.062 157.658 319.131C157.762 319.006 157.928 318.944 158.094 318.965C158.26 318.986 158.384 319.111 158.446 319.256L159.152 321.149L160.147 319.36C160.417 318.861 160.915 318.528 161.475 318.466L164.71 318.05C165.602 317.925 166.473 318.549 166.66 319.443L166.826 320.275L167.407 318.632C167.469 318.424 167.676 318.299 167.884 318.32C168.091 318.341 168.257 318.507 168.299 318.715L172.053 342.118C172.343 344.386 170.767 346.466 168.547 346.778C166.515 347.048 163.839 347.298 160.707 347.298ZM157.866 320.359C154.215 325.33 151.913 334.837 150.523 340.6L150.212 341.889C149.984 342.784 150.15 343.699 150.669 344.469C151.187 345.218 151.996 345.738 152.888 345.863C159.359 346.757 164.897 346.362 168.402 345.863C170.124 345.613 171.348 344.011 171.119 342.264L167.656 320.691L167.137 322.189C167.075 322.377 166.867 322.522 166.681 322.501C166.473 322.481 166.307 322.335 166.266 322.127L165.747 319.672C165.664 319.235 165.25 318.944 164.814 319.006L161.578 319.423C161.309 319.464 161.081 319.61 160.956 319.859L159.484 322.522C159.401 322.689 159.235 322.772 159.048 322.751C158.861 322.73 158.716 322.626 158.654 322.46L157.866 320.359Z" fill="#7A7A7A"></path>
  <path d="M158.965 343.366C156.766 343.366 154.402 343.179 152.037 342.638C151.788 342.576 151.643 342.326 151.685 342.076C151.747 341.827 151.996 341.681 152.245 341.723C160.292 343.553 168.734 341.203 168.817 341.182C169.066 341.12 169.315 341.244 169.398 341.494C169.46 341.744 169.336 341.993 169.087 342.076C168.817 342.139 164.441 343.366 158.965 343.366Z" fill="#7A7A7A"></path>
  <path d="M156.994 334.317C156.745 334.317 156.538 334.13 156.538 333.859C156.538 333.61 156.725 333.381 156.994 333.381L164.689 333.131C164.938 333.131 165.166 333.319 165.166 333.589C165.166 333.839 164.98 334.067 164.71 334.067L156.994 334.317Z" fill="#7A7A7A"></path>
  <path d="M196.175 305.422L197.419 323.229H207.292L207.748 305.422H196.175Z" fill="#F2F2F7"></path>
  <path d="M207.292 323.687H197.419C197.17 323.687 196.984 323.5 196.963 323.25L195.739 305.464C195.739 305.339 195.781 305.214 195.864 305.11C195.947 305.006 196.071 304.965 196.196 304.965H207.769C207.894 304.965 208.018 305.006 208.101 305.11C208.184 305.194 208.225 305.318 208.225 305.443L207.769 323.23C207.748 323.479 207.541 323.687 207.292 323.687ZM197.834 322.751H206.836L207.271 305.88H196.652L197.834 322.751Z" fill="#7A7A7A"></path>
  <path d="M194.826 333.257C194.806 334.942 195.946 336.419 197.585 336.793C203.268 338.124 216.065 341.078 219.737 341.619C224.486 342.326 230.294 340.87 232.804 338.083C235.313 335.295 227.204 328.659 223.346 326.246C217.621 322.647 212.125 315.554 209.822 315.242C207.52 314.929 203.206 321.628 203.206 321.628L196.175 318.674C196.175 318.674 194.951 324.727 194.826 333.257Z" fill="#F2F2F7"></path>
  <path d="M222.205 342.264C221.334 342.264 220.484 342.202 219.654 342.077C215.962 341.536 202.916 338.52 197.482 337.251C195.656 336.814 194.35 335.149 194.37 333.256C194.495 324.769 195.719 318.653 195.739 318.591C195.76 318.445 195.864 318.341 195.967 318.279C196.092 318.216 196.237 318.216 196.362 318.258L203.04 321.066C204.139 319.423 207.603 314.472 209.885 314.805C211.191 314.992 213.058 316.76 215.63 319.215C218.036 321.503 220.774 324.103 223.574 325.872C226.664 327.806 233.219 332.944 233.696 336.418C233.799 337.209 233.613 337.875 233.136 338.395C231.02 340.766 226.54 342.264 222.205 342.264ZM196.527 319.34C196.237 321.025 195.387 326.35 195.283 333.277C195.262 334.733 196.279 336.023 197.689 336.356C203.123 337.625 216.128 340.621 219.799 341.182C224.549 341.89 230.108 340.413 232.451 337.791C232.742 337.459 232.845 337.063 232.783 336.564C232.368 333.61 226.27 328.659 223.097 326.662C220.214 324.852 217.435 322.21 215.008 319.901C212.83 317.821 210.777 315.866 209.76 315.741C208.308 315.533 205.218 319.423 203.6 321.919C203.476 322.106 203.248 322.189 203.04 322.085L196.527 319.34Z" fill="#7A7A7A"></path>
  <path d="M222.101 339.019C211.834 339.019 198 333.423 197.233 333.111C197.004 333.007 196.88 332.736 196.984 332.507C197.087 332.279 197.357 332.154 197.585 332.258C197.834 332.362 222.89 342.513 230.253 335.836C230.439 335.669 230.73 335.669 230.896 335.877C231.062 336.065 231.062 336.356 230.854 336.522C228.842 338.332 225.69 339.019 222.101 339.019Z" fill="#7A7A7A"></path>
  <path d="M211.15 328.243C211.026 328.243 210.901 328.202 210.797 328.098C210.631 327.91 210.632 327.619 210.839 327.453L215.858 322.897C216.045 322.73 216.335 322.73 216.501 322.939C216.667 323.126 216.667 323.417 216.46 323.583L211.44 328.139C211.357 328.202 211.254 328.243 211.15 328.243Z" fill="#7A7A7A"></path>
  <path d="M154.879 189.469C154.879 189.469 151.809 245.074 150.212 264.275C148.615 283.476 153.966 314.326 153.966 314.326L169.232 313.515C169.232 313.515 170.269 275.987 171.41 265.586C171.41 265.586 177.86 251.461 179.768 238.875C181.677 226.269 188.189 206.381 188.189 206.381C188.189 206.381 193.478 305.693 193.976 313.494C193.976 313.494 205.944 314.035 210.237 311.33C210.237 311.33 217.849 275.113 216.75 255.413C215.651 235.713 216.854 186.765 216.854 186.765L154.879 189.469Z" fill="#7A7A7A"></path>
  <path d="M168.589 266.043H163.922C163.673 266.043 163.466 265.835 163.466 265.586C163.466 265.336 163.673 265.128 163.922 265.128H168.589C168.838 265.128 169.045 265.336 169.045 265.586C169.066 265.835 168.859 266.043 168.589 266.043Z" fill="#F2F2F7"></path>
  <path d="M201.837 294.938C201.568 294.938 201.381 294.73 201.381 294.46C201.547 285.286 211.586 268.831 212.021 268.124C212.146 267.916 212.436 267.832 212.664 267.978C212.872 268.103 212.954 268.394 212.809 268.623C212.706 268.789 202.459 285.556 202.314 294.481C202.293 294.73 202.086 294.938 201.837 294.938Z" fill="#F2F2F7"></path>
  <path d="M221.686 100.538C222.806 100.454 228.261 111.646 245.311 111.189C262.381 110.71 276.07 91.5717 276.07 91.5717C276.07 91.5717 281.96 81.6073 286.44 78.0085C290.921 74.4096 291.605 73.9312 291.605 73.9312C291.605 73.9312 293.015 75.8034 291.605 78.0085C290.195 80.2135 286.337 84.3324 286.337 84.3324C286.337 84.3324 290.609 86.6831 288.681 91.5717C286.461 97.1884 280.239 96.7516 280.239 96.7516C280.239 96.7516 267.587 152.939 215.277 126.25L221.686 100.538Z" fill="#F2F2F7"></path>
  <path d="M241.225 133.884C233.281 133.884 224.549 131.471 215.07 126.645C214.883 126.541 214.78 126.333 214.821 126.125L221.209 100.434C221.251 100.247 221.417 100.101 221.624 100.08C222.081 100.038 222.433 100.455 223.325 101.432C225.918 104.324 231.974 111.105 245.29 110.731C261.945 110.273 275.551 91.4886 275.697 91.3014C275.925 90.927 281.67 81.2538 286.15 77.6341C290.589 74.0561 291.335 73.5568 291.356 73.536C291.564 73.3904 291.833 73.4528 291.978 73.64C292.041 73.7232 293.555 75.8035 291.999 78.2374C290.838 80.068 288.058 83.1468 287.042 84.2493C288.162 85.1023 290.755 87.5778 289.116 91.7383C287.146 96.7725 282.043 97.1885 280.592 97.2093C279.803 100.33 273.602 122.38 255.972 130.681C251.429 132.803 246.514 133.884 241.225 133.884ZM215.837 125.979C231.186 133.739 244.564 135.028 255.598 129.849C274.079 121.153 279.741 96.8765 279.803 96.6477C279.845 96.4189 280.052 96.2732 280.28 96.294C280.529 96.3148 286.212 96.6477 288.266 91.4054C290.008 86.9537 286.295 84.8318 286.129 84.7486C286.005 84.6862 285.922 84.5614 285.901 84.4158C285.881 84.2701 285.922 84.1245 286.026 84.0205C286.067 83.9789 289.884 79.9016 291.253 77.7589C292.103 76.4068 291.771 75.2002 291.501 74.6178C290.941 75.0546 289.614 76.0739 286.752 78.383C282.396 81.8987 276.547 91.7383 276.485 91.8215C276.319 92.0503 262.443 111.209 245.331 111.667C244.979 111.667 244.626 111.688 244.274 111.688C231.269 111.688 225.254 104.969 222.661 102.056C222.412 101.786 222.184 101.515 221.977 101.307L215.837 125.979Z" fill="#7A7A7A"></path>
  <path d="M137.104 126.229C137.104 126.229 142.227 93.0693 160.313 84.9147C178.399 76.7601 202.895 77.8834 209.636 81.9607C216.376 86.038 233.986 104.448 233.986 104.448L218.43 126.229C218.43 126.229 221.977 184.829 219.177 200.307C219.177 200.307 201.878 202.324 194.536 199.433C187.194 196.541 163.072 192.485 151.539 197.789L153.655 123.587L137.104 126.229Z" fill="#F2F2F7"></path>
  <path d="M206.981 201.451C202.397 201.451 197.523 201.097 194.391 199.849C187.173 196.999 163.279 192.88 151.768 198.185C151.622 198.247 151.457 198.247 151.311 198.143C151.187 198.06 151.104 197.894 151.104 197.748L153.178 124.107L137.166 126.666C137.021 126.686 136.875 126.645 136.772 126.541C136.668 126.437 136.627 126.291 136.647 126.146C136.855 124.773 142.019 92.6534 160.126 84.478C177.964 76.4482 202.604 77.1555 209.885 81.5449C216.605 85.6014 233.613 103.367 234.318 104.116C234.463 104.282 234.484 104.532 234.359 104.698L218.907 126.333C219.114 129.786 222.35 185.412 219.633 200.348C219.591 200.556 219.425 200.702 219.239 200.723C218.824 200.806 213.141 201.451 206.981 201.451ZM167.241 194.711C178.171 194.711 189.994 197.103 194.723 198.975C201.298 201.576 216.335 200.12 218.783 199.849C221.437 184.102 218.015 126.811 217.974 126.229C217.974 126.125 217.994 126.021 218.057 125.938L233.384 104.49C231.165 102.181 215.568 86.0798 209.407 82.3562C203.061 78.5285 178.607 77.1555 160.5 85.3309C144.218 92.6742 138.493 121.049 137.664 125.667L153.593 123.129C153.738 123.108 153.862 123.15 153.966 123.233C154.07 123.316 154.132 123.462 154.132 123.587L152.058 197.062C156.144 195.356 161.578 194.711 167.241 194.711Z" fill="#7A7A7A"></path>
  <path d="M167.469 182.958C167.24 182.958 167.054 182.791 167.012 182.583C166.971 182.334 167.137 182.084 167.386 182.042C194.888 177.154 202.915 158.057 202.998 157.87C203.102 157.641 203.372 157.516 203.6 157.62C203.828 157.724 203.952 157.995 203.849 158.223C203.766 158.411 195.573 177.986 167.551 182.958C167.51 182.937 167.489 182.958 167.469 182.958Z" fill="#7A7A7A"></path>
  <path d="M217.123 149.403H181.925L192.939 109.94H228.157L217.123 149.403Z" fill="#7A7A7A"></path>
  <path d="M140.194 126.353L158.011 118.365C158.011 118.365 155.501 148.654 191.549 134.674C191.549 134.674 190.222 130.784 190.409 126.229C190.595 121.673 193.312 126.083 193.686 129.786C194.059 133.489 202.522 131.991 207.624 130.535C212.705 129.079 219.384 130.035 207.624 136.547C195.864 143.058 193.292 140.146 193.292 140.146C193.292 140.146 178.275 161.198 159.587 156.725C136.585 151.213 140.194 126.353 140.194 126.353Z" fill="#F2F2F7"></path>
  <path d="M164.793 157.807C163.051 157.807 161.288 157.62 159.463 157.183C147.37 154.291 142.641 146.033 140.816 139.605C138.846 132.678 139.696 126.541 139.738 126.291C139.758 126.125 139.862 126 140.007 125.938L157.824 117.949C157.969 117.887 158.156 117.908 158.28 117.991C158.405 118.095 158.488 118.241 158.467 118.407C158.467 118.511 157.637 129.516 164.835 134.903C170.393 139.064 179.188 138.898 190.989 134.404C190.657 133.26 189.807 129.973 189.952 126.229C189.973 125.646 190.056 123.878 191.114 123.857H191.134C192.524 123.857 193.893 127.373 194.142 129.765C194.183 130.265 194.432 130.66 194.868 130.951C196.984 132.386 202.978 131.388 207.479 130.098C209.843 129.432 213.846 128.975 214.531 130.639C215.111 132.074 212.934 134.134 207.831 136.942C198.187 142.268 194.536 141.435 193.354 140.791C191.466 143.287 179.727 157.807 164.793 157.807ZM140.63 126.666C140.484 127.893 140.007 133.406 141.729 139.376C144.301 148.342 150.336 154.042 159.691 156.268C161.433 156.684 163.134 156.871 164.814 156.871C180.598 156.871 192.794 140.021 192.918 139.834C193.001 139.709 193.126 139.646 193.271 139.646C193.416 139.646 193.54 139.688 193.644 139.792C193.665 139.813 196.299 142.247 207.416 136.089C214.074 132.407 213.763 131.076 213.701 130.951C213.411 130.264 210.714 130.098 207.769 130.951C205.384 131.637 197.378 133.697 194.391 131.679C193.727 131.221 193.333 130.597 193.25 129.828C192.98 127.144 191.612 124.835 191.155 124.752C191.155 124.773 190.927 125.022 190.886 126.25C190.699 130.639 191.985 134.487 192.006 134.508C192.089 134.737 191.964 135.007 191.736 135.091C179.416 139.875 170.186 140.042 164.295 135.632C157.762 130.722 157.471 121.777 157.534 119.094L140.63 126.666Z" fill="#7A7A7A"></path>
  <path d="M187.775 69.7917C186.24 71.2062 183.232 72.9328 180.868 71.7471C179.105 70.8526 178.13 68.5643 178.192 65.9432C177.383 66.0056 176.325 65.9432 175.558 65.2775C174.397 64.2374 174.604 62.3235 174.645 61.0754C174.853 55.2923 171.514 54.3978 172.322 50.4661C172.965 47.3873 175.392 45.5359 175.828 45.203C178.109 43.4764 179.665 44.0173 183.481 43.0187C189.932 41.3129 190.139 38.5254 194.391 38.5254C194.64 38.5254 200.427 38.5878 202.397 42.6027C203.994 45.8687 202.128 49.8212 200.199 51.9014C197.71 54.6058 195.905 53.2744 193.396 55.5211C189.019 59.4944 192.338 65.5895 187.775 69.7917Z" fill="#7A7A7A"></path>
  <path d="M200.655 59.4739L200.406 59.2451C199.12 58.1425 197.793 56.8528 197.461 55.2094C196.03 48.1573 189.579 45.6194 189.289 52.0682C189.206 53.6908 183.274 53.6076 183.979 55.3342C185.825 59.8067 185.867 58.6002 183.274 60.2436C182.983 60.2644 182.693 60.3268 182.403 60.4516C181.075 61.0757 180.598 62.8855 181.345 64.5081C181.801 65.4858 182.61 66.1515 183.461 66.4011V73.4532C183.461 76.0952 181.863 78.4875 179.416 79.486L177.031 80.4637C177.031 80.4637 188.107 87.7238 199.348 79.7564L197.855 79.0907C195.221 77.905 193.479 75.3047 193.396 72.3923L193.375 71.0193C194.122 71.0817 194.868 71.0401 195.532 70.8321C198.685 69.9168 199.722 66.2763 199.182 61.7622L200.468 61.0757C201.07 60.7429 201.174 59.9107 200.655 59.4739Z" fill="#F2F2F7"></path>
  <path d="M188.003 83.9168C181.614 83.9168 176.865 80.9004 176.802 80.838C176.657 80.734 176.574 80.5675 176.595 80.4011C176.616 80.2347 176.719 80.0891 176.885 80.0267L179.271 79.049C181.552 78.1128 183.025 75.9078 183.025 73.4531V66.7338C182.133 66.3802 181.407 65.6521 180.951 64.6952C180.1 62.8437 180.66 60.7635 182.216 60.0354C182.506 59.9106 182.797 59.8274 183.128 59.7858C183.564 59.5153 183.917 59.3281 184.186 59.1825C184.518 59.0161 184.829 58.8497 184.829 58.7664C184.85 58.5584 184.601 57.9551 184.228 57.1438C184.041 56.707 183.813 56.1661 183.543 55.5212C183.419 55.2092 183.419 54.8972 183.564 54.6267C183.917 53.8986 185.078 53.5658 186.406 53.1914C187.36 52.9209 188.812 52.5049 188.832 52.068C188.998 48.5108 190.844 47.9699 191.653 47.9075C193.935 47.7203 196.963 50.4454 197.917 55.126C198.228 56.6654 199.535 57.8927 200.717 58.9121L200.966 59.1409C201.318 59.4529 201.505 59.9106 201.443 60.389C201.401 60.8675 201.111 61.2628 200.696 61.4916L199.701 62.0324C200.219 67.0251 198.767 70.3951 195.677 71.2896C195.117 71.456 194.495 71.5392 193.852 71.5184V72.4129C193.935 75.1173 195.573 77.572 198.041 78.6745L199.535 79.3402C199.68 79.4026 199.784 79.5482 199.804 79.7146C199.825 79.8811 199.742 80.0475 199.618 80.1307C195.573 82.9806 191.529 83.9168 188.003 83.9168ZM178.109 80.5259C180.743 81.9197 189.517 85.6434 198.435 79.8394L197.689 79.5066C194.909 78.2584 193.043 75.4709 192.939 72.4129L192.918 71.0192C192.918 70.8943 192.981 70.7695 193.063 70.6655C193.167 70.5823 193.292 70.5407 193.416 70.5407C194.142 70.6031 194.806 70.5407 195.407 70.3743C198.062 69.6046 199.286 66.4634 198.726 61.8036C198.705 61.6164 198.809 61.4292 198.975 61.346L200.261 60.6595C200.406 60.5763 200.51 60.4306 200.53 60.2642C200.551 60.0978 200.489 59.9314 200.364 59.8274L200.116 59.5985C198.809 58.4752 197.398 57.123 197.025 55.2924C196.195 51.2359 193.623 48.6772 191.736 48.8228C190.575 48.906 189.869 50.1126 189.766 52.0888C189.724 53.2122 188.231 53.6282 186.654 54.0651C185.783 54.3147 184.58 54.6475 184.394 55.0012C184.394 55.022 184.373 55.0636 184.414 55.1468C184.684 55.7917 184.912 56.3117 185.099 56.7486C185.97 58.7456 186.157 59.1825 184.643 59.9938C184.352 60.1602 183.979 60.3474 183.523 60.6387C183.46 60.6803 183.377 60.7011 183.294 60.7011C183.045 60.7011 182.817 60.7635 182.61 60.8675C181.511 61.3876 181.137 62.927 181.78 64.2999C182.154 65.1112 182.838 65.7353 183.605 65.9433C183.813 66.0057 183.937 66.1722 183.937 66.3802V73.4323C183.937 76.2822 182.237 78.8201 179.623 79.8811L178.109 80.5259Z" fill="#7A7A7A"></path>
  <path d="M193.375 71.4557C193.354 71.4557 193.333 71.4557 193.313 71.4557C188.77 70.7484 186.738 67.2951 186.655 67.1495C186.53 66.9207 186.613 66.6503 186.821 66.5254C187.049 66.4006 187.318 66.4838 187.443 66.6919C187.464 66.7335 189.351 69.9163 193.437 70.5611C193.686 70.6027 193.873 70.8316 193.831 71.0812C193.81 71.2892 193.603 71.4557 193.375 71.4557Z" fill="#7A7A7A"></path>
  <path d="M43.208 132.532C42.6273 132.532 42.0465 132.407 41.4865 132.179C40.408 131.721 39.5783 130.868 39.1428 129.786C38.2301 127.54 39.3294 124.981 41.5695 124.066C43.8095 123.15 46.3607 124.253 47.2733 126.499C48.1859 128.746 47.0866 131.305 44.8466 132.22C44.3073 132.428 43.7681 132.532 43.208 132.532ZM43.208 124.669C42.7725 124.669 42.3369 124.752 41.9221 124.918C40.1591 125.626 39.3087 127.664 40.0139 129.433C40.3665 130.286 41.0095 130.972 41.8599 131.326C42.7103 131.679 43.6436 131.7 44.494 131.346C46.257 130.639 47.1281 128.601 46.4022 126.832C45.8629 125.501 44.5562 124.669 43.208 124.669Z" fill="#7A7A7A"></path>
  <path d="M366.004 142.268C365.879 142.268 365.775 142.226 365.693 142.143C365.506 141.956 365.506 141.664 365.672 141.498L367.829 139.231C367.995 139.043 368.306 139.043 368.472 139.21C368.659 139.397 368.659 139.688 368.493 139.855L366.335 142.122C366.253 142.226 366.128 142.268 366.004 142.268Z" fill="#CDAF71"></path>
  <path d="M358.433 150.214C358.309 150.214 358.205 150.173 358.122 150.09C357.936 149.902 357.936 149.611 358.101 149.445L360.259 147.177C360.445 146.99 360.736 146.99 360.902 147.157C361.088 147.344 361.088 147.635 360.922 147.801L358.765 150.069C358.682 150.173 358.558 150.214 358.433 150.214Z" fill="#CDAF71"></path>
  <path d="M360.549 142.392C360.424 142.392 360.321 142.351 360.217 142.268L358.018 140.104C357.832 139.917 357.832 139.626 358.018 139.459C358.205 139.272 358.495 139.272 358.682 139.459L360.881 141.623C361.067 141.81 361.067 142.101 360.881 142.268C360.798 142.351 360.673 142.392 360.549 142.392Z" fill="#CDAF71"></path>
  <path d="M368.244 150.006C368.119 150.006 368.016 149.965 367.912 149.881L365.713 147.718C365.527 147.531 365.527 147.239 365.713 147.073C365.9 146.886 366.19 146.886 366.377 147.073L368.576 149.237C368.762 149.424 368.762 149.715 368.576 149.881C368.493 149.965 368.368 150.006 368.244 150.006Z" fill="#CDAF71"></path>
  <path d="M209.158 9.79701C209.034 9.79701 208.93 9.7554 208.847 9.67219C208.661 9.48497 208.661 9.19373 208.827 9.02731L210.984 6.75983C211.17 6.57261 211.461 6.57261 211.627 6.73903C211.813 6.92625 211.813 7.21749 211.647 7.38391L209.49 9.65139C209.387 9.7554 209.283 9.79701 209.158 9.79701Z" fill="#CDAF71"></path>
  <path d="M201.567 17.7438C201.443 17.7438 201.339 17.7022 201.256 17.619C201.069 17.4317 201.069 17.1405 201.235 16.9741L203.392 14.7066C203.579 14.5194 203.869 14.5194 204.035 14.6858C204.222 14.873 204.222 15.1643 204.056 15.3307L201.899 17.5982C201.816 17.7022 201.692 17.7438 201.567 17.7438Z" fill="#CDAF71"></path>
  <path d="M203.704 9.92172C203.579 9.92172 203.475 9.88012 203.372 9.79691L201.173 7.63344C200.987 7.44622 200.987 7.15498 201.173 6.98856C201.36 6.80134 201.65 6.80134 201.837 6.98856L204.015 9.13123C204.201 9.31845 204.201 9.60969 204.015 9.77611C203.932 9.88012 203.828 9.92172 203.704 9.92172Z" fill="#CDAF71"></path>
  <path d="M211.398 17.515C211.274 17.515 211.17 17.4734 211.067 17.3902L208.868 15.2267C208.681 15.0395 208.681 14.7482 208.868 14.5818C209.055 14.3946 209.345 14.3946 209.511 14.5818L211.71 16.7453C211.896 16.9325 211.896 17.2238 211.71 17.3902C211.627 17.4734 211.502 17.515 211.398 17.515Z" fill="#CDAF71"></path>
  <path d="M142.559 300.888L135.548 372.927L130.529 372.719L133.018 296.977L142.559 300.888Z" fill="#F2F2F7"></path>
  <path d="M135.548 373.385C135.527 373.385 135.527 373.385 135.548 373.385L130.529 373.177C130.28 373.156 130.072 372.948 130.093 372.698L132.582 296.956C132.582 296.811 132.665 296.665 132.79 296.582C132.914 296.499 133.08 296.478 133.225 296.54L142.766 300.451C142.953 300.534 143.077 300.721 143.056 300.93L136.004 372.969C135.984 373.198 135.776 373.385 135.548 373.385ZM131.006 372.262L135.113 372.428L142.061 301.158L133.453 297.643L131.006 372.262Z" fill="#7A7A7A"></path>
  <path d="M48.4556 298.287L55.3002 373.093L60.4855 372.698L57.9965 294.251L48.4556 298.287Z" fill="#F2F2F7"></path>
  <path d="M55.3002 373.572C55.0721 373.572 54.8647 373.385 54.8439 373.156L47.9993 298.35C47.9786 298.142 48.103 297.955 48.269 297.871L57.8099 293.836C57.9551 293.773 58.121 293.794 58.2455 293.877C58.3699 293.96 58.4529 294.106 58.4529 294.252L60.9419 372.719C60.9419 372.969 60.7552 373.177 60.5063 373.197L55.321 373.593C55.3417 373.551 55.321 373.572 55.3002 373.572ZM48.9534 298.579L55.7358 372.594L60.0085 372.261L57.561 294.917L48.9534 298.579Z" fill="#7A7A7A"></path>
  <path d="M24.6445 280.689L26.6564 359.239L30.701 358.366L34.3929 276.944L24.6445 280.689Z" fill="#F2F2F7"></path>
  <path d="M26.6564 359.697C26.5527 359.697 26.449 359.655 26.3661 359.593C26.2623 359.51 26.2001 359.385 26.1794 359.239L24.1675 280.689C24.1675 280.501 24.2712 280.314 24.4579 280.252L34.227 276.507C34.3722 276.445 34.5381 276.466 34.6625 276.57C34.787 276.653 34.87 276.819 34.8492 276.965L31.1365 358.386C31.1365 358.594 30.9706 358.781 30.7632 358.823L26.7187 359.697C26.7187 359.697 26.6772 359.697 26.6564 359.697ZM25.1008 281.001L27.092 358.677L30.2447 357.991L33.8951 277.631L25.1008 281.001Z" fill="#7A7A7A"></path>
  <path d="M103.606 278.92L105.618 357.492L109.808 357.513L113.355 275.197L103.606 278.92Z" fill="#F2F2F7"></path>
  <path d="M83.3008 217.573V235.859C83.3008 253.728 97.3634 268.228 114.703 268.228C132.043 268.228 146.105 282.727 146.105 300.596C146.105 302.198 144.819 303.488 143.243 303.488H60.1121C34.1234 303.488 13.0503 281.77 13.0503 254.956V215.951C13.0503 205.3 21.4297 196.646 31.7796 196.646H63.0159C74.2162 196.646 83.3008 206.028 83.3008 217.573Z" fill="#F2F2F7"></path>
  <path d="M143.243 303.946H60.1121C33.8952 303.946 12.5732 281.978 12.5732 254.956V215.951C12.5732 205.05 21.1809 196.188 31.7589 196.188H63.0159C74.4651 196.188 83.7779 205.778 83.7779 217.574V235.859C83.7779 253.458 97.6538 267.77 114.724 267.77C132.292 267.77 146.582 282.498 146.582 300.597C146.562 302.427 145.068 303.946 143.243 303.946ZM31.7796 197.104C21.7201 197.104 13.5273 205.55 13.5273 215.93V254.935C13.5273 281.437 34.4345 302.989 60.1329 302.989H143.243C144.57 302.989 145.649 301.907 145.649 300.576C145.649 282.977 131.773 268.665 114.703 268.665C97.1352 268.665 82.8445 253.936 82.8445 235.838V217.574C82.8445 206.299 73.9465 197.104 63.0159 197.104H31.7796Z" fill="#7A7A7A"></path>
  <path d="M5.00272 183.478C3.7375 182.958 2.59673 182.022 1.89153 180.774C0.854471 178.902 0.294457 175.906 2.63822 171.641C7.94797 161.989 16.8045 166.545 20.1853 165.421C27.7766 162.904 25.9928 158.806 29.0625 154.791C31.3648 151.796 39.3502 146.158 51.4423 156.664C51.4423 156.664 56.8765 164.111 63.0367 161.282C70.6072 157.808 85.8105 165.671 81.0193 177.383C79.6296 180.753 77.1407 183.353 74.0917 184.768C73.5317 185.017 72.9302 185.267 72.2873 185.496C70.3998 186.162 68.9272 187.847 68.4501 190.031C66.8945 197.166 61.0455 210.917 39.3087 197.062C37.6701 196.022 35.7205 195.876 34.0197 196.667C31.9456 197.645 29.6848 201.41 19.6253 199.808C13.1748 198.789 11.1214 191.258 9.4206 187.826C8.07242 185.101 6.12274 183.936 5.00272 183.478Z" fill="#7A7A7A"></path>
  <path d="M116.819 236.067C108.274 238.75 91.888 231.303 89.088 218.821C86.8687 208.919 83.4049 203.906 82.0774 202.242C81.4345 201.139 80.6048 200.12 79.4848 199.142C71.5202 192.111 57.7272 194.399 51.7538 195.377C44.9921 196.5 39.3713 197.416 35.5549 201.722C34.5386 202.866 33.8333 204.072 33.3356 205.341C26.0554 219.113 31.9459 233.321 35.5964 239.894C36.1978 266.21 27.528 262.091 29.8718 273.761C33.1904 290.237 59.6147 284.079 69.2386 281.978C72.6194 281.25 90.291 286.492 94.6051 272.825C97.1356 264.837 92.3443 261.155 88.1131 247.591C109.767 261.092 125.862 238.064 125.862 238.064L127.521 229.992C127.521 229.992 123.145 234.091 116.819 236.067Z" fill="#F2F2F7"></path>
  <path d="M48.601 285.327C43.4779 285.327 38.5415 284.516 34.8703 282.124C31.9458 280.21 30.1206 277.422 29.3946 273.844C28.3368 268.602 29.4361 266.439 30.9502 263.464C32.8377 259.761 35.4303 254.664 35.0985 239.999C31.1369 232.801 25.6405 218.821 32.8792 205.113C33.4184 203.76 34.1651 202.554 35.1814 201.41C39.1015 196.979 44.9091 196.022 51.65 194.919C57.6234 193.942 71.6238 191.633 79.7543 198.789C80.8744 199.766 81.7455 200.806 82.4299 201.971C83.8404 203.719 87.3041 208.815 89.5234 218.717C90.7264 224.085 94.771 229.119 100.641 232.51C106.179 235.713 112.463 236.941 116.674 235.609C122.813 233.675 127.148 229.68 127.19 229.639C127.335 229.493 127.563 229.472 127.729 229.576C127.895 229.68 127.998 229.868 127.957 230.076L126.298 238.147C126.277 238.209 126.256 238.272 126.215 238.313C126.173 238.376 122.066 244.201 115.326 248.278C109.269 251.939 99.8318 254.893 88.9012 248.611C90.2494 252.73 91.639 255.933 92.7798 258.534C95.1443 263.984 96.7206 267.583 95.0199 272.95C91.5146 284.079 79.464 283.06 72.9927 282.519C71.3749 282.373 69.9645 282.269 69.3008 282.415L68.6993 282.54C63.9288 283.601 56.0886 285.327 48.601 285.327ZM33.7088 205.612C26.6775 218.967 32.1117 232.676 35.9903 239.666C36.0318 239.728 36.0526 239.811 36.0526 239.874C36.4052 254.872 33.7296 260.073 31.8006 263.901C30.3072 266.813 29.3324 268.748 30.328 273.678C30.9917 277.006 32.7132 279.586 35.4096 281.354C44.0794 287.033 60.6102 283.393 68.5333 281.645L69.1348 281.52C69.923 281.354 71.2504 281.458 73.0964 281.624C79.7543 282.186 90.8716 283.101 94.1695 272.7C95.7666 267.645 94.3354 264.379 91.9709 258.929C90.7057 256.058 89.1501 252.459 87.6775 247.737C87.6153 247.55 87.6775 247.342 87.8434 247.238C87.9886 247.113 88.196 247.113 88.3619 247.217C97.177 252.709 106.096 252.813 114.848 247.529C121.009 243.805 124.929 238.584 125.427 237.897L126.795 231.241C125.136 232.572 121.569 235.089 116.964 236.545C112.525 237.939 105.95 236.691 100.205 233.362C94.128 229.847 89.9175 224.605 88.6523 218.967C86.4745 209.211 83.0729 204.26 81.7248 202.575C81.704 202.554 81.704 202.533 81.6833 202.512C81.0403 201.431 80.2314 200.432 79.1736 199.517C71.3749 192.61 57.6649 194.878 51.8159 195.835C44.992 196.958 39.5993 197.852 35.8866 202.034C34.9325 203.116 34.2273 204.239 33.7503 205.508C33.7503 205.549 33.7296 205.57 33.7088 205.612Z" fill="#7A7A7A"></path>
  <path d="M79.0075 233.924C79.0075 233.924 94.6049 228.224 99.4791 217.802L109.518 208.42C109.518 208.42 109.373 212.955 106.386 214.848C106.386 214.848 108.937 220.007 105.162 223.585C105.162 223.585 102.321 225.853 100.641 225.895C100.641 225.895 95.7042 242.183 82.3468 247.03C82.3676 247.009 78.6134 241.288 79.0075 233.924Z" fill="#F2F2F7"></path>
  <path d="M82.3676 247.467C82.2224 247.467 82.0772 247.384 81.9735 247.259C81.8076 247.03 78.1364 241.33 78.5512 233.883C78.5512 233.696 78.6757 233.529 78.8623 233.467C79.0075 233.404 94.3353 227.704 99.0643 217.574C99.085 217.511 99.1265 217.47 99.168 217.428L109.207 208.046C109.352 207.921 109.539 207.88 109.705 207.963C109.87 208.046 109.974 208.212 109.974 208.4C109.974 208.587 109.808 212.872 106.967 214.973C107.485 216.263 108.875 220.694 105.494 223.877C105.349 223.981 102.818 225.999 100.993 226.269C100.226 228.536 94.916 242.911 82.5128 247.404C82.4713 247.467 82.4298 247.467 82.3676 247.467ZM79.4638 234.236C79.2357 240.269 81.8283 245.179 82.575 246.427C95.2894 241.559 100.184 225.874 100.226 225.707C100.288 225.52 100.454 225.374 100.661 225.374C101.927 225.354 104.146 223.773 104.913 223.169C108.356 219.903 106.096 215.202 106.013 214.994C105.909 214.786 105.971 214.516 106.179 214.391C108.004 213.226 108.688 210.958 108.937 209.565L99.8939 218.031C95.2479 227.829 81.6831 233.383 79.4638 234.236Z" fill="#7A7A7A"></path>
  <path d="M64.9449 252.189C51.9401 252.189 44.494 245.74 44.3903 245.636C44.2037 245.47 44.1829 245.179 44.3488 244.991C44.5148 244.804 44.8051 244.783 44.9918 244.95C45.1163 245.075 58.3906 256.516 80.5008 248.299C80.729 248.216 80.9986 248.341 81.1023 248.569C81.1853 248.819 81.0608 249.069 80.8327 249.173C74.9007 251.378 69.5702 252.189 64.9449 252.189Z" fill="#7A7A7A"></path>
  <path d="M72.9304 234.548C61.6057 234.548 55.01 228.078 51.401 222.379C47.1491 215.68 46.029 208.545 46.0083 208.482C45.9668 208.233 46.1327 207.983 46.4024 207.962C46.6513 207.921 46.9002 208.087 46.9209 208.358C46.9416 208.42 48.0409 215.389 52.1892 221.921C57.7271 230.637 65.7539 234.527 76.0623 233.466C76.3112 233.446 76.5394 233.633 76.5601 233.882C76.5808 234.132 76.3942 234.361 76.1453 234.382C75.046 234.486 73.9675 234.548 72.9304 234.548Z" fill="#7A7A7A"></path>
  <path d="M81.7038 226.331C81.6831 226.331 81.6623 226.331 81.6416 226.331C81.3927 226.289 81.206 226.061 81.2475 225.811C83.2801 211.852 76.9126 203.947 76.8504 203.864C76.6844 203.677 76.7052 203.365 76.9126 203.219C77.0993 203.053 77.3896 203.074 77.5556 203.282C77.8252 203.615 84.255 211.561 82.1601 225.957C82.1394 226.165 81.932 226.331 81.7038 226.331Z" fill="#7A7A7A"></path>
  <path d="M78.8417 187.077C78.4061 184.165 79.1113 176.447 78.9661 176.634C77.7217 178.465 73.6356 176.301 69.9437 176.156C66.2518 176.01 67.4962 181.564 67.4962 181.564C67.4962 181.564 66.4177 177.799 64.1154 180.15C62.788 181.523 64.2606 183.291 65.6295 184.435C65.2562 184.872 58.619 192.028 54.5537 196.293L63.5761 203.157L68.0977 198.934L67.1851 197.457C66.5214 196.417 66.4799 195.086 67.0399 193.983L69.2385 190.239C69.7363 190.863 70.3793 191.55 70.9808 191.966C72.163 192.798 73.6149 192.652 74.652 191.674C76.0831 190.322 77.0579 188.783 77.5142 187.306L78.8417 187.077Z" fill="#F2F2F7"></path>
  <path d="M63.576 203.636C63.4723 203.636 63.3893 203.615 63.3064 203.532L54.284 196.667C54.1802 196.584 54.118 196.459 54.0973 196.334C54.0765 196.209 54.1388 196.064 54.2217 195.981C57.9344 192.09 63.5553 186.016 64.9657 184.477C64.0946 183.665 63.1819 182.584 63.1405 181.46C63.1197 180.836 63.3271 180.295 63.8042 179.817C64.5301 179.068 65.2768 178.777 65.982 178.943C66.3139 179.026 66.6042 179.214 66.8531 179.463C66.8739 178.486 67.0605 177.362 67.6828 176.613C68.2221 175.968 68.9895 175.656 69.9643 175.698C71.354 175.76 72.8059 176.093 74.0918 176.384C76.1659 176.863 77.9704 177.279 78.5719 176.384C78.6964 176.218 78.9038 176.135 79.1112 176.197C79.4638 176.322 79.4638 176.322 79.3601 178.361C79.2356 180.691 78.9868 185.038 79.2771 187.015C79.3186 187.264 79.1527 187.493 78.9038 187.535L77.846 187.722C77.3275 189.22 76.3319 190.697 74.9422 192.028C73.7392 193.172 72.0384 193.318 70.6903 192.361C70.2754 192.07 69.8191 191.633 69.2799 191.05L67.3924 194.233C66.9154 195.169 66.9776 196.313 67.5376 197.229L68.4502 198.706C68.5747 198.893 68.5332 199.143 68.3672 199.288L63.8457 203.511C63.8042 203.594 63.7005 203.636 63.576 203.636ZM55.2588 196.251L63.5553 202.554L67.4961 198.851L66.7702 197.707C66.0235 196.521 65.9613 195.024 66.6042 193.775L68.8236 189.989C68.9065 189.865 69.031 189.781 69.1762 189.761C69.3213 189.74 69.4665 189.802 69.5702 189.927C70.2132 190.697 70.7732 191.258 71.2088 191.57C72.2044 192.257 73.4074 192.174 74.2992 191.321C75.6682 190.01 76.6015 188.575 77.0371 187.139C77.0786 186.973 77.2237 186.848 77.4104 186.827L78.3023 186.682C78.0741 184.477 78.3023 180.503 78.4267 178.278C78.4475 178.028 78.4475 177.799 78.4682 177.591C77.3689 178.069 75.7096 177.695 73.8844 177.258C72.5777 176.967 71.2295 176.655 69.9228 176.593C69.2384 176.572 68.7406 176.759 68.388 177.175C67.4961 178.257 67.7657 180.607 67.9524 181.419C68.0146 181.668 67.8487 181.897 67.6206 181.96C67.3717 182.022 67.1228 181.876 67.0605 181.648C66.9361 181.231 66.4383 180.004 65.7331 179.817C65.3805 179.734 64.9449 179.942 64.4472 180.441C64.1568 180.732 64.0323 181.044 64.0531 181.398C64.0946 182.126 64.7583 183.083 65.9198 184.061C66.0235 184.144 66.065 184.248 66.0857 184.373C66.0857 184.498 66.0442 184.622 65.982 184.706C65.6501 185.142 59.4278 191.862 55.2588 196.251Z" fill="#7A7A7A"></path>
  <path d="M69.2177 190.717C69.0725 190.717 68.9273 190.655 68.8444 190.53L68.1392 189.552C67.994 189.344 68.0355 189.053 68.2429 188.907C68.4503 188.762 68.7407 188.803 68.8859 189.012L69.5911 189.989C69.7363 190.197 69.6948 190.488 69.4874 190.634C69.4044 190.697 69.3214 190.717 69.2177 190.717Z" fill="#7A7A7A"></path>
  <path d="M146.873 335.815C146.79 336.189 151.104 355.993 151.104 355.993L141.19 354.329L138.203 337.583L146.873 335.815Z" fill="#F2F2F7"></path>
  <path d="M151.104 356.472C151.083 356.472 151.062 356.472 151.021 356.472L141.107 354.808C140.92 354.766 140.754 354.621 140.733 354.433L137.747 337.687C137.705 337.438 137.871 337.209 138.099 337.146L146.79 335.378C146.956 335.337 147.101 335.399 147.205 335.503C147.288 335.586 147.35 335.711 147.329 335.857C147.391 336.689 149.88 348.276 151.54 355.91C151.581 356.056 151.519 356.222 151.415 356.326C151.353 356.41 151.228 356.472 151.104 356.472ZM141.584 353.934L150.502 355.432C147.557 341.889 146.728 337.708 146.499 336.377L138.721 337.958L141.584 353.934Z" fill="#7A7A7A"></path>
  <path d="M145.836 349.503C146.437 348.983 147.308 348.484 148.408 348.442C150.067 348.38 151.581 349.42 152.265 350.959C153.987 354.787 158.529 365.48 159.815 374.217C160.271 377.295 157.948 379.813 154.319 377.795C148.387 374.487 140.152 366.873 135.859 355.64C135.361 354.35 135.548 352.894 136.357 351.771C137.021 350.855 137.912 349.753 138.97 348.817C139.966 347.922 141.48 347.901 142.496 348.754L143.43 349.524C144.135 350.107 145.151 350.086 145.836 349.503Z" fill="#F2F2F7"></path>
  <path d="M156.787 378.98C156.061 378.98 155.169 378.772 154.111 378.19C147.91 374.716 139.738 367.019 135.444 355.785C134.884 354.329 135.092 352.727 136.004 351.479C136.875 350.294 137.767 349.274 138.68 348.463C139.841 347.402 141.584 347.381 142.807 348.401L143.741 349.17C144.259 349.607 145.027 349.586 145.545 349.149C146.396 348.421 147.391 348.026 148.408 347.985C150.191 347.901 151.934 349.025 152.722 350.772C154.568 354.891 159.027 365.438 160.292 374.154C160.562 375.943 159.96 377.566 158.757 378.398C158.343 378.668 157.7 378.98 156.787 378.98ZM140.775 348.588C140.236 348.588 139.717 348.775 139.281 349.149C138.431 349.919 137.581 350.876 136.73 352.02C136.004 352.998 135.859 354.288 136.295 355.453C140.505 366.457 148.491 373.988 154.547 377.379C155.978 378.169 157.285 378.273 158.197 377.628C159.11 376.983 159.566 375.714 159.338 374.279C158.073 365.688 153.676 355.245 151.83 351.147C151.208 349.753 149.839 348.858 148.408 348.921C147.578 348.962 146.811 349.274 146.105 349.878C145.234 350.606 143.99 350.606 143.119 349.898L142.185 349.129C141.791 348.754 141.273 348.588 140.775 348.588Z" fill="#7A7A7A"></path>
  <path d="M157.575 375.485C156.787 375.485 148.429 374.986 138.286 354.891C138.162 354.662 138.265 354.392 138.494 354.267C138.722 354.142 138.991 354.246 139.116 354.475C149.279 374.632 157.513 374.57 157.596 374.57C157.866 374.57 158.073 374.757 158.073 375.007C158.073 375.257 157.887 375.485 157.638 375.485C157.617 375.485 157.596 375.485 157.575 375.485Z" fill="#7A7A7A"></path>
  <path d="M151.208 364.418C151.021 364.418 150.855 364.314 150.772 364.127C150.668 363.898 150.793 363.628 151.042 363.524L155.75 361.673C155.978 361.569 156.248 361.693 156.351 361.943C156.455 362.172 156.331 362.442 156.082 362.546L151.374 364.398C151.332 364.418 151.27 364.418 151.208 364.418Z" fill="#7A7A7A"></path>
  <path d="M149.569 360.82C149.382 360.82 149.217 360.716 149.134 360.528C149.051 360.3 149.154 360.029 149.403 359.925L154.92 357.762C155.149 357.678 155.418 357.782 155.522 358.032C155.605 358.261 155.501 358.531 155.252 358.635L149.735 360.799C149.673 360.799 149.631 360.82 149.569 360.82Z" fill="#7A7A7A"></path>
  <path d="M104.187 337.625C103.959 337.916 99.5621 357.72 99.5621 357.72L91.2656 352.02L95.5798 335.565L104.187 337.625Z" fill="#F2F2F7"></path>
  <path d="M99.5621 358.178C99.4792 358.178 99.3754 358.157 99.2925 358.095L90.996 352.395C90.8301 352.291 90.7678 352.083 90.8093 351.895L95.1235 335.441C95.1857 335.191 95.4346 335.045 95.6835 335.108L104.312 337.167C104.457 337.209 104.581 337.313 104.644 337.458C104.685 337.583 104.685 337.708 104.623 337.833C104.333 338.603 101.74 350.169 100.039 357.824C99.9977 357.97 99.894 358.095 99.7488 358.157C99.6658 358.178 99.6036 358.178 99.5621 358.178ZM91.7842 351.812L99.251 356.93C102.258 343.387 103.254 339.247 103.607 337.937L95.8909 336.085L91.7842 351.812Z" fill="#7A7A7A"></path>
  <path d="M97.5088 349.587C98.2763 349.379 99.2718 349.295 100.288 349.711C101.823 350.356 102.756 351.937 102.756 353.622C102.715 357.824 102.342 369.432 99.8526 377.899C98.9607 380.894 95.8081 382.184 93.3813 378.835C89.399 373.322 85.1056 362.963 85.9145 350.939C85.9975 349.566 86.7856 348.318 87.9886 347.652C88.9635 347.111 90.2494 346.487 91.5976 346.071C92.8835 345.676 94.2525 346.3 94.8332 347.506L95.3518 348.588C95.7044 349.42 96.617 349.836 97.5088 349.587Z" fill="#F2F2F7"></path>
  <path d="M96.5547 381.29C95.6421 381.29 94.2939 380.915 92.9872 379.105C88.8183 373.343 84.6285 362.9 85.4374 350.918C85.5411 349.358 86.4123 347.985 87.7397 347.257C89.0257 346.549 90.2701 345.988 91.4317 345.634C92.925 345.176 94.5221 345.884 95.2066 347.319L95.7251 348.401C96.0155 349.004 96.6999 349.337 97.3636 349.15C98.4422 348.858 99.5 348.9 100.454 349.295C102.113 349.982 103.213 351.729 103.192 353.643C103.15 358.178 102.756 369.619 100.267 378.044C99.7489 379.771 98.5459 380.998 97.094 381.248C96.9488 381.269 96.7621 381.29 96.5547 381.29ZM92.3443 346.424C92.1369 346.424 91.9087 346.466 91.6805 346.528C90.5813 346.861 89.399 347.381 88.1753 348.068C87.1175 348.65 86.433 349.753 86.3501 350.98C85.5619 362.734 89.6479 372.948 93.7339 378.564C94.688 379.896 95.8288 380.52 96.9488 380.333C98.0481 380.145 98.9815 379.168 99.3963 377.774C101.844 369.453 102.238 358.116 102.279 353.622C102.3 352.083 101.429 350.689 100.101 350.148C99.3341 349.836 98.5044 349.794 97.6125 350.044C96.534 350.335 95.3725 349.815 94.8954 348.796L94.3769 347.714C93.9828 346.903 93.1947 346.424 92.3443 346.424Z" fill="#7A7A7A"></path>
  <path d="M97.4672 378.19C97.405 378.19 97.3428 378.169 97.2805 378.149C96.9487 378.003 89.1707 374.467 88.3618 351.292C88.3618 351.043 88.5485 350.814 88.7974 350.814C89.0463 350.814 89.2744 351.001 89.2744 351.251C90.0626 373.822 97.5502 377.254 97.6331 377.275C97.8613 377.379 97.9857 377.649 97.882 377.878C97.8198 378.086 97.6539 378.19 97.4672 378.19Z" fill="#7A7A7A"></path>
  <path d="M101.367 365.75H101.346L96.3057 365.459C96.0568 365.438 95.8493 365.23 95.8701 364.96C95.8908 364.71 96.0982 364.502 96.3679 364.523L101.408 364.814C101.657 364.835 101.864 365.043 101.844 365.313C101.823 365.542 101.615 365.75 101.367 365.75Z" fill="#7A7A7A"></path>
  <path d="M102.259 361.839H102.238L96.3266 361.465C96.0778 361.444 95.8703 361.236 95.8911 360.966C95.9118 360.716 96.14 360.508 96.3889 360.529L102.3 360.903C102.549 360.924 102.756 361.132 102.736 361.403C102.694 361.652 102.487 361.839 102.259 361.839Z" fill="#7A7A7A"></path>
  <path d="M57.7686 259.574C57.7686 259.574 118.188 256.953 124.804 263.09C133.764 271.452 149.154 340.933 149.154 340.933L134.283 345.114C134.283 345.114 111.882 288.094 106.345 288.094C100.786 288.094 48.4766 286.222 48.4766 286.222L57.7686 259.574Z" fill="#7A7A7A"></path>
  <path d="M53.7655 258.055C48.9951 257.806 44.7224 261.009 43.6023 265.669C41.8601 272.887 40.346 282.769 44.2453 285.39C50.5921 289.675 96.3058 289.301 94.7087 288.781C93.1324 288.24 90.6227 327.203 90.6227 342.181L105.017 342.742C105.017 342.742 127.957 282.498 125.489 275.758C121.071 263.713 87.0137 260.968 76.1246 259.366C74.652 259.158 62.228 258.492 53.7655 258.055Z" fill="#7A7A7A"></path>
  <path d="M117.877 308.918C117.835 308.918 117.773 308.918 117.732 308.897C117.483 308.814 117.358 308.564 117.441 308.314C117.96 306.692 118.478 305.09 118.976 303.53C123 291.048 126.484 280.272 125.053 275.904C122.004 266.647 99.1268 263.11 91.6185 261.925C91.3696 261.883 91.2037 261.654 91.2244 261.404C91.2659 261.155 91.494 260.968 91.7429 261.009C105.017 263.069 123.021 266.834 125.924 275.613C127.459 280.252 124.099 290.653 119.868 303.821C119.37 305.381 118.852 306.983 118.333 308.585C118.271 308.793 118.084 308.918 117.877 308.918Z" fill="#F2F2F7"></path>
  <path d="M250.247 290.195L257.258 362.234L262.277 362.026L259.788 286.284L250.247 290.195Z" fill="#F2F2F7"></path>
  <path d="M257.258 362.692C257.03 362.692 256.822 362.505 256.801 362.276L249.791 290.237C249.77 290.029 249.895 289.841 250.081 289.758L259.622 285.847C259.767 285.785 259.913 285.806 260.058 285.889C260.182 285.972 260.265 286.118 260.265 286.263L262.754 362.006C262.754 362.255 262.567 362.463 262.319 362.484L257.258 362.692C257.278 362.692 257.278 362.692 257.258 362.692ZM250.745 290.486L257.693 361.756L261.8 361.59L259.353 286.991L250.745 290.486Z" fill="#7A7A7A"></path>
  <path d="M344.35 287.595L337.484 362.401L332.32 362.026L334.809 283.559L344.35 287.595Z" fill="#F2F2F7"></path>
  <path d="M337.484 362.879C337.464 362.879 337.464 362.879 337.443 362.879L332.278 362.484C332.029 362.463 331.843 362.255 331.843 362.006L334.332 283.538C334.332 283.393 334.415 283.247 334.539 283.164C334.664 283.081 334.83 283.06 334.975 283.122L344.516 287.158C344.702 287.241 344.806 287.428 344.785 287.636L337.941 362.442C337.941 362.692 337.733 362.879 337.484 362.879ZM332.797 361.59L337.07 361.922L343.852 287.886L335.244 284.246L332.797 361.59Z" fill="#7A7A7A"></path>
  <path d="M368.16 269.996L366.149 348.546L362.104 347.673L358.412 266.251L368.16 269.996Z" fill="#F2F2F7"></path>
  <path d="M366.149 349.004C366.107 349.004 366.087 349.004 366.045 348.983L362.001 348.11C361.793 348.068 361.648 347.881 361.627 347.673L357.915 266.251C357.915 266.106 357.977 265.939 358.101 265.856C358.226 265.773 358.392 265.752 358.537 265.794L368.306 269.538C368.493 269.601 368.617 269.788 368.596 269.975L366.584 348.526C366.584 348.671 366.522 348.796 366.398 348.879C366.356 348.983 366.253 349.004 366.149 349.004ZM362.561 347.298L365.713 347.985L367.704 270.308L358.91 266.938L362.561 347.298Z" fill="#7A7A7A"></path>
  <path d="M289.199 268.227L287.187 346.798L282.997 346.819L279.45 264.503L289.199 268.227Z" fill="#F2F2F7"></path>
  <path d="M282.997 347.277C282.748 347.277 282.541 347.09 282.541 346.84L278.994 264.524C278.994 264.379 279.056 264.212 279.181 264.129C279.305 264.046 279.471 264.025 279.616 264.067L289.385 267.811C289.572 267.874 289.697 268.061 289.676 268.248L287.664 346.799C287.664 347.048 287.457 347.256 287.208 347.256L282.997 347.277ZM279.948 265.19L283.454 346.362L286.751 346.341L288.743 268.56L279.948 265.19Z" fill="#7A7A7A"></path>
  <path d="M309.505 206.881V225.166C309.505 243.035 295.442 257.535 278.102 257.535C260.763 257.535 246.7 272.034 246.7 289.904C246.7 291.505 247.986 292.795 249.562 292.795H332.673C358.661 292.795 379.734 271.077 379.734 244.263V205.258C379.734 194.607 371.355 185.953 361.005 185.953H329.769C318.589 185.953 309.505 195.335 309.505 206.881Z" fill="#F2F2F7"></path>
  <path d="M332.673 293.253H249.562C247.717 293.253 246.223 291.755 246.223 289.904C246.223 271.805 260.514 257.077 278.082 257.077C295.131 257.077 309.028 242.765 309.028 225.166V206.881C309.028 195.086 318.34 185.496 329.79 185.496H361.026C371.604 185.496 380.211 194.358 380.211 205.258V244.263C380.211 271.265 358.889 293.253 332.673 293.253ZM329.79 186.432C318.859 186.432 309.961 195.606 309.961 206.901V225.187C309.961 243.285 295.67 258.013 278.102 258.013C261.053 258.013 247.156 272.326 247.156 289.925C247.156 291.256 248.235 292.338 249.562 292.338H332.673C358.371 292.338 379.278 270.786 379.278 244.284V205.258C379.278 194.878 371.085 186.432 361.026 186.432H329.79Z" fill="#7A7A7A"></path>
  <path d="M303.573 207.754C303.573 207.754 299.051 249.068 268.624 251.773L303.573 252.272C303.573 252.272 316.515 225.936 317.034 215.68C317.553 205.424 303.573 207.754 303.573 207.754Z" fill="#F2F2F7"></path>
  <path d="M303.573 252.709C303.552 252.709 303.552 252.709 303.573 252.709L268.624 252.21C268.375 252.21 268.188 252.002 268.167 251.773C268.167 251.523 268.333 251.315 268.582 251.294C284.076 249.921 292.621 238.168 297.081 228.557C301.934 218.073 303.116 207.796 303.116 207.692C303.137 207.484 303.303 207.318 303.49 207.276C303.801 207.214 311.309 206.028 315.229 209.523C316.868 210.979 317.635 213.059 317.49 215.68C316.972 225.915 304.506 251.377 303.967 252.438C303.905 252.626 303.739 252.709 303.573 252.709ZM273.705 251.357L303.282 251.773C304.631 249.006 316.08 225.125 316.578 215.639C316.702 213.309 316.038 211.499 314.628 210.23C311.475 207.422 305.481 207.962 303.988 208.15C303.739 210.084 302.328 219.425 297.931 228.931C292.29 241.101 283.972 248.777 273.705 251.357Z" fill="#7A7A7A"></path>
  <path d="M346.86 181.502C340.948 180.108 338.501 180.087 317.034 180.878C311.786 181.065 305.564 187.68 304.941 192.902C306.601 197.915 314.296 222.691 300.876 242.058C298.968 244.804 296.375 247.82 292.829 250.712C294.82 252.335 297.931 254.436 302.1 255.684C309.028 257.743 312.512 255.517 318.071 255.684C332.818 256.121 338.231 272.617 347.772 270.558C350.323 269.996 353.683 268.02 356.857 261.321C358.641 255.788 360.238 249.277 361.129 241.912C363.535 221.963 359.595 205.362 356.089 194.94C355.032 191.653 353.808 183.145 346.86 181.502Z" fill="#7A7A7A"></path>
  <path d="M299.57 212.373C299.57 212.373 303.034 184.435 313.031 182.063L310.729 218.801L299.57 212.373Z" fill="#7A7A7A"></path>
  <path d="M350.385 204.925C354.948 206.86 360.32 209.148 365.049 211.187C365.049 211.249 365.049 211.312 365.049 211.353L350.406 205.008L350.385 204.925Z" fill="#F2F2F7"></path>
  <path d="M365.029 211.832C364.967 211.832 364.904 211.811 364.842 211.79L350.199 205.446C350.033 205.383 349.929 205.217 349.929 205.05V204.946C349.929 204.78 349.991 204.634 350.137 204.551C350.261 204.468 350.427 204.447 350.572 204.509C356.152 206.881 361.212 209.044 365.236 210.771C365.402 210.833 365.506 211 365.506 211.187V211.374C365.506 211.541 365.423 211.686 365.298 211.77C365.215 211.79 365.133 211.832 365.029 211.832Z" fill="#7A7A7A"></path>
  <path d="M367.601 217.49C367.601 217.49 366.626 200.89 365.195 194.483C362.188 181.003 344.786 180.857 344.786 180.857L347.835 215.181L367.601 217.49Z" fill="#7A7A7A"></path>
  <path d="M329.789 178.568L329.209 170.185C328.814 170.164 328.524 170.143 328.462 170.143C326.139 170.123 325.371 169.353 325.164 167.439C325.04 166.232 324.998 164.443 325.579 162.218C325.641 161.989 325.62 161.718 325.537 161.489L325.143 160.553C325.06 160.241 325.164 159.908 325.413 159.721L325.62 159.555C326.388 158.931 327.01 158.161 327.528 157.308C327.985 156.518 328.794 155.041 329.333 154.791C330.868 154.063 337.09 150.797 340.554 156.497C343.271 160.949 338.832 167.065 337.235 169.082C336.841 169.561 339.87 179.068 339.87 179.068L343.769 180.004C343.769 180.004 340.761 185.371 331.614 183.145C325.102 181.564 326.139 179.13 326.139 179.13L329.789 178.568Z" fill="#F2F2F7"></path>
  <path d="M335.784 184.144C334.518 184.144 333.087 183.977 331.47 183.582C328.379 182.833 326.492 181.793 325.828 180.462C325.413 179.629 325.662 179.005 325.683 178.943C325.745 178.797 325.89 178.693 326.035 178.673L329.292 178.194L328.752 170.643C328.586 170.622 328.462 170.622 328.421 170.622C325.932 170.601 324.915 169.748 324.687 167.502C324.5 165.692 324.646 163.923 325.123 162.114C325.164 161.968 325.143 161.822 325.102 161.698L324.708 160.761C324.708 160.741 324.687 160.72 324.687 160.699C324.563 160.221 324.729 159.701 325.102 159.389L325.309 159.222C325.994 158.66 326.595 157.932 327.114 157.1L327.321 156.747C328.006 155.582 328.566 154.666 329.105 154.396L329.271 154.313C334.622 151.712 338.542 152.378 340.928 156.268C343.686 160.782 339.6 166.815 337.63 169.291C337.63 170.102 338.895 174.574 340.202 178.693L343.852 179.588C343.997 179.629 344.101 179.713 344.163 179.858C344.225 179.983 344.205 180.149 344.142 180.274C344.018 180.399 341.84 184.144 335.784 184.144ZM326.512 179.525C326.512 179.671 326.554 179.858 326.678 180.087C326.989 180.67 328.068 181.793 331.698 182.687C338.667 184.372 341.923 181.502 342.96 180.274L339.725 179.484C339.559 179.442 339.434 179.338 339.393 179.172C336.302 169.436 336.676 168.958 336.842 168.75C338.667 166.482 342.608 160.782 340.139 156.705C336.987 151.546 331.49 154.209 329.686 155.103L329.52 155.186C329.188 155.353 328.462 156.58 328.13 157.163L327.923 157.516C327.363 158.452 326.699 159.243 325.911 159.888L325.703 160.054C325.6 160.137 325.558 160.262 325.579 160.387L325.952 161.282C326.077 161.594 326.118 161.968 326.015 162.301C325.558 164.007 325.434 165.671 325.621 167.356C325.786 168.916 326.222 169.623 328.462 169.644C328.545 169.644 328.835 169.665 329.25 169.686C329.478 169.707 329.665 169.894 329.686 170.123L330.267 178.506C330.287 178.756 330.121 178.964 329.872 179.005L326.512 179.525Z" fill="#7A7A7A"></path>
  <path d="M338.604 149.216C336.924 148.842 334.975 149.112 334.166 148.8C332.838 148.322 332.818 146.72 330.992 146.283C328.794 145.742 327.86 146.699 326.989 148.01C326.844 148.238 326.72 148.467 326.616 148.758C325.226 152.503 326.989 154.313 327.757 154.916C327.757 154.916 332.735 157.496 333.585 158.224C334.373 158.91 335.307 160.554 334.726 162.883C334.643 163.195 334.788 163.507 335.037 163.653C335.327 163.84 335.721 163.757 335.929 163.445C336.572 162.509 337.982 160.678 338.998 161.115C340.264 161.656 339.87 165.463 337.09 165.9C336.24 166.025 335.535 166.919 335.618 167.814C335.68 168.396 336.219 169.103 337.049 169.291C337.547 169.415 338.044 169.207 338.48 168.916C340.305 167.751 345.428 162.821 346.05 158.39C346.818 153.065 340.844 149.695 338.604 149.216Z" fill="#7A7A7A"></path>
  <path d="M328.566 170.56C328.317 170.56 328.109 170.373 328.109 170.123C328.109 169.873 328.296 169.644 328.545 169.644C328.566 169.644 330.349 169.561 331.552 168.521C331.739 168.355 332.029 168.375 332.195 168.584C332.361 168.771 332.341 169.062 332.133 169.228C330.702 170.477 328.669 170.56 328.566 170.56C328.586 170.56 328.586 170.56 328.566 170.56Z" fill="#7A7A7A"></path>
  <path d="M288.722 338.956C287.872 338.082 282.956 322.751 282.956 322.751L273.249 329.699L283.889 344.053L288.722 338.956Z" fill="#F2F2F7"></path>
  <path d="M283.91 344.51H283.889C283.744 344.51 283.62 344.427 283.537 344.323L272.897 329.969C272.814 329.865 272.793 329.741 272.814 329.616C272.834 329.491 272.897 329.387 273 329.304L282.707 322.356C282.832 322.272 282.977 322.252 283.122 322.293C283.267 322.335 283.371 322.46 283.412 322.585C285.279 328.409 288.453 337.895 289.075 338.623C289.22 338.811 289.241 339.081 289.075 339.268L284.242 344.386C284.159 344.469 284.035 344.51 283.91 344.51ZM273.913 329.803L283.952 343.345L288.162 338.894C287.021 336.689 283.786 326.766 282.728 323.5L273.913 329.803Z" fill="#7A7A7A"></path>
  <path d="M271.237 358.344L277.688 358.303C281.96 358.282 285.922 356.098 288.266 352.499L294.654 342.347C296.417 339.539 295.421 335.836 292.518 334.276C289.863 332.861 287.063 331.467 286.399 331.53C285.072 331.655 284.532 337.958 284.532 337.958L278.787 338.187C278.787 338.187 275.945 350.044 273.436 351.396C271.611 352.374 270.345 353.83 269.495 355.141C268.603 356.535 269.599 358.365 271.237 358.344Z" fill="#7A7A7A"></path>
  <path d="M271.88 356.285C271.652 356.285 271.465 356.118 271.424 355.89C271.382 355.64 271.569 355.39 271.818 355.37L280.654 354.038C282.5 353.768 284.117 352.665 285.071 351.063L292.87 337.979C292.995 337.75 293.285 337.687 293.513 337.812C293.741 337.937 293.804 338.228 293.679 338.457L285.88 351.542C284.781 353.393 282.935 354.642 280.799 354.954L271.963 356.285C271.942 356.285 271.901 356.285 271.88 356.285Z" fill="#F2F2F7"></path>
  <path d="M282.79 346.445C282.749 346.445 282.707 346.445 282.666 346.425L277.75 345.073C277.501 345.01 277.356 344.76 277.418 344.511C277.48 344.261 277.729 344.116 277.978 344.178L282.894 345.53C283.143 345.593 283.288 345.842 283.226 346.092C283.184 346.3 282.998 346.445 282.79 346.445Z" fill="#F2F2F7"></path>
  <path d="M280.218 348.983C280.177 348.983 280.135 348.983 280.114 348.962L276.816 348.151C276.568 348.089 276.422 347.839 276.485 347.589C276.547 347.34 276.796 347.194 277.045 347.257L280.342 348.068C280.591 348.13 280.737 348.38 280.674 348.63C280.612 348.838 280.425 348.983 280.218 348.983Z" fill="#F2F2F7"></path>
  <path d="M255.598 336.024L244.336 347.382L238.362 345.177L248.754 330.636L255.598 336.024Z" fill="#F2F2F7"></path>
  <path d="M244.336 347.86C244.274 347.86 244.232 347.86 244.17 347.839L238.196 345.634C238.051 345.593 237.947 345.468 237.906 345.343C237.865 345.197 237.885 345.052 237.968 344.927L248.36 330.386C248.443 330.282 248.546 330.219 248.671 330.199C248.795 330.178 248.92 330.219 249.023 330.303L255.889 335.691C255.992 335.774 256.055 335.899 256.075 336.023C256.075 336.148 256.034 336.294 255.951 336.377L244.688 347.756C244.585 347.798 244.46 347.86 244.336 347.86ZM239.088 344.968L244.211 346.862L254.914 336.065L248.857 331.301L239.088 344.968Z" fill="#7A7A7A"></path>
  <path d="M315.271 252.085C315.271 252.085 263.77 245.74 248.443 259.761C233.136 273.782 272.627 334.068 272.627 334.068L285.113 324.27L273.27 281.666L320.892 267.375L315.271 252.085Z" fill="#F2F2F7"></path>
  <path d="M272.627 334.525C272.606 334.525 272.585 334.525 272.544 334.525C272.419 334.505 272.295 334.421 272.233 334.317C270.615 331.842 232.7 273.532 248.131 259.407C263.438 245.407 313.217 251.357 315.333 251.606C315.499 251.627 315.644 251.752 315.706 251.898L321.306 267.187C321.348 267.312 321.348 267.437 321.286 267.562C321.223 267.666 321.12 267.77 320.995 267.791L273.809 281.957L285.528 324.124C285.569 324.311 285.507 324.499 285.362 324.623L272.876 334.421C272.813 334.484 272.73 334.525 272.627 334.525ZM289.863 251.128C274.618 251.128 256.656 252.855 248.754 260.094C234.567 273.075 269.267 327.993 272.73 333.381L284.574 324.083L272.813 281.77C272.751 281.52 272.876 281.271 273.125 281.208L320.269 267.042L314.918 252.48C313.072 252.293 302.39 251.128 289.863 251.128Z" fill="#7A7A7A"></path>
  <path d="M343.624 279.815C336.136 282.332 322.758 285.577 304.05 285.307C298.74 285.223 293.824 288.344 291.418 293.336C285.88 304.819 273.871 325.518 254.333 338.936L245 333.61L268.81 276.923C270.988 271.743 275.054 267.728 280.073 265.773L327.28 247.467C327.28 247.467 341.923 243.14 349.1 256.953C350.386 259.428 352.771 255.018 353.331 256.994C355.26 263.838 350.033 277.672 343.624 279.815Z" fill="#F2F2F7"></path>
  <path d="M254.312 339.414C254.229 339.414 254.146 339.393 254.084 339.352L244.75 334.026C244.543 333.901 244.46 333.652 244.543 333.444L268.354 276.757C270.573 271.494 274.763 267.333 279.886 265.357L327.093 247.051C327.28 246.988 342.213 242.765 349.473 256.765C349.618 257.057 349.784 257.223 349.971 257.265C350.344 257.369 350.904 256.973 351.402 256.641C351.983 256.245 352.543 255.871 353.103 256.058C353.414 256.162 353.621 256.453 353.746 256.869C355.716 263.817 350.448 277.984 343.748 280.231C335.825 282.893 322.489 286.014 304.008 285.743C303.946 285.743 303.884 285.743 303.821 285.743C298.719 285.743 294.115 288.718 291.792 293.523C286.357 304.819 274.265 325.767 254.561 339.31C254.499 339.393 254.416 339.414 254.312 339.414ZM245.559 333.423L254.291 338.395C273.684 324.977 285.59 304.299 290.983 293.149C293.451 288.032 298.574 284.766 304.05 284.849C322.385 285.119 335.618 282.02 343.479 279.378C349.68 277.297 354.72 263.609 352.895 257.14C352.854 256.973 352.812 256.932 352.812 256.932C352.688 256.911 352.231 257.223 351.962 257.41C351.298 257.847 350.572 258.346 349.784 258.159C349.348 258.055 348.975 257.722 348.705 257.181C341.799 243.868 328.006 247.758 327.425 247.924L280.259 266.21C275.385 268.103 271.361 272.076 269.246 277.11L245.559 333.423Z" fill="#7A7A7A"></path>
  <path d="M247.903 345.613C247.903 345.613 248.442 350.46 247.53 354.725C247.032 357.013 244.999 358.615 242.676 358.615H215.008C213.037 358.615 212.125 356.139 213.659 354.87C218.575 350.731 227.618 344.407 238.756 342.555L241.868 346.924L247.903 345.613Z" fill="#7A7A7A"></path>
  <path d="M244.979 355.245H216.314C216.065 355.245 215.858 355.037 215.858 354.787C215.858 354.538 216.065 354.33 216.314 354.33H244.979C245.227 354.33 245.435 354.538 245.435 354.787C245.435 355.037 245.227 355.245 244.979 355.245Z" fill="#F2F2F7"></path>
  <path d="M232.306 350.127C232.119 350.127 231.953 350.023 231.87 349.836L230.356 346.133C230.253 345.904 230.377 345.634 230.605 345.53C230.833 345.426 231.103 345.551 231.207 345.779L232.721 349.482C232.824 349.711 232.7 349.982 232.472 350.086C232.43 350.127 232.368 350.127 232.306 350.127Z" fill="#F2F2F7"></path>
  <path d="M227.328 351.105C227.141 351.105 226.955 350.98 226.892 350.793L225.793 347.465C225.71 347.215 225.835 346.965 226.084 346.882C226.332 346.799 226.581 346.924 226.664 347.173L227.764 350.502C227.847 350.751 227.722 351.001 227.473 351.084C227.411 351.105 227.369 351.105 227.328 351.105Z" fill="#F2F2F7"></path>
  <path d="M352.937 214.287C347.917 232.634 333.004 244.346 311.351 250.504L314.648 256.682C344.723 255.621 360.487 242.516 366.792 217.365L352.937 214.287Z" fill="#F2F2F7"></path>
  <path d="M314.669 257.161C314.503 257.161 314.337 257.057 314.254 256.911L310.956 250.733C310.894 250.608 310.894 250.462 310.936 250.337C310.998 250.213 311.102 250.109 311.226 250.067C333.855 243.618 347.731 231.532 352.48 214.162C352.543 213.933 352.791 213.787 353.02 213.829L366.875 216.928C366.999 216.949 367.103 217.032 367.165 217.136C367.227 217.24 367.248 217.365 367.227 217.49C360.735 243.514 344.018 256.121 314.669 257.161ZM312.035 250.795L314.939 256.225C343.458 255.143 359.781 242.89 366.232 217.719L353.268 214.827C348.353 232.177 334.498 244.263 312.035 250.795Z" fill="#7A7A7A"></path>
  <path d="M316.494 250.005C316.183 249.401 315.665 248.923 315.042 248.694C314.586 248.528 314.15 248.32 313.715 248.091L307.824 244.95C306.725 244.409 305.149 245.678 304.008 246.052C300.544 247.196 293.409 249.88 293.99 252.397C294.633 255.122 300.772 253.832 302.95 253.271C303.448 253.146 307.97 254.789 309.401 254.893C311.371 255.039 311.827 254.54 312.802 254.04C313.238 253.812 313.736 253.707 314.254 253.707C315.063 253.707 315.851 253.354 316.349 252.73L316.37 252.709C316.93 252.002 317.033 251.045 316.619 250.233L316.494 250.005Z" fill="#F2F2F7"></path>
  <path d="M310.044 255.392C309.836 255.392 309.608 255.392 309.359 255.371C308.571 255.309 307.036 254.851 305.543 254.415C304.527 254.123 303.282 253.728 303.012 253.749C300.731 254.331 296.541 255.122 294.571 253.915C294.011 253.582 293.658 253.104 293.534 252.522C292.911 249.859 298.802 247.3 303.863 245.636C304.174 245.532 304.527 245.345 304.921 245.157C305.916 244.658 307.057 244.076 308.032 244.554L313.943 247.695C314.441 247.966 314.835 248.132 315.208 248.278C315.934 248.548 316.556 249.089 316.909 249.817L317.033 250.046C317.531 251.003 317.407 252.168 316.722 253.021C316.121 253.77 315.229 254.186 314.254 254.186C313.777 254.186 313.362 254.29 313.01 254.477C312.865 254.56 312.719 254.623 312.595 254.706C311.973 255.039 311.371 255.392 310.044 255.392ZM303.033 252.813C303.407 252.813 304.07 253 305.812 253.52C307.181 253.936 308.737 254.394 309.442 254.456C310.956 254.581 311.454 254.29 312.139 253.895C312.284 253.811 312.429 253.728 312.574 253.645C313.051 253.395 313.632 253.25 314.254 253.25C314.959 253.25 315.582 252.958 315.996 252.438C316.453 251.856 316.536 251.086 316.204 250.441L316.079 250.212C315.81 249.692 315.395 249.318 314.876 249.131C314.462 248.985 314.026 248.777 313.487 248.507L307.596 245.365C307.036 245.095 306.124 245.553 305.315 245.969C304.9 246.177 304.506 246.385 304.132 246.489C297.786 248.569 294.073 250.795 294.426 252.272C294.509 252.626 294.716 252.896 295.048 253.104C296.272 253.853 299.175 253.749 302.826 252.813C302.909 252.813 302.971 252.813 303.033 252.813Z" fill="#7A7A7A"></path>
  <path d="M96.5958 258.284H327.923C332.237 258.284 335.576 261.134 335.099 264.379L319.128 370.659H307.596L317.594 270.911C317.76 269.163 315.934 267.645 313.611 267.645H115.035C111.55 267.645 108.812 269.892 109.082 272.513L118.976 371.283H107.443L91.2031 262.881C90.8298 260.426 93.3602 258.284 96.5958 258.284Z" fill="#F2F2F7"></path>
  <path d="M118.976 371.741H107.443C107.215 371.741 107.029 371.575 106.987 371.346L90.7468 262.944C90.5808 261.862 90.9127 260.759 91.7008 259.865C92.8001 258.596 94.6461 257.826 96.6165 257.826H327.943C330.536 257.826 332.921 258.825 334.352 260.489C335.348 261.654 335.784 263.068 335.576 264.462L319.605 370.743C319.564 370.971 319.377 371.138 319.149 371.138H307.617C307.493 371.138 307.368 371.075 307.264 370.992C307.181 370.888 307.14 370.763 307.14 370.639L317.137 270.89C317.199 270.183 316.868 269.642 316.577 269.309C315.914 268.581 314.814 268.144 313.611 268.144H115.035C113.189 268.144 111.467 268.831 110.43 269.975C109.746 270.724 109.435 271.618 109.518 272.513L119.411 371.263C119.432 371.387 119.39 371.512 119.287 371.616C119.224 371.679 119.1 371.741 118.976 371.741ZM107.838 370.805H118.457L108.605 272.554C108.48 271.389 108.895 270.245 109.746 269.309C110.949 267.978 112.919 267.187 115.035 267.187H313.611C315.063 267.187 316.432 267.728 317.262 268.664C317.863 269.33 318.154 270.141 318.071 270.953L308.115 370.202H318.734L334.643 264.317C334.809 263.172 334.456 262.07 333.627 261.092C332.382 259.636 330.246 258.762 327.923 258.762H96.5958C94.8743 258.762 93.2979 259.407 92.3853 260.489C91.7838 261.196 91.5349 262.007 91.6594 262.84L107.838 370.805Z" fill="#7A7A7A"></path>
  <path d="M288.598 254.872L276.174 218.135C275.427 216.991 274.12 216.284 272.73 216.284H239.586C238.093 216.284 237.118 217.74 237.616 219.05C237.802 219.57 238.03 220.07 238.196 220.59L249.438 254.956C249.48 256.974 251.097 258.575 253.109 258.575H314.254C316.287 258.575 317.926 256.932 317.926 254.872H288.598Z" fill="#F2F2F7"></path>
  <path d="M314.254 259.033H253.109C250.89 259.033 249.065 257.244 248.982 255.039L237.761 220.736C237.636 220.382 237.491 220.007 237.367 219.654L237.201 219.217C236.91 218.468 237.014 217.615 237.491 216.929C237.968 216.221 238.756 215.826 239.627 215.826H272.772C274.327 215.826 275.759 216.596 276.609 217.886C276.63 217.927 276.65 217.948 276.65 217.99L288.971 254.415H317.925C318.174 254.415 318.382 254.623 318.382 254.873C318.402 257.161 316.536 259.033 314.254 259.033ZM249.853 254.748C249.873 254.81 249.894 254.873 249.894 254.935C249.936 256.682 251.367 258.097 253.109 258.097H314.254C315.872 258.097 317.22 256.89 317.428 255.33H288.597C288.39 255.33 288.224 255.205 288.162 255.018L275.759 218.322C275.095 217.324 273.975 216.721 272.73 216.721H239.586C239.026 216.721 238.528 216.97 238.217 217.428C237.927 217.844 237.864 218.385 238.03 218.843L238.196 219.279C238.341 219.654 238.487 220.028 238.611 220.424L249.853 254.748Z" fill="#7A7A7A"></path>
  <path d="M263.977 235.11C264.455 236.67 263.729 238.251 262.38 238.667C261.032 239.084 259.56 238.147 259.103 236.587C258.626 235.027 259.352 233.446 260.7 233.03C262.028 232.635 263.5 233.571 263.977 235.11Z" fill="#CDAF71"></path>
  <path d="M153.386 259.095H92.2406C90.5606 259.095 89.2124 257.743 89.2124 256.058V255.476H156.393V256.058C156.414 257.743 155.066 259.095 153.386 259.095Z" fill="#F2F2F7"></path>
  <path d="M153.386 259.553H92.2404C90.3114 259.553 88.7559 257.993 88.7559 256.058V255.476C88.7559 255.226 88.9633 255.018 89.2122 255.018H156.393C156.642 255.018 156.849 255.226 156.849 255.476V256.058C156.87 257.993 155.314 259.553 153.386 259.553ZM89.6892 255.954V256.079C89.6892 257.494 90.83 258.659 92.2611 258.659H153.406C154.817 258.659 155.978 257.514 155.978 256.079V255.954H89.6892Z" fill="#7A7A7A"></path>
  <path d="M156.414 255.538H117.96L130.177 219.467C130.902 218.343 132.188 217.657 133.557 217.657H166.059C167.531 217.657 168.486 219.092 168.009 220.361C167.822 220.86 167.614 221.36 167.449 221.88L156.414 255.538Z" fill="#F2F2F7"></path>
  <path d="M156.414 256.017H117.96C117.815 256.017 117.669 255.954 117.586 255.829C117.503 255.704 117.483 255.559 117.524 255.413L129.741 219.342C129.761 219.3 129.761 219.279 129.782 219.238C130.612 217.969 132.002 217.22 133.536 217.22H166.038C166.888 217.22 167.656 217.615 168.133 218.301C168.589 218.967 168.693 219.799 168.402 220.548L168.236 220.985C168.091 221.339 167.967 221.692 167.842 222.046L156.829 255.704C156.787 255.871 156.621 256.017 156.414 256.017ZM118.603 255.08H156.061L166.971 221.734C167.096 221.359 167.241 220.985 167.386 220.631L167.552 220.215C167.718 219.758 167.656 219.238 167.365 218.822C167.054 218.385 166.577 218.135 166.038 218.135H133.557C132.354 218.135 131.255 218.717 130.612 219.695L118.603 255.08Z" fill="#7A7A7A"></path>
  <path d="M142.144 236.129C141.688 237.648 142.393 239.208 143.7 239.624C145.027 240.019 146.458 239.104 146.914 237.585C147.371 236.067 146.665 234.506 145.359 234.09C144.052 233.695 142.6 234.59 142.144 236.129Z" fill="#CDAF71"></path>
  <path d="M367.601 372.989H304.651C300.876 372.989 298.035 369.515 298.802 365.792L308.364 319.215C309.173 315.304 312.595 312.496 316.598 312.496H370.608L367.601 372.989Z" fill="#F2F2F7"></path>
  <path d="M367.601 373.468H304.651C302.702 373.468 300.897 372.594 299.673 371.096C298.45 369.578 297.973 367.622 298.367 365.729L307.928 319.152C308.779 315.033 312.429 312.059 316.598 312.059H370.608C370.733 312.059 370.857 312.121 370.94 312.204C371.023 312.287 371.065 312.412 371.065 312.537L368.078 373.031C368.057 373.26 367.85 373.468 367.601 373.468ZM316.577 312.974C312.823 312.974 309.567 315.657 308.799 319.339L299.259 365.896C298.927 367.518 299.341 369.203 300.379 370.493C301.436 371.783 302.992 372.532 304.651 372.532H367.165L370.09 312.974H316.577Z" fill="#7A7A7A"></path>
  <path d="M375.669 372.989H363.452C359.677 372.989 356.836 369.515 357.603 365.792L368.119 314.513C368.368 313.348 369.384 312.516 370.567 312.516H373.699C375.005 312.516 376.084 313.515 376.187 314.825L380.481 367.726C380.751 370.576 378.511 372.989 375.669 372.989Z" fill="#F2F2F7"></path>
  <path d="M375.669 373.468H363.452C361.503 373.468 359.698 372.594 358.475 371.096C357.251 369.578 356.774 367.622 357.168 365.729L367.684 314.43C367.974 313.057 369.177 312.059 370.587 312.059H373.719C375.254 312.059 376.54 313.265 376.665 314.784L380.958 367.685C381.083 369.162 380.564 370.639 379.568 371.741C378.573 372.844 377.162 373.468 375.669 373.468ZM370.587 312.974C369.633 312.974 368.783 313.66 368.596 314.617L358.081 365.916C357.749 367.539 358.163 369.224 359.201 370.514C360.258 371.804 361.814 372.552 363.473 372.552H375.69C376.934 372.552 378.075 372.053 378.925 371.138C379.776 370.223 380.17 369.037 380.066 367.789L375.773 314.888C375.69 313.827 374.798 313.016 373.74 313.016H370.587V312.974Z" fill="#7A7A7A"></path>
  <path d="M359.035 337.417H309.733C309.484 337.417 309.276 337.209 309.276 336.959C309.276 336.71 309.484 336.502 309.733 336.502H359.035C360.279 336.502 361.358 335.649 361.648 334.422L365.983 316.032C366.045 315.782 366.294 315.637 366.543 315.678C366.792 315.741 366.937 315.99 366.895 316.24L362.561 334.63C362.166 336.273 360.715 337.417 359.035 337.417Z" fill="#7A7A7A"></path>
  <path d="M340.015 336.959L338.625 342.555C338.397 343.491 337.567 344.178 336.592 344.178H326.823C325.766 344.178 324.998 343.159 325.268 342.139L326.699 336.98H340.015V336.959Z" fill="#F2F2F7"></path>
  <path d="M336.593 344.615H326.824C326.181 344.615 325.579 344.324 325.185 343.804C324.791 343.284 324.666 342.618 324.832 341.994L326.263 336.835C326.326 336.627 326.492 336.502 326.699 336.502H339.994C340.139 336.502 340.264 336.564 340.368 336.689C340.45 336.793 340.492 336.939 340.45 337.084L339.061 342.68C338.812 343.804 337.775 344.615 336.593 344.615ZM327.072 337.417L325.745 342.243C325.641 342.597 325.724 342.951 325.932 343.242C326.16 343.533 326.492 343.7 326.844 343.7H336.613C337.381 343.7 338.024 343.18 338.19 342.452L339.434 337.438H327.072V337.417Z" fill="#7A7A7A"></path>
  <path d="M354.534 368.787H302.162C301.913 368.787 301.706 368.579 301.706 368.33C301.706 368.08 301.913 367.872 302.162 367.872H354.534C354.783 367.872 354.99 368.08 354.99 368.33C354.99 368.579 354.783 368.787 354.534 368.787Z" fill="#7A7A7A"></path>
  <path d="M329.022 310.395H324.936C323.837 310.395 322.945 311.289 322.945 312.392H331.034C331.034 311.289 330.121 310.395 329.022 310.395Z" fill="#7A7A7A"></path>
  <path d="M331.034 312.87H322.945C322.696 312.87 322.489 312.662 322.489 312.413C322.489 311.06 323.588 309.937 324.957 309.937H329.043C330.391 309.937 331.511 311.04 331.511 312.413C331.49 312.662 331.283 312.87 331.034 312.87ZM323.464 311.934H330.495C330.308 311.31 329.707 310.852 329.022 310.852H324.936C324.252 310.852 323.671 311.31 323.464 311.934Z" fill="#7A7A7A"></path>
  <path d="M361.793 310.395H357.707C356.608 310.395 355.716 311.289 355.716 312.392H363.805C363.785 311.289 362.893 310.395 361.793 310.395Z" fill="#7A7A7A"></path>
  <path d="M363.785 312.87H355.696C355.447 312.87 355.239 312.662 355.239 312.413C355.239 311.06 356.339 309.937 357.707 309.937H361.793C363.142 309.937 364.262 311.04 364.262 312.413C364.241 312.662 364.034 312.87 363.785 312.87ZM356.235 311.934H363.266C363.079 311.31 362.478 310.852 361.793 310.852H357.707C357.002 310.852 356.421 311.31 356.235 311.934Z" fill="#7A7A7A"></path>
  <path d="M360.715 310.291L361.379 306.359C361.856 303.571 359.968 301.325 357.21 301.325H332.694C329.914 301.325 327.301 303.571 326.824 306.359L326.16 310.291H328.027L328.545 307.233C328.919 305.069 330.951 303.301 333.108 303.301H356.09C358.247 303.301 359.699 305.048 359.346 307.233L358.828 310.291H360.715Z" fill="#F2F2F7"></path>
  <path d="M360.715 310.748H358.848C358.703 310.748 358.579 310.686 358.496 310.582C358.413 310.478 358.371 310.332 358.392 310.208L358.91 307.15C359.056 306.234 358.848 305.361 358.309 304.736C357.79 304.112 357.002 303.78 356.11 303.78H333.129C331.179 303.78 329.334 305.361 329.022 307.316L328.504 310.374C328.462 310.603 328.276 310.769 328.048 310.769H326.181C326.036 310.769 325.911 310.707 325.828 310.603C325.745 310.499 325.704 310.353 325.725 310.228L326.388 306.297C326.886 303.301 329.728 300.867 332.714 300.867H357.23C358.703 300.867 359.989 301.45 360.86 302.49C361.752 303.551 362.105 304.965 361.856 306.463L361.192 310.395C361.13 310.582 360.943 310.748 360.715 310.748ZM359.388 309.833H360.321L360.922 306.297C361.13 305.069 360.839 303.925 360.134 303.093C359.429 302.261 358.392 301.803 357.21 301.803H332.694C330.142 301.803 327.716 303.884 327.28 306.463L326.72 309.854H327.653L328.11 307.191C328.504 304.82 330.765 302.885 333.129 302.885H356.11C357.293 302.885 358.309 303.343 359.014 304.175C359.74 305.028 360.01 306.151 359.823 307.337L359.388 309.833Z" fill="#7A7A7A"></path>
  <path d="M355.986 299.702H334.457C333.586 299.702 332.777 300.409 332.611 301.283L332.3 303.176C332.154 304.05 332.735 304.757 333.606 304.757H355.136C356.007 304.757 356.816 304.05 356.982 303.176L357.293 301.283C357.438 300.409 356.857 299.702 355.986 299.702Z" fill="#7A7A7A"></path>
  <path d="M355.135 305.194H333.606C333.046 305.194 332.569 304.965 332.216 304.57C331.885 304.175 331.739 303.634 331.843 303.072L332.154 301.179C332.341 300.077 333.336 299.224 334.436 299.224H355.965C356.525 299.224 357.002 299.452 357.355 299.848C357.687 300.243 357.832 300.784 357.728 301.345L357.417 303.239C357.251 304.341 356.235 305.194 355.135 305.194ZM334.456 300.16C333.813 300.16 333.191 300.701 333.067 301.345L332.756 303.239C332.714 303.53 332.776 303.8 332.942 303.987C333.108 304.175 333.336 304.279 333.627 304.279H355.156C355.799 304.279 356.421 303.738 356.546 303.093L356.857 301.2C356.898 300.909 356.836 300.638 356.67 300.451C356.504 300.264 356.276 300.16 355.986 300.16H334.456Z" fill="#7A7A7A"></path>
  <path d="M363.349 368.787C363.183 368.787 363.038 368.704 362.955 368.559C362.831 368.33 362.913 368.059 363.121 367.935L371.334 363.254V316.157C371.334 315.907 371.542 315.699 371.791 315.699C372.04 315.699 372.247 315.907 372.247 316.157V363.524C372.247 363.691 372.164 363.836 372.019 363.92L363.577 368.746C363.494 368.767 363.411 368.787 363.349 368.787Z" fill="#7A7A7A"></path>
</svg>
